<svg  viewBox="0 0 338 174" fill="none" xmlns="http://www.w3.org/2000/svg">
<path d="M66.4091 40V28.3636H70.3409C71.2538 28.3636 72 28.5284 72.5795 28.858C73.1629 29.1837 73.5947 29.625 73.875 30.1818C74.1553 30.7386 74.2955 31.3598 74.2955 32.0455C74.2955 32.7311 74.1553 33.3542 73.875 33.9148C73.5985 34.4754 73.1705 34.9223 72.5909 35.2557C72.0114 35.5852 71.2689 35.75 70.3636 35.75H67.5455V34.5H70.3182C70.9432 34.5 71.4451 34.392 71.8239 34.1761C72.2027 33.9602 72.4773 33.6686 72.6477 33.3011C72.822 32.9299 72.9091 32.5114 72.9091 32.0455C72.9091 31.5795 72.822 31.1629 72.6477 30.7955C72.4773 30.428 72.2008 30.1402 71.8182 29.9318C71.4356 29.7197 70.928 29.6136 70.2955 29.6136H67.8182V40H66.4091ZM88.2585 39.2727L87.3835 38.4091L90.9858 34.8068H81.6562V33.5568H90.9858L87.3835 29.9659L88.2585 29.0909L93.3494 34.1818L88.2585 39.2727ZM105.058 36.3636H106.604L107.899 38.0682L108.24 38.5227L110.172 41.0909H108.626L107.354 39.3864L107.036 38.9545L105.058 36.3636ZM110.649 34.1818C110.649 35.4091 110.428 36.4697 109.984 37.3636C109.541 38.2576 108.933 38.947 108.161 39.4318C107.388 39.9167 106.505 40.1591 105.513 40.1591C104.52 40.1591 103.638 39.9167 102.865 39.4318C102.092 38.947 101.484 38.2576 101.041 37.3636C100.598 36.4697 100.376 35.4091 100.376 34.1818C100.376 32.9545 100.598 31.8939 101.041 31C101.484 30.1061 102.092 29.4167 102.865 28.9318C103.638 28.447 104.52 28.2045 105.513 28.2045C106.505 28.2045 107.388 28.447 108.161 28.9318C108.933 29.4167 109.541 30.1061 109.984 31C110.428 31.8939 110.649 32.9545 110.649 34.1818ZM109.286 34.1818C109.286 33.1742 109.117 32.3239 108.78 31.6307C108.446 30.9375 107.994 30.4129 107.422 30.0568C106.854 29.7008 106.217 29.5227 105.513 29.5227C104.808 29.5227 104.17 29.7008 103.598 30.0568C103.03 30.4129 102.577 30.9375 102.24 31.6307C101.907 32.3239 101.74 33.1742 101.74 34.1818C101.74 35.1894 101.907 36.0398 102.24 36.733C102.577 37.4261 103.03 37.9508 103.598 38.3068C104.17 38.6629 104.808 38.8409 105.513 38.8409C106.217 38.8409 106.854 38.6629 107.422 38.3068C107.994 37.9508 108.446 37.4261 108.78 36.733C109.117 36.0398 109.286 35.1894 109.286 34.1818Z" fill="#008EBB"/>
<path d="M47.9716 31.2727V40H46.9148V32.3807H46.8636L44.733 33.7955V32.7216L46.9148 31.2727H47.9716ZM50.7159 40.0682C50.5057 40.0682 50.3253 39.9929 50.1747 39.8423C50.0241 39.6918 49.9489 39.5114 49.9489 39.3011C49.9489 39.0909 50.0241 38.9105 50.1747 38.7599C50.3253 38.6094 50.5057 38.5341 50.7159 38.5341C50.9261 38.5341 51.1065 38.6094 51.2571 38.7599C51.4077 38.9105 51.483 39.0909 51.483 39.3011C51.483 39.4403 51.4474 39.5682 51.3764 39.6847C51.3082 39.8011 51.2159 39.8949 51.0994 39.9659C50.9858 40.0341 50.858 40.0682 50.7159 40.0682Z" fill="#008EBB"/>
<path d="M44.9034 64V63.233L47.7841 60.0795C48.1222 59.7102 48.4006 59.3892 48.6193 59.1165C48.8381 58.8409 49 58.5824 49.1051 58.3409C49.2131 58.0966 49.267 57.8409 49.267 57.5739C49.267 57.267 49.1932 57.0014 49.0455 56.777C48.9006 56.5526 48.7017 56.3793 48.4489 56.2571C48.196 56.1349 47.9119 56.0739 47.5966 56.0739C47.2614 56.0739 46.9688 56.1435 46.7188 56.2827C46.4716 56.419 46.2798 56.6108 46.1435 56.858C46.0099 57.1051 45.9432 57.3949 45.9432 57.7273H44.9375C44.9375 57.2159 45.0554 56.767 45.2912 56.3807C45.527 55.9943 45.848 55.6932 46.2543 55.4773C46.6634 55.2614 47.1222 55.1534 47.6307 55.1534C48.142 55.1534 48.5952 55.2614 48.9901 55.4773C49.3849 55.6932 49.6946 55.9844 49.919 56.3509C50.1435 56.7173 50.2557 57.125 50.2557 57.5739C50.2557 57.8949 50.1974 58.2088 50.081 58.5156C49.9673 58.8196 49.7685 59.1591 49.4844 59.5341C49.2031 59.9062 48.8125 60.3608 48.3125 60.8977L46.3523 62.9943V63.0625H50.4091V64H44.9034ZM52.919 64.0682C52.7088 64.0682 52.5284 63.9929 52.3778 63.8423C52.2273 63.6918 52.152 63.5114 52.152 63.3011C52.152 63.0909 52.2273 62.9105 52.3778 62.7599C52.5284 62.6094 52.7088 62.5341 52.919 62.5341C53.1293 62.5341 53.3097 62.6094 53.4602 62.7599C53.6108 62.9105 53.6861 63.0909 53.6861 63.3011C53.6861 63.4403 53.6506 63.5682 53.5795 63.6847C53.5114 63.8011 53.419 63.8949 53.3026 63.9659C53.1889 64.0341 53.0611 64.0682 52.919 64.0682Z" fill="#008EBB"/>
<path d="M47.8523 133.119C47.2898 133.119 46.7884 133.023 46.348 132.83C45.9105 132.636 45.5625 132.368 45.304 132.024C45.0483 131.678 44.9091 131.276 44.8864 130.818H45.9602C45.983 131.099 46.0795 131.342 46.25 131.547C46.4205 131.749 46.6435 131.905 46.919 132.016C47.1946 132.126 47.5 132.182 47.8352 132.182C48.2102 132.182 48.5426 132.116 48.8324 131.986C49.1222 131.855 49.3494 131.673 49.5142 131.44C49.679 131.207 49.7614 130.938 49.7614 130.631C49.7614 130.31 49.6818 130.027 49.5227 129.783C49.3636 129.536 49.1307 129.342 48.8239 129.203C48.517 129.064 48.142 128.994 47.6989 128.994H47V128.057H47.6989C48.0455 128.057 48.3494 127.994 48.6108 127.869C48.875 127.744 49.081 127.568 49.2287 127.341C49.3793 127.114 49.4545 126.847 49.4545 126.54C49.4545 126.244 49.3892 125.987 49.2585 125.768C49.1278 125.55 48.9432 125.379 48.7045 125.257C48.4688 125.135 48.1903 125.074 47.8693 125.074C47.5682 125.074 47.2841 125.129 47.017 125.24C46.7528 125.348 46.5369 125.506 46.3693 125.713C46.2017 125.918 46.1108 126.165 46.0966 126.455H45.0739C45.0909 125.997 45.2287 125.597 45.4872 125.253C45.7457 124.906 46.0838 124.636 46.5014 124.443C46.9219 124.25 47.3835 124.153 47.8864 124.153C48.4261 124.153 48.8892 124.263 49.2756 124.482C49.6619 124.697 49.9588 124.983 50.1662 125.338C50.3736 125.693 50.4773 126.077 50.4773 126.489C50.4773 126.98 50.348 127.399 50.0895 127.746C49.8338 128.092 49.4858 128.332 49.0455 128.466V128.534C49.5966 128.625 50.027 128.859 50.3366 129.237C50.6463 129.612 50.8011 130.077 50.8011 130.631C50.8011 131.105 50.6719 131.531 50.4134 131.909C50.1577 132.284 49.8082 132.58 49.3651 132.795C48.9219 133.011 48.4176 133.119 47.8523 133.119ZM53.0245 133.068C52.8143 133.068 52.6339 132.993 52.4833 132.842C52.3327 132.692 52.2575 132.511 52.2575 132.301C52.2575 132.091 52.3327 131.911 52.4833 131.76C52.6339 131.609 52.8143 131.534 53.0245 131.534C53.2347 131.534 53.4151 131.609 53.5657 131.76C53.7163 131.911 53.7915 132.091 53.7915 132.301C53.7915 132.44 53.756 132.568 53.685 132.685C53.6168 132.801 53.5245 132.895 53.408 132.966C53.2944 133.034 53.1665 133.068 53.0245 133.068Z" fill="#008EBB"/>
<path d="M75.5909 60.7045V62.0455H69.0682V60.7045H75.5909ZM75.5909 61.3182V64.0682H74.0227V61.3182H75.5909ZM82.277 63.3636H83.8224L85.1179 65.0682L85.4588 65.5227L87.3906 68.0909H85.8452L84.5724 66.3864L84.2543 65.9545L82.277 63.3636ZM87.8679 61.1818C87.8679 62.4091 87.6463 63.4697 87.2031 64.3636C86.7599 65.2576 86.152 65.947 85.3793 66.4318C84.6065 66.9167 83.724 67.1591 82.7315 67.1591C81.7391 67.1591 80.8565 66.9167 80.0838 66.4318C79.3111 65.947 78.7031 65.2576 78.2599 64.3636C77.8168 63.4697 77.5952 62.4091 77.5952 61.1818C77.5952 59.9545 77.8168 58.8939 78.2599 58C78.7031 57.1061 79.3111 56.4167 80.0838 55.9318C80.8565 55.447 81.7391 55.2045 82.7315 55.2045C83.724 55.2045 84.6065 55.447 85.3793 55.9318C86.152 56.4167 86.7599 57.1061 87.2031 58C87.6463 58.8939 87.8679 59.9545 87.8679 61.1818ZM86.5043 61.1818C86.5043 60.1742 86.3357 59.3239 85.9986 58.6307C85.6652 57.9375 85.2126 57.4129 84.6406 57.0568C84.0724 56.7008 83.4361 56.5227 82.7315 56.5227C82.027 56.5227 81.3887 56.7008 80.8168 57.0568C80.2486 57.4129 79.7959 57.9375 79.4588 58.6307C79.1255 59.3239 78.9588 60.1742 78.9588 61.1818C78.9588 62.1894 79.1255 63.0398 79.4588 63.733C79.7959 64.4261 80.2486 64.9508 80.8168 65.3068C81.3887 65.6629 82.027 65.8409 82.7315 65.8409C83.4361 65.8409 84.0724 65.6629 84.6406 65.3068C85.2126 64.9508 85.6652 64.4261 85.9986 63.733C86.3357 63.0398 86.5043 62.1894 86.5043 61.1818Z" fill="#008EBB"/>
<path d="M95.5909 89.7045V91.0455H89.0682V89.7045H95.5909ZM95.5909 90.3182V93.0682H94.0227V90.3182H95.5909ZM98.0497 96V84.3636H101.982C102.894 84.3636 103.641 84.5284 104.22 84.858C104.804 85.1837 105.235 85.625 105.516 86.1818C105.796 86.7386 105.936 87.3598 105.936 88.0455C105.936 88.7311 105.796 89.3542 105.516 89.9148C105.239 90.4754 104.811 90.9223 104.232 91.2557C103.652 91.5852 102.91 91.75 102.004 91.75H99.1861V90.5H101.959C102.584 90.5 103.086 90.392 103.464 90.1761C103.843 89.9602 104.118 89.6686 104.288 89.3011C104.463 88.9299 104.55 88.5114 104.55 88.0455C104.55 87.5795 104.463 87.1629 104.288 86.7955C104.118 86.428 103.841 86.1402 103.459 85.9318C103.076 85.7197 102.569 85.6136 101.936 85.6136H99.4588V96H98.0497Z" fill="#008EBB"/>
<path d="M85.5909 127.705V129.045H79.0682V127.705H85.5909ZM85.5909 128.318V131.068H84.0227V128.318H85.5909ZM88.0497 134V122.364H91.9815C92.8944 122.364 93.6406 122.528 94.2202 122.858C94.8035 123.184 95.2353 123.625 95.5156 124.182C95.7959 124.739 95.9361 125.36 95.9361 126.045C95.9361 126.731 95.7959 127.354 95.5156 127.915C95.2391 128.475 94.8111 128.922 94.2315 129.256C93.652 129.585 92.9096 129.75 92.0043 129.75H89.1861V128.5H91.9588C92.5838 128.5 93.0857 128.392 93.4645 128.176C93.8433 127.96 94.1179 127.669 94.2884 127.301C94.4626 126.93 94.5497 126.511 94.5497 126.045C94.5497 125.58 94.4626 125.163 94.2884 124.795C94.1179 124.428 93.8414 124.14 93.4588 123.932C93.0762 123.72 92.5687 123.614 91.9361 123.614H89.4588V134H88.0497Z" fill="#008EBB"/>
<path d="M59.7086 94.5003C59.8001 94.5953 59.8716 94.7077 59.9189 94.8308C59.9662 94.9539 59.9883 95.0852 59.9839 95.217C59.9882 95.3495 59.9652 95.4814 59.9165 95.6047C59.8677 95.7279 59.7942 95.8399 59.7005 95.9336C59.6068 96.0273 59.4948 96.1008 59.3716 96.1496C59.2483 96.1983 59.1164 96.2213 58.9839 96.217C58.8527 96.2218 58.7219 96.1991 58.5999 96.1503C58.478 96.1015 58.3676 96.0277 58.2759 95.9337C58.1843 95.8388 58.1127 95.7264 58.0654 95.6033C58.0181 95.4802 57.9961 95.3488 58.0006 95.217C57.9964 95.0846 58.0194 94.9527 58.0682 94.8295C58.117 94.7062 58.1905 94.5943 58.2842 94.5006C58.3779 94.4069 58.4898 94.3334 58.613 94.2846C58.7362 94.2359 58.8681 94.2128 59.0006 94.217C59.1318 94.2124 59.2626 94.2352 59.3845 94.2839C59.5064 94.3327 59.6168 94.4064 59.7086 94.5003ZM62.1506 88.0003C62.1466 87.8672 62.1706 87.7348 62.2208 87.6115C62.2711 87.4881 62.3467 87.3767 62.4426 87.2843C62.5383 87.191 62.6517 87.1177 62.7761 87.0689C62.9006 87.0202 63.0336 86.9968 63.1672 87.0003C63.2964 86.9993 63.4244 87.0247 63.5434 87.0749C63.6624 87.1251 63.7699 87.1991 63.8592 87.2923C63.9751 87.4087 64.0606 87.5519 64.108 87.7092C64.1554 87.8664 64.1634 88.0329 64.1312 88.194C64.0989 88.3551 64.0276 88.5057 63.9233 88.6326C63.819 88.7596 63.6851 88.8588 63.5334 88.9217C63.3816 88.9846 63.2167 89.0091 63.0533 88.9931C62.8898 88.9772 62.7328 88.9211 62.5961 88.8301C62.4594 88.739 62.3472 88.6156 62.2695 88.4709C62.1918 88.3262 62.151 88.1646 62.1506 88.0003ZM68.0339 95.9337C67.9401 96.0273 67.8282 96.1008 67.7049 96.1495C67.5816 96.1982 67.4497 96.2212 67.3172 96.217C67.186 96.2218 67.0552 96.1991 66.9332 96.1503C66.8113 96.1015 66.7009 96.0277 66.6092 95.9337C66.5176 95.8388 66.446 95.7264 66.3987 95.6033C66.3514 95.4802 66.3294 95.3488 66.3339 95.217C66.3297 95.0846 66.3528 94.9527 66.4015 94.8295C66.4503 94.7062 66.5238 94.5943 66.6175 94.5006C66.7112 94.4069 66.8231 94.3334 66.9464 94.2846C67.0696 94.2359 67.2015 94.2128 67.3339 94.217C67.4637 94.214 67.5928 94.2376 67.7132 94.2863C67.8336 94.335 67.9427 94.4079 68.0339 94.5003C68.216 94.6946 68.3173 94.9508 68.3173 95.217C68.3173 95.4832 68.216 95.7394 68.0339 95.9337Z" fill="#404040"/>
<path d="M157.634 125.818V136H156.401V127.111H156.341L153.855 128.761V127.509L156.401 125.818H157.634ZM161.73 134.608L161.651 135.145C161.594 135.523 161.508 135.927 161.392 136.358C161.279 136.789 161.162 137.195 161.039 137.576C160.916 137.957 160.815 138.26 160.736 138.486H159.841C159.884 138.274 159.94 137.994 160.01 137.646C160.08 137.298 160.149 136.908 160.219 136.477C160.292 136.05 160.351 135.612 160.398 135.165L160.457 134.608H161.73ZM167.822 136V135.105L171.182 131.426C171.577 130.995 171.902 130.621 172.157 130.303C172.412 129.981 172.601 129.679 172.724 129.398C172.849 129.113 172.912 128.814 172.912 128.503C172.912 128.145 172.826 127.835 172.654 127.573C172.485 127.311 172.253 127.109 171.958 126.967C171.663 126.824 171.331 126.753 170.964 126.753C170.573 126.753 170.231 126.834 169.939 126.996C169.651 127.156 169.427 127.379 169.268 127.668C169.113 127.956 169.035 128.294 169.035 128.682H167.861C167.861 128.085 167.999 127.562 168.274 127.111C168.549 126.66 168.924 126.309 169.398 126.057C169.875 125.805 170.41 125.679 171.003 125.679C171.6 125.679 172.129 125.805 172.589 126.057C173.05 126.309 173.411 126.648 173.673 127.076C173.935 127.504 174.066 127.979 174.066 128.503C174.066 128.877 173.998 129.244 173.862 129.602C173.729 129.956 173.497 130.352 173.166 130.79C172.838 131.224 172.382 131.754 171.799 132.381L169.512 134.827V134.906H174.245V136H167.822Z" fill="#008EBB"/>
<path d="M223.233 125.818H224.705L228.165 134.27H228.284L231.744 125.818H233.216V136H232.062V128.264H231.963L228.781 136H227.668L224.486 128.264H224.386V136H223.233V125.818ZM238.631 136.159C237.942 136.159 237.337 135.995 236.817 135.667C236.3 135.339 235.895 134.88 235.604 134.29C235.315 133.7 235.171 133.01 235.171 132.222C235.171 131.426 235.315 130.732 235.604 130.138C235.895 129.545 236.3 129.085 236.817 128.756C237.337 128.428 237.942 128.264 238.631 128.264C239.321 128.264 239.924 128.428 240.441 128.756C240.961 129.085 241.366 129.545 241.654 130.138C241.946 130.732 242.091 131.426 242.091 132.222C242.091 133.01 241.946 133.7 241.654 134.29C241.366 134.88 240.961 135.339 240.441 135.667C239.924 135.995 239.321 136.159 238.631 136.159ZM238.631 135.105C239.155 135.105 239.586 134.971 239.924 134.702C240.262 134.434 240.512 134.081 240.675 133.643C240.837 133.206 240.918 132.732 240.918 132.222C240.918 131.711 240.837 131.236 240.675 130.795C240.512 130.354 240.262 129.998 239.924 129.726C239.586 129.454 239.155 129.318 238.631 129.318C238.108 129.318 237.677 129.454 237.339 129.726C237.001 129.998 236.75 130.354 236.588 130.795C236.425 131.236 236.344 131.711 236.344 132.222C236.344 132.732 236.425 133.206 236.588 133.643C236.75 134.081 237.001 134.434 237.339 134.702C237.677 134.971 238.108 135.105 238.631 135.105ZM246.766 136.159C246.13 136.159 245.568 135.998 245.081 135.677C244.593 135.352 244.212 134.895 243.937 134.305C243.662 133.711 243.525 133.01 243.525 132.202C243.525 131.4 243.662 130.704 243.937 130.114C244.212 129.524 244.595 129.068 245.086 128.746C245.576 128.425 246.143 128.264 246.786 128.264C247.283 128.264 247.676 128.347 247.964 128.513C248.256 128.675 248.478 128.861 248.63 129.07C248.786 129.275 248.907 129.444 248.993 129.577H249.093V125.818H250.266V136H249.132V134.827H248.993C248.907 134.966 248.784 135.142 248.625 135.354C248.466 135.562 248.239 135.75 247.944 135.915C247.649 136.078 247.257 136.159 246.766 136.159ZM246.925 135.105C247.396 135.105 247.793 134.982 248.118 134.737C248.443 134.489 248.69 134.146 248.859 133.708C249.028 133.267 249.113 132.759 249.113 132.182C249.113 131.612 249.03 131.113 248.864 130.685C248.698 130.254 248.453 129.92 248.128 129.681C247.803 129.439 247.402 129.318 246.925 129.318C246.428 129.318 246.014 129.446 245.682 129.701C245.354 129.953 245.107 130.296 244.941 130.73C244.779 131.161 244.698 131.645 244.698 132.182C244.698 132.725 244.781 133.219 244.946 133.663C245.115 134.104 245.364 134.455 245.692 134.717C246.024 134.976 246.435 135.105 246.925 135.105ZM257.39 132.878V128.364H258.564V136H257.39V134.707H257.311C257.132 135.095 256.853 135.425 256.475 135.697C256.098 135.965 255.62 136.099 255.044 136.099C254.566 136.099 254.142 135.995 253.771 135.786C253.4 135.574 253.108 135.256 252.896 134.832C252.684 134.404 252.578 133.866 252.578 133.216V128.364H253.751V133.136C253.751 133.693 253.907 134.137 254.218 134.469C254.533 134.8 254.934 134.966 255.422 134.966C255.713 134.966 256.01 134.891 256.311 134.742C256.616 134.593 256.872 134.364 257.077 134.056C257.286 133.748 257.39 133.355 257.39 132.878ZM266.122 130.074L265.068 130.372C265.001 130.196 264.904 130.026 264.774 129.86C264.648 129.691 264.476 129.552 264.257 129.442C264.039 129.333 263.758 129.278 263.417 129.278C262.95 129.278 262.56 129.386 262.249 129.602C261.941 129.814 261.786 130.084 261.786 130.412C261.786 130.704 261.892 130.934 262.105 131.103C262.317 131.272 262.648 131.413 263.099 131.526L264.232 131.804C264.915 131.97 265.424 132.223 265.759 132.565C266.093 132.903 266.261 133.339 266.261 133.872C266.261 134.31 266.135 134.701 265.883 135.045C265.634 135.39 265.286 135.662 264.839 135.861C264.392 136.06 263.871 136.159 263.278 136.159C262.499 136.159 261.854 135.99 261.344 135.652C260.834 135.314 260.51 134.82 260.374 134.17L261.488 133.892C261.594 134.303 261.795 134.611 262.09 134.817C262.388 135.022 262.777 135.125 263.258 135.125C263.805 135.125 264.239 135.009 264.561 134.777C264.885 134.542 265.048 134.26 265.048 133.932C265.048 133.667 264.955 133.445 264.769 133.266C264.584 133.083 264.299 132.947 263.914 132.858L262.642 132.56C261.942 132.394 261.428 132.137 261.1 131.789C260.776 131.438 260.613 130.999 260.613 130.472C260.613 130.041 260.734 129.66 260.976 129.328C261.221 128.997 261.554 128.737 261.975 128.548C262.4 128.359 262.88 128.264 263.417 128.264C264.173 128.264 264.766 128.43 265.197 128.761C265.631 129.093 265.939 129.53 266.122 130.074ZM271.567 126.912V125.818H279.203V126.912H276.001V136H274.768V126.912H271.567ZM282.942 136.159C282.252 136.159 281.647 135.995 281.127 135.667C280.61 135.339 280.206 134.88 279.914 134.29C279.626 133.7 279.482 133.01 279.482 132.222C279.482 131.426 279.626 130.732 279.914 130.138C280.206 129.545 280.61 129.085 281.127 128.756C281.647 128.428 282.252 128.264 282.942 128.264C283.631 128.264 284.234 128.428 284.751 128.756C285.272 129.085 285.676 129.545 285.964 130.138C286.256 130.732 286.402 131.426 286.402 132.222C286.402 133.01 286.256 133.7 285.964 134.29C285.676 134.88 285.272 135.339 284.751 135.667C284.234 135.995 283.631 136.159 282.942 136.159ZM282.942 135.105C283.465 135.105 283.896 134.971 284.234 134.702C284.572 134.434 284.823 134.081 284.985 133.643C285.147 133.206 285.229 132.732 285.229 132.222C285.229 131.711 285.147 131.236 284.985 130.795C284.823 130.354 284.572 129.998 284.234 129.726C283.896 129.454 283.465 129.318 282.942 129.318C282.418 129.318 281.987 129.454 281.649 129.726C281.311 129.998 281.061 130.354 280.898 130.795C280.736 131.236 280.655 131.711 280.655 132.222C280.655 132.732 280.736 133.206 280.898 133.643C281.061 134.081 281.311 134.434 281.649 134.702C281.987 134.971 282.418 135.105 282.942 135.105ZM289.366 131.406V136H288.193V128.364H289.327V129.557H289.426C289.605 129.169 289.877 128.857 290.241 128.622C290.606 128.384 291.077 128.264 291.653 128.264C292.17 128.264 292.623 128.37 293.01 128.582C293.398 128.791 293.7 129.109 293.915 129.537C294.131 129.961 294.238 130.498 294.238 131.148V136H293.065V131.227C293.065 130.627 292.909 130.16 292.598 129.825C292.286 129.487 291.859 129.318 291.315 129.318C290.941 129.318 290.606 129.399 290.311 129.562C290.019 129.724 289.789 129.961 289.62 130.273C289.451 130.584 289.366 130.962 289.366 131.406ZM299.584 136.159C298.848 136.159 298.214 135.997 297.68 135.672C297.15 135.344 296.74 134.886 296.452 134.3C296.167 133.71 296.025 133.024 296.025 132.241C296.025 131.459 296.167 130.77 296.452 130.173C296.74 129.573 297.141 129.106 297.655 128.771C298.172 128.433 298.775 128.264 299.465 128.264C299.863 128.264 300.255 128.33 300.643 128.463C301.031 128.596 301.384 128.811 301.702 129.109C302.02 129.404 302.274 129.795 302.463 130.283C302.652 130.77 302.746 131.37 302.746 132.082V132.58H296.86V131.565H301.553C301.553 131.134 301.467 130.75 301.294 130.412C301.125 130.074 300.883 129.807 300.569 129.612C300.257 129.416 299.889 129.318 299.465 129.318C298.998 129.318 298.593 129.434 298.252 129.666C297.914 129.895 297.654 130.193 297.471 130.561C297.289 130.929 297.198 131.323 297.198 131.744V132.42C297.198 132.997 297.297 133.486 297.496 133.887C297.698 134.285 297.978 134.588 298.336 134.797C298.694 135.002 299.11 135.105 299.584 135.105C299.892 135.105 300.171 135.062 300.419 134.976C300.671 134.886 300.888 134.754 301.071 134.578C301.253 134.399 301.394 134.177 301.493 133.912L302.627 134.23C302.507 134.615 302.307 134.953 302.025 135.244C301.743 135.533 301.395 135.758 300.981 135.92C300.567 136.08 300.101 136.159 299.584 136.159ZM305.704 131.406V136H304.531V128.364H305.664V129.557H305.764C305.943 129.169 306.215 128.857 306.579 128.622C306.944 128.384 307.414 128.264 307.991 128.264C308.508 128.264 308.961 128.37 309.348 128.582C309.736 128.791 310.038 129.109 310.253 129.537C310.469 129.961 310.576 130.498 310.576 131.148V136H309.403V131.227C309.403 130.627 309.247 130.16 308.936 129.825C308.624 129.487 308.197 129.318 307.653 129.318C307.279 129.318 306.944 129.399 306.649 129.562C306.357 129.724 306.127 129.961 305.958 130.273C305.789 130.584 305.704 130.962 305.704 131.406ZM318.129 130.074L317.075 130.372C317.009 130.196 316.911 130.026 316.782 129.86C316.656 129.691 316.484 129.552 316.265 129.442C316.046 129.333 315.766 129.278 315.425 129.278C314.958 129.278 314.568 129.386 314.257 129.602C313.948 129.814 313.794 130.084 313.794 130.412C313.794 130.704 313.9 130.934 314.112 131.103C314.325 131.272 314.656 131.413 315.107 131.526L316.24 131.804C316.923 131.97 317.432 132.223 317.767 132.565C318.101 132.903 318.269 133.339 318.269 133.872C318.269 134.31 318.143 134.701 317.891 135.045C317.642 135.39 317.294 135.662 316.847 135.861C316.399 136.06 315.879 136.159 315.286 136.159C314.507 136.159 313.862 135.99 313.352 135.652C312.841 135.314 312.518 134.82 312.382 134.17L313.496 133.892C313.602 134.303 313.802 134.611 314.097 134.817C314.396 135.022 314.785 135.125 315.266 135.125C315.813 135.125 316.247 135.009 316.568 134.777C316.893 134.542 317.056 134.26 317.056 133.932C317.056 133.667 316.963 133.445 316.777 133.266C316.592 133.083 316.307 132.947 315.922 132.858L314.649 132.56C313.95 132.394 313.436 132.137 313.108 131.789C312.783 131.438 312.621 130.999 312.621 130.472C312.621 130.041 312.742 129.66 312.984 129.328C313.229 128.997 313.562 128.737 313.983 128.548C314.407 128.359 314.888 128.264 315.425 128.264C316.181 128.264 316.774 128.43 317.205 128.761C317.639 129.093 317.947 129.53 318.129 130.074Z" fill="#008EBB"/>
</svg>
