<svg  viewBox="0 0 340 238" fill="none" xmlns="http://www.w3.org/2000/svg">
<path d="M82.3858 72.9287C82.1124 73.1924 81.8243 73.3242 81.5216 73.3242C81.3849 73.3242 81.2433 73.2949 81.0968 73.2363C80.9503 73.168 80.7794 73.0557 80.5841 72.8994C80.2228 72.626 80.0421 72.3379 80.0421 72.0352C80.0421 71.8398 80.1544 71.6104 80.379 71.3467C80.5939 71.083 80.8771 70.8096 81.2286 70.5264C81.5802 70.2334 81.9757 69.9355 82.4151 69.6328C82.8644 69.3301 83.3185 69.042 83.7774 68.7686C84.2364 68.4951 84.6808 68.2461 85.1105 68.0215C85.5401 67.7969 85.9112 67.6113 86.2237 67.4648C86.4093 67.3867 86.5802 67.3281 86.7364 67.2891C86.8927 67.25 87.0538 67.2305 87.2198 67.2305C87.5519 67.2305 87.8351 67.2891 88.0694 67.4062C88.3136 67.5137 88.5187 67.665 88.6847 67.8604C88.8507 68.0557 88.9874 68.2803 89.0948 68.5342C89.212 68.7783 89.3048 69.0371 89.3731 69.3105C89.4513 69.5742 89.5147 69.8477 89.5636 70.1309C89.6124 70.4043 89.6612 70.6582 89.7101 70.8926C89.7882 71.293 89.8663 71.7568 89.9444 72.2842C90.0323 72.8018 90.1105 73.3438 90.1788 73.9102C90.2472 74.4668 90.3106 75.0234 90.3692 75.5801C90.4376 76.127 90.4962 76.6396 90.545 77.1182C90.5939 77.5869 90.628 77.9971 90.6476 78.3486C90.6769 78.6904 90.6915 78.9346 90.6915 79.0811C90.6915 79.7646 90.3546 80.165 89.6808 80.2822C89.3097 80.3604 89.0655 80.4043 88.9483 80.4141C88.8312 80.4238 88.753 80.4287 88.714 80.4287C88.4112 80.4287 88.1671 80.3408 87.9815 80.165C87.8058 79.9893 87.7032 79.7256 87.6739 79.374C87.5665 78.0654 87.4444 76.7666 87.3077 75.4775C87.171 74.1787 86.961 72.8896 86.6778 71.6104C86.6192 71.3271 86.5167 71.1123 86.3702 70.9658C86.2237 70.8193 86.048 70.7461 85.8429 70.7461C85.6476 70.7461 85.4034 70.8242 85.1105 70.9805C84.8175 71.1367 84.5099 71.3271 84.1876 71.5518C83.8653 71.7764 83.5431 72.0156 83.2208 72.2695C82.9083 72.5137 82.63 72.7334 82.3858 72.9287ZM97.4884 80.7363C97.2052 80.7363 96.9366 80.6924 96.6827 80.6045C96.4386 80.5166 96.2237 80.3994 96.0382 80.2529C95.8526 80.0967 95.7062 79.916 95.5987 79.7109C95.5011 79.5059 95.4522 79.2861 95.4522 79.0518C95.4522 78.6416 95.6134 78.3096 95.9356 78.0557C96.2677 77.8018 96.7022 77.6748 97.2394 77.6748C97.4933 77.6748 97.7374 77.7236 97.9718 77.8213C98.2159 77.9092 98.4259 78.0312 98.6017 78.1875C98.7872 78.3438 98.9337 78.5244 99.0411 78.7295C99.1485 78.9346 99.2022 79.1494 99.2022 79.374C99.2022 79.8037 99.046 80.1406 98.7335 80.3848C98.4308 80.6191 98.0157 80.7363 97.4884 80.7363ZM116.893 82.6846C116.893 82.3623 116.878 81.9424 116.849 81.4248C116.829 80.9072 116.8 80.3359 116.761 79.7109C116.722 79.0859 116.678 78.4219 116.629 77.7188C116.58 77.0156 116.526 76.3174 116.468 75.624C116.409 74.9307 116.351 74.2617 116.292 73.6172C116.243 72.9629 116.194 72.3721 116.146 71.8447C116.067 71.0928 115.96 70.541 115.823 70.1895C115.687 69.8379 115.462 69.6621 115.149 69.6621C114.856 69.6621 114.661 69.7451 114.563 69.9111C114.476 70.0771 114.422 70.2822 114.402 70.5264C114.393 70.7705 114.388 71.0391 114.388 71.332C114.397 71.6152 114.354 71.8789 114.256 72.123C114.168 72.3672 113.997 72.5723 113.743 72.7383C113.489 72.9043 113.099 72.9873 112.571 72.9873C112.2 72.9873 111.883 72.8359 111.619 72.5332C111.355 72.2207 111.224 71.7715 111.224 71.1855C111.224 70.3652 111.468 69.623 111.956 68.959C112.435 68.2852 113.113 67.7139 113.992 67.2451C114.871 66.7666 115.931 66.3955 117.171 66.1318C118.411 65.8682 119.788 65.7363 121.302 65.7363C122.386 65.7363 123.387 65.8584 124.305 66.1025C125.223 66.3369 126.014 66.6689 126.678 67.0986C127.352 67.5186 127.879 68.0215 128.26 68.6074C128.641 69.1836 128.831 69.8135 128.831 70.4971C128.831 71.2686 128.606 72.0059 128.157 72.709C127.708 73.4121 127.088 74.0566 126.297 74.6426C125.516 75.2285 124.593 75.7412 123.528 76.1807C122.464 76.6104 121.321 76.9473 120.101 77.1914C119.759 77.25 119.588 77.46 119.588 77.8213C119.588 78.0654 119.603 78.373 119.632 78.7441C119.671 79.1055 119.705 79.4863 119.734 79.8867C119.773 80.2871 119.808 80.6826 119.837 81.0732C119.876 81.4639 119.896 81.8105 119.896 82.1133C119.896 82.6602 119.769 83.0508 119.515 83.2852C119.261 83.5195 118.885 83.6367 118.387 83.6367C117.918 83.6367 117.552 83.5537 117.288 83.3877C117.024 83.2314 116.893 82.9971 116.893 82.6846ZM125.799 70.9219C125.799 70.5898 125.657 70.2725 125.374 69.9697C125.091 69.667 124.71 69.3984 124.231 69.1641C123.753 68.9297 123.196 68.7441 122.562 68.6074C121.937 68.4707 121.277 68.4023 120.584 68.4023C120.242 68.4023 119.954 68.417 119.72 68.4463C119.495 68.4658 119.314 68.5049 119.178 68.5635C119.041 68.6221 118.943 68.7002 118.885 68.7979C118.836 68.8857 118.812 69.0029 118.812 69.1494C118.812 69.2471 118.826 69.4766 118.855 69.8379C118.885 70.1895 118.924 70.5996 118.973 71.0684C119.021 71.5371 119.07 72.0303 119.119 72.5479C119.178 73.0557 119.236 73.5146 119.295 73.9248C119.324 74.2275 119.363 74.4277 119.412 74.5254C119.471 74.623 119.559 74.6719 119.676 74.6719C120.008 74.6719 120.389 74.6182 120.818 74.5107C121.248 74.3936 121.688 74.2422 122.137 74.0566C122.596 73.8613 123.04 73.6416 123.47 73.3975C123.909 73.1436 124.3 72.8799 124.642 72.6064C124.993 72.3232 125.271 72.04 125.477 71.7568C125.691 71.4639 125.799 71.1855 125.799 70.9219ZM149.269 75.873C148.995 75.873 148.771 75.7607 148.595 75.5361C148.419 75.3018 148.331 74.9648 148.331 74.5254C148.331 74.1348 148.507 73.8418 148.858 73.6465C149.21 73.4512 149.806 73.3145 150.646 73.2363C150.919 73.207 151.275 73.168 151.715 73.1191C152.164 73.0605 152.618 73.0068 153.077 72.958C153.546 72.8994 153.985 72.8506 154.396 72.8115C154.815 72.7725 155.143 72.7529 155.377 72.7529C155.738 72.7529 156.017 72.8604 156.212 73.0752C156.417 73.29 156.52 73.6709 156.52 74.2178C156.52 74.7842 155.958 75.126 154.835 75.2432C154.688 75.2627 154.469 75.292 154.176 75.3311C153.893 75.3604 153.57 75.3994 153.209 75.4482C152.848 75.4971 152.467 75.5459 152.066 75.5947C151.676 75.6436 151.3 75.6875 150.938 75.7266C150.577 75.7656 150.245 75.7998 149.942 75.8291C149.649 75.8584 149.425 75.873 149.269 75.873ZM167.002 80.0039C166.826 80.1895 166.636 80.2822 166.431 80.2822C166.245 80.2822 166.064 80.2139 165.889 80.0771L165.083 79.4766C164.868 79.2812 164.761 79.0908 164.761 78.9053C164.761 78.7197 164.849 78.5391 165.024 78.3633C165.327 78.0605 165.654 77.7236 166.006 77.3525C166.357 76.9717 166.704 76.5762 167.046 76.166C167.388 75.7559 167.71 75.3408 168.013 74.9209C168.315 74.501 168.569 74.0859 168.774 73.6758C168.823 73.5977 168.853 73.5244 168.862 73.4561C168.882 73.3877 168.892 73.3242 168.892 73.2656C168.892 73.0801 168.794 72.8848 168.599 72.6797C168.413 72.4746 168.169 72.2695 167.866 72.0645C167.563 71.8594 167.217 71.6592 166.826 71.4639C166.445 71.2588 166.06 71.0732 165.669 70.9072C165.278 70.7314 164.902 70.5752 164.541 70.4385C164.18 70.292 163.872 70.1748 163.618 70.0869C163.276 69.9502 163.105 69.7598 163.105 69.5156C163.105 69.418 163.154 69.2568 163.252 69.0322C163.359 68.8076 163.491 68.5781 163.647 68.3438C163.804 68.1094 163.975 67.9043 164.16 67.7285C164.355 67.5527 164.536 67.4648 164.702 67.4648C164.751 67.4648 164.8 67.4697 164.849 67.4795C164.907 67.4795 164.966 67.4941 165.024 67.5234C165.552 67.709 166.074 67.9189 166.592 68.1533C167.109 68.3877 167.627 68.6416 168.145 68.915C168.496 69.0908 168.896 69.3008 169.346 69.5449C169.805 69.7891 170.234 70.0625 170.635 70.3652C171.035 70.668 171.372 71.0049 171.646 71.376C171.929 71.7373 172.07 72.1377 172.07 72.5771C172.07 73.0947 171.895 73.6758 171.543 74.3203C171.201 74.9648 170.771 75.624 170.254 76.2979C169.746 76.9717 169.199 77.6309 168.613 78.2754C168.027 78.9199 167.49 79.4961 167.002 80.0039ZM201.883 75.2432C201.824 75.0576 201.795 74.8867 201.795 74.7305C201.795 74.2715 202.044 73.9199 202.542 73.6758C202.747 73.5781 202.918 73.5 203.055 73.4414C203.191 73.373 203.304 73.3242 203.392 73.2949C203.489 73.2559 203.567 73.2314 203.626 73.2217C203.685 73.2119 203.743 73.207 203.802 73.207C204.026 73.207 204.222 73.3193 204.388 73.5439C204.554 73.7588 204.7 74.0371 204.827 74.3789C204.964 74.7109 205.081 75.0723 205.179 75.4629C205.286 75.8438 205.394 76.2051 205.501 76.5469C205.618 76.8789 205.74 77.1572 205.867 77.3818C206.004 77.5967 206.165 77.7041 206.351 77.7041C206.556 77.7041 206.756 77.6113 206.951 77.4258C207.156 77.2305 207.342 76.9863 207.508 76.6934C207.674 76.4004 207.806 76.083 207.903 75.7412C208.011 75.3994 208.064 75.0723 208.064 74.7598C208.064 73.7637 207.874 72.875 207.493 72.0938C207.112 71.3027 206.619 70.6338 206.014 70.0869C205.408 69.54 204.72 69.125 203.948 68.8418C203.187 68.5488 202.425 68.4023 201.663 68.4023C200.755 68.4023 200.008 68.5098 199.422 68.7246C198.836 68.9395 198.372 69.252 198.03 69.6621C197.698 70.0625 197.464 70.5557 197.327 71.1416C197.2 71.7275 197.137 72.3916 197.137 73.1338C197.137 73.7002 197.244 74.2568 197.459 74.8037C197.674 75.3408 197.986 75.8389 198.396 76.2979C198.807 76.7568 199.31 77.1621 199.905 77.5137C200.501 77.8652 201.18 78.1289 201.941 78.3047C201.99 78.3242 202.029 78.334 202.059 78.334C202.088 78.334 202.127 78.334 202.176 78.334C202.332 78.334 202.454 78.2852 202.542 78.1875C202.64 78.0898 202.688 77.9678 202.688 77.8213C202.688 77.7725 202.684 77.7285 202.674 77.6895C202.664 77.6406 202.649 77.582 202.63 77.5137L201.883 75.2432ZM194.104 73.2363C194.104 73.1289 194.109 72.9971 194.119 72.8408C194.129 72.6846 194.134 72.5234 194.134 72.3574C194.134 72.2012 194.124 72.0449 194.104 71.8887C194.085 71.7324 194.046 71.5908 193.987 71.4639C193.938 71.3271 193.865 71.2148 193.768 71.127C193.67 71.0293 193.543 70.9707 193.387 70.9512C193.211 70.9316 193.064 70.8633 192.947 70.7461C192.84 70.6191 192.786 70.4678 192.786 70.292C192.786 70.0283 192.879 69.7695 193.064 69.5156C193.514 68.832 194.056 68.251 194.69 67.7725C195.335 67.2842 196.038 66.8887 196.8 66.5859C197.562 66.2832 198.362 66.0635 199.202 65.9268C200.042 65.7803 200.887 65.707 201.736 65.707C202.42 65.707 203.123 65.79 203.846 65.9561C204.568 66.1123 205.271 66.3516 205.955 66.6738C206.648 66.9961 207.303 67.3916 207.918 67.8604C208.533 68.3291 209.07 68.876 209.529 69.501C209.988 70.1162 210.35 70.8047 210.613 71.5664C210.887 72.3184 211.023 73.1436 211.023 74.042C211.023 74.7939 210.936 75.4824 210.76 76.1074C210.584 76.7324 210.335 77.2988 210.013 77.8066C209.7 78.3145 209.319 78.7686 208.87 79.1689C208.421 79.5596 207.923 79.8916 207.376 80.165C207.054 80.3018 206.893 80.5215 206.893 80.8242C206.893 80.8535 206.893 80.8877 206.893 80.9268C206.893 80.9561 206.897 80.9854 206.907 81.0146C206.907 81.0537 206.912 81.0879 206.922 81.1172C206.971 81.3809 207.034 81.7031 207.112 82.084C207.2 82.4746 207.283 82.875 207.361 83.2852C207.449 83.7051 207.522 84.1055 207.581 84.4863C207.64 84.877 207.669 85.2041 207.669 85.4678C207.669 86.0732 207.327 86.4541 206.644 86.6104C206.438 86.6592 206.243 86.6934 206.058 86.7129C205.872 86.7422 205.75 86.7568 205.691 86.7568C205.096 86.7568 204.754 86.4102 204.666 85.7168C204.578 85.043 204.466 84.3838 204.329 83.7393C204.202 83.0947 204.065 82.4502 203.919 81.8057C203.86 81.5811 203.777 81.4199 203.67 81.3223C203.572 81.2246 203.455 81.1758 203.318 81.1758H202.894C201.595 81.1758 200.408 80.9658 199.334 80.5459C198.26 80.1162 197.332 79.54 196.551 78.8174C195.779 78.085 195.179 77.2402 194.749 76.2832C194.319 75.3262 194.104 74.3105 194.104 73.2363Z" fill="black"/>
<path d="M78.0636 120.12C77.9269 120.345 77.7804 120.516 77.6241 120.633C77.4679 120.75 77.2921 120.809 77.0968 120.809C77.0089 120.809 76.9015 120.789 76.7745 120.75C76.6476 120.711 76.4571 120.633 76.2032 120.516C75.7442 120.262 75.5147 119.939 75.5147 119.549C75.5147 119.324 75.5831 119.104 75.7198 118.89C75.9835 118.479 76.2911 118.104 76.6427 117.762C77.004 117.41 77.4093 117.107 77.8585 116.854C78.3175 116.6 78.8204 116.399 79.3673 116.253C79.9239 116.106 80.5294 116.033 81.1837 116.033C81.8575 116.033 82.4972 116.136 83.1026 116.341C83.7081 116.546 84.2403 116.839 84.6993 117.22C85.1583 117.591 85.5196 118.05 85.7833 118.597C86.0567 119.134 86.1935 119.739 86.1935 120.413C86.1935 121.224 86.0323 122.015 85.7101 122.786C85.3878 123.548 84.9679 124.29 84.4503 125.013C83.9425 125.726 83.3663 126.409 82.7218 127.063C82.0772 127.708 81.4327 128.313 80.7882 128.88C80.6808 128.968 80.6026 129.056 80.5538 129.144C80.5147 129.231 80.4952 129.314 80.4952 129.393C80.4952 129.5 80.544 129.593 80.6417 129.671C80.7491 129.739 80.9005 129.773 81.0958 129.773C82.0724 129.822 83.0392 129.891 83.9962 129.979C84.9532 130.057 85.9151 130.149 86.8819 130.257C87.5362 130.345 87.8634 130.667 87.8634 131.224C87.8634 131.302 87.8585 131.395 87.8487 131.502C87.839 131.6 87.795 131.785 87.7169 132.059C87.6388 132.391 87.4874 132.635 87.2628 132.791C87.048 132.947 86.7892 133.025 86.4864 133.025C86.2911 133.025 85.9835 133.006 85.5636 132.967C85.1437 132.938 84.6554 132.898 84.0987 132.85C83.5421 132.801 82.9366 132.742 82.2823 132.674C81.628 132.615 80.964 132.562 80.2901 132.513C79.6261 132.464 78.9718 132.42 78.3272 132.381C77.6827 132.352 77.0919 132.337 76.5548 132.337C76.3399 132.337 76.1544 132.288 75.9981 132.19C75.8517 132.103 75.7296 131.985 75.6319 131.839C75.544 131.683 75.4806 131.502 75.4415 131.297C75.4024 131.092 75.3829 130.877 75.3829 130.652C75.3829 130.379 75.4415 130.145 75.5587 129.949C75.6856 129.744 75.8614 129.559 76.086 129.393C76.5353 129.061 77.0187 128.694 77.5362 128.294C78.0636 127.894 78.5909 127.469 79.1183 127.02C79.6456 126.57 80.1485 126.102 80.6271 125.613C81.1153 125.115 81.545 124.612 81.9161 124.104C82.297 123.587 82.5997 123.069 82.8243 122.552C83.0489 122.024 83.1612 121.502 83.1612 120.984C83.1612 120.633 83.088 120.32 82.9415 120.047C82.8048 119.764 82.6144 119.524 82.3702 119.329C82.1358 119.124 81.8624 118.973 81.5499 118.875C81.2374 118.768 80.9151 118.714 80.5831 118.714C79.9386 118.714 79.421 118.851 79.0304 119.124C78.6397 119.397 78.3175 119.729 78.0636 120.12ZM93.4884 131.736C93.2052 131.736 92.9366 131.692 92.6827 131.604C92.4386 131.517 92.2237 131.399 92.0382 131.253C91.8526 131.097 91.7062 130.916 91.5987 130.711C91.5011 130.506 91.4522 130.286 91.4522 130.052C91.4522 129.642 91.6134 129.31 91.9356 129.056C92.2677 128.802 92.7022 128.675 93.2394 128.675C93.4933 128.675 93.7374 128.724 93.9718 128.821C94.2159 128.909 94.4259 129.031 94.6017 129.188C94.7872 129.344 94.9337 129.524 95.0411 129.729C95.1485 129.935 95.2022 130.149 95.2022 130.374C95.2022 130.804 95.046 131.141 94.7335 131.385C94.4308 131.619 94.0157 131.736 93.4884 131.736ZM112.893 133.685C112.893 133.362 112.878 132.942 112.849 132.425C112.829 131.907 112.8 131.336 112.761 130.711C112.722 130.086 112.678 129.422 112.629 128.719C112.58 128.016 112.526 127.317 112.468 126.624C112.409 125.931 112.351 125.262 112.292 124.617C112.243 123.963 112.194 123.372 112.146 122.845C112.067 122.093 111.96 121.541 111.823 121.189C111.687 120.838 111.462 120.662 111.149 120.662C110.856 120.662 110.661 120.745 110.563 120.911C110.476 121.077 110.422 121.282 110.402 121.526C110.393 121.771 110.388 122.039 110.388 122.332C110.397 122.615 110.354 122.879 110.256 123.123C110.168 123.367 109.997 123.572 109.743 123.738C109.489 123.904 109.099 123.987 108.571 123.987C108.2 123.987 107.883 123.836 107.619 123.533C107.355 123.221 107.224 122.771 107.224 122.186C107.224 121.365 107.468 120.623 107.956 119.959C108.435 119.285 109.113 118.714 109.992 118.245C110.871 117.767 111.931 117.396 113.171 117.132C114.411 116.868 115.788 116.736 117.302 116.736C118.386 116.736 119.387 116.858 120.305 117.103C121.223 117.337 122.014 117.669 122.678 118.099C123.352 118.519 123.879 119.021 124.26 119.607C124.641 120.184 124.831 120.813 124.831 121.497C124.831 122.269 124.606 123.006 124.157 123.709C123.708 124.412 123.088 125.057 122.297 125.643C121.516 126.229 120.593 126.741 119.528 127.181C118.464 127.61 117.321 127.947 116.101 128.191C115.759 128.25 115.588 128.46 115.588 128.821C115.588 129.065 115.603 129.373 115.632 129.744C115.671 130.105 115.705 130.486 115.734 130.887C115.773 131.287 115.808 131.683 115.837 132.073C115.876 132.464 115.896 132.811 115.896 133.113C115.896 133.66 115.769 134.051 115.515 134.285C115.261 134.52 114.885 134.637 114.387 134.637C113.918 134.637 113.552 134.554 113.288 134.388C113.024 134.231 112.893 133.997 112.893 133.685ZM121.799 121.922C121.799 121.59 121.657 121.272 121.374 120.97C121.091 120.667 120.71 120.398 120.231 120.164C119.753 119.93 119.196 119.744 118.562 119.607C117.937 119.471 117.277 119.402 116.584 119.402C116.242 119.402 115.954 119.417 115.72 119.446C115.495 119.466 115.314 119.505 115.178 119.563C115.041 119.622 114.943 119.7 114.885 119.798C114.836 119.886 114.812 120.003 114.812 120.149C114.812 120.247 114.826 120.477 114.855 120.838C114.885 121.189 114.924 121.6 114.973 122.068C115.021 122.537 115.07 123.03 115.119 123.548C115.178 124.056 115.236 124.515 115.295 124.925C115.324 125.228 115.363 125.428 115.412 125.525C115.471 125.623 115.559 125.672 115.676 125.672C116.008 125.672 116.389 125.618 116.818 125.511C117.248 125.394 117.688 125.242 118.137 125.057C118.596 124.861 119.04 124.642 119.47 124.397C119.909 124.144 120.3 123.88 120.642 123.606C120.993 123.323 121.271 123.04 121.477 122.757C121.691 122.464 121.799 122.186 121.799 121.922Z" fill="black"/>
<line x1="46.0312" y1="143.5" x2="237.032" y2="147.48" stroke="black" stroke-width="3"/>
<path d="M176.963 180.243C176.904 180.058 176.875 179.887 176.875 179.73C176.875 179.271 177.124 178.92 177.622 178.676C177.827 178.578 177.998 178.5 178.135 178.441C178.271 178.373 178.384 178.324 178.472 178.295C178.569 178.256 178.647 178.231 178.706 178.222C178.765 178.212 178.823 178.207 178.882 178.207C179.106 178.207 179.302 178.319 179.468 178.544C179.634 178.759 179.78 179.037 179.907 179.379C180.044 179.711 180.161 180.072 180.259 180.463C180.366 180.844 180.474 181.205 180.581 181.547C180.698 181.879 180.82 182.157 180.947 182.382C181.084 182.597 181.245 182.704 181.431 182.704C181.636 182.704 181.836 182.611 182.031 182.426C182.236 182.23 182.422 181.986 182.588 181.693C182.754 181.4 182.886 181.083 182.983 180.741C183.091 180.399 183.145 180.072 183.145 179.76C183.145 178.764 182.954 177.875 182.573 177.094C182.192 176.303 181.699 175.634 181.094 175.087C180.488 174.54 179.8 174.125 179.028 173.842C178.267 173.549 177.505 173.402 176.743 173.402C175.835 173.402 175.088 173.51 174.502 173.725C173.916 173.939 173.452 174.252 173.11 174.662C172.778 175.062 172.544 175.556 172.407 176.142C172.28 176.728 172.217 177.392 172.217 178.134C172.217 178.7 172.324 179.257 172.539 179.804C172.754 180.341 173.066 180.839 173.477 181.298C173.887 181.757 174.39 182.162 174.985 182.514C175.581 182.865 176.26 183.129 177.021 183.305C177.07 183.324 177.109 183.334 177.139 183.334C177.168 183.334 177.207 183.334 177.256 183.334C177.412 183.334 177.534 183.285 177.622 183.188C177.72 183.09 177.769 182.968 177.769 182.821C177.769 182.772 177.764 182.729 177.754 182.689C177.744 182.641 177.729 182.582 177.71 182.514L176.963 180.243ZM169.185 178.236C169.185 178.129 169.189 177.997 169.199 177.841C169.209 177.685 169.214 177.523 169.214 177.357C169.214 177.201 169.204 177.045 169.185 176.889C169.165 176.732 169.126 176.591 169.067 176.464C169.019 176.327 168.945 176.215 168.848 176.127C168.75 176.029 168.623 175.971 168.467 175.951C168.291 175.932 168.145 175.863 168.027 175.746C167.92 175.619 167.866 175.468 167.866 175.292C167.866 175.028 167.959 174.77 168.145 174.516C168.594 173.832 169.136 173.251 169.771 172.772C170.415 172.284 171.118 171.889 171.88 171.586C172.642 171.283 173.442 171.063 174.282 170.927C175.122 170.78 175.967 170.707 176.816 170.707C177.5 170.707 178.203 170.79 178.926 170.956C179.648 171.112 180.352 171.352 181.035 171.674C181.729 171.996 182.383 172.392 182.998 172.86C183.613 173.329 184.15 173.876 184.609 174.501C185.068 175.116 185.43 175.805 185.693 176.566C185.967 177.318 186.104 178.144 186.104 179.042C186.104 179.794 186.016 180.482 185.84 181.107C185.664 181.732 185.415 182.299 185.093 182.807C184.78 183.314 184.399 183.769 183.95 184.169C183.501 184.56 183.003 184.892 182.456 185.165C182.134 185.302 181.973 185.521 181.973 185.824C181.973 185.854 181.973 185.888 181.973 185.927C181.973 185.956 181.978 185.985 181.987 186.015C181.987 186.054 181.992 186.088 182.002 186.117C182.051 186.381 182.114 186.703 182.192 187.084C182.28 187.475 182.363 187.875 182.441 188.285C182.529 188.705 182.603 189.105 182.661 189.486C182.72 189.877 182.749 190.204 182.749 190.468C182.749 191.073 182.407 191.454 181.724 191.61C181.519 191.659 181.323 191.693 181.138 191.713C180.952 191.742 180.83 191.757 180.771 191.757C180.176 191.757 179.834 191.41 179.746 190.717C179.658 190.043 179.546 189.384 179.409 188.739C179.282 188.095 179.146 187.45 178.999 186.806C178.94 186.581 178.857 186.42 178.75 186.322C178.652 186.225 178.535 186.176 178.398 186.176H177.974C176.675 186.176 175.488 185.966 174.414 185.546C173.34 185.116 172.412 184.54 171.631 183.817C170.859 183.085 170.259 182.24 169.829 181.283C169.399 180.326 169.185 179.311 169.185 178.236Z" fill="black"/>
</svg>
