<svg width="283" height="154" viewBox="0 0 283 154" fill="none" xmlns="http://www.w3.org/2000/svg">
<path d="M67.4282 1.53955L77.4282 32.5395" stroke="black" stroke-width="3"/>
<path d="M56.4277 119.539L66.4281 150.539" stroke="black" stroke-width="3"/>
<path d="M31.4277 0.539551L41.4277 31.5395" stroke="black" stroke-width="3"/>
<path d="M78.5718 32.5391L88.5728 1.53931" stroke="black" stroke-width="3"/>
<path d="M67.5718 150.539L77.5728 119.539" stroke="black" stroke-width="3"/>
<path d="M42.5723 31.5391L52.5731 0.539307" stroke="black" stroke-width="3"/>
<path d="M92.7988 34.8047C92.6558 35.1497 92.4378 35.3223 92.1448 35.3223C92.0268 35.3223 91.8938 35.2897 91.7438 35.2246L91.4798 35.0977C91.1608 34.9414 91.0018 34.7233 91.0018 34.4434C91.0018 34.3001 91.0278 34.1667 91.0798 34.043C91.2818 33.5677 91.4998 33.0762 91.7338 32.5684C91.9688 32.054 92.2158 31.5299 92.4768 30.9961C92.4958 30.944 92.5158 30.8952 92.5348 30.8496C92.5548 30.804 92.5638 30.7617 92.5638 30.7227C92.5638 30.5664 92.4828 30.4264 92.3198 30.3027C91.7728 29.8926 91.2298 29.4824 90.6888 29.0723C90.1558 28.6556 89.6118 28.2454 89.0588 27.8418C88.8178 27.6725 88.6968 27.4772 88.6968 27.2559C88.6968 27.1647 88.7138 27.0768 88.7458 26.9922C88.7788 26.901 88.8368 26.8099 88.9218 26.7188L89.1948 26.3965C89.3838 26.1751 89.5918 26.0645 89.8198 26.0645C89.8978 26.0645 89.9768 26.084 90.0548 26.123C90.1388 26.1556 90.2268 26.2012 90.3178 26.2598C90.7998 26.6113 91.2748 26.9629 91.7438 27.3145C92.2188 27.6595 92.6908 28.0143 93.1598 28.3789C93.2188 28.418 93.2738 28.4505 93.3258 28.4766C93.3778 28.5026 93.4298 28.5156 93.4818 28.5156C93.6258 28.5156 93.7528 28.4245 93.8628 28.2422C94.1758 27.6367 94.4978 27.0378 94.8298 26.4453C95.1618 25.8529 95.5038 25.2702 95.8548 24.6973C96.0308 24.4303 96.2398 24.2969 96.4798 24.2969C96.6168 24.2969 96.7768 24.3522 96.9588 24.4629L97.1148 24.5605C97.3818 24.7363 97.5158 24.9414 97.5158 25.1758C97.5158 25.2604 97.5028 25.3451 97.4768 25.4297C97.4508 25.5078 97.4108 25.5924 97.3588 25.6836C96.9748 26.2956 96.6108 26.9141 96.2658 27.5391C95.9208 28.1641 95.5848 28.7988 95.2598 29.4434C95.2398 29.4954 95.2208 29.541 95.2008 29.5801C95.1878 29.6191 95.1818 29.6582 95.1818 29.6973C95.1818 29.86 95.2598 30 95.4158 30.1172C96.1708 30.7031 96.9198 31.2923 97.6618 31.8848C98.4038 32.4707 99.1498 33.0501 99.8978 33.623C100.126 33.7988 100.24 33.9909 100.24 34.1992C100.24 34.3945 100.139 34.5801 99.9378 34.7559L99.5958 35.0586C99.4068 35.2344 99.2148 35.3223 99.0198 35.3223C98.8438 35.3223 98.6648 35.2474 98.4818 35.0977L94.6148 32.0801C94.5568 32.041 94.5008 32.0085 94.4488 31.9824C94.4038 31.9564 94.3548 31.9434 94.3028 31.9434C94.1458 31.9434 94.0198 32.041 93.9218 32.2363L92.7988 34.8047Z" fill="black"/>
<path d="M81.7988 152.805C81.6558 153.15 81.4378 153.322 81.1448 153.322C81.0268 153.322 80.8938 153.29 80.7438 153.225L80.4798 153.098C80.1608 152.941 80.0018 152.723 80.0018 152.443C80.0018 152.3 80.0278 152.167 80.0798 152.043C80.2818 151.568 80.4998 151.076 80.7338 150.568C80.9688 150.054 81.2158 149.53 81.4768 148.996C81.4958 148.944 81.5158 148.895 81.5348 148.85C81.5548 148.804 81.5638 148.762 81.5638 148.723C81.5638 148.566 81.4828 148.426 81.3198 148.303C80.7728 147.893 80.2298 147.482 79.6888 147.072C79.1558 146.656 78.6118 146.245 78.0588 145.842C77.8178 145.673 77.6968 145.477 77.6968 145.256C77.6968 145.165 77.7138 145.077 77.7458 144.992C77.7788 144.901 77.8368 144.81 77.9218 144.719L78.1948 144.396C78.3838 144.175 78.5918 144.064 78.8198 144.064C78.8978 144.064 78.9768 144.084 79.0548 144.123C79.1388 144.156 79.2268 144.201 79.3178 144.26C79.7998 144.611 80.2748 144.963 80.7438 145.314C81.2188 145.66 81.6908 146.014 82.1598 146.379C82.2188 146.418 82.2738 146.451 82.3258 146.477C82.3778 146.503 82.4298 146.516 82.4818 146.516C82.6258 146.516 82.7528 146.424 82.8628 146.242C83.1758 145.637 83.4978 145.038 83.8298 144.445C84.1618 143.853 84.5038 143.27 84.8548 142.697C85.0308 142.43 85.2398 142.297 85.4798 142.297C85.6168 142.297 85.7768 142.352 85.9588 142.463L86.1148 142.561C86.3818 142.736 86.5158 142.941 86.5158 143.176C86.5158 143.26 86.5028 143.345 86.4768 143.43C86.4508 143.508 86.4108 143.592 86.3588 143.684C85.9748 144.296 85.6108 144.914 85.2658 145.539C84.9208 146.164 84.5848 146.799 84.2598 147.443C84.2398 147.495 84.2208 147.541 84.2008 147.58C84.1878 147.619 84.1818 147.658 84.1818 147.697C84.1818 147.86 84.2598 148 84.4158 148.117C85.1708 148.703 85.9198 149.292 86.6618 149.885C87.4038 150.471 88.1498 151.05 88.8978 151.623C89.1258 151.799 89.2398 151.991 89.2398 152.199C89.2398 152.395 89.1388 152.58 88.9378 152.756L88.5958 153.059C88.4068 153.234 88.2148 153.322 88.0198 153.322C87.8438 153.322 87.6648 153.247 87.4818 153.098L83.6148 150.08C83.5568 150.041 83.5008 150.008 83.4488 149.982C83.4038 149.956 83.3548 149.943 83.3028 149.943C83.1458 149.943 83.0198 150.041 82.9218 150.236L81.7988 152.805Z" fill="black"/>
<path d="M63.7988 90.8049C63.6556 91.1499 63.4375 91.3219 63.1445 91.3219C63.0273 91.3219 62.8939 91.2899 62.7441 91.2249L62.4805 91.0979C62.1615 90.9409 62.002 90.7229 62.002 90.4429C62.002 90.2999 62.028 90.1669 62.0801 90.0429C62.2819 89.5679 62.5 89.0759 62.7344 88.5679C62.9688 88.0539 63.2161 87.5299 63.4766 86.9959C63.4961 86.9439 63.5156 86.8949 63.5352 86.8499C63.5547 86.8039 63.5645 86.7619 63.5645 86.7229C63.5645 86.5659 63.4831 86.4259 63.3203 86.3029C62.7734 85.8929 62.2298 85.4819 61.6895 85.0719C61.1556 84.6559 60.612 84.2449 60.0586 83.8419C59.8177 83.6729 59.6973 83.4769 59.6973 83.2559C59.6973 83.1649 59.7135 83.0769 59.7461 82.9919C59.7786 82.9009 59.8372 82.8099 59.9219 82.7189L60.1953 82.3959C60.3841 82.1749 60.5924 82.0639 60.8203 82.0639C60.8984 82.0639 60.9766 82.0839 61.0547 82.1229C61.1393 82.1559 61.2272 82.2009 61.3184 82.2599C61.8001 82.6109 62.2754 82.9629 62.7441 83.3139C63.2194 83.6599 63.6914 84.0139 64.1602 84.3789C64.2188 84.4179 64.2741 84.4509 64.3262 84.4769C64.3783 84.5029 64.4303 84.5159 64.4824 84.5159C64.6257 84.5159 64.7526 84.4239 64.8633 84.2419C65.1758 83.6369 65.498 83.0379 65.8301 82.4449C66.162 81.8529 66.504 81.2699 66.855 80.6969C67.031 80.4299 67.24 80.2969 67.48 80.2969C67.617 80.2969 67.777 80.3519 67.959 80.4629L68.115 80.5609C68.382 80.7359 68.516 80.9409 68.516 81.1759C68.516 81.2599 68.503 81.3449 68.477 81.4299C68.451 81.5079 68.411 81.5919 68.359 81.6839C67.975 82.2959 67.611 82.9139 67.266 83.5389C66.921 84.1639 66.585 84.7989 66.26 85.4429C66.24 85.4949 66.221 85.5409 66.201 85.5799C66.188 85.6189 66.182 85.6579 66.182 85.6969C66.182 85.8599 66.26 85.9999 66.416 86.1169C67.171 86.7029 67.92 87.2919 68.662 87.8849C69.404 88.4709 70.15 89.0499 70.898 89.6229C71.126 89.7989 71.24 89.9909 71.24 90.1989C71.24 90.3949 71.139 90.5799 70.938 90.7559L70.596 91.0589C70.407 91.2339 70.215 91.3219 70.02 91.3219C69.844 91.3219 69.665 91.2469 69.482 91.0979L65.6152 88.0799C65.5566 88.0409 65.5013 88.0079 65.4492 87.9819C65.4036 87.9559 65.3548 87.9429 65.3027 87.9429C65.1465 87.9429 65.0195 88.0409 64.9219 88.2359L63.7988 90.8049Z" fill="black"/>
<path d="M57.8828 34.2637C57.4922 34.2637 57.1016 34.1693 56.7109 33.9805C56.3203 33.7852 55.946 33.5215 55.5879 33.1895C55.2298 32.8574 54.8978 32.4668 54.5918 32.0176C54.2858 31.5618 54.0189 31.0736 53.791 30.5527C53.5632 30.0254 53.3841 29.4753 53.2539 28.9023C53.1237 28.3294 53.0586 27.7565 53.0586 27.1836C53.0586 26.7409 53.1497 26.4251 53.332 26.2363C53.5143 26.041 53.8105 25.9434 54.2207 25.9434C54.735 25.9434 55.0215 26.1549 55.0801 26.5781C55.1973 27.4766 55.36 28.2871 55.5684 29.0098C55.7767 29.7324 56.0208 30.3477 56.3008 30.8555C56.5872 31.3633 56.903 31.7539 57.248 32.0273C57.5996 32.3008 57.9707 32.4375 58.3613 32.4375C58.6413 32.4375 58.9049 32.3691 59.1523 32.2324C59.3997 32.0892 59.6146 31.8906 59.7969 31.6367C59.862 31.5391 59.9043 31.4447 59.9238 31.3535C59.9499 31.2624 59.9694 31.1582 59.9824 31.041C60.015 30.5788 60.0508 30.1263 60.0898 29.6836C60.1354 29.2344 60.1777 28.7852 60.2168 28.3359C60.2298 28.1406 60.2559 27.9811 60.2949 27.8574C60.334 27.7337 60.3926 27.6361 60.4707 27.5645C60.5488 27.4928 60.6497 27.444 60.7734 27.418C60.9036 27.3919 61.0664 27.3789 61.2617 27.3789C61.4831 27.3789 61.6719 27.4115 61.8281 27.4766C61.9844 27.5352 62.1113 27.6361 62.209 27.7793C62.3066 27.916 62.375 28.0983 62.4141 28.3262C62.4596 28.5475 62.4824 28.8242 62.4824 29.1562C62.4824 29.4427 62.4596 29.6934 62.4141 29.9082C62.375 30.1165 62.3262 30.3151 62.2676 30.5039C62.2155 30.6862 62.1634 30.8685 62.1113 31.0508C62.0658 31.2266 62.0365 31.4219 62.0234 31.6367C61.9909 32.1771 61.9616 32.6458 61.9355 33.043C61.9095 33.4336 61.8867 33.7689 61.8672 34.0488C61.8542 34.3288 61.8411 34.5697 61.8281 34.7715C61.8216 34.9733 61.8151 35.1523 61.8086 35.3086C61.8021 35.4714 61.7988 35.6243 61.7988 35.7676C61.7988 35.9108 61.7988 36.0671 61.7988 36.2363C61.7988 36.5423 61.8118 36.8743 61.8379 37.2324C61.8639 37.597 61.89 37.9453 61.916 38.2773C61.9486 38.6094 61.9779 38.9023 62.0039 39.1562C62.0299 39.4102 62.043 39.5859 62.043 39.6836C62.043 39.8073 62.0039 39.9245 61.9258 40.0352C61.8477 40.1458 61.7435 40.2435 61.6133 40.3281C61.4831 40.4128 61.3301 40.4779 61.1543 40.5234C60.9785 40.5755 60.793 40.6016 60.5977 40.6016C60.4284 40.6016 60.2917 40.543 60.1875 40.4258C60.0898 40.3151 60.0345 40.1654 60.0215 39.9766C60.002 39.7292 59.9857 39.4264 59.9727 39.0684C59.9596 38.7168 59.9466 38.3392 59.9336 37.9355C59.9206 37.5384 59.9108 37.1315 59.9043 36.7148C59.9043 36.3047 59.901 35.9206 59.8945 35.5625C59.888 35.2109 59.8848 34.9017 59.8848 34.6348C59.8848 34.3678 59.8848 34.1758 59.8848 34.0586C59.8848 33.9414 59.8717 33.86 59.8457 33.8145C59.8197 33.7624 59.7708 33.7363 59.6992 33.7363C59.6602 33.7363 59.6081 33.7493 59.543 33.7754C59.4779 33.7949 59.403 33.8307 59.3184 33.8828C59.0905 34.0195 58.8594 34.1172 58.625 34.1758C58.3906 34.2344 58.1432 34.2637 57.8828 34.2637Z" fill="black"/>
<path d="M161.883 32.2637C161.492 32.2637 161.102 32.1693 160.711 31.9805C160.32 31.7852 159.946 31.5215 159.588 31.1895C159.23 30.8574 158.898 30.4668 158.592 30.0176C158.286 29.5618 158.019 29.0736 157.791 28.5527C157.563 28.0254 157.384 27.4753 157.254 26.9023C157.124 26.3294 157.059 25.7565 157.059 25.1836C157.059 24.7409 157.15 24.4251 157.332 24.2363C157.514 24.041 157.811 23.9434 158.221 23.9434C158.735 23.9434 159.021 24.1549 159.08 24.5781C159.197 25.4766 159.36 26.2871 159.568 27.0098C159.777 27.7324 160.021 28.3477 160.301 28.8555C160.587 29.3633 160.903 29.7539 161.248 30.0273C161.6 30.3008 161.971 30.4375 162.361 30.4375C162.641 30.4375 162.905 30.3691 163.152 30.2324C163.4 30.0892 163.615 29.8906 163.797 29.6367C163.862 29.5391 163.904 29.4447 163.924 29.3535C163.95 29.2624 163.969 29.1582 163.982 29.041C164.015 28.5788 164.051 28.1263 164.09 27.6836C164.135 27.2344 164.178 26.7852 164.217 26.3359C164.23 26.1406 164.256 25.9811 164.295 25.8574C164.334 25.7337 164.393 25.6361 164.471 25.5645C164.549 25.4928 164.65 25.444 164.773 25.418C164.904 25.3919 165.066 25.3789 165.262 25.3789C165.483 25.3789 165.672 25.4115 165.828 25.4766C165.984 25.5352 166.111 25.6361 166.209 25.7793C166.307 25.916 166.375 26.0983 166.414 26.3262C166.46 26.5475 166.482 26.8242 166.482 27.1562C166.482 27.4427 166.46 27.6934 166.414 27.9082C166.375 28.1165 166.326 28.3151 166.268 28.5039C166.215 28.6862 166.163 28.8685 166.111 29.0508C166.066 29.2266 166.036 29.4219 166.023 29.6367C165.991 30.1771 165.962 30.6458 165.936 31.043C165.91 31.4336 165.887 31.7689 165.867 32.0488C165.854 32.3288 165.841 32.5697 165.828 32.7715C165.822 32.9733 165.815 33.1523 165.809 33.3086C165.802 33.4714 165.799 33.6243 165.799 33.7676C165.799 33.9108 165.799 34.0671 165.799 34.2363C165.799 34.5423 165.812 34.8743 165.838 35.2324C165.864 35.597 165.89 35.9453 165.916 36.2773C165.949 36.6094 165.978 36.9023 166.004 37.1562C166.03 37.4102 166.043 37.5859 166.043 37.6836C166.043 37.8073 166.004 37.9245 165.926 38.0352C165.848 38.1458 165.743 38.2435 165.613 38.3281C165.483 38.4128 165.33 38.4779 165.154 38.5234C164.979 38.5755 164.793 38.6016 164.598 38.6016C164.428 38.6016 164.292 38.543 164.188 38.4258C164.09 38.3151 164.035 38.1654 164.021 37.9766C164.002 37.7292 163.986 37.4264 163.973 37.0684C163.96 36.7168 163.947 36.3392 163.934 35.9355C163.921 35.5384 163.911 35.1315 163.904 34.7148C163.904 34.3047 163.901 33.9206 163.895 33.5625C163.888 33.2109 163.885 32.9017 163.885 32.6348C163.885 32.3678 163.885 32.1758 163.885 32.0586C163.885 31.9414 163.872 31.86 163.846 31.8145C163.82 31.7624 163.771 31.7363 163.699 31.7363C163.66 31.7363 163.608 31.7493 163.543 31.7754C163.478 31.7949 163.403 31.8307 163.318 31.8828C163.09 32.0195 162.859 32.1172 162.625 32.1758C162.391 32.2344 162.143 32.2637 161.883 32.2637Z" fill="black"/>
<path d="M155.084 74.7581C154.999 74.6211 154.944 74.5071 154.918 74.4161C154.892 74.3181 154.879 74.2401 154.879 74.1821C154.879 74.0711 154.928 73.9571 155.025 73.8401C155.123 73.7231 155.243 73.6181 155.387 73.5271C155.53 73.4301 155.683 73.3521 155.846 73.2931C156.008 73.2281 156.152 73.1951 156.275 73.1951C156.347 73.1951 156.422 73.2251 156.5 73.2831C156.585 73.3351 156.699 73.4751 156.842 73.7031C157.07 74.0741 157.307 74.4581 157.555 74.8551C157.809 75.2531 158.076 75.6531 158.355 76.0571C158.466 76.2061 158.58 76.2811 158.697 76.2811C158.827 76.2811 158.948 76.2131 159.059 76.0761C159.501 75.5881 159.947 75.1351 160.396 74.7191C160.846 74.3021 161.295 73.9641 161.744 73.7031C162.018 73.5401 162.242 73.4331 162.418 73.3811C162.594 73.3291 162.721 73.3031 162.799 73.3031C162.923 73.3031 163.049 73.3421 163.18 73.4201C163.31 73.4981 163.427 73.5961 163.531 73.7131C163.642 73.8241 163.73 73.9411 163.795 74.0641C163.867 74.1881 163.902 74.2991 163.902 74.3961C163.902 74.5461 163.808 74.6931 163.619 74.8361C163.437 74.9791 163.17 75.1551 162.818 75.3631C162.33 75.6631 161.865 76.0141 161.422 76.4181C160.986 76.8221 160.566 77.2481 160.162 77.6971C160.097 77.7621 160.051 77.8241 160.025 77.8831C160.006 77.9411 159.996 78.0001 159.996 78.0591C159.996 78.1111 160.006 78.1661 160.025 78.2251C160.051 78.2831 160.09 78.3421 160.143 78.4001C160.383 78.6801 160.624 78.9381 160.865 79.1721C161.106 79.4061 161.337 79.6081 161.559 79.7771C161.786 79.9401 162.005 80.0701 162.213 80.1681C162.428 80.2591 162.63 80.3051 162.818 80.3051C162.968 80.3051 163.128 80.2851 163.297 80.2461C163.466 80.2011 163.619 80.1781 163.756 80.1781C163.945 80.1781 164.075 80.2361 164.146 80.3541C164.225 80.4641 164.264 80.6141 164.264 80.8031C164.264 81.0181 164.225 81.2101 164.146 81.3791C164.068 81.5481 163.961 81.6911 163.824 81.8091C163.694 81.9191 163.538 82.0071 163.355 82.0721C163.173 82.1311 162.981 82.1601 162.779 82.1601C162.467 82.1601 162.148 82.1051 161.822 81.9941C161.497 81.8831 161.171 81.7301 160.846 81.5351C160.52 81.3401 160.198 81.1121 159.879 80.8521C159.56 80.5851 159.247 80.2951 158.941 79.9821C158.824 79.8591 158.704 79.7971 158.58 79.7971C158.45 79.7971 158.329 79.8651 158.219 80.0021C157.913 80.3801 157.617 80.7341 157.33 81.0661C157.05 81.3981 156.777 81.6881 156.51 81.9361C156.249 82.1831 155.995 82.3781 155.748 82.5211C155.507 82.6651 155.27 82.7361 155.035 82.7361C154.866 82.7361 154.716 82.7041 154.586 82.6391C154.462 82.5671 154.358 82.4821 154.273 82.3851C154.189 82.2871 154.124 82.1861 154.078 82.0821C154.039 81.9781 154.02 81.8901 154.02 81.8181C154.02 81.7271 154.052 81.6431 154.117 81.5641C154.182 81.4801 154.277 81.3891 154.4 81.2911C154.524 81.1871 154.667 81.0631 154.83 80.9201C154.999 80.7771 155.188 80.5981 155.396 80.3831C155.624 80.1551 155.875 79.8751 156.148 79.5431C156.422 79.2041 156.718 78.8431 157.037 78.4591C157.07 78.4201 157.096 78.3781 157.115 78.3321C157.135 78.2801 157.145 78.2281 157.145 78.1761C157.145 77.9931 157.044 77.7621 156.842 77.4821C156.438 76.9291 156.087 76.4111 155.787 75.9301C155.488 75.4411 155.253 75.0511 155.084 74.7581Z" fill="black"/>
<path d="M244.799 33.8047C244.656 34.1497 244.438 34.3223 244.145 34.3223C244.027 34.3223 243.894 34.2897 243.744 34.2246L243.48 34.0977C243.161 33.9414 243.002 33.7233 243.002 33.4434C243.002 33.3001 243.028 33.1667 243.08 33.043C243.282 32.5677 243.5 32.0762 243.734 31.5684C243.969 31.054 244.216 30.5299 244.477 29.9961C244.496 29.944 244.516 29.8952 244.535 29.8496C244.555 29.804 244.564 29.7617 244.564 29.7227C244.564 29.5664 244.483 29.4264 244.32 29.3027C243.773 28.8926 243.23 28.4824 242.689 28.0723C242.156 27.6556 241.612 27.2454 241.059 26.8418C240.818 26.6725 240.697 26.4772 240.697 26.2559C240.697 26.1647 240.714 26.0768 240.746 25.9922C240.779 25.901 240.837 25.8099 240.922 25.7188L241.195 25.3965C241.384 25.1751 241.592 25.0645 241.82 25.0645C241.898 25.0645 241.977 25.084 242.055 25.123C242.139 25.1556 242.227 25.2012 242.318 25.2598C242.8 25.6113 243.275 25.9629 243.744 26.3145C244.219 26.6595 244.691 27.0143 245.16 27.3789C245.219 27.418 245.274 27.4505 245.326 27.4766C245.378 27.5026 245.43 27.5156 245.482 27.5156C245.626 27.5156 245.753 27.4245 245.863 27.2422C246.176 26.6367 246.498 26.0378 246.83 25.4453C247.162 24.8529 247.504 24.2702 247.855 23.6973C248.031 23.4303 248.24 23.2969 248.48 23.2969C248.617 23.2969 248.777 23.3522 248.959 23.4629L249.115 23.5605C249.382 23.7363 249.516 23.9414 249.516 24.1758C249.516 24.2604 249.503 24.3451 249.477 24.4297C249.451 24.5078 249.411 24.5924 249.359 24.6836C248.975 25.2956 248.611 25.9141 248.266 26.5391C247.921 27.1641 247.585 27.7988 247.26 28.4434C247.24 28.4954 247.221 28.541 247.201 28.5801C247.188 28.6191 247.182 28.6582 247.182 28.6973C247.182 28.86 247.26 29 247.416 29.1172C248.171 29.7031 248.92 30.2923 249.662 30.8848C250.404 31.4707 251.15 32.0501 251.898 32.623C252.126 32.7988 252.24 32.9909 252.24 33.1992C252.24 33.3945 252.139 33.5801 251.938 33.7559L251.596 34.0586C251.407 34.2344 251.215 34.3223 251.02 34.3223C250.844 34.3223 250.665 34.2474 250.482 34.0977L246.615 31.0801C246.557 31.041 246.501 31.0085 246.449 30.9824C246.404 30.9564 246.355 30.9434 246.303 30.9434C246.146 30.9434 246.02 31.041 245.922 31.2363L244.799 33.8047Z" fill="black"/>
<path d="M174.799 151.805C174.656 152.15 174.438 152.322 174.145 152.322C174.027 152.322 173.894 152.29 173.744 152.225L173.48 152.098C173.161 151.941 173.002 151.723 173.002 151.443C173.002 151.3 173.028 151.167 173.08 151.043C173.282 150.568 173.5 150.076 173.734 149.568C173.969 149.054 174.216 148.53 174.477 147.996C174.496 147.944 174.516 147.895 174.535 147.85C174.555 147.804 174.564 147.762 174.564 147.723C174.564 147.566 174.483 147.426 174.32 147.303C173.773 146.893 173.23 146.482 172.689 146.072C172.156 145.656 171.612 145.245 171.059 144.842C170.818 144.673 170.697 144.477 170.697 144.256C170.697 144.165 170.714 144.077 170.746 143.992C170.779 143.901 170.837 143.81 170.922 143.719L171.195 143.396C171.384 143.175 171.592 143.064 171.82 143.064C171.898 143.064 171.977 143.084 172.055 143.123C172.139 143.156 172.227 143.201 172.318 143.26C172.8 143.611 173.275 143.963 173.744 144.314C174.219 144.66 174.691 145.014 175.16 145.379C175.219 145.418 175.274 145.451 175.326 145.477C175.378 145.503 175.43 145.516 175.482 145.516C175.626 145.516 175.753 145.424 175.863 145.242C176.176 144.637 176.498 144.038 176.83 143.445C177.162 142.853 177.504 142.27 177.855 141.697C178.031 141.43 178.24 141.297 178.48 141.297C178.617 141.297 178.777 141.352 178.959 141.463L179.115 141.561C179.382 141.736 179.516 141.941 179.516 142.176C179.516 142.26 179.503 142.345 179.477 142.43C179.451 142.508 179.411 142.592 179.359 142.684C178.975 143.296 178.611 143.914 178.266 144.539C177.921 145.164 177.585 145.799 177.26 146.443C177.24 146.495 177.221 146.541 177.201 146.58C177.188 146.619 177.182 146.658 177.182 146.697C177.182 146.86 177.26 147 177.416 147.117C178.171 147.703 178.92 148.292 179.662 148.885C180.404 149.471 181.15 150.05 181.898 150.623C182.126 150.799 182.24 150.991 182.24 151.199C182.24 151.395 182.139 151.58 181.938 151.756L181.596 152.059C181.407 152.234 181.215 152.322 181.02 152.322C180.844 152.322 180.665 152.247 180.482 152.098L176.615 149.08C176.557 149.041 176.501 149.008 176.449 148.982C176.404 148.956 176.355 148.943 176.303 148.943C176.146 148.943 176.02 149.041 175.922 149.236L174.799 151.805Z" fill="black"/>
<path d="M117.354 6.56447C117.394 6.38867 117.452 6.23727 117.53 6.11037C117.608 5.97357 117.716 5.86127 117.853 5.77337C117.999 5.67577 118.18 5.60247 118.395 5.55367C118.609 5.50487 118.873 5.48047 119.186 5.48047C119.547 5.48047 119.825 5.55857 120.021 5.71477C120.226 5.86127 120.328 6.07127 120.328 6.34467C120.328 6.41307 120.318 6.52047 120.299 6.66697C120.279 6.80367 120.23 7.05757 120.152 7.42867C120.055 7.90717 119.957 8.44427 119.859 9.03997C119.771 9.62597 119.688 10.2461 119.61 10.9004C119.542 11.5547 119.483 12.2334 119.435 12.9365C119.396 13.6299 119.376 14.3232 119.376 15.0166C119.376 15.71 119.4 16.4131 119.449 17.126C119.498 17.8291 119.581 18.5322 119.698 19.2354C119.825 19.9385 119.986 20.6318 120.182 21.3154C120.387 21.9893 120.646 22.6387 120.958 23.2637C121.056 23.4688 121.168 23.6592 121.295 23.835C121.422 24.0107 121.539 24.1768 121.646 24.333C121.754 24.4893 121.847 24.6406 121.925 24.7871C122.003 24.9336 122.042 25.0801 122.042 25.2266C122.042 25.3926 121.979 25.5488 121.852 25.6953C121.734 25.8516 121.52 26.042 121.207 26.2666C120.924 26.4619 120.699 26.5938 120.533 26.6621C120.377 26.7402 120.24 26.7793 120.123 26.7793C119.957 26.7793 119.762 26.6768 119.537 26.4717C119.322 26.2764 119.088 26.0078 118.834 25.666C118.414 25.0703 118.048 24.3623 117.735 23.542C117.433 22.7314 117.184 21.8623 116.988 20.9346C116.793 20.0068 116.646 19.0498 116.549 18.0635C116.451 17.0674 116.402 16.1006 116.402 15.1631C116.402 13.7373 116.49 12.3018 116.666 10.8564C116.842 9.41107 117.071 7.98047 117.354 6.56447ZM146.508 24.6846C146.508 24.3623 146.493 23.9424 146.464 23.4248C146.444 22.9072 146.415 22.3359 146.376 21.7109C146.337 21.0859 146.293 20.4219 146.244 19.7188C146.195 19.0156 146.142 18.3174 146.083 17.624C146.024 16.9307 145.966 16.2617 145.907 15.6172C145.858 14.9629 145.81 14.3721 145.761 13.8447C145.683 13.0928 145.575 12.541 145.438 12.1895C145.302 11.8379 145.077 11.6621 144.765 11.6621C144.472 11.6621 144.276 11.7451 144.179 11.9111C144.091 12.0771 144.037 12.2822 144.018 12.5264C144.008 12.7705 144.003 13.0391 144.003 13.332C144.013 13.6152 143.969 13.8789 143.871 14.123C143.783 14.3672 143.612 14.5723 143.358 14.7383C143.104 14.9043 142.714 14.9873 142.187 14.9873C141.815 14.9873 141.498 14.8359 141.234 14.5332C140.971 14.2207 140.839 13.7715 140.839 13.1855C140.839 12.3652 141.083 11.623 141.571 10.959C142.05 10.2852 142.729 9.71387 143.607 9.24507C144.486 8.76657 145.546 8.39547 146.786 8.13177C148.026 7.86817 149.403 7.73627 150.917 7.73627C152.001 7.73627 153.002 7.85837 153.92 8.10247C154.838 8.33687 155.629 8.66887 156.293 9.09857C156.967 9.51857 157.494 10.0215 157.875 10.6074C158.256 11.1836 158.446 11.8135 158.446 12.4971C158.446 13.2686 158.222 14.0059 157.772 14.709C157.323 15.4121 156.703 16.0566 155.912 16.6426C155.131 17.2285 154.208 17.7412 153.144 18.1807C152.079 18.6104 150.937 18.9473 149.716 19.1914C149.374 19.25 149.203 19.46 149.203 19.8213C149.203 20.0654 149.218 20.373 149.247 20.7441C149.286 21.1055 149.32 21.4863 149.35 21.8867C149.389 22.2871 149.423 22.6826 149.452 23.0732C149.491 23.4639 149.511 23.8105 149.511 24.1133C149.511 24.6602 149.384 25.0508 149.13 25.2852C148.876 25.5195 148.5 25.6367 148.002 25.6367C147.533 25.6367 147.167 25.5537 146.903 25.3877C146.64 25.2314 146.508 24.9971 146.508 24.6846ZM155.414 12.9219C155.414 12.5898 155.272 12.2725 154.989 11.9697C154.706 11.667 154.325 11.3984 153.847 11.1641C153.368 10.9297 152.812 10.7441 152.177 10.6074C151.552 10.4707 150.893 10.4023 150.199 10.4023C149.857 10.4023 149.569 10.417 149.335 10.4463C149.11 10.4658 148.93 10.5049 148.793 10.5635C148.656 10.6221 148.559 10.7002 148.5 10.7979C148.451 10.8857 148.427 11.0029 148.427 11.1494C148.427 11.2471 148.441 11.4766 148.471 11.8379C148.5 12.1895 148.539 12.5996 148.588 13.0684C148.637 13.5371 148.686 14.0303 148.734 14.5479C148.793 15.0557 148.852 15.5146 148.91 15.9248C148.939 16.2275 148.979 16.4277 149.027 16.5254C149.086 16.623 149.174 16.6719 149.291 16.6719C149.623 16.6719 150.004 16.6182 150.434 16.5107C150.863 16.3936 151.303 16.2422 151.752 16.0566C152.211 15.8613 152.655 15.6416 153.085 15.3975C153.524 15.1436 153.915 14.8799 154.257 14.6064C154.608 14.3232 154.887 14.04 155.092 13.7568C155.307 13.4639 155.414 13.1855 155.414 12.9219ZM178.884 17.873C178.61 17.873 178.386 17.7607 178.21 17.5361C178.034 17.3018 177.946 16.9648 177.946 16.5254C177.946 16.1348 178.122 15.8418 178.474 15.6465C178.825 15.4512 179.421 15.3145 180.261 15.2363C180.534 15.207 180.891 15.168 181.33 15.1191C181.779 15.0605 182.233 15.0068 182.692 14.958C183.161 14.8994 183.601 14.8506 184.011 14.8115C184.431 14.7725 184.758 14.7529 184.992 14.7529C185.354 14.7529 185.632 14.8604 185.827 15.0752C186.032 15.29 186.135 15.6709 186.135 16.2178C186.135 16.7842 185.573 17.126 184.45 17.2432C184.304 17.2627 184.084 17.292 183.791 17.3311C183.508 17.3604 183.186 17.3994 182.824 17.4482C182.463 17.4971 182.082 17.5459 181.682 17.5947C181.291 17.6436 180.915 17.6875 180.554 17.7266C180.192 17.7656 179.86 17.7998 179.558 17.8291C179.265 17.8584 179.04 17.873 178.884 17.873ZM196.617 22.0039C196.441 22.1895 196.251 22.2822 196.046 22.2822C195.86 22.2822 195.68 22.2139 195.504 22.0771L194.698 21.4766C194.483 21.2812 194.376 21.0908 194.376 20.9053C194.376 20.7197 194.464 20.5391 194.64 20.3633C194.942 20.0605 195.27 19.7236 195.621 19.3525C195.973 18.9717 196.319 18.5762 196.661 18.166C197.003 17.7559 197.325 17.3408 197.628 16.9209C197.931 16.501 198.185 16.0859 198.39 15.6758C198.438 15.5977 198.468 15.5244 198.478 15.4561C198.497 15.3877 198.507 15.3242 198.507 15.2656C198.507 15.0801 198.409 14.8848 198.214 14.6797C198.028 14.4746 197.784 14.2695 197.481 14.0645C197.179 13.8594 196.832 13.6592 196.441 13.4639C196.061 13.2588 195.675 13.0732 195.284 12.9072C194.894 12.7314 194.518 12.5752 194.156 12.4385C193.795 12.292 193.487 12.1748 193.233 12.0869C192.892 11.9502 192.721 11.7598 192.721 11.5156C192.721 11.418 192.77 11.2568 192.867 11.0322C192.975 10.8076 193.106 10.5781 193.263 10.3438C193.419 10.1094 193.59 9.90427 193.775 9.72847C193.971 9.55267 194.151 9.46477 194.317 9.46477C194.366 9.46477 194.415 9.46967 194.464 9.47947C194.522 9.47947 194.581 9.49407 194.64 9.52337C195.167 9.70897 195.689 9.91887 196.207 10.1533C196.725 10.3877 197.242 10.6416 197.76 10.915C198.111 11.0908 198.512 11.3008 198.961 11.5449C199.42 11.7891 199.85 12.0625 200.25 12.3652C200.65 12.668 200.987 13.0049 201.261 13.376C201.544 13.7373 201.686 14.1377 201.686 14.5771C201.686 15.0947 201.51 15.6758 201.158 16.3203C200.816 16.9648 200.387 17.624 199.869 18.2979C199.361 18.9717 198.814 19.6309 198.229 20.2754C197.643 20.9199 197.105 21.4961 196.617 22.0039ZM231.498 17.2432C231.439 17.0576 231.41 16.8867 231.41 16.7305C231.41 16.2715 231.659 15.9199 232.157 15.6758C232.362 15.5781 232.533 15.5 232.67 15.4414C232.807 15.373 232.919 15.3242 233.007 15.2949C233.104 15.2559 233.183 15.2314 233.241 15.2217C233.3 15.2119 233.358 15.207 233.417 15.207C233.642 15.207 233.837 15.3193 234.003 15.5439C234.169 15.7588 234.315 16.0371 234.442 16.3789C234.579 16.7109 234.696 17.0723 234.794 17.4629C234.901 17.8438 235.009 18.2051 235.116 18.5469C235.233 18.8789 235.355 19.1572 235.482 19.3818C235.619 19.5967 235.78 19.7041 235.966 19.7041C236.171 19.7041 236.371 19.6113 236.566 19.4258C236.771 19.2305 236.957 18.9863 237.123 18.6934C237.289 18.4004 237.421 18.083 237.519 17.7412C237.626 17.3994 237.68 17.0723 237.68 16.7598C237.68 15.7637 237.489 14.875 237.108 14.0938C236.728 13.3027 236.234 12.6338 235.629 12.0869C235.023 11.54 234.335 11.125 233.563 10.8418C232.802 10.5488 232.04 10.4023 231.278 10.4023C230.37 10.4023 229.623 10.5098 229.037 10.7246C228.451 10.9395 227.987 11.252 227.646 11.6621C227.313 12.0625 227.079 12.5557 226.942 13.1416C226.815 13.7275 226.752 14.3916 226.752 15.1338C226.752 15.7002 226.859 16.2568 227.074 16.8037C227.289 17.3408 227.602 17.8389 228.012 18.2979C228.422 18.7568 228.925 19.1621 229.521 19.5137C230.116 19.8652 230.795 20.1289 231.557 20.3047C231.605 20.3242 231.645 20.334 231.674 20.334C231.703 20.334 231.742 20.334 231.791 20.334C231.947 20.334 232.069 20.2852 232.157 20.1875C232.255 20.0898 232.304 19.9678 232.304 19.8213C232.304 19.7725 232.299 19.7285 232.289 19.6895C232.279 19.6406 232.265 19.582 232.245 19.5137L231.498 17.2432ZM223.72 15.2363C223.72 15.1289 223.725 14.9971 223.734 14.8408C223.744 14.6846 223.749 14.5234 223.749 14.3574C223.749 14.2012 223.739 14.0449 223.72 13.8887C223.7 13.7324 223.661 13.5908 223.603 13.4639C223.554 13.3271 223.48 13.2148 223.383 13.127C223.285 13.0293 223.158 12.9707 223.002 12.9512C222.826 12.9316 222.68 12.8633 222.562 12.7461C222.455 12.6191 222.401 12.4678 222.401 12.292C222.401 12.0283 222.494 11.7695 222.68 11.5156C223.129 10.832 223.671 10.251 224.306 9.77247C224.95 9.28417 225.653 8.88867 226.415 8.58587C227.177 8.28317 227.978 8.06347 228.817 7.92677C229.657 7.78027 230.502 7.70697 231.352 7.70697C232.035 7.70697 232.738 7.78997 233.461 7.95607C234.184 8.11227 234.887 8.35157 235.57 8.67377C236.264 8.99607 236.918 9.39157 237.533 9.86037C238.148 10.3291 238.686 10.876 239.145 11.501C239.604 12.1162 239.965 12.8047 240.229 13.5664C240.502 14.3184 240.639 15.1436 240.639 16.042C240.639 16.7939 240.551 17.4824 240.375 18.1074C240.199 18.7324 239.95 19.2988 239.628 19.8066C239.315 20.3145 238.935 20.7686 238.485 21.1689C238.036 21.5596 237.538 21.8916 236.991 22.165C236.669 22.3018 236.508 22.5215 236.508 22.8242C236.508 22.8535 236.508 22.8877 236.508 22.9268C236.508 22.9561 236.513 22.9854 236.522 23.0146C236.522 23.0537 236.527 23.0879 236.537 23.1172C236.586 23.3809 236.649 23.7031 236.728 24.084C236.815 24.4746 236.898 24.875 236.977 25.2852C237.064 25.7051 237.138 26.1055 237.196 26.4863C237.255 26.877 237.284 27.2041 237.284 27.4678C237.284 28.0732 236.942 28.4541 236.259 28.6104C236.054 28.6592 235.858 28.6934 235.673 28.7129C235.487 28.7422 235.365 28.7568 235.307 28.7568C234.711 28.7568 234.369 28.4102 234.281 27.7168C234.193 27.043 234.081 26.3838 233.944 25.7393C233.817 25.0947 233.681 24.4502 233.534 23.8057C233.476 23.5811 233.393 23.4199 233.285 23.3223C233.188 23.2246 233.07 23.1758 232.934 23.1758H232.509C231.21 23.1758 230.023 22.9658 228.949 22.5459C227.875 22.1162 226.947 21.54 226.166 20.8174C225.395 20.085 224.794 19.2402 224.364 18.2832C223.935 17.3262 223.72 16.3105 223.72 15.2363ZM266.057 25.6953C266.018 25.8711 265.959 26.0225 265.881 26.1494C265.803 26.2861 265.695 26.3984 265.559 26.4863C265.422 26.584 265.241 26.6572 265.017 26.7061C264.802 26.7549 264.538 26.7793 264.226 26.7793C263.864 26.7793 263.581 26.7012 263.376 26.5449C263.181 26.3984 263.083 26.1885 263.083 25.915C263.083 25.8467 263.093 25.7393 263.112 25.5928C263.142 25.4561 263.195 25.2021 263.273 24.8311C263.371 24.3525 263.464 23.8154 263.552 23.2197C263.649 22.6338 263.732 22.0137 263.801 21.3594C263.879 20.7051 263.938 20.0312 263.977 19.3379C264.025 18.6348 264.05 17.9365 264.05 17.2432C264.05 15.8467 263.938 14.4404 263.713 13.0244C263.488 11.6084 263.068 10.2656 262.453 8.99607C262.355 8.79097 262.243 8.60057 262.116 8.42477C261.999 8.24897 261.882 8.08297 261.765 7.92677C261.657 7.77047 261.564 7.61907 261.486 7.47267C261.418 7.32617 261.384 7.17967 261.384 7.03317C261.384 6.86717 261.442 6.71087 261.56 6.56447C261.687 6.40817 261.906 6.21777 262.219 5.99317C262.502 5.79787 262.722 5.66597 262.878 5.59767C263.034 5.51947 263.176 5.48047 263.303 5.48047C263.469 5.48047 263.659 5.58297 263.874 5.78807C264.099 5.98337 264.338 6.25197 264.592 6.59377C265.012 7.18947 265.373 7.89747 265.676 8.71777C265.988 9.52827 266.242 10.4023 266.438 11.3398C266.633 12.2676 266.779 13.2246 266.877 14.2109C266.975 15.1973 267.023 16.1592 267.023 17.0967C267.023 18.5225 266.931 19.958 266.745 21.4033C266.569 22.8486 266.34 24.2793 266.057 25.6953Z" fill="black"/>
<path d="M110.952 125.084C110.992 124.909 111.05 124.757 111.128 124.63C111.206 124.494 111.314 124.381 111.451 124.293C111.597 124.196 111.778 124.123 111.993 124.074C112.207 124.025 112.471 124 112.784 124C113.145 124 113.423 124.079 113.619 124.235C113.824 124.381 113.926 124.591 113.926 124.865C113.926 124.933 113.916 125.041 113.897 125.187C113.877 125.324 113.828 125.578 113.75 125.949C113.653 126.427 113.555 126.964 113.457 127.56C113.369 128.146 113.286 128.766 113.208 129.42C113.14 130.075 113.081 130.753 113.033 131.457C112.994 132.15 112.974 132.843 112.974 133.537C112.974 134.23 112.998 134.933 113.047 135.646C113.096 136.349 113.179 137.052 113.296 137.755C113.423 138.458 113.584 139.152 113.78 139.835C113.985 140.509 114.244 141.159 114.556 141.784C114.654 141.989 114.766 142.179 114.893 142.355C115.02 142.531 115.137 142.697 115.244 142.853C115.352 143.009 115.445 143.161 115.523 143.307C115.601 143.454 115.64 143.6 115.64 143.747C115.64 143.913 115.577 144.069 115.45 144.215C115.332 144.372 115.118 144.562 114.805 144.787C114.522 144.982 114.297 145.114 114.131 145.182C113.975 145.26 113.838 145.299 113.721 145.299C113.555 145.299 113.36 145.197 113.135 144.992C112.92 144.796 112.686 144.528 112.432 144.186C112.012 143.59 111.646 142.882 111.333 142.062C111.031 141.251 110.782 140.382 110.586 139.455C110.391 138.527 110.244 137.57 110.147 136.583C110.049 135.587 110 134.621 110 133.683C110 132.257 110.088 130.822 110.264 129.376C110.44 127.931 110.669 126.5 110.952 125.084ZM166.344 143.205C166.344 142.882 166.329 142.462 166.3 141.945C166.281 141.427 166.251 140.856 166.212 140.231C166.173 139.606 166.129 138.942 166.08 138.239C166.032 137.536 165.978 136.837 165.919 136.144C165.861 135.451 165.802 134.782 165.744 134.137C165.695 133.483 165.646 132.892 165.597 132.365C165.519 131.613 165.411 131.061 165.275 130.709C165.138 130.358 164.913 130.182 164.601 130.182C164.308 130.182 164.113 130.265 164.015 130.431C163.927 130.597 163.873 130.802 163.854 131.046C163.844 131.291 163.839 131.559 163.839 131.852C163.849 132.135 163.805 132.399 163.707 132.643C163.619 132.887 163.449 133.092 163.195 133.258C162.941 133.424 162.55 133.507 162.023 133.507C161.652 133.507 161.334 133.356 161.071 133.053C160.807 132.741 160.675 132.291 160.675 131.706C160.675 130.885 160.919 130.143 161.408 129.479C161.886 128.805 162.565 128.234 163.444 127.765C164.323 127.287 165.382 126.916 166.622 126.652C167.863 126.388 169.24 126.256 170.753 126.256C171.837 126.256 172.838 126.378 173.756 126.623C174.674 126.857 175.465 127.189 176.129 127.619C176.803 128.039 177.33 128.541 177.711 129.127C178.092 129.704 178.283 130.333 178.283 131.017C178.283 131.789 178.058 132.526 177.609 133.229C177.16 133.932 176.539 134.577 175.748 135.163C174.967 135.749 174.044 136.261 172.98 136.701C171.915 137.13 170.773 137.467 169.552 137.711C169.21 137.77 169.039 137.98 169.039 138.341C169.039 138.585 169.054 138.893 169.083 139.264C169.122 139.625 169.157 140.006 169.186 140.407C169.225 140.807 169.259 141.203 169.288 141.593C169.327 141.984 169.347 142.331 169.347 142.633C169.347 143.18 169.22 143.571 168.966 143.805C168.712 144.04 168.336 144.157 167.838 144.157C167.369 144.157 167.003 144.074 166.74 143.908C166.476 143.751 166.344 143.517 166.344 143.205ZM175.25 131.442C175.25 131.11 175.109 130.792 174.826 130.49C174.542 130.187 174.161 129.918 173.683 129.684C173.204 129.45 172.648 129.264 172.013 129.127C171.388 128.991 170.729 128.922 170.036 128.922C169.694 128.922 169.406 128.937 169.171 128.966C168.947 128.986 168.766 129.025 168.629 129.083C168.493 129.142 168.395 129.22 168.336 129.318C168.287 129.406 168.263 129.523 168.263 129.669C168.263 129.767 168.278 129.997 168.307 130.358C168.336 130.709 168.375 131.12 168.424 131.588C168.473 132.057 168.522 132.55 168.571 133.068C168.629 133.576 168.688 134.035 168.746 134.445C168.776 134.748 168.815 134.948 168.864 135.045C168.922 135.143 169.01 135.192 169.127 135.192C169.459 135.192 169.84 135.138 170.27 135.031C170.7 134.914 171.139 134.762 171.588 134.577C172.047 134.381 172.492 134.162 172.921 133.917C173.361 133.664 173.751 133.4 174.093 133.126C174.445 132.843 174.723 132.56 174.928 132.277C175.143 131.984 175.25 131.706 175.25 131.442ZM202.25 144.215C202.211 144.391 202.153 144.542 202.075 144.669C201.996 144.806 201.889 144.918 201.752 145.006C201.616 145.104 201.435 145.177 201.21 145.226C200.995 145.275 200.732 145.299 200.419 145.299C200.058 145.299 199.775 145.221 199.57 145.065C199.374 144.918 199.277 144.708 199.277 144.435C199.277 144.367 199.286 144.259 199.306 144.113C199.335 143.976 199.389 143.722 199.467 143.351C199.565 142.873 199.658 142.335 199.745 141.74C199.843 141.154 199.926 140.534 199.994 139.879C200.073 139.225 200.131 138.551 200.17 137.858C200.219 137.155 200.244 136.457 200.244 135.763C200.244 134.367 200.131 132.96 199.907 131.544C199.682 130.128 199.262 128.786 198.647 127.516C198.549 127.311 198.437 127.121 198.31 126.945C198.193 126.769 198.076 126.603 197.958 126.447C197.851 126.291 197.758 126.139 197.68 125.993C197.612 125.846 197.577 125.7 197.577 125.553C197.577 125.387 197.636 125.231 197.753 125.084C197.88 124.928 198.1 124.738 198.412 124.513C198.696 124.318 198.915 124.186 199.072 124.118C199.228 124.04 199.369 124 199.496 124C199.662 124 199.853 124.103 200.068 124.308C200.292 124.503 200.532 124.772 200.786 125.114C201.205 125.709 201.567 126.417 201.869 127.238C202.182 128.048 202.436 128.922 202.631 129.86C202.827 130.788 202.973 131.745 203.071 132.731C203.168 133.717 203.217 134.679 203.217 135.617C203.217 137.042 203.124 138.478 202.939 139.923C202.763 141.369 202.534 142.799 202.25 144.215Z" fill="black"/>
<path d="M79.3539 60.5645C79.3939 60.3887 79.4519 60.2373 79.5299 60.1104C79.6079 59.9736 79.7159 59.8613 79.8529 59.7734C79.9989 59.6758 80.1799 59.6025 80.3949 59.5537C80.6089 59.5049 80.8729 59.4805 81.1859 59.4805C81.5469 59.4805 81.8249 59.5586 82.0209 59.7148C82.2259 59.8613 82.3279 60.0713 82.3279 60.3447C82.3279 60.4131 82.3179 60.5205 82.2989 60.667C82.2789 60.8037 82.2299 61.0576 82.1519 61.4287C82.0549 61.9072 81.9569 62.444 81.8589 63.04C81.7709 63.626 81.6879 64.246 81.6099 64.9C81.5419 65.555 81.4829 66.233 81.4349 66.937C81.3959 67.63 81.3759 68.323 81.3759 69.017C81.3759 69.71 81.3999 70.413 81.4489 71.126C81.4979 71.829 81.5809 72.532 81.6979 73.235C81.8249 73.938 81.9859 74.632 82.1819 75.315C82.3869 75.989 82.6459 76.639 82.9579 77.264C83.0559 77.469 83.1679 77.659 83.2949 77.835C83.4219 78.011 83.5389 78.177 83.6459 78.333C83.7539 78.489 83.8469 78.641 83.9249 78.787C84.0029 78.934 84.0419 79.08 84.0419 79.227C84.0419 79.393 83.9789 79.549 83.8519 79.695C83.7339 79.852 83.5199 80.042 83.2069 80.267C82.9239 80.462 82.6989 80.594 82.5329 80.662C82.3769 80.74 82.2399 80.779 82.1229 80.779C81.9569 80.779 81.7619 80.677 81.5369 80.472C81.3219 80.276 81.0879 80.008 80.8339 79.666C80.4139 79.07 80.0479 78.362 79.7349 77.542C79.4329 76.731 79.1839 75.862 78.9879 74.935C78.7929 74.007 78.6459 73.05 78.5489 72.063C78.4509 71.067 78.4019 70.101 78.4019 69.163C78.4019 67.737 78.4899 66.302 78.6659 64.856C78.8419 63.411 79.0709 61.9805 79.3539 60.5645ZM139.697 71.243C139.639 71.058 139.609 70.887 139.609 70.73C139.609 70.271 139.858 69.92 140.356 69.676C140.562 69.578 140.732 69.5 140.869 69.441C141.006 69.373 141.118 69.324 141.206 69.295C141.304 69.256 141.382 69.231 141.44 69.222C141.499 69.212 141.558 69.207 141.616 69.207C141.841 69.207 142.036 69.319 142.202 69.544C142.368 69.759 142.515 70.037 142.642 70.379C142.778 70.711 142.896 71.072 142.993 71.463C143.101 71.844 143.208 72.205 143.315 72.547C143.433 72.879 143.555 73.157 143.682 73.382C143.818 73.597 143.979 73.704 144.165 73.704C144.37 73.704 144.57 73.611 144.766 73.426C144.971 73.23 145.156 72.986 145.322 72.693C145.488 72.4 145.62 72.083 145.718 71.741C145.825 71.399 145.879 71.072 145.879 70.76C145.879 69.764 145.688 68.875 145.308 68.094C144.927 67.303 144.434 66.634 143.828 66.087C143.223 65.54 142.534 65.125 141.763 64.842C141.001 64.549 140.239 64.402 139.478 64.402C138.569 64.402 137.822 64.51 137.236 64.725C136.65 64.939 136.187 65.252 135.845 65.662C135.513 66.062 135.278 66.556 135.142 67.142C135.015 67.728 134.951 68.392 134.951 69.134C134.951 69.7 135.059 70.257 135.273 70.804C135.488 71.341 135.801 71.839 136.211 72.298C136.621 72.757 137.124 73.162 137.72 73.514C138.315 73.865 138.994 74.129 139.756 74.305C139.805 74.324 139.844 74.334 139.873 74.334C139.902 74.334 139.941 74.334 139.99 74.334C140.146 74.334 140.269 74.285 140.356 74.188C140.454 74.09 140.503 73.968 140.503 73.821C140.503 73.772 140.498 73.729 140.488 73.689C140.479 73.641 140.464 73.582 140.444 73.514L139.697 71.243ZM131.919 69.236C131.919 69.129 131.924 68.997 131.934 68.841C131.943 68.685 131.948 68.523 131.948 68.357C131.948 68.201 131.938 68.045 131.919 67.889C131.899 67.732 131.86 67.591 131.802 67.464C131.753 67.327 131.68 67.215 131.582 67.127C131.484 67.029 131.357 66.971 131.201 66.951C131.025 66.932 130.879 66.863 130.762 66.746C130.654 66.619 130.601 66.468 130.601 66.292C130.601 66.028 130.693 65.77 130.879 65.516C131.328 64.832 131.87 64.251 132.505 63.772C133.149 63.284 133.853 62.889 134.614 62.586C135.376 62.283 136.177 62.063 137.017 61.9268C137.856 61.7803 138.701 61.707 139.551 61.707C140.234 61.707 140.938 61.79 141.66 61.9561C142.383 62.112 143.086 62.352 143.77 62.674C144.463 62.996 145.117 63.392 145.732 63.86C146.348 64.329 146.885 64.876 147.344 65.501C147.803 66.116 148.164 66.805 148.428 67.566C148.701 68.318 148.838 69.144 148.838 70.042C148.838 70.794 148.75 71.482 148.574 72.107C148.398 72.732 148.149 73.299 147.827 73.807C147.515 74.314 147.134 74.769 146.685 75.169C146.235 75.56 145.737 75.892 145.19 76.165C144.868 76.302 144.707 76.521 144.707 76.824C144.707 76.854 144.707 76.888 144.707 76.927C144.707 76.956 144.712 76.985 144.722 77.015C144.722 77.054 144.727 77.088 144.736 77.117C144.785 77.381 144.849 77.703 144.927 78.084C145.015 78.475 145.098 78.875 145.176 79.285C145.264 79.705 145.337 80.105 145.396 80.486C145.454 80.877 145.483 81.204 145.483 81.468C145.483 82.073 145.142 82.454 144.458 82.61C144.253 82.659 144.058 82.693 143.872 82.713C143.687 82.742 143.564 82.757 143.506 82.757C142.91 82.757 142.568 82.41 142.48 81.717C142.393 81.043 142.28 80.384 142.144 79.739C142.017 79.095 141.88 78.45 141.733 77.806C141.675 77.581 141.592 77.42 141.484 77.322C141.387 77.225 141.27 77.176 141.133 77.176H140.708C139.409 77.176 138.223 76.966 137.148 76.546C136.074 76.116 135.146 75.54 134.365 74.817C133.594 74.085 132.993 73.24 132.563 72.283C132.134 71.326 131.919 70.311 131.919 69.236ZM174.256 79.695C174.217 79.871 174.158 80.022 174.08 80.149C174.002 80.286 173.895 80.398 173.758 80.486C173.621 80.584 173.44 80.657 173.216 80.706C173.001 80.755 172.737 80.779 172.425 80.779C172.063 80.779 171.78 80.701 171.575 80.545C171.38 80.398 171.282 80.188 171.282 79.915C171.282 79.847 171.292 79.739 171.312 79.593C171.341 79.456 171.395 79.202 171.473 78.831C171.57 78.353 171.663 77.815 171.751 77.22C171.849 76.634 171.932 76.014 172 75.359C172.078 74.705 172.137 74.031 172.176 73.338C172.225 72.635 172.249 71.937 172.249 71.243C172.249 69.847 172.137 68.44 171.912 67.024C171.688 65.608 171.268 64.266 170.652 62.996C170.555 62.791 170.442 62.601 170.315 62.425C170.198 62.249 170.081 62.083 169.964 61.9268C169.856 61.7705 169.764 61.6191 169.686 61.4727C169.617 61.3262 169.583 61.1797 169.583 61.0332C169.583 60.8672 169.642 60.7109 169.759 60.5645C169.886 60.4082 170.105 60.2178 170.418 59.9932C170.701 59.7979 170.921 59.666 171.077 59.5977C171.233 59.5195 171.375 59.4805 171.502 59.4805C171.668 59.4805 171.858 59.583 172.073 59.7881C172.298 59.9834 172.537 60.252 172.791 60.5938C173.211 61.1895 173.572 61.8975 173.875 62.718C174.188 63.528 174.441 64.402 174.637 65.34C174.832 66.268 174.979 67.225 175.076 68.211C175.174 69.197 175.223 70.159 175.223 71.097C175.223 72.522 175.13 73.958 174.944 75.403C174.769 76.849 174.539 78.279 174.256 79.695Z" fill="black"/>
<path d="M56.8577 84.1631L39.0684 84.0081L39.081 82.5681L53.7504 82.6961L53.8166 75.1061L40.8571 74.993L40.8694 73.5831L53.829 73.6961L53.9085 64.576L39.2391 64.4481L39.2517 63.0081L57.041 63.1641L56.8577 84.1631Z" fill="black"/>
<path d="M70 13H85" stroke="black" stroke-width="2"/>
<path d="M59 131H74" stroke="black" stroke-width="2"/>
<path d="M34 11.5H49" stroke="black" stroke-width="3"/>
<path d="M77 32.5H79" stroke="black"/>
<path d="M41 31.5H43" stroke="black"/>
<path d="M2.29883 20.6191C2.11653 20.7949 1.92452 20.8828 1.72272 20.8828C1.63152 20.8828 1.53713 20.8633 1.43953 20.8242C1.34183 20.7786 1.22792 20.7038 1.09772 20.5996C0.856825 20.4173 0.736328 20.2253 0.736328 20.0234C0.736328 19.8932 0.811226 19.7402 0.960926 19.5645C1.10423 19.3887 1.29303 19.2064 1.52733 19.0176C1.76173 18.8223 2.02543 18.6237 2.31843 18.4219C2.61783 18.2201 2.92063 18.028 3.22663 17.8457C3.53263 17.6634 3.82883 17.4974 4.11523 17.3477C4.40173 17.1979 4.64913 17.0742 4.85743 16.9766C4.98113 16.9245 5.09513 16.8854 5.19923 16.8594C5.30343 16.8333 5.41083 16.8203 5.52153 16.8203C5.74283 16.8203 5.93162 16.8594 6.08792 16.9375C6.25072 17.0091 6.38743 17.11 6.49803 17.2402C6.60873 17.3704 6.69993 17.5202 6.77153 17.6895C6.84963 17.8522 6.91153 18.0247 6.95703 18.207C7.00913 18.3828 7.05143 18.5651 7.08403 18.7539C7.11653 18.9362 7.14913 19.1055 7.18163 19.2617C7.23373 19.5286 7.28582 19.8379 7.33792 20.1895C7.39652 20.5345 7.44863 20.8958 7.49413 21.2734C7.53973 21.6445 7.58203 22.0156 7.62113 22.3867C7.66673 22.7513 7.70573 23.0931 7.73833 23.4121C7.77083 23.7246 7.79363 23.998 7.80663 24.2324C7.82623 24.4603 7.83593 24.623 7.83593 24.7207C7.83593 25.1764 7.61133 25.4434 7.16213 25.5215C6.91473 25.5736 6.75203 25.6029 6.67383 25.6094C6.59573 25.6159 6.54363 25.6191 6.51763 25.6191C6.31583 25.6191 6.15303 25.5605 6.02933 25.4434C5.91213 25.3262 5.84383 25.1504 5.82423 24.916C5.75263 24.0436 5.67123 23.1777 5.58013 22.3184C5.48893 21.4525 5.34902 20.5931 5.16022 19.7402C5.12112 19.5514 5.05273 19.4082 4.95513 19.3105C4.85743 19.2129 4.74023 19.1641 4.60353 19.1641C4.47333 19.1641 4.31053 19.2161 4.11523 19.3203C3.91993 19.4245 3.71483 19.5514 3.50003 19.7012C3.28523 19.8509 3.07033 20.0104 2.85553 20.1797C2.64713 20.3424 2.46163 20.4889 2.29883 20.6191ZM16.3672 25.8242C16.1784 25.8242 15.9993 25.7949 15.8301 25.7363C15.6673 25.6777 15.5241 25.5996 15.4004 25.502C15.2767 25.3978 15.179 25.2773 15.1074 25.1406C15.0423 25.0039 15.0098 24.8574 15.0098 24.7012C15.0098 24.4277 15.1172 24.2064 15.332 24.0371C15.5534 23.8678 15.8431 23.7832 16.2012 23.7832C16.3704 23.7832 16.5332 23.8158 16.6895 23.8809C16.8522 23.9395 16.9922 24.0208 17.1094 24.125C17.2331 24.2292 17.3307 24.3496 17.4023 24.4863C17.474 24.623 17.5098 24.7663 17.5098 24.916C17.5098 25.2025 17.4056 25.4271 17.1973 25.5898C16.9954 25.7461 16.7188 25.8242 16.3672 25.8242Z" fill="black"/>
<path d="M3.80273 70.08C3.71163 70.23 3.61393 70.344 3.50983 70.422C3.40563 70.5 3.28843 70.539 3.15823 70.539C3.09963 70.539 3.02803 70.526 2.94343 70.5C2.85873 70.474 2.73183 70.422 2.56253 70.344C2.25653 70.174 2.10353 69.96 2.10353 69.699C2.10353 69.549 2.14913 69.403 2.24023 69.26C2.41603 68.986 2.62113 68.736 2.85553 68.508C3.09643 68.273 3.36653 68.072 3.66603 67.902C3.97203 67.733 4.30733 67.6 4.67193 67.502C5.04303 67.404 5.44663 67.355 5.88283 67.355C6.33203 67.355 6.75853 67.424 7.16213 67.561C7.56583 67.697 7.92063 67.893 8.22663 68.146C8.53263 68.394 8.77343 68.7 8.94923 69.064C9.13153 69.423 9.22272 69.826 9.22272 70.275C9.22272 70.816 9.11522 71.343 8.90042 71.857C8.68552 72.365 8.40563 72.86 8.06053 73.342C7.72203 73.817 7.33793 74.273 6.90823 74.709C6.47853 75.139 6.04883 75.542 5.61913 75.92C5.54753 75.979 5.49542 76.037 5.46292 76.096C5.43682 76.154 5.42383 76.21 5.42383 76.262C5.42383 76.333 5.45643 76.395 5.52153 76.447C5.59313 76.493 5.69403 76.516 5.82423 76.516C6.47533 76.548 7.11983 76.594 7.75783 76.652C8.39583 76.704 9.03713 76.766 9.68163 76.838C10.1178 76.896 10.3359 77.111 10.3359 77.482C10.3359 77.535 10.3327 77.596 10.3262 77.668C10.3197 77.733 10.2904 77.857 10.2383 78.039C10.1862 78.26 10.0853 78.423 9.93553 78.527C9.79233 78.632 9.61983 78.684 9.41803 78.684C9.28783 78.684 9.08273 78.671 8.80273 78.645C8.52283 78.625 8.19733 78.599 7.82623 78.566C7.45513 78.534 7.05143 78.495 6.61523 78.449C6.17903 78.41 5.73633 78.374 5.28713 78.342C4.84443 78.309 4.40823 78.28 3.97853 78.254C3.54883 78.234 3.15493 78.225 2.79693 78.225C2.65363 78.225 2.52993 78.192 2.42583 78.127C2.32813 78.068 2.24673 77.99 2.18163 77.893C2.12303 77.788 2.08073 77.668 2.05473 77.531C2.02863 77.395 2.01562 77.251 2.01562 77.102C2.01562 76.919 2.05473 76.763 2.13283 76.633C2.21743 76.496 2.33463 76.372 2.48443 76.262C2.78393 76.04 3.10613 75.796 3.45123 75.529C3.80273 75.262 4.15433 74.979 4.50593 74.68C4.85743 74.38 5.19273 74.068 5.51173 73.742C5.83723 73.41 6.12373 73.075 6.37113 72.736C6.62503 72.391 6.82683 72.046 6.97663 71.701C7.12633 71.35 7.20123 71.001 7.20123 70.656C7.20123 70.422 7.15233 70.214 7.05473 70.031C6.96353 69.842 6.83663 69.683 6.67383 69.553C6.51763 69.416 6.33533 69.315 6.12703 69.25C5.91863 69.178 5.70383 69.143 5.48243 69.143C5.05273 69.143 4.70773 69.234 4.44733 69.416C4.18683 69.598 3.97203 69.82 3.80273 70.08ZM18.0859 77.824C17.8971 77.824 17.7181 77.795 17.5488 77.736C17.3861 77.678 17.2428 77.6 17.1191 77.502C16.9954 77.398 16.8978 77.277 16.8262 77.141C16.7611 77.004 16.7285 76.857 16.7285 76.701C16.7285 76.428 16.8359 76.206 17.0508 76.037C17.2721 75.868 17.5618 75.783 17.9199 75.783C18.0892 75.783 18.252 75.816 18.4082 75.881C18.571 75.939 18.7109 76.021 18.8281 76.125C18.9518 76.229 19.0495 76.35 19.1211 76.486C19.1927 76.623 19.2285 76.766 19.2285 76.916C19.2285 77.202 19.1243 77.427 18.916 77.59C18.7142 77.746 18.4375 77.824 18.0859 77.824Z" fill="black"/>
<path d="M10 107H283" stroke="black" stroke-width="3"/>
<path d="M103 67.262H117.036" stroke="black" stroke-width="3"/>
<path d="M115.261 80.009V67" stroke="black" stroke-width="3"/>
<path d="M132 132.262H146.036" stroke="black" stroke-width="3"/>
<path d="M144.261 145.009V132" stroke="black" stroke-width="3"/>
</svg>