<svg width="332" height="226" viewBox="0 0 332 226" fill="none" xmlns="http://www.w3.org/2000/svg">
<line x1="101.428" y1="39.5395" x2="111.428" y2="70.5395" stroke="black" stroke-width="3"/>
<line x1="90.4276" y1="157.539" x2="100.428" y2="188.539" stroke="black" stroke-width="3"/>
<line x1="65.4276" y1="38.5395" x2="75.4276" y2="69.5395" stroke="black" stroke-width="3"/>
<line x1="112.572" y1="70.5392" x2="122.573" y2="39.5394" stroke="black" stroke-width="3"/>
<line x1="101.572" y1="188.539" x2="111.573" y2="157.539" stroke="black" stroke-width="3"/>
<line x1="76.5724" y1="69.5392" x2="86.5732" y2="38.5394" stroke="black" stroke-width="3"/>
<path d="M126.799 72.8047C126.656 73.1497 126.438 73.3223 126.145 73.3223C126.027 73.3223 125.894 73.2897 125.744 73.2246L125.48 73.0977C125.161 72.9414 125.002 72.7233 125.002 72.4434C125.002 72.3001 125.028 72.1667 125.08 72.043C125.282 71.5677 125.5 71.0762 125.734 70.5684C125.969 70.054 126.216 69.5299 126.477 68.9961C126.496 68.944 126.516 68.8952 126.535 68.8496C126.555 68.804 126.564 68.7617 126.564 68.7227C126.564 68.5664 126.483 68.4264 126.32 68.3027C125.773 67.8926 125.23 67.4824 124.689 67.0723C124.156 66.6556 123.612 66.2454 123.059 65.8418C122.818 65.6725 122.697 65.4772 122.697 65.2559C122.697 65.1647 122.714 65.0768 122.746 64.9922C122.779 64.901 122.837 64.8099 122.922 64.7188L123.195 64.3965C123.384 64.1751 123.592 64.0645 123.82 64.0645C123.898 64.0645 123.977 64.084 124.055 64.123C124.139 64.1556 124.227 64.2012 124.318 64.2598C124.8 64.6113 125.275 64.9629 125.744 65.3145C126.219 65.6595 126.691 66.0143 127.16 66.3789C127.219 66.418 127.274 66.4505 127.326 66.4766C127.378 66.5026 127.43 66.5156 127.482 66.5156C127.626 66.5156 127.753 66.4245 127.863 66.2422C128.176 65.6367 128.498 65.0378 128.83 64.4453C129.162 63.8529 129.504 63.2702 129.855 62.6973C130.031 62.4303 130.24 62.2969 130.48 62.2969C130.617 62.2969 130.777 62.3522 130.959 62.4629L131.115 62.5605C131.382 62.7363 131.516 62.9414 131.516 63.1758C131.516 63.2604 131.503 63.3451 131.477 63.4297C131.451 63.5078 131.411 63.5924 131.359 63.6836C130.975 64.2956 130.611 64.9141 130.266 65.5391C129.921 66.1641 129.585 66.7988 129.26 67.4434C129.24 67.4954 129.221 67.541 129.201 67.5801C129.188 67.6191 129.182 67.6582 129.182 67.6973C129.182 67.86 129.26 68 129.416 68.1172C130.171 68.7031 130.92 69.2923 131.662 69.8848C132.404 70.4707 133.15 71.0501 133.898 71.623C134.126 71.7988 134.24 71.9909 134.24 72.1992C134.24 72.3945 134.139 72.5801 133.938 72.7559L133.596 73.0586C133.407 73.2344 133.215 73.3223 133.02 73.3223C132.844 73.3223 132.665 73.2474 132.482 73.0977L128.615 70.0801C128.557 70.041 128.501 70.0085 128.449 69.9824C128.404 69.9564 128.355 69.9434 128.303 69.9434C128.146 69.9434 128.02 70.041 127.922 70.2363L126.799 72.8047Z" fill="black"/>
<path d="M115.799 190.805C115.656 191.15 115.438 191.322 115.145 191.322C115.027 191.322 114.894 191.29 114.744 191.225L114.48 191.098C114.161 190.941 114.002 190.723 114.002 190.443C114.002 190.3 114.028 190.167 114.08 190.043C114.282 189.568 114.5 189.076 114.734 188.568C114.969 188.054 115.216 187.53 115.477 186.996C115.496 186.944 115.516 186.895 115.535 186.85C115.555 186.804 115.564 186.762 115.564 186.723C115.564 186.566 115.483 186.426 115.32 186.303C114.773 185.893 114.23 185.482 113.689 185.072C113.156 184.656 112.612 184.245 112.059 183.842C111.818 183.673 111.697 183.477 111.697 183.256C111.697 183.165 111.714 183.077 111.746 182.992C111.779 182.901 111.837 182.81 111.922 182.719L112.195 182.396C112.384 182.175 112.592 182.064 112.82 182.064C112.898 182.064 112.977 182.084 113.055 182.123C113.139 182.156 113.227 182.201 113.318 182.26C113.8 182.611 114.275 182.963 114.744 183.314C115.219 183.66 115.691 184.014 116.16 184.379C116.219 184.418 116.274 184.451 116.326 184.477C116.378 184.503 116.43 184.516 116.482 184.516C116.626 184.516 116.753 184.424 116.863 184.242C117.176 183.637 117.498 183.038 117.83 182.445C118.162 181.853 118.504 181.27 118.855 180.697C119.031 180.43 119.24 180.297 119.48 180.297C119.617 180.297 119.777 180.352 119.959 180.463L120.115 180.561C120.382 180.736 120.516 180.941 120.516 181.176C120.516 181.26 120.503 181.345 120.477 181.43C120.451 181.508 120.411 181.592 120.359 181.684C119.975 182.296 119.611 182.914 119.266 183.539C118.921 184.164 118.585 184.799 118.26 185.443C118.24 185.495 118.221 185.541 118.201 185.58C118.188 185.619 118.182 185.658 118.182 185.697C118.182 185.86 118.26 186 118.416 186.117C119.171 186.703 119.92 187.292 120.662 187.885C121.404 188.471 122.15 189.05 122.898 189.623C123.126 189.799 123.24 189.991 123.24 190.199C123.24 190.395 123.139 190.58 122.938 190.756L122.596 191.059C122.407 191.234 122.215 191.322 122.02 191.322C121.844 191.322 121.665 191.247 121.482 191.098L117.615 188.08C117.557 188.041 117.501 188.008 117.449 187.982C117.404 187.956 117.355 187.943 117.303 187.943C117.146 187.943 117.02 188.041 116.922 188.236L115.799 190.805Z" fill="black"/>
<path d="M97.7988 128.805C97.6556 129.15 97.4375 129.322 97.1445 129.322C97.0273 129.322 96.8939 129.29 96.7441 129.225L96.4805 129.098C96.1615 128.941 96.002 128.723 96.002 128.443C96.002 128.3 96.028 128.167 96.0801 128.043C96.2819 127.568 96.5 127.076 96.7344 126.568C96.9688 126.054 97.2161 125.53 97.4766 124.996C97.4961 124.944 97.5156 124.895 97.5352 124.85C97.5547 124.804 97.5645 124.762 97.5645 124.723C97.5645 124.566 97.4831 124.426 97.3203 124.303C96.7734 123.893 96.2298 123.482 95.6895 123.072C95.1556 122.656 94.612 122.245 94.0586 121.842C93.8177 121.673 93.6973 121.477 93.6973 121.256C93.6973 121.165 93.7135 121.077 93.7461 120.992C93.7786 120.901 93.8372 120.81 93.9219 120.719L94.1953 120.396C94.3841 120.175 94.5924 120.064 94.8203 120.064C94.8984 120.064 94.9766 120.084 95.0547 120.123C95.1393 120.156 95.2272 120.201 95.3184 120.26C95.8001 120.611 96.2754 120.963 96.7441 121.314C97.2194 121.66 97.6914 122.014 98.1602 122.379C98.2188 122.418 98.2741 122.451 98.3262 122.477C98.3783 122.503 98.4303 122.516 98.4824 122.516C98.6257 122.516 98.7526 122.424 98.8633 122.242C99.1758 121.637 99.498 121.038 99.8301 120.445C100.162 119.853 100.504 119.27 100.855 118.697C101.031 118.43 101.24 118.297 101.48 118.297C101.617 118.297 101.777 118.352 101.959 118.463L102.115 118.561C102.382 118.736 102.516 118.941 102.516 119.176C102.516 119.26 102.503 119.345 102.477 119.43C102.451 119.508 102.411 119.592 102.359 119.684C101.975 120.296 101.611 120.914 101.266 121.539C100.921 122.164 100.585 122.799 100.26 123.443C100.24 123.495 100.221 123.541 100.201 123.58C100.188 123.619 100.182 123.658 100.182 123.697C100.182 123.86 100.26 124 100.416 124.117C101.171 124.703 101.92 125.292 102.662 125.885C103.404 126.471 104.15 127.05 104.898 127.623C105.126 127.799 105.24 127.991 105.24 128.199C105.24 128.395 105.139 128.58 104.938 128.756L104.596 129.059C104.407 129.234 104.215 129.322 104.02 129.322C103.844 129.322 103.665 129.247 103.482 129.098L99.6152 126.08C99.5566 126.041 99.5013 126.008 99.4492 125.982C99.4036 125.956 99.3548 125.943 99.3027 125.943C99.1465 125.943 99.0195 126.041 98.9219 126.236L97.7988 128.805Z" fill="black"/>
<path d="M91.8828 72.2637C91.4922 72.2637 91.1016 72.1693 90.7109 71.9805C90.3203 71.7852 89.946 71.5215 89.5879 71.1895C89.2298 70.8574 88.8978 70.4668 88.5918 70.0176C88.2858 69.5618 88.0189 69.0736 87.791 68.5527C87.5632 68.0254 87.3841 67.4753 87.2539 66.9023C87.1237 66.3294 87.0586 65.7565 87.0586 65.1836C87.0586 64.7409 87.1497 64.4251 87.332 64.2363C87.5143 64.041 87.8105 63.9434 88.2207 63.9434C88.735 63.9434 89.0215 64.1549 89.0801 64.5781C89.1973 65.4766 89.36 66.2871 89.5684 67.0098C89.7767 67.7324 90.0208 68.3477 90.3008 68.8555C90.5872 69.3633 90.903 69.7539 91.248 70.0273C91.5996 70.3008 91.9707 70.4375 92.3613 70.4375C92.6413 70.4375 92.9049 70.3691 93.1523 70.2324C93.3997 70.0892 93.6146 69.8906 93.7969 69.6367C93.862 69.5391 93.9043 69.4447 93.9238 69.3535C93.9499 69.2624 93.9694 69.1582 93.9824 69.041C94.015 68.5788 94.0508 68.1263 94.0898 67.6836C94.1354 67.2344 94.1777 66.7852 94.2168 66.3359C94.2298 66.1406 94.2559 65.9811 94.2949 65.8574C94.334 65.7337 94.3926 65.6361 94.4707 65.5645C94.5488 65.4928 94.6497 65.444 94.7734 65.418C94.9036 65.3919 95.0664 65.3789 95.2617 65.3789C95.4831 65.3789 95.6719 65.4115 95.8281 65.4766C95.9844 65.5352 96.1113 65.6361 96.209 65.7793C96.3066 65.916 96.375 66.0983 96.4141 66.3262C96.4596 66.5475 96.4824 66.8242 96.4824 67.1562C96.4824 67.4427 96.4596 67.6934 96.4141 67.9082C96.375 68.1165 96.3262 68.3151 96.2676 68.5039C96.2155 68.6862 96.1634 68.8685 96.1113 69.0508C96.0658 69.2266 96.0365 69.4219 96.0234 69.6367C95.9909 70.1771 95.9616 70.6458 95.9355 71.043C95.9095 71.4336 95.8867 71.7689 95.8672 72.0488C95.8542 72.3288 95.8411 72.5697 95.8281 72.7715C95.8216 72.9733 95.8151 73.1523 95.8086 73.3086C95.8021 73.4714 95.7988 73.6243 95.7988 73.7676C95.7988 73.9108 95.7988 74.0671 95.7988 74.2363C95.7988 74.5423 95.8118 74.8743 95.8379 75.2324C95.8639 75.597 95.89 75.9453 95.916 76.2773C95.9486 76.6094 95.9779 76.9023 96.0039 77.1562C96.0299 77.4102 96.043 77.5859 96.043 77.6836C96.043 77.8073 96.0039 77.9245 95.9258 78.0352C95.8477 78.1458 95.7435 78.2435 95.6133 78.3281C95.4831 78.4128 95.3301 78.4779 95.1543 78.5234C94.9785 78.5755 94.793 78.6016 94.5977 78.6016C94.4284 78.6016 94.2917 78.543 94.1875 78.4258C94.0898 78.3151 94.0345 78.1654 94.0215 77.9766C94.002 77.7292 93.9857 77.4264 93.9727 77.0684C93.9596 76.7168 93.9466 76.3392 93.9336 75.9355C93.9206 75.5384 93.9108 75.1315 93.9043 74.7148C93.9043 74.3047 93.901 73.9206 93.8945 73.5625C93.888 73.2109 93.8848 72.9017 93.8848 72.6348C93.8848 72.3678 93.8848 72.1758 93.8848 72.0586C93.8848 71.9414 93.8717 71.86 93.8457 71.8145C93.8197 71.7624 93.7708 71.7363 93.6992 71.7363C93.6602 71.7363 93.6081 71.7493 93.543 71.7754C93.4779 71.7949 93.403 71.8307 93.3184 71.8828C93.0905 72.0195 92.8594 72.1172 92.625 72.1758C92.3906 72.2344 92.1432 72.2637 91.8828 72.2637Z" fill="black"/>
<path d="M195.883 70.2637C195.492 70.2637 195.102 70.1693 194.711 69.9805C194.32 69.7852 193.946 69.5215 193.588 69.1895C193.23 68.8574 192.898 68.4668 192.592 68.0176C192.286 67.5618 192.019 67.0736 191.791 66.5527C191.563 66.0254 191.384 65.4753 191.254 64.9023C191.124 64.3294 191.059 63.7565 191.059 63.1836C191.059 62.7409 191.15 62.4251 191.332 62.2363C191.514 62.041 191.811 61.9434 192.221 61.9434C192.735 61.9434 193.021 62.1549 193.08 62.5781C193.197 63.4766 193.36 64.2871 193.568 65.0098C193.777 65.7324 194.021 66.3477 194.301 66.8555C194.587 67.3633 194.903 67.7539 195.248 68.0273C195.6 68.3008 195.971 68.4375 196.361 68.4375C196.641 68.4375 196.905 68.3691 197.152 68.2324C197.4 68.0892 197.615 67.8906 197.797 67.6367C197.862 67.5391 197.904 67.4447 197.924 67.3535C197.95 67.2624 197.969 67.1582 197.982 67.041C198.015 66.5788 198.051 66.1263 198.09 65.6836C198.135 65.2344 198.178 64.7852 198.217 64.3359C198.23 64.1406 198.256 63.9811 198.295 63.8574C198.334 63.7337 198.393 63.6361 198.471 63.5645C198.549 63.4928 198.65 63.444 198.773 63.418C198.904 63.3919 199.066 63.3789 199.262 63.3789C199.483 63.3789 199.672 63.4115 199.828 63.4766C199.984 63.5352 200.111 63.6361 200.209 63.7793C200.307 63.916 200.375 64.0983 200.414 64.3262C200.46 64.5475 200.482 64.8242 200.482 65.1562C200.482 65.4427 200.46 65.6934 200.414 65.9082C200.375 66.1165 200.326 66.3151 200.268 66.5039C200.215 66.6862 200.163 66.8685 200.111 67.0508C200.066 67.2266 200.036 67.4219 200.023 67.6367C199.991 68.1771 199.962 68.6458 199.936 69.043C199.91 69.4336 199.887 69.7689 199.867 70.0488C199.854 70.3288 199.841 70.5697 199.828 70.7715C199.822 70.9733 199.815 71.1523 199.809 71.3086C199.802 71.4714 199.799 71.6243 199.799 71.7676C199.799 71.9108 199.799 72.0671 199.799 72.2363C199.799 72.5423 199.812 72.8743 199.838 73.2324C199.864 73.597 199.89 73.9453 199.916 74.2773C199.949 74.6094 199.978 74.9023 200.004 75.1562C200.03 75.4102 200.043 75.5859 200.043 75.6836C200.043 75.8073 200.004 75.9245 199.926 76.0352C199.848 76.1458 199.743 76.2435 199.613 76.3281C199.483 76.4128 199.33 76.4779 199.154 76.5234C198.979 76.5755 198.793 76.6016 198.598 76.6016C198.428 76.6016 198.292 76.543 198.188 76.4258C198.09 76.3151 198.035 76.1654 198.021 75.9766C198.002 75.7292 197.986 75.4264 197.973 75.0684C197.96 74.7168 197.947 74.3392 197.934 73.9355C197.921 73.5384 197.911 73.1315 197.904 72.7148C197.904 72.3047 197.901 71.9206 197.895 71.5625C197.888 71.2109 197.885 70.9017 197.885 70.6348C197.885 70.3678 197.885 70.1758 197.885 70.0586C197.885 69.9414 197.872 69.86 197.846 69.8145C197.82 69.7624 197.771 69.7363 197.699 69.7363C197.66 69.7363 197.608 69.7493 197.543 69.7754C197.478 69.7949 197.403 69.8307 197.318 69.8828C197.09 70.0195 196.859 70.1172 196.625 70.1758C196.391 70.2344 196.143 70.2637 195.883 70.2637Z" fill="black"/>
<path d="M189.084 112.758C188.999 112.621 188.944 112.507 188.918 112.416C188.892 112.318 188.879 112.24 188.879 112.182C188.879 112.071 188.928 111.957 189.025 111.84C189.123 111.723 189.243 111.618 189.387 111.527C189.53 111.43 189.683 111.352 189.846 111.293C190.008 111.228 190.152 111.195 190.275 111.195C190.347 111.195 190.422 111.225 190.5 111.283C190.585 111.335 190.699 111.475 190.842 111.703C191.07 112.074 191.307 112.458 191.555 112.855C191.809 113.253 192.076 113.653 192.355 114.057C192.466 114.206 192.58 114.281 192.697 114.281C192.827 114.281 192.948 114.213 193.059 114.076C193.501 113.588 193.947 113.135 194.396 112.719C194.846 112.302 195.295 111.964 195.744 111.703C196.018 111.54 196.242 111.433 196.418 111.381C196.594 111.329 196.721 111.303 196.799 111.303C196.923 111.303 197.049 111.342 197.18 111.42C197.31 111.498 197.427 111.596 197.531 111.713C197.642 111.824 197.73 111.941 197.795 112.064C197.867 112.188 197.902 112.299 197.902 112.396C197.902 112.546 197.808 112.693 197.619 112.836C197.437 112.979 197.17 113.155 196.818 113.363C196.33 113.663 195.865 114.014 195.422 114.418C194.986 114.822 194.566 115.248 194.162 115.697C194.097 115.762 194.051 115.824 194.025 115.883C194.006 115.941 193.996 116 193.996 116.059C193.996 116.111 194.006 116.166 194.025 116.225C194.051 116.283 194.09 116.342 194.143 116.4C194.383 116.68 194.624 116.938 194.865 117.172C195.106 117.406 195.337 117.608 195.559 117.777C195.786 117.94 196.005 118.07 196.213 118.168C196.428 118.259 196.63 118.305 196.818 118.305C196.968 118.305 197.128 118.285 197.297 118.246C197.466 118.201 197.619 118.178 197.756 118.178C197.945 118.178 198.075 118.236 198.146 118.354C198.225 118.464 198.264 118.614 198.264 118.803C198.264 119.018 198.225 119.21 198.146 119.379C198.068 119.548 197.961 119.691 197.824 119.809C197.694 119.919 197.538 120.007 197.355 120.072C197.173 120.131 196.981 120.16 196.779 120.16C196.467 120.16 196.148 120.105 195.822 119.994C195.497 119.883 195.171 119.73 194.846 119.535C194.52 119.34 194.198 119.112 193.879 118.852C193.56 118.585 193.247 118.295 192.941 117.982C192.824 117.859 192.704 117.797 192.58 117.797C192.45 117.797 192.329 117.865 192.219 118.002C191.913 118.38 191.617 118.734 191.33 119.066C191.05 119.398 190.777 119.688 190.51 119.936C190.249 120.183 189.995 120.378 189.748 120.521C189.507 120.665 189.27 120.736 189.035 120.736C188.866 120.736 188.716 120.704 188.586 120.639C188.462 120.567 188.358 120.482 188.273 120.385C188.189 120.287 188.124 120.186 188.078 120.082C188.039 119.978 188.02 119.89 188.02 119.818C188.02 119.727 188.052 119.643 188.117 119.564C188.182 119.48 188.277 119.389 188.4 119.291C188.524 119.187 188.667 119.063 188.83 118.92C188.999 118.777 189.188 118.598 189.396 118.383C189.624 118.155 189.875 117.875 190.148 117.543C190.422 117.204 190.718 116.843 191.037 116.459C191.07 116.42 191.096 116.378 191.115 116.332C191.135 116.28 191.145 116.228 191.145 116.176C191.145 115.993 191.044 115.762 190.842 115.482C190.438 114.929 190.087 114.411 189.787 113.93C189.488 113.441 189.253 113.051 189.084 112.758Z" fill="black"/>
<path d="M278.799 71.8047C278.656 72.1497 278.438 72.3223 278.145 72.3223C278.027 72.3223 277.894 72.2897 277.744 72.2246L277.48 72.0977C277.161 71.9414 277.002 71.7233 277.002 71.4434C277.002 71.3001 277.028 71.1667 277.08 71.043C277.282 70.5677 277.5 70.0762 277.734 69.5684C277.969 69.054 278.216 68.5299 278.477 67.9961C278.496 67.944 278.516 67.8952 278.535 67.8496C278.555 67.804 278.564 67.7617 278.564 67.7227C278.564 67.5664 278.483 67.4264 278.32 67.3027C277.773 66.8926 277.23 66.4824 276.689 66.0723C276.156 65.6556 275.612 65.2454 275.059 64.8418C274.818 64.6725 274.697 64.4772 274.697 64.2559C274.697 64.1647 274.714 64.0768 274.746 63.9922C274.779 63.901 274.837 63.8099 274.922 63.7188L275.195 63.3965C275.384 63.1751 275.592 63.0645 275.82 63.0645C275.898 63.0645 275.977 63.084 276.055 63.123C276.139 63.1556 276.227 63.2012 276.318 63.2598C276.8 63.6113 277.275 63.9629 277.744 64.3145C278.219 64.6595 278.691 65.0143 279.16 65.3789C279.219 65.418 279.274 65.4505 279.326 65.4766C279.378 65.5026 279.43 65.5156 279.482 65.5156C279.626 65.5156 279.753 65.4245 279.863 65.2422C280.176 64.6367 280.498 64.0378 280.83 63.4453C281.162 62.8529 281.504 62.2702 281.855 61.6973C282.031 61.4303 282.24 61.2969 282.48 61.2969C282.617 61.2969 282.777 61.3522 282.959 61.4629L283.115 61.5605C283.382 61.7363 283.516 61.9414 283.516 62.1758C283.516 62.2604 283.503 62.3451 283.477 62.4297C283.451 62.5078 283.411 62.5924 283.359 62.6836C282.975 63.2956 282.611 63.9141 282.266 64.5391C281.921 65.1641 281.585 65.7988 281.26 66.4434C281.24 66.4954 281.221 66.541 281.201 66.5801C281.188 66.6191 281.182 66.6582 281.182 66.6973C281.182 66.86 281.26 67 281.416 67.1172C282.171 67.7031 282.92 68.2923 283.662 68.8848C284.404 69.4707 285.15 70.0501 285.898 70.623C286.126 70.7988 286.24 70.9909 286.24 71.1992C286.24 71.3945 286.139 71.5801 285.938 71.7559L285.596 72.0586C285.407 72.2344 285.215 72.3223 285.02 72.3223C284.844 72.3223 284.665 72.2474 284.482 72.0977L280.615 69.0801C280.557 69.041 280.501 69.0085 280.449 68.9824C280.404 68.9564 280.355 68.9434 280.303 68.9434C280.146 68.9434 280.02 69.041 279.922 69.2363L278.799 71.8047Z" fill="black"/>
<path d="M208.799 189.805C208.656 190.15 208.438 190.322 208.145 190.322C208.027 190.322 207.894 190.29 207.744 190.225L207.48 190.098C207.161 189.941 207.002 189.723 207.002 189.443C207.002 189.3 207.028 189.167 207.08 189.043C207.282 188.568 207.5 188.076 207.734 187.568C207.969 187.054 208.216 186.53 208.477 185.996C208.496 185.944 208.516 185.895 208.535 185.85C208.555 185.804 208.564 185.762 208.564 185.723C208.564 185.566 208.483 185.426 208.32 185.303C207.773 184.893 207.23 184.482 206.689 184.072C206.156 183.656 205.612 183.245 205.059 182.842C204.818 182.673 204.697 182.477 204.697 182.256C204.697 182.165 204.714 182.077 204.746 181.992C204.779 181.901 204.837 181.81 204.922 181.719L205.195 181.396C205.384 181.175 205.592 181.064 205.82 181.064C205.898 181.064 205.977 181.084 206.055 181.123C206.139 181.156 206.227 181.201 206.318 181.26C206.8 181.611 207.275 181.963 207.744 182.314C208.219 182.66 208.691 183.014 209.16 183.379C209.219 183.418 209.274 183.451 209.326 183.477C209.378 183.503 209.43 183.516 209.482 183.516C209.626 183.516 209.753 183.424 209.863 183.242C210.176 182.637 210.498 182.038 210.83 181.445C211.162 180.853 211.504 180.27 211.855 179.697C212.031 179.43 212.24 179.297 212.48 179.297C212.617 179.297 212.777 179.352 212.959 179.463L213.115 179.561C213.382 179.736 213.516 179.941 213.516 180.176C213.516 180.26 213.503 180.345 213.477 180.43C213.451 180.508 213.411 180.592 213.359 180.684C212.975 181.296 212.611 181.914 212.266 182.539C211.921 183.164 211.585 183.799 211.26 184.443C211.24 184.495 211.221 184.541 211.201 184.58C211.188 184.619 211.182 184.658 211.182 184.697C211.182 184.86 211.26 185 211.416 185.117C212.171 185.703 212.92 186.292 213.662 186.885C214.404 187.471 215.15 188.05 215.898 188.623C216.126 188.799 216.24 188.991 216.24 189.199C216.24 189.395 216.139 189.58 215.938 189.756L215.596 190.059C215.407 190.234 215.215 190.322 215.02 190.322C214.844 190.322 214.665 190.247 214.482 190.098L210.615 187.08C210.557 187.041 210.501 187.008 210.449 186.982C210.404 186.956 210.355 186.943 210.303 186.943C210.146 186.943 210.02 187.041 209.922 187.236L208.799 189.805Z" fill="black"/>
<path d="M151.354 44.5645C151.394 44.3887 151.452 44.2373 151.53 44.1104C151.608 43.9736 151.716 43.8613 151.853 43.7734C151.999 43.6758 152.18 43.6025 152.395 43.5537C152.609 43.5049 152.873 43.4805 153.186 43.4805C153.547 43.4805 153.825 43.5586 154.021 43.7148C154.226 43.8613 154.328 44.0713 154.328 44.3447C154.328 44.4131 154.318 44.5205 154.299 44.667C154.279 44.8037 154.23 45.0576 154.152 45.4287C154.055 45.9072 153.957 46.4443 153.859 47.04C153.771 47.626 153.688 48.2461 153.61 48.9004C153.542 49.5547 153.483 50.2334 153.435 50.9365C153.396 51.6299 153.376 52.3232 153.376 53.0166C153.376 53.71 153.4 54.4131 153.449 55.126C153.498 55.8291 153.581 56.5322 153.698 57.2354C153.825 57.9385 153.986 58.6318 154.182 59.3154C154.387 59.9893 154.646 60.6387 154.958 61.2637C155.056 61.4688 155.168 61.6592 155.295 61.835C155.422 62.0107 155.539 62.1768 155.646 62.333C155.754 62.4893 155.847 62.6406 155.925 62.7871C156.003 62.9336 156.042 63.0801 156.042 63.2266C156.042 63.3926 155.979 63.5488 155.852 63.6953C155.734 63.8516 155.52 64.042 155.207 64.2666C154.924 64.4619 154.699 64.5938 154.533 64.6621C154.377 64.7402 154.24 64.7793 154.123 64.7793C153.957 64.7793 153.762 64.6768 153.537 64.4717C153.322 64.2764 153.088 64.0078 152.834 63.666C152.414 63.0703 152.048 62.3623 151.735 61.542C151.433 60.7314 151.184 59.8623 150.988 58.9346C150.793 58.0068 150.646 57.0498 150.549 56.0635C150.451 55.0674 150.402 54.1006 150.402 53.1631C150.402 51.7373 150.49 50.3018 150.666 48.8564C150.842 47.4111 151.071 45.9805 151.354 44.5645ZM180.508 62.6846C180.508 62.3623 180.493 61.9424 180.464 61.4248C180.444 60.9072 180.415 60.3359 180.376 59.7109C180.337 59.0859 180.293 58.4219 180.244 57.7188C180.195 57.0156 180.142 56.3174 180.083 55.624C180.024 54.9307 179.966 54.2617 179.907 53.6172C179.858 52.9629 179.81 52.3721 179.761 51.8447C179.683 51.0928 179.575 50.541 179.438 50.1895C179.302 49.8379 179.077 49.6621 178.765 49.6621C178.472 49.6621 178.276 49.7451 178.179 49.9111C178.091 50.0771 178.037 50.2822 178.018 50.5264C178.008 50.7705 178.003 51.0391 178.003 51.332C178.013 51.6152 177.969 51.8789 177.871 52.123C177.783 52.3672 177.612 52.5723 177.358 52.7383C177.104 52.9043 176.714 52.9873 176.187 52.9873C175.815 52.9873 175.498 52.8359 175.234 52.5332C174.971 52.2207 174.839 51.7715 174.839 51.1855C174.839 50.3652 175.083 49.623 175.571 48.959C176.05 48.2852 176.729 47.7139 177.607 47.2451C178.486 46.7666 179.546 46.3955 180.786 46.1318C182.026 45.8682 183.403 45.7363 184.917 45.7363C186.001 45.7363 187.002 45.8584 187.92 46.1025C188.838 46.3369 189.629 46.6689 190.293 47.0986C190.967 47.5186 191.494 48.0215 191.875 48.6074C192.256 49.1836 192.446 49.8135 192.446 50.4971C192.446 51.2686 192.222 52.0059 191.772 52.709C191.323 53.4121 190.703 54.0566 189.912 54.6426C189.131 55.2285 188.208 55.7412 187.144 56.1807C186.079 56.6104 184.937 56.9473 183.716 57.1914C183.374 57.25 183.203 57.46 183.203 57.8213C183.203 58.0654 183.218 58.373 183.247 58.7441C183.286 59.1055 183.32 59.4863 183.35 59.8867C183.389 60.2871 183.423 60.6826 183.452 61.0732C183.491 61.4639 183.511 61.8105 183.511 62.1133C183.511 62.6602 183.384 63.0508 183.13 63.2852C182.876 63.5195 182.5 63.6367 182.002 63.6367C181.533 63.6367 181.167 63.5537 180.903 63.3877C180.64 63.2314 180.508 62.9971 180.508 62.6846ZM189.414 50.9219C189.414 50.5898 189.272 50.2725 188.989 49.9697C188.706 49.667 188.325 49.3984 187.847 49.1641C187.368 48.9297 186.812 48.7441 186.177 48.6074C185.552 48.4707 184.893 48.4023 184.199 48.4023C183.857 48.4023 183.569 48.417 183.335 48.4463C183.11 48.4658 182.93 48.5049 182.793 48.5635C182.656 48.6221 182.559 48.7002 182.5 48.7979C182.451 48.8857 182.427 49.0029 182.427 49.1494C182.427 49.2471 182.441 49.4766 182.471 49.8379C182.5 50.1895 182.539 50.5996 182.588 51.0684C182.637 51.5371 182.686 52.0303 182.734 52.5479C182.793 53.0557 182.852 53.5146 182.91 53.9248C182.939 54.2275 182.979 54.4277 183.027 54.5254C183.086 54.623 183.174 54.6719 183.291 54.6719C183.623 54.6719 184.004 54.6182 184.434 54.5107C184.863 54.3936 185.303 54.2422 185.752 54.0566C186.211 53.8613 186.655 53.6416 187.085 53.3975C187.524 53.1436 187.915 52.8799 188.257 52.6064C188.608 52.3232 188.887 52.04 189.092 51.7568C189.307 51.4639 189.414 51.1855 189.414 50.9219ZM212.884 55.873C212.61 55.873 212.386 55.7607 212.21 55.5361C212.034 55.3018 211.946 54.9648 211.946 54.5254C211.946 54.1348 212.122 53.8418 212.474 53.6465C212.825 53.4512 213.421 53.3145 214.261 53.2363C214.534 53.207 214.891 53.168 215.33 53.1191C215.779 53.0605 216.233 53.0068 216.692 52.958C217.161 52.8994 217.601 52.8506 218.011 52.8115C218.431 52.7725 218.758 52.7529 218.992 52.7529C219.354 52.7529 219.632 52.8604 219.827 53.0752C220.032 53.29 220.135 53.6709 220.135 54.2178C220.135 54.7842 219.573 55.126 218.45 55.2432C218.304 55.2627 218.084 55.292 217.791 55.3311C217.508 55.3604 217.186 55.3994 216.824 55.4482C216.463 55.4971 216.082 55.5459 215.682 55.5947C215.291 55.6436 214.915 55.6875 214.554 55.7266C214.192 55.7656 213.86 55.7998 213.558 55.8291C213.265 55.8584 213.04 55.873 212.884 55.873ZM230.617 60.0039C230.441 60.1895 230.251 60.2822 230.046 60.2822C229.86 60.2822 229.68 60.2139 229.504 60.0771L228.698 59.4766C228.483 59.2812 228.376 59.0908 228.376 58.9053C228.376 58.7197 228.464 58.5391 228.64 58.3633C228.942 58.0605 229.27 57.7236 229.621 57.3525C229.973 56.9717 230.319 56.5762 230.661 56.166C231.003 55.7559 231.325 55.3408 231.628 54.9209C231.931 54.501 232.185 54.0859 232.39 53.6758C232.438 53.5977 232.468 53.5244 232.478 53.4561C232.497 53.3877 232.507 53.3242 232.507 53.2656C232.507 53.0801 232.409 52.8848 232.214 52.6797C232.028 52.4746 231.784 52.2695 231.481 52.0645C231.179 51.8594 230.832 51.6592 230.441 51.4639C230.061 51.2588 229.675 51.0732 229.284 50.9072C228.894 50.7314 228.518 50.5752 228.156 50.4385C227.795 50.292 227.487 50.1748 227.233 50.0869C226.892 49.9502 226.721 49.7598 226.721 49.5156C226.721 49.418 226.77 49.2568 226.867 49.0322C226.975 48.8076 227.106 48.5781 227.263 48.3438C227.419 48.1094 227.59 47.9043 227.775 47.7285C227.971 47.5527 228.151 47.4648 228.317 47.4648C228.366 47.4648 228.415 47.4697 228.464 47.4795C228.522 47.4795 228.581 47.4941 228.64 47.5234C229.167 47.709 229.689 47.9189 230.207 48.1533C230.725 48.3877 231.242 48.6416 231.76 48.915C232.111 49.0908 232.512 49.3008 232.961 49.5449C233.42 49.7891 233.85 50.0625 234.25 50.3652C234.65 50.668 234.987 51.0049 235.261 51.376C235.544 51.7373 235.686 52.1377 235.686 52.5771C235.686 53.0947 235.51 53.6758 235.158 54.3203C234.816 54.9648 234.387 55.624 233.869 56.2979C233.361 56.9717 232.814 57.6309 232.229 58.2754C231.643 58.9199 231.105 59.4961 230.617 60.0039ZM265.498 55.2432C265.439 55.0576 265.41 54.8867 265.41 54.7305C265.41 54.2715 265.659 53.9199 266.157 53.6758C266.362 53.5781 266.533 53.5 266.67 53.4414C266.807 53.373 266.919 53.3242 267.007 53.2949C267.104 53.2559 267.183 53.2314 267.241 53.2217C267.3 53.2119 267.358 53.207 267.417 53.207C267.642 53.207 267.837 53.3193 268.003 53.5439C268.169 53.7588 268.315 54.0371 268.442 54.3789C268.579 54.7109 268.696 55.0723 268.794 55.4629C268.901 55.8438 269.009 56.2051 269.116 56.5469C269.233 56.8789 269.355 57.1572 269.482 57.3818C269.619 57.5967 269.78 57.7041 269.966 57.7041C270.171 57.7041 270.371 57.6113 270.566 57.4258C270.771 57.2305 270.957 56.9863 271.123 56.6934C271.289 56.4004 271.421 56.083 271.519 55.7412C271.626 55.3994 271.68 55.0723 271.68 54.7598C271.68 53.7637 271.489 52.875 271.108 52.0938C270.728 51.3027 270.234 50.6338 269.629 50.0869C269.023 49.54 268.335 49.125 267.563 48.8418C266.802 48.5488 266.04 48.4023 265.278 48.4023C264.37 48.4023 263.623 48.5098 263.037 48.7246C262.451 48.9395 261.987 49.252 261.646 49.6621C261.313 50.0625 261.079 50.5557 260.942 51.1416C260.815 51.7275 260.752 52.3916 260.752 53.1338C260.752 53.7002 260.859 54.2568 261.074 54.8037C261.289 55.3408 261.602 55.8389 262.012 56.2979C262.422 56.7568 262.925 57.1621 263.521 57.5137C264.116 57.8652 264.795 58.1289 265.557 58.3047C265.605 58.3242 265.645 58.334 265.674 58.334C265.703 58.334 265.742 58.334 265.791 58.334C265.947 58.334 266.069 58.2852 266.157 58.1875C266.255 58.0898 266.304 57.9678 266.304 57.8213C266.304 57.7725 266.299 57.7285 266.289 57.6895C266.279 57.6406 266.265 57.582 266.245 57.5137L265.498 55.2432ZM257.72 53.2363C257.72 53.1289 257.725 52.9971 257.734 52.8408C257.744 52.6846 257.749 52.5234 257.749 52.3574C257.749 52.2012 257.739 52.0449 257.72 51.8887C257.7 51.7324 257.661 51.5908 257.603 51.4639C257.554 51.3271 257.48 51.2148 257.383 51.127C257.285 51.0293 257.158 50.9707 257.002 50.9512C256.826 50.9316 256.68 50.8633 256.562 50.7461C256.455 50.6191 256.401 50.4678 256.401 50.292C256.401 50.0283 256.494 49.7695 256.68 49.5156C257.129 48.832 257.671 48.251 258.306 47.7725C258.95 47.2842 259.653 46.8887 260.415 46.5859C261.177 46.2832 261.978 46.0635 262.817 45.9268C263.657 45.7803 264.502 45.707 265.352 45.707C266.035 45.707 266.738 45.79 267.461 45.9561C268.184 46.1123 268.887 46.3516 269.57 46.6738C270.264 46.9961 270.918 47.3916 271.533 47.8604C272.148 48.3291 272.686 48.876 273.145 49.501C273.604 50.1162 273.965 50.8047 274.229 51.5664C274.502 52.3184 274.639 53.1436 274.639 54.042C274.639 54.7939 274.551 55.4824 274.375 56.1074C274.199 56.7324 273.95 57.2988 273.628 57.8066C273.315 58.3145 272.935 58.7686 272.485 59.1689C272.036 59.5596 271.538 59.8916 270.991 60.165C270.669 60.3018 270.508 60.5215 270.508 60.8242C270.508 60.8535 270.508 60.8877 270.508 60.9268C270.508 60.9561 270.513 60.9854 270.522 61.0146C270.522 61.0537 270.527 61.0879 270.537 61.1172C270.586 61.3809 270.649 61.7031 270.728 62.084C270.815 62.4746 270.898 62.875 270.977 63.2852C271.064 63.7051 271.138 64.1055 271.196 64.4863C271.255 64.877 271.284 65.2041 271.284 65.4678C271.284 66.0732 270.942 66.4541 270.259 66.6104C270.054 66.6592 269.858 66.6934 269.673 66.7129C269.487 66.7422 269.365 66.7568 269.307 66.7568C268.711 66.7568 268.369 66.4102 268.281 65.7168C268.193 65.043 268.081 64.3838 267.944 63.7393C267.817 63.0947 267.681 62.4502 267.534 61.8057C267.476 61.5811 267.393 61.4199 267.285 61.3223C267.188 61.2246 267.07 61.1758 266.934 61.1758H266.509C265.21 61.1758 264.023 60.9658 262.949 60.5459C261.875 60.1162 260.947 59.54 260.166 58.8174C259.395 58.085 258.794 57.2402 258.364 56.2832C257.935 55.3262 257.72 54.3105 257.72 53.2363ZM300.057 63.6953C300.018 63.8711 299.959 64.0225 299.881 64.1494C299.803 64.2861 299.695 64.3984 299.559 64.4863C299.422 64.584 299.241 64.6572 299.017 64.7061C298.802 64.7549 298.538 64.7793 298.226 64.7793C297.864 64.7793 297.581 64.7012 297.376 64.5449C297.181 64.3984 297.083 64.1885 297.083 63.915C297.083 63.8467 297.093 63.7393 297.112 63.5928C297.142 63.4561 297.195 63.2021 297.273 62.8311C297.371 62.3525 297.464 61.8154 297.552 61.2197C297.649 60.6338 297.732 60.0137 297.801 59.3594C297.879 58.7051 297.938 58.0312 297.977 57.3379C298.025 56.6348 298.05 55.9365 298.05 55.2432C298.05 53.8467 297.938 52.4404 297.713 51.0244C297.488 49.6084 297.068 48.2656 296.453 46.9961C296.355 46.791 296.243 46.6006 296.116 46.4248C295.999 46.249 295.882 46.083 295.765 45.9268C295.657 45.7705 295.564 45.6191 295.486 45.4727C295.418 45.3262 295.384 45.1797 295.384 45.0332C295.384 44.8672 295.442 44.7109 295.56 44.5645C295.687 44.4082 295.906 44.2178 296.219 43.9932C296.502 43.7979 296.722 43.666 296.878 43.5977C297.034 43.5195 297.176 43.4805 297.303 43.4805C297.469 43.4805 297.659 43.583 297.874 43.7881C298.099 43.9834 298.338 44.252 298.592 44.5938C299.012 45.1895 299.373 45.8975 299.676 46.7178C299.988 47.5283 300.242 48.4023 300.438 49.3398C300.633 50.2676 300.779 51.2246 300.877 52.2109C300.975 53.1973 301.023 54.1592 301.023 55.0967C301.023 56.5225 300.931 57.958 300.745 59.4033C300.569 60.8486 300.34 62.2793 300.057 63.6953Z" fill="black"/>
<path d="M140.354 162.564C140.394 162.389 140.452 162.237 140.53 162.11C140.608 161.974 140.716 161.861 140.853 161.773C140.999 161.676 141.18 161.603 141.395 161.554C141.609 161.505 141.873 161.48 142.186 161.48C142.547 161.48 142.825 161.559 143.021 161.715C143.226 161.861 143.328 162.071 143.328 162.345C143.328 162.413 143.318 162.521 143.299 162.667C143.279 162.804 143.23 163.058 143.152 163.429C143.055 163.907 142.957 164.444 142.859 165.04C142.771 165.626 142.688 166.246 142.61 166.9C142.542 167.555 142.483 168.233 142.435 168.937C142.396 169.63 142.376 170.323 142.376 171.017C142.376 171.71 142.4 172.413 142.449 173.126C142.498 173.829 142.581 174.532 142.698 175.235C142.825 175.938 142.986 176.632 143.182 177.315C143.387 177.989 143.646 178.639 143.958 179.264C144.056 179.469 144.168 179.659 144.295 179.835C144.422 180.011 144.539 180.177 144.646 180.333C144.754 180.489 144.847 180.641 144.925 180.787C145.003 180.934 145.042 181.08 145.042 181.227C145.042 181.393 144.979 181.549 144.852 181.695C144.734 181.852 144.52 182.042 144.207 182.267C143.924 182.462 143.699 182.594 143.533 182.662C143.377 182.74 143.24 182.779 143.123 182.779C142.957 182.779 142.762 182.677 142.537 182.472C142.322 182.276 142.088 182.008 141.834 181.666C141.414 181.07 141.048 180.362 140.735 179.542C140.433 178.731 140.184 177.862 139.988 176.935C139.793 176.007 139.646 175.05 139.549 174.063C139.451 173.067 139.402 172.101 139.402 171.163C139.402 169.737 139.49 168.302 139.666 166.856C139.842 165.411 140.071 163.98 140.354 162.564ZM195.746 180.685C195.746 180.362 195.731 179.942 195.702 179.425C195.683 178.907 195.653 178.336 195.614 177.711C195.575 177.086 195.531 176.422 195.482 175.719C195.434 175.016 195.38 174.317 195.321 173.624C195.263 172.931 195.204 172.262 195.146 171.617C195.097 170.963 195.048 170.372 194.999 169.845C194.921 169.093 194.813 168.541 194.677 168.189C194.54 167.838 194.315 167.662 194.003 167.662C193.71 167.662 193.515 167.745 193.417 167.911C193.329 168.077 193.275 168.282 193.256 168.526C193.246 168.771 193.241 169.039 193.241 169.332C193.251 169.615 193.207 169.879 193.109 170.123C193.021 170.367 192.851 170.572 192.597 170.738C192.343 170.904 191.952 170.987 191.425 170.987C191.054 170.987 190.736 170.836 190.473 170.533C190.209 170.221 190.077 169.771 190.077 169.186C190.077 168.365 190.321 167.623 190.81 166.959C191.288 166.285 191.967 165.714 192.846 165.245C193.725 164.767 194.784 164.396 196.024 164.132C197.265 163.868 198.642 163.736 200.155 163.736C201.239 163.736 202.24 163.858 203.158 164.103C204.076 164.337 204.867 164.669 205.531 165.099C206.205 165.519 206.732 166.021 207.113 166.607C207.494 167.184 207.685 167.813 207.685 168.497C207.685 169.269 207.46 170.006 207.011 170.709C206.562 171.412 205.941 172.057 205.15 172.643C204.369 173.229 203.446 173.741 202.382 174.181C201.317 174.61 200.175 174.947 198.954 175.191C198.612 175.25 198.441 175.46 198.441 175.821C198.441 176.065 198.456 176.373 198.485 176.744C198.524 177.105 198.559 177.486 198.588 177.887C198.627 178.287 198.661 178.683 198.69 179.073C198.729 179.464 198.749 179.811 198.749 180.113C198.749 180.66 198.622 181.051 198.368 181.285C198.114 181.52 197.738 181.637 197.24 181.637C196.771 181.637 196.405 181.554 196.142 181.388C195.878 181.231 195.746 180.997 195.746 180.685ZM204.652 168.922C204.652 168.59 204.511 168.272 204.228 167.97C203.944 167.667 203.563 167.398 203.085 167.164C202.606 166.93 202.05 166.744 201.415 166.607C200.79 166.471 200.131 166.402 199.438 166.402C199.096 166.402 198.808 166.417 198.573 166.446C198.349 166.466 198.168 166.505 198.031 166.563C197.895 166.622 197.797 166.7 197.738 166.798C197.689 166.886 197.665 167.003 197.665 167.149C197.665 167.247 197.68 167.477 197.709 167.838C197.738 168.189 197.777 168.6 197.826 169.068C197.875 169.537 197.924 170.03 197.973 170.548C198.031 171.056 198.09 171.515 198.148 171.925C198.178 172.228 198.217 172.428 198.266 172.525C198.324 172.623 198.412 172.672 198.529 172.672C198.861 172.672 199.242 172.618 199.672 172.511C200.102 172.394 200.541 172.242 200.99 172.057C201.449 171.861 201.894 171.642 202.323 171.397C202.763 171.144 203.153 170.88 203.495 170.606C203.847 170.323 204.125 170.04 204.33 169.757C204.545 169.464 204.652 169.186 204.652 168.922ZM231.652 181.695C231.613 181.871 231.555 182.022 231.477 182.149C231.398 182.286 231.291 182.398 231.154 182.486C231.018 182.584 230.837 182.657 230.612 182.706C230.397 182.755 230.134 182.779 229.821 182.779C229.46 182.779 229.177 182.701 228.972 182.545C228.776 182.398 228.679 182.188 228.679 181.915C228.679 181.847 228.688 181.739 228.708 181.593C228.737 181.456 228.791 181.202 228.869 180.831C228.967 180.353 229.06 179.815 229.147 179.22C229.245 178.634 229.328 178.014 229.396 177.359C229.475 176.705 229.533 176.031 229.572 175.338C229.621 174.635 229.646 173.937 229.646 173.243C229.646 171.847 229.533 170.44 229.309 169.024C229.084 167.608 228.664 166.266 228.049 164.996C227.951 164.791 227.839 164.601 227.712 164.425C227.595 164.249 227.478 164.083 227.36 163.927C227.253 163.771 227.16 163.619 227.082 163.473C227.014 163.326 226.979 163.18 226.979 163.033C226.979 162.867 227.038 162.711 227.155 162.564C227.282 162.408 227.502 162.218 227.814 161.993C228.098 161.798 228.317 161.666 228.474 161.598C228.63 161.52 228.771 161.48 228.898 161.48C229.064 161.48 229.255 161.583 229.47 161.788C229.694 161.983 229.934 162.252 230.188 162.594C230.607 163.189 230.969 163.897 231.271 164.718C231.584 165.528 231.838 166.402 232.033 167.34C232.229 168.268 232.375 169.225 232.473 170.211C232.57 171.197 232.619 172.159 232.619 173.097C232.619 174.522 232.526 175.958 232.341 177.403C232.165 178.849 231.936 180.279 231.652 181.695Z" fill="black"/>
<path d="M113.354 98.5645C113.394 98.3887 113.452 98.2373 113.53 98.1104C113.608 97.9736 113.716 97.8613 113.853 97.7734C113.999 97.6758 114.18 97.6025 114.395 97.5537C114.609 97.5049 114.873 97.4805 115.186 97.4805C115.547 97.4805 115.825 97.5586 116.021 97.7148C116.226 97.8613 116.328 98.0713 116.328 98.3447C116.328 98.4131 116.318 98.5205 116.299 98.667C116.279 98.8037 116.23 99.0576 116.152 99.4287C116.055 99.9072 115.957 100.444 115.859 101.04C115.771 101.626 115.688 102.246 115.61 102.9C115.542 103.555 115.483 104.233 115.435 104.937C115.396 105.63 115.376 106.323 115.376 107.017C115.376 107.71 115.4 108.413 115.449 109.126C115.498 109.829 115.581 110.532 115.698 111.235C115.825 111.938 115.986 112.632 116.182 113.315C116.387 113.989 116.646 114.639 116.958 115.264C117.056 115.469 117.168 115.659 117.295 115.835C117.422 116.011 117.539 116.177 117.646 116.333C117.754 116.489 117.847 116.641 117.925 116.787C118.003 116.934 118.042 117.08 118.042 117.227C118.042 117.393 117.979 117.549 117.852 117.695C117.734 117.852 117.52 118.042 117.207 118.267C116.924 118.462 116.699 118.594 116.533 118.662C116.377 118.74 116.24 118.779 116.123 118.779C115.957 118.779 115.762 118.677 115.537 118.472C115.322 118.276 115.088 118.008 114.834 117.666C114.414 117.07 114.048 116.362 113.735 115.542C113.433 114.731 113.184 113.862 112.988 112.935C112.793 112.007 112.646 111.05 112.549 110.063C112.451 109.067 112.402 108.101 112.402 107.163C112.402 105.737 112.49 104.302 112.666 102.856C112.842 101.411 113.071 99.9805 113.354 98.5645ZM173.697 109.243C173.639 109.058 173.609 108.887 173.609 108.73C173.609 108.271 173.858 107.92 174.356 107.676C174.562 107.578 174.732 107.5 174.869 107.441C175.006 107.373 175.118 107.324 175.206 107.295C175.304 107.256 175.382 107.231 175.44 107.222C175.499 107.212 175.558 107.207 175.616 107.207C175.841 107.207 176.036 107.319 176.202 107.544C176.368 107.759 176.515 108.037 176.642 108.379C176.778 108.711 176.896 109.072 176.993 109.463C177.101 109.844 177.208 110.205 177.315 110.547C177.433 110.879 177.555 111.157 177.682 111.382C177.818 111.597 177.979 111.704 178.165 111.704C178.37 111.704 178.57 111.611 178.766 111.426C178.971 111.23 179.156 110.986 179.322 110.693C179.488 110.4 179.62 110.083 179.718 109.741C179.825 109.399 179.879 109.072 179.879 108.76C179.879 107.764 179.688 106.875 179.308 106.094C178.927 105.303 178.434 104.634 177.828 104.087C177.223 103.54 176.534 103.125 175.763 102.842C175.001 102.549 174.239 102.402 173.478 102.402C172.569 102.402 171.822 102.51 171.236 102.725C170.65 102.939 170.187 103.252 169.845 103.662C169.513 104.062 169.278 104.556 169.142 105.142C169.015 105.728 168.951 106.392 168.951 107.134C168.951 107.7 169.059 108.257 169.273 108.804C169.488 109.341 169.801 109.839 170.211 110.298C170.621 110.757 171.124 111.162 171.72 111.514C172.315 111.865 172.994 112.129 173.756 112.305C173.805 112.324 173.844 112.334 173.873 112.334C173.902 112.334 173.941 112.334 173.99 112.334C174.146 112.334 174.269 112.285 174.356 112.188C174.454 112.09 174.503 111.968 174.503 111.821C174.503 111.772 174.498 111.729 174.488 111.689C174.479 111.641 174.464 111.582 174.444 111.514L173.697 109.243ZM165.919 107.236C165.919 107.129 165.924 106.997 165.934 106.841C165.943 106.685 165.948 106.523 165.948 106.357C165.948 106.201 165.938 106.045 165.919 105.889C165.899 105.732 165.86 105.591 165.802 105.464C165.753 105.327 165.68 105.215 165.582 105.127C165.484 105.029 165.357 104.971 165.201 104.951C165.025 104.932 164.879 104.863 164.762 104.746C164.654 104.619 164.601 104.468 164.601 104.292C164.601 104.028 164.693 103.77 164.879 103.516C165.328 102.832 165.87 102.251 166.505 101.772C167.149 101.284 167.853 100.889 168.614 100.586C169.376 100.283 170.177 100.063 171.017 99.9268C171.856 99.7803 172.701 99.707 173.551 99.707C174.234 99.707 174.938 99.79 175.66 99.9561C176.383 100.112 177.086 100.352 177.77 100.674C178.463 100.996 179.117 101.392 179.732 101.86C180.348 102.329 180.885 102.876 181.344 103.501C181.803 104.116 182.164 104.805 182.428 105.566C182.701 106.318 182.838 107.144 182.838 108.042C182.838 108.794 182.75 109.482 182.574 110.107C182.398 110.732 182.149 111.299 181.827 111.807C181.515 112.314 181.134 112.769 180.685 113.169C180.235 113.56 179.737 113.892 179.19 114.165C178.868 114.302 178.707 114.521 178.707 114.824C178.707 114.854 178.707 114.888 178.707 114.927C178.707 114.956 178.712 114.985 178.722 115.015C178.722 115.054 178.727 115.088 178.736 115.117C178.785 115.381 178.849 115.703 178.927 116.084C179.015 116.475 179.098 116.875 179.176 117.285C179.264 117.705 179.337 118.105 179.396 118.486C179.454 118.877 179.483 119.204 179.483 119.468C179.483 120.073 179.142 120.454 178.458 120.61C178.253 120.659 178.058 120.693 177.872 120.713C177.687 120.742 177.564 120.757 177.506 120.757C176.91 120.757 176.568 120.41 176.48 119.717C176.393 119.043 176.28 118.384 176.144 117.739C176.017 117.095 175.88 116.45 175.733 115.806C175.675 115.581 175.592 115.42 175.484 115.322C175.387 115.225 175.27 115.176 175.133 115.176H174.708C173.409 115.176 172.223 114.966 171.148 114.546C170.074 114.116 169.146 113.54 168.365 112.817C167.594 112.085 166.993 111.24 166.563 110.283C166.134 109.326 165.919 108.311 165.919 107.236ZM208.256 117.695C208.217 117.871 208.158 118.022 208.08 118.149C208.002 118.286 207.895 118.398 207.758 118.486C207.621 118.584 207.44 118.657 207.216 118.706C207.001 118.755 206.737 118.779 206.425 118.779C206.063 118.779 205.78 118.701 205.575 118.545C205.38 118.398 205.282 118.188 205.282 117.915C205.282 117.847 205.292 117.739 205.312 117.593C205.341 117.456 205.395 117.202 205.473 116.831C205.57 116.353 205.663 115.815 205.751 115.22C205.849 114.634 205.932 114.014 206 113.359C206.078 112.705 206.137 112.031 206.176 111.338C206.225 110.635 206.249 109.937 206.249 109.243C206.249 107.847 206.137 106.44 205.912 105.024C205.688 103.608 205.268 102.266 204.652 100.996C204.555 100.791 204.442 100.601 204.315 100.425C204.198 100.249 204.081 100.083 203.964 99.9268C203.856 99.7705 203.764 99.6191 203.686 99.4727C203.617 99.3262 203.583 99.1797 203.583 99.0332C203.583 98.8672 203.642 98.7109 203.759 98.5645C203.886 98.4082 204.105 98.2178 204.418 97.9932C204.701 97.7979 204.921 97.666 205.077 97.5977C205.233 97.5195 205.375 97.4805 205.502 97.4805C205.668 97.4805 205.858 97.583 206.073 97.7881C206.298 97.9834 206.537 98.252 206.791 98.5938C207.211 99.1895 207.572 99.8975 207.875 100.718C208.188 101.528 208.441 102.402 208.637 103.34C208.832 104.268 208.979 105.225 209.076 106.211C209.174 107.197 209.223 108.159 209.223 109.097C209.223 110.522 209.13 111.958 208.944 113.403C208.769 114.849 208.539 116.279 208.256 117.695Z" fill="black"/>
<path d="M90.8578 122.163L73.0685 122.008L73.0811 120.568L87.7505 120.696L87.8167 113.106L74.8572 112.993L74.8695 111.583L87.8291 111.696L87.9086 102.576L73.2392 102.448L73.2518 101.008L91.0411 101.164L90.8578 122.163Z" fill="black"/>
<line x1="104" y1="51" x2="119" y2="51" stroke="black" stroke-width="2"/>
<line x1="93" y1="169" x2="108" y2="169" stroke="black" stroke-width="2"/>
<line x1="68" y1="49.5" x2="83" y2="49.5" stroke="black" stroke-width="3"/>
<line x1="111" y1="70.5" x2="113" y2="70.5" stroke="black"/>
<line x1="75" y1="69.5" x2="77" y2="69.5" stroke="black"/>
<path d="M36.2988 58.6191C36.1165 58.7949 35.9245 58.8828 35.7227 58.8828C35.6315 58.8828 35.5371 58.8633 35.4395 58.8242C35.3418 58.7786 35.2279 58.7038 35.0977 58.5996C34.8568 58.4173 34.7363 58.2253 34.7363 58.0234C34.7363 57.8932 34.8112 57.7402 34.9609 57.5645C35.1042 57.3887 35.293 57.2064 35.5273 57.0176C35.7617 56.8223 36.0254 56.6237 36.3184 56.4219C36.6178 56.2201 36.9206 56.028 37.2266 55.8457C37.5326 55.6634 37.8288 55.4974 38.1152 55.3477C38.4017 55.1979 38.6491 55.0742 38.8574 54.9766C38.9811 54.9245 39.0951 54.8854 39.1992 54.8594C39.3034 54.8333 39.4108 54.8203 39.5215 54.8203C39.7428 54.8203 39.9316 54.8594 40.0879 54.9375C40.2507 55.0091 40.3874 55.11 40.498 55.2402C40.6087 55.3704 40.6999 55.5202 40.7715 55.6895C40.8496 55.8522 40.9115 56.0247 40.957 56.207C41.0091 56.3828 41.0514 56.5651 41.084 56.7539C41.1165 56.9362 41.1491 57.1055 41.1816 57.2617C41.2337 57.5286 41.2858 57.8379 41.3379 58.1895C41.3965 58.5345 41.4486 58.8958 41.4941 59.2734C41.5397 59.6445 41.582 60.0156 41.6211 60.3867C41.6667 60.7513 41.7057 61.0931 41.7383 61.4121C41.7708 61.7246 41.7936 61.998 41.8066 62.2324C41.8262 62.4603 41.8359 62.623 41.8359 62.7207C41.8359 63.1764 41.6113 63.4434 41.1621 63.5215C40.9147 63.5736 40.752 63.6029 40.6738 63.6094C40.5957 63.6159 40.5436 63.6191 40.5176 63.6191C40.3158 63.6191 40.153 63.5605 40.0293 63.4434C39.9121 63.3262 39.8438 63.1504 39.8242 62.916C39.7526 62.0436 39.6712 61.1777 39.5801 60.3184C39.4889 59.4525 39.349 58.5931 39.1602 57.7402C39.1211 57.5514 39.0527 57.4082 38.9551 57.3105C38.8574 57.2129 38.7402 57.1641 38.6035 57.1641C38.4733 57.1641 38.3105 57.2161 38.1152 57.3203C37.9199 57.4245 37.7148 57.5514 37.5 57.7012C37.2852 57.8509 37.0703 58.0104 36.8555 58.1797C36.6471 58.3424 36.4616 58.4889 36.2988 58.6191ZM50.3672 63.8242C50.1784 63.8242 49.9993 63.7949 49.8301 63.7363C49.6673 63.6777 49.5241 63.5996 49.4004 63.502C49.2767 63.3978 49.179 63.2773 49.1074 63.1406C49.0423 63.0039 49.0098 62.8574 49.0098 62.7012C49.0098 62.4277 49.1172 62.2064 49.332 62.0371C49.5534 61.8678 49.8431 61.7832 50.2012 61.7832C50.3704 61.7832 50.5332 61.8158 50.6895 61.8809C50.8522 61.9395 50.9922 62.0208 51.1094 62.125C51.2331 62.2292 51.3307 62.3496 51.4023 62.4863C51.474 62.623 51.5098 62.7663 51.5098 62.916C51.5098 63.2025 51.4056 63.4271 51.1973 63.5898C50.9954 63.7461 50.7188 63.8242 50.3672 63.8242Z" fill="black"/>
<path d="M37.8027 108.08C37.7116 108.23 37.6139 108.344 37.5098 108.422C37.4056 108.5 37.2884 108.539 37.1582 108.539C37.0996 108.539 37.028 108.526 36.9434 108.5C36.8587 108.474 36.7318 108.422 36.5625 108.344C36.2565 108.174 36.1035 107.96 36.1035 107.699C36.1035 107.549 36.1491 107.403 36.2402 107.26C36.416 106.986 36.6211 106.736 36.8555 106.508C37.0964 106.273 37.3665 106.072 37.666 105.902C37.972 105.733 38.3073 105.6 38.6719 105.502C39.043 105.404 39.4466 105.355 39.8828 105.355C40.332 105.355 40.7585 105.424 41.1621 105.561C41.5658 105.697 41.9206 105.893 42.2266 106.146C42.5326 106.394 42.7734 106.7 42.9492 107.064C43.1315 107.423 43.2227 107.826 43.2227 108.275C43.2227 108.816 43.1152 109.343 42.9004 109.857C42.6855 110.365 42.4056 110.86 42.0605 111.342C41.722 111.817 41.3379 112.273 40.9082 112.709C40.4785 113.139 40.0488 113.542 39.6191 113.92C39.5475 113.979 39.4954 114.037 39.4629 114.096C39.4368 114.154 39.4238 114.21 39.4238 114.262C39.4238 114.333 39.4564 114.395 39.5215 114.447C39.5931 114.493 39.694 114.516 39.8242 114.516C40.4753 114.548 41.1198 114.594 41.7578 114.652C42.3958 114.704 43.0371 114.766 43.6816 114.838C44.1178 114.896 44.3359 115.111 44.3359 115.482C44.3359 115.535 44.3327 115.596 44.3262 115.668C44.3197 115.733 44.2904 115.857 44.2383 116.039C44.1862 116.26 44.0853 116.423 43.9355 116.527C43.7923 116.632 43.6198 116.684 43.418 116.684C43.2878 116.684 43.0827 116.671 42.8027 116.645C42.5228 116.625 42.1973 116.599 41.8262 116.566C41.4551 116.534 41.0514 116.495 40.6152 116.449C40.179 116.41 39.7363 116.374 39.2871 116.342C38.8444 116.309 38.4082 116.28 37.9785 116.254C37.5488 116.234 37.1549 116.225 36.7969 116.225C36.6536 116.225 36.5299 116.192 36.4258 116.127C36.3281 116.068 36.2467 115.99 36.1816 115.893C36.123 115.788 36.0807 115.668 36.0547 115.531C36.0286 115.395 36.0156 115.251 36.0156 115.102C36.0156 114.919 36.0547 114.763 36.1328 114.633C36.2174 114.496 36.3346 114.372 36.4844 114.262C36.7839 114.04 37.1061 113.796 37.4512 113.529C37.8027 113.262 38.1543 112.979 38.5059 112.68C38.8574 112.38 39.1927 112.068 39.5117 111.742C39.8372 111.41 40.1237 111.075 40.3711 110.736C40.625 110.391 40.8268 110.046 40.9766 109.701C41.1263 109.35 41.2012 109.001 41.2012 108.656C41.2012 108.422 41.1523 108.214 41.0547 108.031C40.9635 107.842 40.8366 107.683 40.6738 107.553C40.5176 107.416 40.3353 107.315 40.127 107.25C39.9186 107.178 39.7038 107.143 39.4824 107.143C39.0527 107.143 38.7077 107.234 38.4473 107.416C38.1868 107.598 37.972 107.82 37.8027 108.08ZM52.0859 115.824C51.8971 115.824 51.7181 115.795 51.5488 115.736C51.3861 115.678 51.2428 115.6 51.1191 115.502C50.9954 115.398 50.8978 115.277 50.8262 115.141C50.7611 115.004 50.7285 114.857 50.7285 114.701C50.7285 114.428 50.8359 114.206 51.0508 114.037C51.2721 113.868 51.5618 113.783 51.9199 113.783C52.0892 113.783 52.252 113.816 52.4082 113.881C52.571 113.939 52.7109 114.021 52.8281 114.125C52.9518 114.229 53.0495 114.35 53.1211 114.486C53.1927 114.623 53.2285 114.766 53.2285 114.916C53.2285 115.202 53.1243 115.427 52.916 115.59C52.7142 115.746 52.4375 115.824 52.0859 115.824Z" fill="black"/>
<line x1="44" y1="145" x2="317" y2="145" stroke="black" stroke-width="2"/>
<line x1="137" y1="105.262" x2="151.036" y2="105.262" stroke="black" stroke-width="3"/>
<line x1="149.261" y1="118.009" x2="149.261" y2="105" stroke="black" stroke-width="3"/>
<line x1="166" y1="170.262" x2="180.036" y2="170.262" stroke="black" stroke-width="3"/>
<line x1="178.261" y1="183.009" x2="178.261" y2="170" stroke="black" stroke-width="3"/>
</svg>
