<svg  viewBox="0 0 16 18" fill="none" xmlns="http://www.w3.org/2000/svg">
<path d="M15.844 6.65849L10.0816 0.175837C9.87328 -0.0584496 9.53561 -0.0584496 9.32732 0.175837C8.88192 0.676906 8.49468 2.29911 8.37073 2.86334L8.37061 2.86349L6.05676 5.46666C5.84701 5.38751 5.62596 5.34656 5.40251 5.34656C4.85429 5.34656 4.33893 5.5867 3.95113 6.02283C3.15113 6.92306 3.15113 8.38783 3.95117 9.28806L5.47053 10.9973L0.156505 16.9758C-0.0517921 17.2102 -0.0517921 17.59 0.156505 17.8244C0.260612 17.9415 0.397144 18.0001 0.533634 18.0001C0.670124 18.0001 0.806571 17.9415 0.910763 17.8244L6.22483 11.8459L7.74431 13.5553C8.13197 13.9914 8.64738 14.2316 9.19556 14.2316C9.74383 14.2316 10.2592 13.9914 10.6467 13.5553C11.2067 12.9255 11.3865 12.0039 11.1415 11.1862L13.455 8.58338C13.9564 8.44403 15.3985 8.00853 15.8442 7.50684C16.0523 7.27255 16.0522 6.89278 15.844 6.65849ZM13.0712 7.45341C12.9585 7.4789 12.8563 7.54461 12.7795 7.64081C12.751 7.67647 12.7252 7.70729 12.7008 7.73479L10.1272 10.6301C9.95511 10.8237 9.92132 11.1237 10.0451 11.3594C10.2736 11.7946 10.2109 12.3487 9.89248 12.7067C9.70636 12.9161 9.45881 13.0316 9.19556 13.0316C8.93227 13.0316 8.68472 12.9162 8.49856 12.7067L6.60289 10.574C6.60259 10.5737 6.6023 10.5732 6.602 10.573C6.6017 10.5727 6.60131 10.5723 6.60106 10.572L4.70552 8.43947C4.32126 8.00709 4.32126 7.30356 4.70543 6.87123C4.89167 6.6618 5.13922 6.54641 5.40256 6.54641C5.57924 6.54641 5.75225 6.59936 5.90304 6.69948C6.11261 6.83868 6.37932 6.80071 6.55139 6.60713L9.12435 3.71246C9.15025 3.68342 9.17803 3.65399 9.207 3.62505C9.29327 3.53855 9.35232 3.42283 9.3751 3.29534C9.45075 2.87232 9.65103 2.1228 9.8333 1.59327L14.5838 6.93756C14.1126 7.14343 13.447 7.36845 13.0712 7.45341Z" fill="black"/>
</svg>
