<svg viewBox="0 0 339 174" fill="none" xmlns="http://www.w3.org/2000/svg">
<g clip-path="url(#clip0_18_79)">
<rect width="339" height="174" fill="white"/>
<path d="M50.0568 29V20.2727H53.0057C53.6903 20.2727 54.25 20.3963 54.6847 20.6435C55.1222 20.8878 55.446 21.2188 55.6562 21.6364C55.8665 22.054 55.9716 22.5199 55.9716 23.0341C55.9716 23.5483 55.8665 24.0156 55.6562 24.4361C55.4489 24.8565 55.1278 25.1918 54.6932 25.4418C54.2585 25.6889 53.7017 25.8125 53.0227 25.8125H50.9091V24.875H52.9886C53.4574 24.875 53.8338 24.794 54.1179 24.6321C54.402 24.4702 54.608 24.2514 54.7358 23.9759C54.8665 23.6974 54.9318 23.3835 54.9318 23.0341C54.9318 22.6847 54.8665 22.3722 54.7358 22.0966C54.608 21.821 54.4006 21.6051 54.1136 21.4489C53.8267 21.2898 53.446 21.2102 52.9716 21.2102H51.1136V29H50.0568Z" fill="black"/>
<path d="M272.057 29V20.2727H275.006C275.69 20.2727 276.25 20.3963 276.685 20.6435C277.122 20.8878 277.446 21.2188 277.656 21.6364C277.866 22.054 277.972 22.5199 277.972 23.0341C277.972 23.5483 277.866 24.0156 277.656 24.4361C277.449 24.8565 277.128 25.1918 276.693 25.4418C276.259 25.6889 275.702 25.8125 275.023 25.8125H272.909V24.875H274.989C275.457 24.875 275.834 24.794 276.118 24.6321C276.402 24.4702 276.608 24.2514 276.736 23.9759C276.866 23.6974 276.932 23.3835 276.932 23.0341C276.932 22.6847 276.866 22.3722 276.736 22.0966C276.608 21.821 276.401 21.6051 276.114 21.4489C275.827 21.2898 275.446 21.2102 274.972 21.2102H273.114V29H272.057ZM288.444 28.4545L287.788 27.8068L290.489 25.1051H283.492V24.1676H290.489L287.788 21.4744L288.444 20.8182L292.262 24.6364L288.444 28.4545ZM301.044 26.2727H302.203L303.174 27.5511L303.43 27.892L304.879 29.8182H303.72L302.765 28.5398L302.527 28.2159L301.044 26.2727ZM305.237 24.6364C305.237 25.5568 305.071 26.3523 304.738 27.0227C304.406 27.6932 303.95 28.2102 303.37 28.5739C302.791 28.9375 302.129 29.1193 301.385 29.1193C300.64 29.1193 299.978 28.9375 299.399 28.5739C298.819 28.2102 298.363 27.6932 298.031 27.0227C297.699 26.3523 297.532 25.5568 297.532 24.6364C297.532 23.7159 297.699 22.9205 298.031 22.25C298.363 21.5795 298.819 21.0625 299.399 20.6989C299.978 20.3352 300.64 20.1534 301.385 20.1534C302.129 20.1534 302.791 20.3352 303.37 20.6989C303.95 21.0625 304.406 21.5795 304.738 22.25C305.071 22.9205 305.237 23.7159 305.237 24.6364ZM304.214 24.6364C304.214 23.8807 304.088 23.2429 303.835 22.723C303.585 22.2031 303.245 21.8097 302.816 21.5426C302.39 21.2756 301.913 21.142 301.385 21.142C300.856 21.142 300.377 21.2756 299.949 21.5426C299.522 21.8097 299.183 22.2031 298.93 22.723C298.68 23.2429 298.555 23.8807 298.555 24.6364C298.555 25.392 298.68 26.0298 298.93 26.5497C299.183 27.0696 299.522 27.4631 299.949 27.7301C300.377 27.9972 300.856 28.1307 301.385 28.1307C301.913 28.1307 302.39 27.9972 302.816 27.7301C303.245 27.4631 303.585 27.0696 303.835 26.5497C304.088 26.0298 304.214 25.392 304.214 24.6364Z" fill="black"/>
<path d="M166.227 26.2727H167.386L168.358 27.5511L168.614 27.892L170.062 29.8182H168.903L167.949 28.5398L167.71 28.2159L166.227 26.2727ZM170.42 24.6364C170.42 25.5568 170.254 26.3523 169.922 27.0227C169.589 27.6932 169.134 28.2102 168.554 28.5739C167.974 28.9375 167.313 29.1193 166.568 29.1193C165.824 29.1193 165.162 28.9375 164.582 28.5739C164.003 28.2102 163.547 27.6932 163.214 27.0227C162.882 26.3523 162.716 25.5568 162.716 24.6364C162.716 23.7159 162.882 22.9205 163.214 22.25C163.547 21.5795 164.003 21.0625 164.582 20.6989C165.162 20.3352 165.824 20.1534 166.568 20.1534C167.313 20.1534 167.974 20.3352 168.554 20.6989C169.134 21.0625 169.589 21.5795 169.922 22.25C170.254 22.9205 170.42 23.7159 170.42 24.6364ZM169.398 24.6364C169.398 23.8807 169.271 23.2429 169.018 22.723C168.768 22.2031 168.429 21.8097 168 21.5426C167.574 21.2756 167.097 21.142 166.568 21.142C166.04 21.142 165.561 21.2756 165.132 21.5426C164.706 21.8097 164.366 22.2031 164.114 22.723C163.864 23.2429 163.739 23.8807 163.739 24.6364C163.739 25.392 163.864 26.0298 164.114 26.5497C164.366 27.0696 164.706 27.4631 165.132 27.7301C165.561 27.9972 166.04 28.1307 166.568 28.1307C167.097 28.1307 167.574 27.9972 168 27.7301C168.429 27.4631 168.768 27.0696 169.018 26.5497C169.271 26.0298 169.398 25.392 169.398 24.6364Z" fill="black"/>
<path d="M49.5795 49.2102V48.2727H56.125V49.2102H53.3807V57H52.3239V49.2102H49.5795Z" fill="#008EBB"/>
<path d="M282.58 49.2102V48.2727H289.125V49.2102H286.381V57H285.324V49.2102H282.58Z" fill="#008EBB"/>
<path d="M162.58 49.2102V48.2727H169.125V49.2102H166.381V57H165.324V49.2102H162.58Z" fill="#008EBB"/>
<path d="M49.5795 84.2102V83.2727H56.125V84.2102H53.3807V92H52.3239V84.2102H49.5795Z" fill="#008EBB"/>
<path d="M162.58 118.21V117.273H169.125V118.21H166.381V126H165.324V118.21H162.58Z" fill="#008EBB"/>
<path d="M282.58 151.21V150.273H289.125V151.21H286.381V159H285.324V151.21H282.58Z" fill="#008EBB"/>
<path d="M282.58 118.21V117.273H289.125V118.21H286.381V126H285.324V118.21H282.58Z" fill="#008EBB"/>
<path d="M50.0568 126V117.273H55.2898V118.21H51.1136V121.159H54.8977V122.097H51.1136V126H50.0568Z" fill="#008EBB"/>
<path d="M165.057 92V83.2727H170.29V84.2102H166.114V87.1591H169.898V88.0966H166.114V92H165.057Z" fill="#008EBB"/>
<path d="M283.057 92V83.2727H288.29V84.2102H284.114V87.1591H287.898V88.0966H284.114V92H283.057Z" fill="#008EBB"/>
<path d="M50.0568 159V150.273H55.2898V151.21H51.1136V154.159H54.8977V155.097H51.1136V159H50.0568Z" fill="#008EBB"/>
<path d="M163.057 159V150.273H168.29V151.21H164.114V154.159H167.898V155.097H164.114V159H163.057Z" fill="#008EBB"/>
<line x1="100.5" x2="100.5" y2="174" stroke="#00ABE4"/>
<line x1="219.5" x2="219.5" y2="174" stroke="#00ABE4"/>
<line x1="-0.000793457" y1="39.9999" x2="339.001" y2="39.9999" stroke="#00ABE4"/>
<line y1="71.5" x2="339.001" y2="71.5" stroke="#00ABE4"/>
<line x1="-1" y1="104.5" x2="338.001" y2="104.5" stroke="#00ABE4"/>
<line y1="141.5" x2="339.001" y2="141.5" stroke="#00ABE4"/>
</g>
<defs>
<clipPath id="clip0_18_79">
<rect width="339" height="174" fill="white"/>
</clipPath>
</defs>
</svg>
