<svg width="339" height="174" viewBox="0 0 339 174" fill="none" xmlns="http://www.w3.org/2000/svg">
<path d="M0 3C0 1.34314 1.34315 0 3 0H336C337.657 0 339 1.34315 339 3V171C339 172.657 337.657 174 336 174H169.5H3C1.34315 174 0 172.657 0 171V3Z" fill="white" fill-opacity="0.29"/>
<g style="mix-blend-mode:multiply">
<path d="M188.5 57C188.5 79.8139 164.891 98.5 135.5 98.5C106.109 98.5 82.5 79.8139 82.5 57C82.5 34.1861 106.109 15.5 135.5 15.5C164.891 15.5 188.5 34.1861 188.5 57Z" fill="white"/>
<path d="M188.5 57C188.5 79.8139 164.891 98.5 135.5 98.5C106.109 98.5 82.5 79.8139 82.5 57C82.5 34.1861 106.109 15.5 135.5 15.5C164.891 15.5 188.5 34.1861 188.5 57Z" stroke="#00ABE4"/>
</g>
<g style="mix-blend-mode:multiply">
<path d="M258.5 57C258.5 79.8139 234.891 98.5 205.5 98.5C176.109 98.5 152.5 79.8139 152.5 57C152.5 34.1861 176.109 15.5 205.5 15.5C234.891 15.5 258.5 34.1861 258.5 57Z" fill="white"/>
<path d="M258.5 57C258.5 79.8139 234.891 98.5 205.5 98.5C176.109 98.5 152.5 79.8139 152.5 57C152.5 34.1861 176.109 15.5 205.5 15.5C234.891 15.5 258.5 34.1861 258.5 57Z" stroke="#00ABE4"/>
</g>
<g style="mix-blend-mode:multiply">
<path d="M222.5 105C222.5 127.814 198.891 146.5 169.5 146.5C140.109 146.5 116.5 127.814 116.5 105C116.5 82.1861 140.109 63.5 169.5 63.5C198.891 63.5 222.5 82.1861 222.5 105Z" fill="white"/>
<path d="M222.5 105C222.5 127.814 198.891 146.5 169.5 146.5C140.109 146.5 116.5 127.814 116.5 105C116.5 82.1861 140.109 63.5 169.5 63.5C198.891 63.5 222.5 82.1861 222.5 105Z" stroke="#00ABE4"/>
</g>
<path d="M173.08 160H172.023C171.96 159.696 171.851 159.429 171.695 159.199C171.541 158.969 171.354 158.776 171.132 158.619C170.913 158.46 170.67 158.341 170.403 158.261C170.136 158.182 169.858 158.142 169.568 158.142C169.04 158.142 168.561 158.276 168.132 158.543C167.706 158.81 167.366 159.203 167.114 159.723C166.864 160.243 166.739 160.881 166.739 161.636C166.739 162.392 166.864 163.03 167.114 163.55C167.366 164.07 167.706 164.463 168.132 164.73C168.561 164.997 169.04 165.131 169.568 165.131C169.858 165.131 170.136 165.091 170.403 165.011C170.67 164.932 170.913 164.814 171.132 164.658C171.354 164.499 171.541 164.304 171.695 164.074C171.851 163.841 171.96 163.574 172.023 163.273H173.08C173 163.719 172.855 164.118 172.645 164.47C172.435 164.822 172.173 165.122 171.861 165.369C171.548 165.614 171.197 165.8 170.808 165.928C170.422 166.055 170.009 166.119 169.568 166.119C168.824 166.119 168.162 165.938 167.582 165.574C167.003 165.21 166.547 164.693 166.214 164.023C165.882 163.352 165.716 162.557 165.716 161.636C165.716 160.716 165.882 159.92 166.214 159.25C166.547 158.58 167.003 158.062 167.582 157.699C168.162 157.335 168.824 157.153 169.568 157.153C170.009 157.153 170.422 157.217 170.808 157.345C171.197 157.473 171.548 157.661 171.861 157.908C172.173 158.152 172.435 158.45 172.645 158.803C172.855 159.152 173 159.551 173.08 160Z" fill="#00ABE4"/>
<path d="M287.057 27V18.2727H290.108C290.716 18.2727 291.217 18.3778 291.612 18.5881C292.007 18.7955 292.301 19.0753 292.494 19.4276C292.688 19.777 292.784 20.1648 292.784 20.5909C292.784 20.9659 292.717 21.2756 292.584 21.5199C292.453 21.7642 292.28 21.9574 292.064 22.0994C291.851 22.2415 291.619 22.3466 291.369 22.4148V22.5C291.636 22.517 291.905 22.6108 292.175 22.7812C292.445 22.9517 292.67 23.196 292.852 23.5142C293.034 23.8324 293.125 24.2216 293.125 24.6818C293.125 25.1193 293.026 25.5128 292.827 25.8622C292.628 26.2116 292.314 26.4886 291.885 26.6932C291.456 26.8977 290.898 27 290.21 27H287.057ZM288.114 26.0625H290.21C290.901 26.0625 291.391 25.929 291.68 25.6619C291.973 25.392 292.119 25.0653 292.119 24.6818C292.119 24.3864 292.044 24.1136 291.893 23.8636C291.743 23.6108 291.528 23.4091 291.25 23.2585C290.972 23.1051 290.642 23.0284 290.261 23.0284H288.114V26.0625ZM288.114 22.108H290.074C290.392 22.108 290.679 22.0455 290.935 21.9205C291.193 21.7955 291.398 21.6193 291.548 21.392C291.702 21.1648 291.778 20.8977 291.778 20.5909C291.778 20.2074 291.645 19.8821 291.378 19.6151C291.111 19.3452 290.688 19.2102 290.108 19.2102H288.114V22.108Z" fill="#00ABE4"/>
<path d="M53.4148 27H52.3068L55.5114 18.2727H56.6023L59.8068 27H58.6989L56.0909 19.6534H56.0227L53.4148 27ZM53.8239 23.5909H58.2898V24.5284H53.8239V23.5909Z" fill="#00ABE4"/>
</svg>
