<svg  viewBox="0 0 397 300" fill="none" xmlns="http://www.w3.org/2000/svg">
<path d="M227.5 101.5C227.5 149.435 186.651 188.5 136 188.5C85.349 188.5 44.5 149.435 44.5 101.5C44.5 53.5654 85.349 14.5 136 14.5C186.651 14.5 227.5 53.5654 227.5 101.5Z" stroke="black" stroke-width="5"/>
<path d="M342.5 101.5C342.5 149.435 301.651 188.5 251 188.5C200.349 188.5 159.5 149.435 159.5 101.5C159.5 53.5654 200.349 14.5 251 14.5C301.651 14.5 342.5 53.5654 342.5 101.5Z" stroke="black" stroke-width="5"/>
<path d="M289.5 190.5C289.5 238.435 248.651 277.5 198 277.5C147.349 277.5 106.5 238.435 106.5 190.5C106.5 142.565 147.349 103.5 198 103.5C248.651 103.5 289.5 142.565 289.5 190.5Z" stroke="black" stroke-width="5"/>
</svg>
