<svg width="32" height="32" viewBox="0 0 32 32" fill="none" xmlns="http://www.w3.org/2000/svg">
<path d="M18.2064 10.7907C18.2064 15.8881 14.9749 19.8057 11.2238 19.8057C7.47269 19.8057 4.24121 15.8881 4.24121 10.7907C4.24121 5.69329 7.47269 1.77576 11.2238 1.77576C14.9749 1.77576 18.2064 5.69329 18.2064 10.7907Z" stroke="white"/>
<path d="M27.3607 10.7907C27.3607 15.8881 24.1292 19.8057 20.3781 19.8057C16.627 19.8057 13.3955 15.8881 13.3955 10.7907C13.3955 5.69329 16.627 1.77576 20.3781 1.77576C24.1292 1.77576 27.3607 5.69329 27.3607 10.7907Z" stroke="white"/>
<path d="M23.1417 20.2525C23.1417 25.3499 19.9102 29.2674 16.1591 29.2674C12.408 29.2674 9.17651 25.3499 9.17651 20.2525C9.17651 15.1551 12.408 11.2375 16.1591 11.2375C19.9102 11.2375 23.1417 15.1551 23.1417 20.2525Z" stroke="white"/>
</svg>
