<svg width="432" height="268" viewBox="0 0 146 126" fill="none" xmlns="http://www.w3.org/2000/svg">
<path d="M1.91797 7.96289C1.95703 7.73503 2.06771 7.56576 2.25 7.45508C2.43229 7.33789 2.73503 7.2793 3.1582 7.2793C3.38607 7.2793 3.56185 7.33789 3.68555 7.45508C3.81576 7.57227 3.88086 7.73503 3.88086 7.94336C3.88086 7.97591 3.8776 8.00521 3.87109 8.03125C3.86458 8.05729 3.86133 8.08659 3.86133 8.11914C3.78971 8.54232 3.73112 8.98177 3.68555 9.4375C3.63997 9.89323 3.61719 10.3555 3.61719 10.8242C3.61719 11.4297 3.66927 12.0026 3.77344 12.543C3.88411 13.0768 4.07617 13.5456 4.34961 13.9492C4.62956 14.3464 5.00716 14.6621 5.48242 14.8965C5.96419 15.1243 6.57617 15.2383 7.31836 15.2383C7.73503 15.2383 8.10286 15.1634 8.42188 15.0137C8.74089 14.8639 9.00456 14.6589 9.21289 14.3984C9.42773 14.1315 9.58724 13.819 9.69141 13.4609C9.80208 13.1029 9.85742 12.7155 9.85742 12.2988C9.85742 11.8822 9.81185 11.472 9.7207 11.0684C9.63607 10.6647 9.51888 10.2676 9.36914 9.87695C9.22591 9.47982 9.05664 9.08919 8.86133 8.70508C8.67253 8.32096 8.4707 7.93359 8.25586 7.54297C8.16471 7.36719 8.11914 7.20768 8.11914 7.06445C8.11914 6.81055 8.2526 6.5957 8.51953 6.41992L8.91992 6.15625C9.0957 6.03906 9.26172 5.98047 9.41797 5.98047C9.65885 5.98047 9.86068 6.12695 10.0234 6.41992C10.2708 6.85612 10.5085 7.29883 10.7363 7.74805C10.9642 8.19076 11.1628 8.64648 11.332 9.11523C11.5078 9.58398 11.6445 10.069 11.7422 10.5703C11.8464 11.0651 11.8984 11.5762 11.8984 12.1035C11.8984 12.8392 11.7747 13.5098 11.5273 14.1152C11.2865 14.7207 10.9414 15.2415 10.4922 15.6777C10.043 16.1074 9.5026 16.4395 8.87109 16.6738C8.24609 16.9147 7.54948 17.0352 6.78125 17.0352C5.94792 17.0352 5.20573 16.8887 4.55469 16.5957C3.91016 16.3092 3.36654 15.9121 2.92383 15.4043C2.48112 14.89 2.14583 14.2845 1.91797 13.5879C1.6901 12.8848 1.57617 12.123 1.57617 11.3027C1.57617 10.7298 1.60872 10.1569 1.67383 9.58398C1.74544 9.00456 1.82682 8.46419 1.91797 7.96289ZM18.5293 10.9805C18.2103 10.9805 18.0508 10.8405 18.0508 10.5605C18.0508 10.541 18.0508 10.5182 18.0508 10.4922C18.0508 10.4661 18.0573 10.4368 18.0703 10.4043L18.2461 9.62305C18.3242 9.33008 18.5195 9.18359 18.832 9.18359C19.9258 9.17057 21.013 9.13477 22.0938 9.07617C23.1745 9.01107 24.2585 8.93945 25.3457 8.86133H25.4531C25.7135 8.88086 25.8535 9.02734 25.873 9.30078L25.8242 10.1211C25.8047 10.4466 25.6322 10.6191 25.3066 10.6387C24.1738 10.7233 23.0443 10.7982 21.918 10.8633C20.7917 10.9284 19.6621 10.9674 18.5293 10.9805ZM18.2852 14.0762C17.9661 14.0762 17.8066 13.9362 17.8066 13.6562C17.8066 13.6367 17.8066 13.6139 17.8066 13.5879C17.8066 13.5618 17.8132 13.5326 17.8262 13.5L18.0117 12.7188C18.0898 12.4258 18.2819 12.2793 18.5879 12.2793C19.1348 12.2728 19.6654 12.263 20.1797 12.25C20.7005 12.2305 21.2181 12.2077 21.7324 12.1816C22.2467 12.1556 22.7611 12.1263 23.2754 12.0938C23.7962 12.0547 24.3268 12.0156 24.8672 11.9766H24.9648C25.1081 11.9896 25.209 12.0319 25.2676 12.1035C25.3327 12.1751 25.3717 12.2793 25.3848 12.416L25.3457 13.2363C25.3262 13.5684 25.1536 13.7441 24.8281 13.7637C24.2617 13.8027 23.6888 13.8418 23.1094 13.8809C22.5365 13.9134 21.9701 13.946 21.4102 13.9785C20.8503 14.0046 20.3066 14.0273 19.7793 14.0469C19.252 14.0599 18.7539 14.0697 18.2852 14.0762ZM37.2793 16.6152C37.4811 16.4329 37.6732 16.3418 37.8555 16.3418C37.9466 16.3418 38.0378 16.3613 38.1289 16.4004C38.2201 16.446 38.3177 16.5176 38.4219 16.6152C38.6042 16.8105 38.6953 17.0059 38.6953 17.2012C38.6953 17.39 38.6107 17.569 38.4414 17.7383C38.0312 18.1289 37.5918 18.4121 37.123 18.5879C36.6543 18.7702 36.1595 18.8613 35.6387 18.8613C35.2155 18.8613 34.8509 18.7897 34.5449 18.6465C34.2454 18.5098 33.998 18.3242 33.8027 18.0898C33.6139 17.862 33.474 17.5983 33.3828 17.2988C33.2982 16.9993 33.2559 16.6868 33.2559 16.3613C33.2559 16.0879 33.2852 15.8242 33.3438 15.5703C33.4089 15.3099 33.4805 15.0527 33.5586 14.7988C33.6367 14.5449 33.7051 14.291 33.7637 14.0371C33.8288 13.7832 33.8613 13.5228 33.8613 13.2559C33.8613 13.0345 33.8223 12.8555 33.7441 12.7188C33.666 12.5755 33.5651 12.4583 33.4414 12.3672C33.3242 12.276 33.1973 12.1979 33.0605 12.1328C32.9238 12.0677 32.7936 11.9993 32.6699 11.9277C32.5527 11.8561 32.4551 11.7747 32.377 11.6836C32.2988 11.5859 32.2598 11.459 32.2598 11.3027C32.2598 11.0618 32.3216 10.86 32.4453 10.6973C32.569 10.528 32.7318 10.4076 32.9336 10.3359C33.2982 10.2188 33.5586 10.0755 33.7148 9.90625C33.8776 9.73698 33.959 9.52865 33.959 9.28125C33.959 9.06641 33.9199 8.83203 33.8418 8.57812C33.7637 8.31771 33.6758 8.05404 33.5781 7.78711C33.4805 7.51367 33.3926 7.24349 33.3145 6.97656C33.2363 6.70964 33.1973 6.45898 33.1973 6.22461C33.1973 5.75586 33.2982 5.33919 33.5 4.97461C33.7018 4.60352 33.9622 4.29102 34.2812 4.03711C34.6068 3.7832 34.9714 3.59115 35.375 3.46094C35.7852 3.32422 36.1921 3.25586 36.5957 3.25586C36.7845 3.25586 36.9961 3.27539 37.2305 3.31445C37.4648 3.35352 37.6829 3.41211 37.8848 3.49023C38.0931 3.56836 38.2656 3.66927 38.4023 3.79297C38.5456 3.91667 38.6172 4.0599 38.6172 4.22266C38.6172 4.3138 38.5846 4.41471 38.5195 4.52539C38.4609 4.63607 38.347 4.78255 38.1777 4.96484C37.9954 5.16016 37.8555 5.29362 37.7578 5.36523C37.6667 5.43034 37.5788 5.46289 37.4941 5.46289C37.416 5.46289 37.3314 5.44336 37.2402 5.4043C37.1491 5.35872 37.0482 5.3099 36.9375 5.25781C36.8333 5.19922 36.7194 5.15039 36.5957 5.11133C36.472 5.06576 36.3385 5.04297 36.1953 5.04297C36.0065 5.04297 35.847 5.07552 35.7168 5.14062C35.5931 5.20573 35.4922 5.28711 35.4141 5.38477C35.3359 5.48242 35.2806 5.58984 35.248 5.70703C35.2155 5.81771 35.1992 5.92188 35.1992 6.01953C35.1992 6.1888 35.235 6.40039 35.3066 6.6543C35.3848 6.9082 35.4694 7.17513 35.5605 7.45508C35.6517 7.72852 35.7331 7.9987 35.8047 8.26562C35.8828 8.52604 35.9219 8.75065 35.9219 8.93945C35.9219 9.29102 35.8438 9.60677 35.6875 9.88672C35.5378 10.1667 35.3197 10.4173 35.0332 10.6387C34.89 10.7624 34.8184 10.8698 34.8184 10.9609C34.8184 11.0716 34.8965 11.179 35.0527 11.2832C35.3587 11.4915 35.5638 11.7227 35.668 11.9766C35.7786 12.224 35.834 12.5169 35.834 12.8555C35.834 13.1224 35.8047 13.3828 35.7461 13.6367C35.6875 13.8906 35.6191 14.1445 35.541 14.3984C35.4694 14.6458 35.4043 14.8965 35.3457 15.1504C35.2871 15.4043 35.2578 15.6615 35.2578 15.9219C35.2578 16.1432 35.2806 16.3255 35.3262 16.4688C35.3783 16.6185 35.4466 16.7357 35.5312 16.8203C35.6159 16.9115 35.7168 16.9733 35.834 17.0059C35.9577 17.0449 36.0911 17.0645 36.2344 17.0645C36.4427 17.0645 36.6315 17.0221 36.8008 16.9375C36.9766 16.8529 37.1361 16.7454 37.2793 16.6152ZM43.6074 12.1621C43.6074 11.459 43.7344 10.8014 43.9883 10.1895C44.2487 9.57096 44.6003 9.03711 45.043 8.58789C45.4922 8.13216 46.0163 7.77409 46.6152 7.51367C47.2142 7.25326 47.8587 7.12305 48.5488 7.12305C49.2845 7.12305 49.9746 7.24674 50.6191 7.49414C51.2637 7.73503 51.8236 8.06706 52.2988 8.49023C52.7806 8.9069 53.1582 9.39844 53.4316 9.96484C53.7116 10.5312 53.8516 11.1367 53.8516 11.7812C53.8516 12.2044 53.7832 12.6146 53.6465 13.0117C53.5098 13.4089 53.3145 13.7799 53.0605 14.125C52.8132 14.4701 52.5137 14.7858 52.1621 15.0723C51.8171 15.3587 51.4329 15.6061 51.0098 15.8145C50.5866 16.0163 50.1309 16.1725 49.6426 16.2832C49.1608 16.4004 48.6628 16.459 48.1484 16.459C47.4648 16.459 46.8431 16.3548 46.2832 16.1465C45.7233 15.9447 45.2448 15.6582 44.8477 15.2871C44.457 14.9095 44.151 14.457 43.9297 13.9297C43.7148 13.4023 43.6074 12.8132 43.6074 12.1621ZM51.8887 12.1621C51.8887 11.7259 51.791 11.3125 51.5957 10.9219C51.4004 10.5312 51.1335 10.1895 50.7949 9.89648C50.4564 9.60352 50.0592 9.3724 49.6035 9.20312C49.1478 9.02734 48.6628 8.93945 48.1484 8.93945C47.7904 8.93945 47.4551 9.01107 47.1426 9.1543C46.8301 9.29102 46.5599 9.47982 46.332 9.7207C46.1042 9.95508 45.9219 10.235 45.7852 10.5605C45.6549 10.8796 45.5898 11.2246 45.5898 11.5957C45.5898 12.5723 45.8372 13.3275 46.332 13.8613C46.8268 14.3952 47.5202 14.6621 48.4121 14.6621C48.8874 14.6621 49.3366 14.597 49.7598 14.4668C50.1829 14.3366 50.5508 14.1576 50.8633 13.9297C51.1823 13.7018 51.4329 13.4382 51.6152 13.1387C51.7975 12.8327 51.8887 12.5072 51.8887 12.1621ZM64.0078 14.8184C64.0078 14.89 63.959 15.0592 63.8613 15.3262C63.7637 15.5931 63.6335 15.9056 63.4707 16.2637C63.3145 16.6217 63.1322 16.9993 62.9238 17.3965C62.7155 17.7936 62.5039 18.1582 62.2891 18.4902C62.0742 18.8223 61.8626 19.0957 61.6543 19.3105C61.4525 19.5319 61.2702 19.6426 61.1074 19.6426C61.0293 19.6426 60.9316 19.6198 60.8145 19.5742C60.6973 19.5286 60.5833 19.4701 60.4727 19.3984C60.3685 19.3333 60.2773 19.2585 60.1992 19.1738C60.1211 19.0957 60.082 19.0176 60.082 18.9395C60.082 18.8743 60.1471 18.7116 60.2773 18.4512C60.4141 18.1973 60.5801 17.8652 60.7754 17.4551C60.9707 17.0514 61.179 16.5859 61.4004 16.0586C61.6217 15.5312 61.8171 14.9648 61.9863 14.3594C62.0254 14.2292 62.0807 14.1283 62.1523 14.0566C62.224 13.9785 62.3216 13.9395 62.4453 13.9395C62.5625 13.9395 62.709 13.9655 62.8848 14.0176C63.0605 14.0632 63.2298 14.1283 63.3926 14.2129C63.5618 14.291 63.7051 14.3822 63.8223 14.4863C63.946 14.5905 64.0078 14.7012 64.0078 14.8184ZM71.498 10.6191C71.3158 10.7949 71.1237 10.8828 70.9219 10.8828C70.8307 10.8828 70.7363 10.8633 70.6387 10.8242C70.541 10.7786 70.4271 10.7038 70.2969 10.5996C70.056 10.4173 69.9355 10.2253 69.9355 10.0234C69.9355 9.89323 70.0104 9.74023 70.1602 9.56445C70.3034 9.38867 70.4922 9.20638 70.7266 9.01758C70.9609 8.82227 71.2246 8.6237 71.5176 8.42188C71.8171 8.22005 72.1198 8.02799 72.4258 7.8457C72.7318 7.66341 73.028 7.4974 73.3145 7.34766C73.6009 7.19792 73.8483 7.07422 74.0566 6.97656C74.1803 6.92448 74.2943 6.88542 74.3984 6.85938C74.5026 6.83333 74.61 6.82031 74.7207 6.82031C74.9421 6.82031 75.1309 6.85938 75.2871 6.9375C75.4499 7.00911 75.5866 7.11003 75.6973 7.24023C75.8079 7.37044 75.8991 7.52018 75.9707 7.68945C76.0488 7.85221 76.1107 8.02474 76.1562 8.20703C76.2083 8.38281 76.2507 8.5651 76.2832 8.75391C76.3158 8.9362 76.3483 9.10547 76.3809 9.26172C76.4329 9.52865 76.485 9.83789 76.5371 10.1895C76.5957 10.5345 76.6478 10.8958 76.6934 11.2734C76.7389 11.6445 76.7812 12.0156 76.8203 12.3867C76.8659 12.7513 76.9049 13.0931 76.9375 13.4121C76.9701 13.7246 76.9928 13.998 77.0059 14.2324C77.0254 14.4603 77.0352 14.623 77.0352 14.7207C77.0352 15.1764 76.8105 15.4434 76.3613 15.5215C76.1139 15.5736 75.9512 15.6029 75.873 15.6094C75.7949 15.6159 75.7428 15.6191 75.7168 15.6191C75.515 15.6191 75.3522 15.5605 75.2285 15.4434C75.1113 15.3262 75.043 15.1504 75.0234 14.916C74.9518 14.0436 74.8704 13.1777 74.7793 12.3184C74.6882 11.4525 74.5482 10.5931 74.3594 9.74023C74.3203 9.55143 74.252 9.4082 74.1543 9.31055C74.0566 9.21289 73.9395 9.16406 73.8027 9.16406C73.6725 9.16406 73.5098 9.21615 73.3145 9.32031C73.1191 9.42448 72.9141 9.55143 72.6992 9.70117C72.4844 9.85091 72.2695 10.0104 72.0547 10.1797C71.8464 10.3424 71.6608 10.4889 71.498 10.6191ZM84.0469 5.50195C83.9492 5.5931 83.8548 5.66146 83.7637 5.70703C83.6725 5.7526 83.5749 5.77539 83.4707 5.77539C83.2819 5.77539 83.0964 5.68424 82.9141 5.50195C82.7253 5.31315 82.6309 5.11784 82.6309 4.91602C82.6309 4.73372 82.7188 4.55469 82.8945 4.37891C83.3047 3.98828 83.7409 3.70508 84.2031 3.5293C84.6719 3.34701 85.1667 3.25586 85.6875 3.25586C86.1107 3.25586 86.472 3.32747 86.7715 3.4707C87.0775 3.60742 87.3249 3.79297 87.5137 4.02734C87.709 4.25521 87.849 4.51888 87.9336 4.81836C88.0247 5.11784 88.0703 5.43034 88.0703 5.75586C88.0703 6.0293 88.0378 6.29622 87.9727 6.55664C87.9141 6.81055 87.8457 7.06445 87.7676 7.31836C87.696 7.57227 87.6276 7.82617 87.5625 8.08008C87.5039 8.33398 87.4746 8.5944 87.4746 8.86133C87.4746 9.08268 87.5137 9.26497 87.5918 9.4082C87.6699 9.54492 87.7676 9.65885 87.8848 9.75C88.002 9.84115 88.1289 9.92253 88.2656 9.99414C88.4089 10.0592 88.5391 10.1276 88.6562 10.1992C88.7734 10.2708 88.8711 10.3555 88.9492 10.4531C89.0273 10.5443 89.0664 10.668 89.0664 10.8242C89.0664 11.0651 89.0046 11.2669 88.8809 11.4297C88.7572 11.5924 88.5944 11.7096 88.3926 11.7812C88.028 11.8984 87.7643 12.0417 87.6016 12.2109C87.4453 12.3802 87.3672 12.5885 87.3672 12.8359C87.3672 13.0508 87.4062 13.2884 87.4844 13.5488C87.5625 13.8027 87.6504 14.0664 87.748 14.3398C87.8457 14.6133 87.9336 14.8835 88.0117 15.1504C88.0898 15.4173 88.1289 15.668 88.1289 15.9023C88.1289 16.3646 88.028 16.778 87.8262 17.1426C87.6243 17.5137 87.3607 17.8262 87.0352 18.0801C86.7161 18.334 86.3516 18.526 85.9414 18.6562C85.5378 18.793 85.1341 18.8613 84.7305 18.8613C84.5417 18.8613 84.3301 18.8418 84.0957 18.8027C83.8613 18.7637 83.64 18.7051 83.4316 18.627C83.2298 18.5488 83.0605 18.4479 82.9238 18.3242C82.7806 18.207 82.709 18.0671 82.709 17.9043C82.709 17.8132 82.7415 17.7122 82.8066 17.6016C82.8652 17.4909 82.9792 17.3444 83.1484 17.1621C83.3307 16.9603 83.4707 16.8268 83.5684 16.7617C83.666 16.6966 83.7539 16.6641 83.832 16.6641C83.9102 16.6641 83.9948 16.6836 84.0859 16.7227C84.1836 16.7682 84.2845 16.8171 84.3887 16.8691C84.4993 16.9277 84.6165 16.9766 84.7402 17.0156C84.8639 17.0612 84.9941 17.084 85.1309 17.084C85.3197 17.084 85.4759 17.0482 85.5996 16.9766C85.7298 16.9115 85.834 16.8301 85.9121 16.7324C85.9902 16.6348 86.0456 16.5273 86.0781 16.4102C86.1107 16.2995 86.127 16.1953 86.127 16.0977C86.127 15.9284 86.0879 15.7168 86.0098 15.4629C85.9382 15.209 85.8568 14.9453 85.7656 14.6719C85.681 14.3984 85.5996 14.1283 85.5215 13.8613C85.4499 13.5944 85.4141 13.3665 85.4141 13.1777C85.4141 12.8262 85.4889 12.5104 85.6387 12.2305C85.7884 11.9505 86.0065 11.6999 86.293 11.4785C86.4362 11.3548 86.5078 11.2474 86.5078 11.1562C86.5078 11.0456 86.4297 10.9414 86.2734 10.8438C85.9674 10.6354 85.7591 10.4043 85.6484 10.1504C85.5443 9.89648 85.4922 9.60026 85.4922 9.26172C85.4922 8.99479 85.5215 8.73438 85.5801 8.48047C85.6387 8.22656 85.7038 7.97591 85.7754 7.72852C85.8535 7.47461 85.9219 7.2207 85.9805 6.9668C86.0391 6.71289 86.0684 6.45573 86.0684 6.19531C86.0684 5.97396 86.0423 5.79167 85.9902 5.64844C85.9447 5.50521 85.8796 5.39128 85.7949 5.30664C85.7103 5.21549 85.6061 5.15365 85.4824 5.12109C85.3652 5.08203 85.235 5.0625 85.0918 5.0625C84.8835 5.0625 84.6914 5.10482 84.5156 5.18945C84.3464 5.26758 84.1901 5.37174 84.0469 5.50195Z" fill="black"/>
<path d="M62.5195 109.885C62.4674 109.885 62.3665 109.898 62.2168 109.924C62.0736 109.943 61.9043 109.969 61.709 110.002C61.5137 110.035 61.3086 110.074 61.0938 110.119C60.8789 110.158 60.6771 110.194 60.4883 110.227C60.2995 110.259 60.1367 110.288 60 110.314C59.8568 110.334 59.7624 110.344 59.7168 110.344C59.2806 110.344 59.0625 110.116 59.0625 109.66C59.0625 109.536 59.0755 109.416 59.1016 109.299C59.1211 109.175 59.1602 109.064 59.2188 108.967C59.2773 108.863 59.3555 108.775 59.4531 108.703C59.5508 108.632 59.6745 108.583 59.8242 108.557C60.5859 108.439 61.3444 108.316 62.0996 108.186C62.8548 108.055 63.6165 107.919 64.3848 107.775C64.554 107.743 64.707 107.714 64.8438 107.688C64.9805 107.655 65.1335 107.613 65.3027 107.561C65.485 107.508 65.6836 107.46 65.8984 107.414C66.1133 107.362 66.3281 107.316 66.543 107.277C66.7643 107.238 66.9759 107.206 67.1777 107.18C67.3861 107.154 67.5749 107.141 67.7441 107.141C67.9525 107.141 68.1087 107.209 68.2129 107.346C68.3236 107.476 68.3789 107.661 68.3789 107.902C68.3789 108.026 68.3691 108.146 68.3496 108.264C68.3301 108.374 68.2943 108.475 68.2422 108.566C68.1901 108.658 68.1185 108.732 68.0273 108.791C67.9362 108.85 67.819 108.885 67.6758 108.898C67.3047 108.951 66.9076 109.016 66.4844 109.094C66.0612 109.165 65.6934 109.247 65.3809 109.338C65.2507 109.377 65.153 109.442 65.0879 109.533C65.0228 109.618 64.9805 109.725 64.9609 109.855C64.9414 109.979 64.9284 110.106 64.9219 110.236C64.9219 110.36 64.9219 110.48 64.9219 110.598C64.9219 110.871 64.9316 111.145 64.9512 111.418C64.9772 111.691 65 111.965 65.0195 112.238C65.0781 113.176 65.166 114.104 65.2832 115.021C65.4069 115.939 65.5404 116.867 65.6836 117.805C65.6966 117.837 65.7031 117.87 65.7031 117.902C65.7031 117.935 65.7031 117.967 65.7031 118C65.7031 118.358 65.5013 118.612 65.0977 118.762L64.6582 118.898C64.541 118.938 64.4271 118.957 64.3164 118.957C64.1471 118.957 64.0104 118.902 63.9062 118.791C63.8021 118.687 63.7337 118.531 63.7012 118.322C63.5189 117.202 63.3594 116.089 63.2227 114.982C63.0859 113.869 62.998 112.749 62.959 111.623C62.946 111.441 62.9362 111.242 62.9297 111.027C62.9232 110.812 62.9199 110.591 62.9199 110.363C62.9199 110.044 62.7865 109.885 62.5195 109.885ZM73.5059 114.582C73.3236 114.582 73.1738 114.507 73.0566 114.357C72.9395 114.201 72.8809 113.977 72.8809 113.684C72.8809 113.423 72.998 113.228 73.2324 113.098C73.4668 112.967 73.8639 112.876 74.4238 112.824C74.6061 112.805 74.8438 112.779 75.1367 112.746C75.4362 112.707 75.7389 112.671 76.0449 112.639C76.3574 112.6 76.6504 112.567 76.9238 112.541C77.2038 112.515 77.4219 112.502 77.5781 112.502C77.819 112.502 78.0046 112.574 78.1348 112.717C78.2715 112.86 78.3398 113.114 78.3398 113.479C78.3398 113.856 77.9655 114.084 77.2168 114.162C77.1191 114.175 76.9727 114.195 76.7773 114.221C76.5885 114.24 76.3737 114.266 76.1328 114.299C75.8919 114.331 75.638 114.364 75.3711 114.396C75.1107 114.429 74.86 114.458 74.6191 114.484C74.3783 114.51 74.1569 114.533 73.9551 114.553C73.7598 114.572 73.61 114.582 73.5059 114.582ZM81.3281 117.336C81.2109 117.46 81.084 117.521 80.9473 117.521C80.8236 117.521 80.7031 117.476 80.5859 117.385L80.0488 116.984C79.9056 116.854 79.834 116.727 79.834 116.604C79.834 116.48 79.8926 116.359 80.0098 116.242C80.2116 116.04 80.4297 115.816 80.6641 115.568C80.8984 115.314 81.1296 115.051 81.3574 114.777C81.5853 114.504 81.8001 114.227 82.002 113.947C82.2038 113.667 82.373 113.391 82.5098 113.117C82.5423 113.065 82.5618 113.016 82.5684 112.971C82.5814 112.925 82.5879 112.883 82.5879 112.844C82.5879 112.72 82.5228 112.59 82.3926 112.453C82.2689 112.316 82.1061 112.18 81.9043 112.043C81.7025 111.906 81.4714 111.773 81.2109 111.643C80.957 111.506 80.6999 111.382 80.4395 111.271C80.179 111.154 79.9284 111.05 79.6875 110.959C79.4466 110.861 79.2415 110.783 79.0723 110.725C78.8444 110.633 78.7305 110.507 78.7305 110.344C78.7305 110.279 78.763 110.171 78.8281 110.021C78.8997 109.872 78.9876 109.719 79.0918 109.562C79.196 109.406 79.3099 109.27 79.4336 109.152C79.5638 109.035 79.6842 108.977 79.7949 108.977C79.8275 108.977 79.86 108.98 79.8926 108.986C79.9316 108.986 79.9707 108.996 80.0098 109.016C80.3613 109.139 80.7096 109.279 81.0547 109.436C81.3997 109.592 81.7448 109.761 82.0898 109.943C82.3242 110.061 82.5911 110.201 82.8906 110.363C83.1966 110.526 83.4831 110.708 83.75 110.91C84.0169 111.112 84.2415 111.337 84.4238 111.584C84.6126 111.825 84.707 112.092 84.707 112.385C84.707 112.73 84.5898 113.117 84.3555 113.547C84.1276 113.977 83.8411 114.416 83.4961 114.865C83.1576 115.314 82.793 115.754 82.4023 116.184C82.0117 116.613 81.6536 116.997 81.3281 117.336ZM92.3633 110.861C92.2396 110.861 92.0964 110.884 91.9336 110.93C91.7708 110.969 91.6016 111.018 91.4258 111.076C91.25 111.128 91.0742 111.177 90.8984 111.223C90.7292 111.262 90.5762 111.281 90.4395 111.281C90.2962 111.281 90.1823 111.258 90.0977 111.213C90.0195 111.161 89.9609 111.096 89.9219 111.018C89.8828 110.939 89.86 110.855 89.8535 110.764C89.847 110.673 89.8438 110.585 89.8438 110.5C89.8438 110.253 89.9154 110.051 90.0586 109.895C90.2083 109.738 90.4199 109.608 90.6934 109.504C90.9668 109.393 91.2956 109.302 91.6797 109.23C92.0703 109.152 92.5098 109.068 92.998 108.977C93.7663 108.833 94.4661 108.723 95.0977 108.645C95.7357 108.566 96.3411 108.511 96.9141 108.479C97.4935 108.439 98.0599 108.417 98.6133 108.41C99.1667 108.404 99.7493 108.4 100.361 108.4C100.544 108.4 100.687 108.423 100.791 108.469C100.895 108.514 100.97 108.573 101.016 108.645C101.068 108.716 101.097 108.798 101.104 108.889C101.117 108.98 101.123 109.071 101.123 109.162C101.123 109.266 101.107 109.38 101.074 109.504C101.048 109.621 100.999 109.732 100.928 109.836C100.863 109.934 100.771 110.015 100.654 110.08C100.544 110.145 100.407 110.178 100.244 110.178H99.4629C99.1504 110.178 98.8184 110.181 98.4668 110.188C98.1152 110.188 97.7669 110.194 97.4219 110.207C97.0768 110.214 96.7448 110.227 96.4258 110.246C96.1133 110.266 95.8333 110.295 95.5859 110.334C95.3451 110.367 95.153 110.409 95.0098 110.461C94.8665 110.513 94.7949 110.578 94.7949 110.656C94.7949 110.734 94.8242 110.865 94.8828 111.047C94.9414 111.229 95.013 111.428 95.0977 111.643C95.1823 111.851 95.2669 112.059 95.3516 112.268C95.4427 112.469 95.5176 112.639 95.5762 112.775C95.6283 112.886 95.6868 112.961 95.752 113C95.8171 113.039 95.9049 113.059 96.0156 113.059C96.2826 113.059 96.556 113.042 96.8359 113.01C97.1159 112.977 97.3958 112.941 97.6758 112.902C97.9622 112.857 98.2454 112.818 98.5254 112.785C98.8118 112.753 99.0951 112.736 99.375 112.736C99.5312 112.736 99.6582 112.766 99.7559 112.824C99.86 112.876 99.9414 112.945 100 113.029C100.059 113.107 100.098 113.192 100.117 113.283C100.143 113.374 100.156 113.452 100.156 113.518C100.156 113.811 100.065 114.032 99.8828 114.182C99.7005 114.325 99.4531 114.432 99.1406 114.504C98.8281 114.576 98.4635 114.624 98.0469 114.65C97.6367 114.676 97.2005 114.712 96.7383 114.758L96.5039 114.777C96.4193 114.79 96.3542 114.82 96.3086 114.865C96.263 114.911 96.2402 114.969 96.2402 115.041C96.2402 115.061 96.2435 115.077 96.25 115.09C96.2565 115.103 96.2598 115.119 96.2598 115.139C96.3184 115.354 96.3867 115.594 96.4648 115.861C96.543 116.122 96.6146 116.382 96.6797 116.643C96.7513 116.903 96.8099 117.15 96.8555 117.385C96.901 117.619 96.9238 117.811 96.9238 117.961C96.9238 118.26 96.8099 118.488 96.582 118.645C96.3607 118.801 96.0449 118.879 95.6348 118.879C95.485 118.879 95.3385 118.843 95.1953 118.771C95.0586 118.706 94.974 118.583 94.9414 118.4C94.8372 117.867 94.7201 117.346 94.5898 116.838C94.4596 116.324 94.3229 115.812 94.1797 115.305C94.1211 115.129 94.0072 115.041 93.8379 115.041C93.6426 115.041 93.4212 115.035 93.1738 115.021C92.9329 115.008 92.6855 114.982 92.4316 114.943C92.1777 114.904 91.9303 114.855 91.6895 114.797C91.4551 114.732 91.2435 114.647 91.0547 114.543C90.8724 114.439 90.7227 114.315 90.6055 114.172C90.4948 114.029 90.4395 113.859 90.4395 113.664C90.4395 113.54 90.4688 113.42 90.5273 113.303C90.5859 113.179 90.6608 113.072 90.752 112.98C90.8431 112.883 90.9408 112.805 91.0449 112.746C91.1556 112.688 91.2598 112.658 91.3574 112.658C91.4746 112.658 91.6016 112.688 91.7383 112.746C91.875 112.805 92.0215 112.87 92.1777 112.941C92.334 113.013 92.5 113.078 92.6758 113.137C92.8581 113.195 93.0534 113.225 93.2617 113.225C93.3659 113.225 93.418 113.169 93.418 113.059C93.418 112.954 93.3984 112.818 93.3594 112.648C93.3268 112.479 93.2812 112.303 93.2227 112.121C93.1641 111.932 93.0957 111.75 93.0176 111.574C92.946 111.392 92.8678 111.239 92.7832 111.115C92.7311 111.037 92.6758 110.975 92.6172 110.93C92.5651 110.884 92.4805 110.861 92.3633 110.861Z" fill="black"/>
<path d="M3.34375 41.8613C3.22005 41.8613 3.07682 41.8841 2.91406 41.9297C2.7513 41.9688 2.58203 42.0176 2.40625 42.0762C2.23047 42.1283 2.05469 42.1771 1.87891 42.2227C1.70964 42.2617 1.55664 42.2812 1.41992 42.2812C1.27669 42.2812 1.16276 42.2585 1.07812 42.2129C1 42.1608 0.941406 42.0957 0.902344 42.0176C0.863281 41.9395 0.840495 41.8548 0.833984 41.7637C0.827474 41.6725 0.824219 41.5846 0.824219 41.5C0.824219 41.2526 0.895833 41.0508 1.03906 40.8945C1.1888 40.7383 1.40039 40.6081 1.67383 40.5039C1.94727 40.3932 2.27604 40.3021 2.66016 40.2305C3.05078 40.1523 3.49023 40.0677 3.97852 39.9766C4.74674 39.8333 5.44661 39.7227 6.07812 39.6445C6.71615 39.5664 7.32161 39.5111 7.89453 39.4785C8.47396 39.4395 9.04036 39.4167 9.59375 39.4102C10.1471 39.4036 10.7298 39.4004 11.3418 39.4004C11.5241 39.4004 11.6673 39.4232 11.7715 39.4688C11.8757 39.5143 11.9505 39.5729 11.9961 39.6445C12.0482 39.7161 12.0775 39.7975 12.084 39.8887C12.097 39.9798 12.1035 40.071 12.1035 40.1621C12.1035 40.2663 12.0872 40.3802 12.0547 40.5039C12.0286 40.6211 11.9798 40.7318 11.9082 40.8359C11.8431 40.9336 11.752 41.015 11.6348 41.0801C11.5241 41.1452 11.3874 41.1777 11.2246 41.1777H10.4434C10.1309 41.1777 9.79883 41.181 9.44727 41.1875C9.0957 41.1875 8.7474 41.194 8.40234 41.207C8.05729 41.2135 7.72526 41.2266 7.40625 41.2461C7.09375 41.2656 6.8138 41.2949 6.56641 41.334C6.32552 41.3665 6.13346 41.4089 5.99023 41.4609C5.84701 41.513 5.77539 41.5781 5.77539 41.6562C5.77539 41.7344 5.80469 41.8646 5.86328 42.0469C5.92188 42.2292 5.99349 42.4277 6.07812 42.6426C6.16276 42.8509 6.2474 43.0592 6.33203 43.2676C6.42318 43.4694 6.49805 43.6387 6.55664 43.7754C6.60872 43.8861 6.66732 43.9609 6.73242 44C6.79753 44.0391 6.88542 44.0586 6.99609 44.0586C7.26302 44.0586 7.53646 44.0423 7.81641 44.0098C8.09635 43.9772 8.3763 43.9414 8.65625 43.9023C8.94271 43.8568 9.22591 43.8177 9.50586 43.7852C9.79232 43.7526 10.0755 43.7363 10.3555 43.7363C10.5117 43.7363 10.6387 43.7656 10.7363 43.8242C10.8405 43.8763 10.9219 43.9447 10.9805 44.0293C11.0391 44.1074 11.0781 44.1921 11.0977 44.2832C11.1237 44.3743 11.1367 44.4525 11.1367 44.5176C11.1367 44.8105 11.0456 45.0319 10.8633 45.1816C10.681 45.3249 10.4336 45.4323 10.1211 45.5039C9.80859 45.5755 9.44401 45.6243 9.02734 45.6504C8.61719 45.6764 8.18099 45.7122 7.71875 45.7578L7.48438 45.7773C7.39974 45.7904 7.33464 45.8197 7.28906 45.8652C7.24349 45.9108 7.2207 45.9694 7.2207 46.041C7.2207 46.0605 7.22396 46.0768 7.23047 46.0898C7.23698 46.1029 7.24023 46.1191 7.24023 46.1387C7.29883 46.3535 7.36719 46.5944 7.44531 46.8613C7.52344 47.1217 7.59505 47.3822 7.66016 47.6426C7.73177 47.903 7.79036 48.1504 7.83594 48.3848C7.88151 48.6191 7.9043 48.8112 7.9043 48.9609C7.9043 49.2604 7.79036 49.4883 7.5625 49.6445C7.34115 49.8008 7.02539 49.8789 6.61523 49.8789C6.46549 49.8789 6.31901 49.8431 6.17578 49.7715C6.03906 49.7064 5.95443 49.5827 5.92188 49.4004C5.81771 48.8665 5.70052 48.3457 5.57031 47.8379C5.4401 47.3236 5.30339 46.8125 5.16016 46.3047C5.10156 46.1289 4.98763 46.041 4.81836 46.041C4.62305 46.041 4.40169 46.0345 4.1543 46.0215C3.91341 46.0085 3.66602 45.9824 3.41211 45.9434C3.1582 45.9043 2.91081 45.8555 2.66992 45.7969C2.43555 45.7318 2.22396 45.6471 2.03516 45.543C1.85286 45.4388 1.70312 45.3151 1.58594 45.1719C1.47526 45.0286 1.41992 44.8594 1.41992 44.6641C1.41992 44.5404 1.44922 44.4199 1.50781 44.3027C1.56641 44.179 1.64128 44.0716 1.73242 43.9805C1.82357 43.8828 1.92122 43.8047 2.02539 43.7461C2.13607 43.6875 2.24023 43.6582 2.33789 43.6582C2.45508 43.6582 2.58203 43.6875 2.71875 43.7461C2.85547 43.8047 3.00195 43.8698 3.1582 43.9414C3.31445 44.013 3.48047 44.0781 3.65625 44.1367C3.83854 44.1953 4.03385 44.2246 4.24219 44.2246C4.34635 44.2246 4.39844 44.1693 4.39844 44.0586C4.39844 43.9544 4.37891 43.8177 4.33984 43.6484C4.30729 43.4792 4.26172 43.3034 4.20312 43.1211C4.14453 42.9323 4.07617 42.75 3.99805 42.5742C3.92643 42.3919 3.84831 42.2389 3.76367 42.1152C3.71159 42.0371 3.65625 41.9753 3.59766 41.9297C3.54557 41.8841 3.46094 41.8613 3.34375 41.8613ZM17.2402 43.9805C16.9212 43.9805 16.7617 43.8405 16.7617 43.5605C16.7617 43.541 16.7617 43.5182 16.7617 43.4922C16.7617 43.4661 16.7682 43.4368 16.7812 43.4043L16.957 42.623C17.0352 42.3301 17.2305 42.1836 17.543 42.1836C18.6367 42.1706 19.724 42.1348 20.8047 42.0762C21.8854 42.0111 22.9694 41.9395 24.0566 41.8613H24.1641C24.4245 41.8809 24.5645 42.0273 24.584 42.3008L24.5352 43.1211C24.5156 43.4466 24.3431 43.6191 24.0176 43.6387C22.8848 43.7233 21.7552 43.7982 20.6289 43.8633C19.5026 43.9284 18.373 43.9674 17.2402 43.9805ZM16.9961 47.0762C16.6771 47.0762 16.5176 46.9362 16.5176 46.6562C16.5176 46.6367 16.5176 46.6139 16.5176 46.5879C16.5176 46.5618 16.5241 46.5326 16.5371 46.5L16.7227 45.7188C16.8008 45.4258 16.9928 45.2793 17.2988 45.2793C17.8457 45.2728 18.3763 45.263 18.8906 45.25C19.4115 45.2305 19.929 45.2077 20.4434 45.1816C20.9577 45.1556 21.472 45.1263 21.9863 45.0938C22.5072 45.0547 23.0378 45.0156 23.5781 44.9766H23.6758C23.819 44.9896 23.9199 45.0319 23.9785 45.1035C24.0436 45.1751 24.0827 45.2793 24.0957 45.416L24.0566 46.2363C24.0371 46.5684 23.8646 46.7441 23.5391 46.7637C22.9727 46.8027 22.3997 46.8418 21.8203 46.8809C21.2474 46.9134 20.681 46.946 20.1211 46.9785C19.5612 47.0046 19.0176 47.0273 18.4902 47.0469C17.9629 47.0599 17.4648 47.0697 16.9961 47.0762ZM35.9902 49.6152C36.1921 49.4329 36.3841 49.3418 36.5664 49.3418C36.6576 49.3418 36.7487 49.3613 36.8398 49.4004C36.931 49.446 37.0286 49.5176 37.1328 49.6152C37.3151 49.8105 37.4062 50.0059 37.4062 50.2012C37.4062 50.39 37.3216 50.569 37.1523 50.7383C36.7422 51.1289 36.3027 51.4121 35.834 51.5879C35.3652 51.7702 34.8704 51.8613 34.3496 51.8613C33.9264 51.8613 33.5618 51.7897 33.2559 51.6465C32.9564 51.5098 32.709 51.3242 32.5137 51.0898C32.3249 50.862 32.1849 50.5983 32.0938 50.2988C32.0091 49.9993 31.9668 49.6868 31.9668 49.3613C31.9668 49.0879 31.9961 48.8242 32.0547 48.5703C32.1198 48.3099 32.1914 48.0527 32.2695 47.7988C32.3477 47.5449 32.416 47.291 32.4746 47.0371C32.5397 46.7832 32.5723 46.5228 32.5723 46.2559C32.5723 46.0345 32.5332 45.8555 32.4551 45.7188C32.377 45.5755 32.276 45.4583 32.1523 45.3672C32.0352 45.276 31.9082 45.1979 31.7715 45.1328C31.6348 45.0677 31.5046 44.9993 31.3809 44.9277C31.2637 44.8561 31.166 44.7747 31.0879 44.6836C31.0098 44.5859 30.9707 44.459 30.9707 44.3027C30.9707 44.0618 31.0326 43.86 31.1562 43.6973C31.2799 43.528 31.4427 43.4076 31.6445 43.3359C32.0091 43.2188 32.2695 43.0755 32.4258 42.9062C32.5885 42.737 32.6699 42.5286 32.6699 42.2812C32.6699 42.0664 32.6309 41.832 32.5527 41.5781C32.4746 41.3177 32.3867 41.054 32.2891 40.7871C32.1914 40.5137 32.1035 40.2435 32.0254 39.9766C31.9473 39.7096 31.9082 39.459 31.9082 39.2246C31.9082 38.7559 32.0091 38.3392 32.2109 37.9746C32.4128 37.6035 32.6732 37.291 32.9922 37.0371C33.3177 36.7832 33.6823 36.5911 34.0859 36.4609C34.4961 36.3242 34.903 36.2559 35.3066 36.2559C35.4954 36.2559 35.707 36.2754 35.9414 36.3145C36.1758 36.3535 36.3939 36.4121 36.5957 36.4902C36.804 36.5684 36.9766 36.6693 37.1133 36.793C37.2565 36.9167 37.3281 37.0599 37.3281 37.2227C37.3281 37.3138 37.2956 37.4147 37.2305 37.5254C37.1719 37.6361 37.0579 37.7826 36.8887 37.9648C36.7064 38.1602 36.5664 38.2936 36.4688 38.3652C36.3776 38.4303 36.2897 38.4629 36.2051 38.4629C36.127 38.4629 36.0423 38.4434 35.9512 38.4043C35.86 38.3587 35.7591 38.3099 35.6484 38.2578C35.5443 38.1992 35.4303 38.1504 35.3066 38.1113C35.1829 38.0658 35.0495 38.043 34.9062 38.043C34.7174 38.043 34.5579 38.0755 34.4277 38.1406C34.304 38.2057 34.2031 38.2871 34.125 38.3848C34.0469 38.4824 33.9915 38.5898 33.959 38.707C33.9264 38.8177 33.9102 38.9219 33.9102 39.0195C33.9102 39.1888 33.946 39.4004 34.0176 39.6543C34.0957 39.9082 34.1803 40.1751 34.2715 40.4551C34.3626 40.7285 34.444 40.9987 34.5156 41.2656C34.5938 41.526 34.6328 41.7507 34.6328 41.9395C34.6328 42.291 34.5547 42.6068 34.3984 42.8867C34.2487 43.1667 34.0306 43.4173 33.7441 43.6387C33.6009 43.7624 33.5293 43.8698 33.5293 43.9609C33.5293 44.0716 33.6074 44.179 33.7637 44.2832C34.0697 44.4915 34.2747 44.7227 34.3789 44.9766C34.4896 45.224 34.5449 45.5169 34.5449 45.8555C34.5449 46.1224 34.5156 46.3828 34.457 46.6367C34.3984 46.8906 34.3301 47.1445 34.252 47.3984C34.1803 47.6458 34.1152 47.8965 34.0566 48.1504C33.998 48.4043 33.9688 48.6615 33.9688 48.9219C33.9688 49.1432 33.9915 49.3255 34.0371 49.4688C34.0892 49.6185 34.1576 49.7357 34.2422 49.8203C34.3268 49.9115 34.4277 49.9733 34.5449 50.0059C34.6686 50.0449 34.8021 50.0645 34.9453 50.0645C35.1536 50.0645 35.3424 50.0221 35.5117 49.9375C35.6875 49.8529 35.847 49.7454 35.9902 49.6152ZM42.3184 45.1621C42.3184 44.459 42.4453 43.8014 42.6992 43.1895C42.9596 42.571 43.3112 42.0371 43.7539 41.5879C44.2031 41.1322 44.7272 40.7741 45.3262 40.5137C45.9251 40.2533 46.5697 40.123 47.2598 40.123C47.9954 40.123 48.6855 40.2467 49.3301 40.4941C49.9746 40.735 50.5345 41.0671 51.0098 41.4902C51.4915 41.9069 51.8691 42.3984 52.1426 42.9648C52.4225 43.5312 52.5625 44.1367 52.5625 44.7812C52.5625 45.2044 52.4941 45.6146 52.3574 46.0117C52.2207 46.4089 52.0254 46.7799 51.7715 47.125C51.5241 47.4701 51.2246 47.7858 50.873 48.0723C50.528 48.3587 50.1439 48.6061 49.7207 48.8145C49.2975 49.0163 48.8418 49.1725 48.3535 49.2832C47.8717 49.4004 47.3737 49.459 46.8594 49.459C46.1758 49.459 45.554 49.3548 44.9941 49.1465C44.4342 48.9447 43.9557 48.6582 43.5586 48.2871C43.168 47.9095 42.862 47.457 42.6406 46.9297C42.4258 46.4023 42.3184 45.8132 42.3184 45.1621ZM50.5996 45.1621C50.5996 44.7259 50.502 44.3125 50.3066 43.9219C50.1113 43.5312 49.8444 43.1895 49.5059 42.8965C49.1673 42.6035 48.7702 42.3724 48.3145 42.2031C47.8587 42.0273 47.3737 41.9395 46.8594 41.9395C46.5013 41.9395 46.166 42.0111 45.8535 42.1543C45.541 42.291 45.2708 42.4798 45.043 42.7207C44.8151 42.9551 44.6328 43.235 44.4961 43.5605C44.3659 43.8796 44.3008 44.2246 44.3008 44.5957C44.3008 45.5723 44.5482 46.3275 45.043 46.8613C45.5378 47.3952 46.2311 47.6621 47.123 47.6621C47.5983 47.6621 48.0475 47.597 48.4707 47.4668C48.8939 47.3366 49.2617 47.1576 49.5742 46.9297C49.8932 46.7018 50.1439 46.4382 50.3262 46.1387C50.5085 45.8327 50.5996 45.5072 50.5996 45.1621ZM58.8906 38.502C58.793 38.5931 58.6986 38.6615 58.6074 38.707C58.5163 38.7526 58.4186 38.7754 58.3145 38.7754C58.1257 38.7754 57.9401 38.6842 57.7578 38.502C57.569 38.3132 57.4746 38.1178 57.4746 37.916C57.4746 37.7337 57.5625 37.5547 57.7383 37.3789C58.1484 36.9883 58.5846 36.7051 59.0469 36.5293C59.5156 36.347 60.0104 36.2559 60.5312 36.2559C60.9544 36.2559 61.3158 36.3275 61.6152 36.4707C61.9212 36.6074 62.1686 36.793 62.3574 37.0273C62.5527 37.2552 62.6927 37.5189 62.7773 37.8184C62.8685 38.1178 62.9141 38.4303 62.9141 38.7559C62.9141 39.0293 62.8815 39.2962 62.8164 39.5566C62.7578 39.8105 62.6895 40.0645 62.6113 40.3184C62.5397 40.5723 62.4714 40.8262 62.4062 41.0801C62.3477 41.334 62.3184 41.5944 62.3184 41.8613C62.3184 42.0827 62.3574 42.265 62.4355 42.4082C62.5137 42.5449 62.6113 42.6589 62.7285 42.75C62.8457 42.8411 62.9727 42.9225 63.1094 42.9941C63.2526 43.0592 63.3828 43.1276 63.5 43.1992C63.6172 43.2708 63.7148 43.3555 63.793 43.4531C63.8711 43.5443 63.9102 43.668 63.9102 43.8242C63.9102 44.0651 63.8483 44.2669 63.7246 44.4297C63.6009 44.5924 63.4382 44.7096 63.2363 44.7812C62.8717 44.8984 62.6081 45.0417 62.4453 45.2109C62.2891 45.3802 62.2109 45.5885 62.2109 45.8359C62.2109 46.0508 62.25 46.2884 62.3281 46.5488C62.4062 46.8027 62.4941 47.0664 62.5918 47.3398C62.6895 47.6133 62.7773 47.8835 62.8555 48.1504C62.9336 48.4173 62.9727 48.668 62.9727 48.9023C62.9727 49.3646 62.8717 49.778 62.6699 50.1426C62.4681 50.5137 62.2044 50.8262 61.8789 51.0801C61.5599 51.334 61.1953 51.526 60.7852 51.6562C60.3815 51.793 59.9779 51.8613 59.5742 51.8613C59.3854 51.8613 59.1738 51.8418 58.9395 51.8027C58.7051 51.7637 58.4837 51.7051 58.2754 51.627C58.0736 51.5488 57.9043 51.4479 57.7676 51.3242C57.6243 51.207 57.5527 51.0671 57.5527 50.9043C57.5527 50.8132 57.5853 50.7122 57.6504 50.6016C57.709 50.4909 57.8229 50.3444 57.9922 50.1621C58.1745 49.9603 58.3145 49.8268 58.4121 49.7617C58.5098 49.6966 58.5977 49.6641 58.6758 49.6641C58.7539 49.6641 58.8385 49.6836 58.9297 49.7227C59.0273 49.7682 59.1283 49.8171 59.2324 49.8691C59.3431 49.9277 59.4603 49.9766 59.584 50.0156C59.7077 50.0612 59.8379 50.084 59.9746 50.084C60.1634 50.084 60.3197 50.0482 60.4434 49.9766C60.5736 49.9115 60.6777 49.8301 60.7559 49.7324C60.834 49.6348 60.8893 49.5273 60.9219 49.4102C60.9544 49.2995 60.9707 49.1953 60.9707 49.0977C60.9707 48.9284 60.9316 48.7168 60.8535 48.4629C60.7819 48.209 60.7005 47.9453 60.6094 47.6719C60.5247 47.3984 60.4434 47.1283 60.3652 46.8613C60.2936 46.5944 60.2578 46.3665 60.2578 46.1777C60.2578 45.8262 60.3327 45.5104 60.4824 45.2305C60.6322 44.9505 60.8503 44.6999 61.1367 44.4785C61.2799 44.3548 61.3516 44.2474 61.3516 44.1562C61.3516 44.0456 61.2734 43.9414 61.1172 43.8438C60.8112 43.6354 60.6029 43.4043 60.4922 43.1504C60.388 42.8965 60.3359 42.6003 60.3359 42.2617C60.3359 41.9948 60.3652 41.7344 60.4238 41.4805C60.4824 41.2266 60.5475 40.9759 60.6191 40.7285C60.6973 40.4746 60.7656 40.2207 60.8242 39.9668C60.8828 39.7129 60.9121 39.4557 60.9121 39.1953C60.9121 38.974 60.8861 38.7917 60.834 38.6484C60.7884 38.5052 60.7233 38.3913 60.6387 38.3066C60.554 38.2155 60.4499 38.1536 60.3262 38.1211C60.209 38.082 60.0788 38.0625 59.9355 38.0625C59.7272 38.0625 59.5352 38.1048 59.3594 38.1895C59.1901 38.2676 59.0339 38.3717 58.8906 38.502Z" fill="black"/>
<path d="M4.26172 83.123C4.26172 82.9082 4.25195 82.6283 4.23242 82.2832C4.2194 81.9382 4.19987 81.5573 4.17383 81.1406C4.14779 80.724 4.11849 80.2812 4.08594 79.8125C4.05339 79.3438 4.01758 78.8783 3.97852 78.416C3.93945 77.9538 3.90039 77.5078 3.86133 77.0781C3.82878 76.6419 3.79622 76.248 3.76367 75.8965C3.71159 75.3952 3.63997 75.0273 3.54883 74.793C3.45768 74.5586 3.30794 74.4414 3.09961 74.4414C2.9043 74.4414 2.77409 74.4967 2.70898 74.6074C2.65039 74.7181 2.61458 74.8548 2.60156 75.0176C2.59505 75.1803 2.5918 75.3594 2.5918 75.5547C2.59831 75.7435 2.56901 75.9193 2.50391 76.082C2.44531 76.2448 2.33138 76.3815 2.16211 76.4922C1.99284 76.6029 1.73242 76.6582 1.38086 76.6582C1.13346 76.6582 0.921875 76.5573 0.746094 76.3555C0.570312 76.1471 0.482422 75.8477 0.482422 75.457C0.482422 74.9102 0.645182 74.4154 0.970703 73.9727C1.28971 73.5234 1.74219 73.1426 2.32812 72.8301C2.91406 72.5111 3.62044 72.2637 4.44727 72.0879C5.27409 71.9121 6.19206 71.8242 7.20117 71.8242C7.92383 71.8242 8.59115 71.9056 9.20312 72.0684C9.8151 72.2246 10.3424 72.446 10.7852 72.7324C11.2344 73.0124 11.5859 73.3477 11.8398 73.7383C12.0938 74.1224 12.2207 74.5423 12.2207 74.998C12.2207 75.5124 12.071 76.0039 11.7715 76.4727C11.472 76.9414 11.0586 77.3711 10.5312 77.7617C10.0104 78.1523 9.39518 78.4941 8.68555 78.7871C7.97591 79.0736 7.21419 79.2982 6.40039 79.4609C6.17253 79.5 6.05859 79.64 6.05859 79.8809C6.05859 80.0436 6.06836 80.2487 6.08789 80.4961C6.11393 80.737 6.13672 80.9909 6.15625 81.2578C6.18229 81.5247 6.20508 81.7884 6.22461 82.0488C6.25065 82.3092 6.26367 82.5404 6.26367 82.7422C6.26367 83.1068 6.17904 83.3672 6.00977 83.5234C5.84049 83.6797 5.58984 83.7578 5.25781 83.7578C4.94531 83.7578 4.70117 83.7025 4.52539 83.5918C4.34961 83.4876 4.26172 83.3314 4.26172 83.123ZM10.1992 75.2812C10.1992 75.0599 10.1048 74.8483 9.91602 74.6465C9.72721 74.4447 9.47331 74.2656 9.1543 74.1094C8.83529 73.9531 8.46419 73.8294 8.04102 73.7383C7.62435 73.6471 7.1849 73.6016 6.72266 73.6016C6.49479 73.6016 6.30273 73.6113 6.14648 73.6309C5.99674 73.6439 5.8763 73.6699 5.78516 73.709C5.69401 73.748 5.62891 73.8001 5.58984 73.8652C5.55729 73.9238 5.54102 74.002 5.54102 74.0996C5.54102 74.1647 5.55078 74.3177 5.57031 74.5586C5.58984 74.793 5.61589 75.0664 5.64844 75.3789C5.68099 75.6914 5.71354 76.0202 5.74609 76.3652C5.78516 76.7038 5.82422 77.0098 5.86328 77.2832C5.88281 77.485 5.90885 77.6185 5.94141 77.6836C5.98047 77.7487 6.03906 77.7812 6.11719 77.7812C6.33854 77.7812 6.59245 77.7454 6.87891 77.6738C7.16536 77.5957 7.45833 77.4948 7.75781 77.3711C8.0638 77.2409 8.36003 77.0944 8.64648 76.9316C8.93945 76.7624 9.19987 76.5866 9.42773 76.4043C9.66211 76.2155 9.84766 76.0267 9.98438 75.8379C10.1276 75.6426 10.1992 75.457 10.1992 75.2812ZM18.0215 76.9805C17.7025 76.9805 17.543 76.8405 17.543 76.5605C17.543 76.541 17.543 76.5182 17.543 76.4922C17.543 76.4661 17.5495 76.4368 17.5625 76.4043L17.7383 75.623C17.8164 75.3301 18.0117 75.1836 18.3242 75.1836C19.418 75.1706 20.5052 75.1348 21.5859 75.0762C22.6667 75.0111 23.7507 74.9395 24.8379 74.8613H24.9453C25.2057 74.8809 25.3457 75.0273 25.3652 75.3008L25.3164 76.1211C25.2969 76.4466 25.1243 76.6191 24.7988 76.6387C23.666 76.7233 22.5365 76.7982 21.4102 76.8633C20.2839 76.9284 19.1543 76.9674 18.0215 76.9805ZM17.7773 80.0762C17.4583 80.0762 17.2988 79.9362 17.2988 79.6562C17.2988 79.6367 17.2988 79.6139 17.2988 79.5879C17.2988 79.5618 17.3053 79.5326 17.3184 79.5L17.5039 78.7188C17.582 78.4258 17.7741 78.2793 18.0801 78.2793C18.627 78.2728 19.1576 78.263 19.6719 78.25C20.1927 78.2305 20.7103 78.2077 21.2246 78.1816C21.7389 78.1556 22.2533 78.1263 22.7676 78.0938C23.2884 78.0547 23.819 78.0156 24.3594 77.9766H24.457C24.6003 77.9896 24.7012 78.0319 24.7598 78.1035C24.8249 78.1751 24.8639 78.2793 24.877 78.416L24.8379 79.2363C24.8184 79.5684 24.6458 79.7441 24.3203 79.7637C23.7539 79.8027 23.181 79.8418 22.6016 79.8809C22.0286 79.9134 21.4622 79.946 20.9023 79.9785C20.3424 80.0046 19.7988 80.0273 19.2715 80.0469C18.7441 80.0599 18.2461 80.0697 17.7773 80.0762ZM36.7715 82.6152C36.9733 82.4329 37.1654 82.3418 37.3477 82.3418C37.4388 82.3418 37.5299 82.3613 37.6211 82.4004C37.7122 82.446 37.8099 82.5176 37.9141 82.6152C38.0964 82.8105 38.1875 83.0059 38.1875 83.2012C38.1875 83.39 38.1029 83.569 37.9336 83.7383C37.5234 84.1289 37.084 84.4121 36.6152 84.5879C36.1465 84.7702 35.6517 84.8613 35.1309 84.8613C34.7077 84.8613 34.3431 84.7897 34.0371 84.6465C33.7376 84.5098 33.4902 84.3242 33.2949 84.0898C33.1061 83.862 32.9661 83.5983 32.875 83.2988C32.7904 82.9993 32.748 82.6868 32.748 82.3613C32.748 82.0879 32.7773 81.8242 32.8359 81.5703C32.901 81.3099 32.9727 81.0527 33.0508 80.7988C33.1289 80.5449 33.1973 80.291 33.2559 80.0371C33.321 79.7832 33.3535 79.5228 33.3535 79.2559C33.3535 79.0345 33.3145 78.8555 33.2363 78.7188C33.1582 78.5755 33.0573 78.4583 32.9336 78.3672C32.8164 78.276 32.6895 78.1979 32.5527 78.1328C32.416 78.0677 32.2858 77.9993 32.1621 77.9277C32.0449 77.8561 31.9473 77.7747 31.8691 77.6836C31.791 77.5859 31.752 77.459 31.752 77.3027C31.752 77.0618 31.8138 76.86 31.9375 76.6973C32.0612 76.528 32.224 76.4076 32.4258 76.3359C32.7904 76.2188 33.0508 76.0755 33.207 75.9062C33.3698 75.737 33.4512 75.5286 33.4512 75.2812C33.4512 75.0664 33.4121 74.832 33.334 74.5781C33.2559 74.3177 33.168 74.054 33.0703 73.7871C32.9727 73.5137 32.8848 73.2435 32.8066 72.9766C32.7285 72.7096 32.6895 72.459 32.6895 72.2246C32.6895 71.7559 32.7904 71.3392 32.9922 70.9746C33.194 70.6035 33.4544 70.291 33.7734 70.0371C34.099 69.7832 34.4635 69.5911 34.8672 69.4609C35.2773 69.3242 35.6842 69.2559 36.0879 69.2559C36.2767 69.2559 36.4883 69.2754 36.7227 69.3145C36.957 69.3535 37.1751 69.4121 37.377 69.4902C37.5853 69.5684 37.7578 69.6693 37.8945 69.793C38.0378 69.9167 38.1094 70.0599 38.1094 70.2227C38.1094 70.3138 38.0768 70.4147 38.0117 70.5254C37.9531 70.6361 37.8392 70.7826 37.6699 70.9648C37.4876 71.1602 37.3477 71.2936 37.25 71.3652C37.1589 71.4303 37.071 71.4629 36.9863 71.4629C36.9082 71.4629 36.8236 71.4434 36.7324 71.4043C36.6413 71.3587 36.5404 71.3099 36.4297 71.2578C36.3255 71.1992 36.2116 71.1504 36.0879 71.1113C35.9642 71.0658 35.8307 71.043 35.6875 71.043C35.4987 71.043 35.3392 71.0755 35.209 71.1406C35.0853 71.2057 34.9844 71.2871 34.9062 71.3848C34.8281 71.4824 34.7728 71.5898 34.7402 71.707C34.7077 71.8177 34.6914 71.9219 34.6914 72.0195C34.6914 72.1888 34.7272 72.4004 34.7988 72.6543C34.877 72.9082 34.9616 73.1751 35.0527 73.4551C35.1439 73.7285 35.2253 73.9987 35.2969 74.2656C35.375 74.526 35.4141 74.7507 35.4141 74.9395C35.4141 75.291 35.3359 75.6068 35.1797 75.8867C35.0299 76.1667 34.8118 76.4173 34.5254 76.6387C34.3822 76.7624 34.3105 76.8698 34.3105 76.9609C34.3105 77.0716 34.3887 77.179 34.5449 77.2832C34.8509 77.4915 35.056 77.7227 35.1602 77.9766C35.2708 78.224 35.3262 78.5169 35.3262 78.8555C35.3262 79.1224 35.2969 79.3828 35.2383 79.6367C35.1797 79.8906 35.1113 80.1445 35.0332 80.3984C34.9616 80.6458 34.8965 80.8965 34.8379 81.1504C34.7793 81.4043 34.75 81.6615 34.75 81.9219C34.75 82.1432 34.7728 82.3255 34.8184 82.4688C34.8704 82.6185 34.9388 82.7357 35.0234 82.8203C35.1081 82.9115 35.209 82.9733 35.3262 83.0059C35.4499 83.0449 35.5833 83.0645 35.7266 83.0645C35.9349 83.0645 36.1237 83.0221 36.293 82.9375C36.4688 82.8529 36.6283 82.7454 36.7715 82.6152ZM43.8418 76.6191C43.6595 76.7949 43.4674 76.8828 43.2656 76.8828C43.1745 76.8828 43.0801 76.8633 42.9824 76.8242C42.8848 76.7786 42.7708 76.7038 42.6406 76.5996C42.3997 76.4173 42.2793 76.2253 42.2793 76.0234C42.2793 75.8932 42.3542 75.7402 42.5039 75.5645C42.6471 75.3887 42.8359 75.2064 43.0703 75.0176C43.3047 74.8223 43.5684 74.6237 43.8613 74.4219C44.1608 74.2201 44.4635 74.028 44.7695 73.8457C45.0755 73.6634 45.3717 73.4974 45.6582 73.3477C45.9447 73.1979 46.1921 73.0742 46.4004 72.9766C46.5241 72.9245 46.638 72.8854 46.7422 72.8594C46.8464 72.8333 46.9538 72.8203 47.0645 72.8203C47.2858 72.8203 47.4746 72.8594 47.6309 72.9375C47.7936 73.0091 47.9303 73.11 48.041 73.2402C48.1517 73.3704 48.2428 73.5202 48.3145 73.6895C48.3926 73.8522 48.4544 74.0247 48.5 74.207C48.5521 74.3828 48.5944 74.5651 48.627 74.7539C48.6595 74.9362 48.6921 75.1055 48.7246 75.2617C48.7767 75.5286 48.8288 75.8379 48.8809 76.1895C48.9395 76.5345 48.9915 76.8958 49.0371 77.2734C49.0827 77.6445 49.125 78.0156 49.1641 78.3867C49.2096 78.7513 49.2487 79.0931 49.2812 79.4121C49.3138 79.7246 49.3366 79.998 49.3496 80.2324C49.3691 80.4603 49.3789 80.623 49.3789 80.7207C49.3789 81.1764 49.1543 81.4434 48.7051 81.5215C48.4577 81.5736 48.2949 81.6029 48.2168 81.6094C48.1387 81.6159 48.0866 81.6191 48.0605 81.6191C47.8587 81.6191 47.696 81.5605 47.5723 81.4434C47.4551 81.3262 47.3867 81.1504 47.3672 80.916C47.2956 80.0436 47.2142 79.1777 47.123 78.3184C47.0319 77.4525 46.8919 76.5931 46.7031 75.7402C46.6641 75.5514 46.5957 75.4082 46.498 75.3105C46.4004 75.2129 46.2832 75.1641 46.1465 75.1641C46.0163 75.1641 45.8535 75.2161 45.6582 75.3203C45.4629 75.4245 45.2578 75.5514 45.043 75.7012C44.8281 75.8509 44.6133 76.0104 44.3984 76.1797C44.1901 76.3424 44.0046 76.4889 43.8418 76.6191ZM56.3906 71.502C56.293 71.5931 56.1986 71.6615 56.1074 71.707C56.0163 71.7526 55.9186 71.7754 55.8145 71.7754C55.6257 71.7754 55.4401 71.6842 55.2578 71.502C55.069 71.3132 54.9746 71.1178 54.9746 70.916C54.9746 70.7337 55.0625 70.5547 55.2383 70.3789C55.6484 69.9883 56.0846 69.7051 56.5469 69.5293C57.0156 69.347 57.5104 69.2559 58.0312 69.2559C58.4544 69.2559 58.8158 69.3275 59.1152 69.4707C59.4212 69.6074 59.6686 69.793 59.8574 70.0273C60.0527 70.2552 60.1927 70.5189 60.2773 70.8184C60.3685 71.1178 60.4141 71.4303 60.4141 71.7559C60.4141 72.0293 60.3815 72.2962 60.3164 72.5566C60.2578 72.8105 60.1895 73.0645 60.1113 73.3184C60.0397 73.5723 59.9714 73.8262 59.9062 74.0801C59.8477 74.334 59.8184 74.5944 59.8184 74.8613C59.8184 75.0827 59.8574 75.265 59.9355 75.4082C60.0137 75.5449 60.1113 75.6589 60.2285 75.75C60.3457 75.8411 60.4727 75.9225 60.6094 75.9941C60.7526 76.0592 60.8828 76.1276 61 76.1992C61.1172 76.2708 61.2148 76.3555 61.293 76.4531C61.3711 76.5443 61.4102 76.668 61.4102 76.8242C61.4102 77.0651 61.3483 77.2669 61.2246 77.4297C61.1009 77.5924 60.9382 77.7096 60.7363 77.7812C60.3717 77.8984 60.1081 78.0417 59.9453 78.2109C59.7891 78.3802 59.7109 78.5885 59.7109 78.8359C59.7109 79.0508 59.75 79.2884 59.8281 79.5488C59.9062 79.8027 59.9941 80.0664 60.0918 80.3398C60.1895 80.6133 60.2773 80.8835 60.3555 81.1504C60.4336 81.4173 60.4727 81.668 60.4727 81.9023C60.4727 82.3646 60.3717 82.778 60.1699 83.1426C59.9681 83.5137 59.7044 83.8262 59.3789 84.0801C59.0599 84.334 58.6953 84.526 58.2852 84.6562C57.8815 84.793 57.4779 84.8613 57.0742 84.8613C56.8854 84.8613 56.6738 84.8418 56.4395 84.8027C56.2051 84.7637 55.9837 84.7051 55.7754 84.627C55.5736 84.5488 55.4043 84.4479 55.2676 84.3242C55.1243 84.207 55.0527 84.0671 55.0527 83.9043C55.0527 83.8132 55.0853 83.7122 55.1504 83.6016C55.209 83.4909 55.3229 83.3444 55.4922 83.1621C55.6745 82.9603 55.8145 82.8268 55.9121 82.7617C56.0098 82.6966 56.0977 82.6641 56.1758 82.6641C56.2539 82.6641 56.3385 82.6836 56.4297 82.7227C56.5273 82.7682 56.6283 82.8171 56.7324 82.8691C56.8431 82.9277 56.9603 82.9766 57.084 83.0156C57.2077 83.0612 57.3379 83.084 57.4746 83.084C57.6634 83.084 57.8197 83.0482 57.9434 82.9766C58.0736 82.9115 58.1777 82.8301 58.2559 82.7324C58.334 82.6348 58.3893 82.5273 58.4219 82.4102C58.4544 82.2995 58.4707 82.1953 58.4707 82.0977C58.4707 81.9284 58.4316 81.7168 58.3535 81.4629C58.2819 81.209 58.2005 80.9453 58.1094 80.6719C58.0247 80.3984 57.9434 80.1283 57.8652 79.8613C57.7936 79.5944 57.7578 79.3665 57.7578 79.1777C57.7578 78.8262 57.8327 78.5104 57.9824 78.2305C58.1322 77.9505 58.3503 77.6999 58.6367 77.4785C58.7799 77.3548 58.8516 77.2474 58.8516 77.1562C58.8516 77.0456 58.7734 76.9414 58.6172 76.8438C58.3112 76.6354 58.1029 76.4043 57.9922 76.1504C57.888 75.8965 57.8359 75.6003 57.8359 75.2617C57.8359 74.9948 57.8652 74.7344 57.9238 74.4805C57.9824 74.2266 58.0475 73.9759 58.1191 73.7285C58.1973 73.4746 58.2656 73.2207 58.3242 72.9668C58.3828 72.7129 58.4121 72.4557 58.4121 72.1953C58.4121 71.974 58.3861 71.7917 58.334 71.6484C58.2884 71.5052 58.2233 71.3913 58.1387 71.3066C58.054 71.2155 57.9499 71.1536 57.8262 71.1211C57.709 71.082 57.5788 71.0625 57.4355 71.0625C57.2272 71.0625 57.0352 71.1048 56.8594 71.1895C56.6901 71.2676 56.5339 71.3717 56.3906 71.502Z" fill="black"/>
<line x1="1" y1="98" x2="145.031" y2="98" stroke="black" stroke-width="2"/>
</svg>
