<svg width="60" height="60" viewBox="0 0 287 270" fill="none" xmlns="http://www.w3.org/2000/svg">
<rect width="287" height="270" rx="135" fill="black"/>
<path d="M145.689 227.394C143.55 233.926 147.372 240.079 154.225 241.137C161.077 242.194 168.366 237.757 170.505 231.225L145.689 227.394ZM170.505 231.225L233.023 40.2702L208.207 36.4392L145.689 227.394L170.505 231.225Z" fill="white"/>
<path d="M137.548 232.995C139.937 239.484 147.362 243.692 154.131 242.395C160.901 241.097 164.452 234.785 162.063 228.297L137.548 232.995ZM66.7435 40.704L137.548 232.995L162.063 228.297L91.258 36.0058L66.7435 40.704Z" fill="white"/>
<path d="M99.4316 108.588H192.293" stroke="white" stroke-width="25"/>
</svg>
