<svg width="198" height="154" viewBox="0 0 198 154" fill="none" xmlns="http://www.w3.org/2000/svg">
<path d="M31.8926 24.6846C31.8926 24.3623 31.8779 23.9424 31.8486 23.4248C31.8291 22.9072 31.7998 22.3359 31.7607 21.7109C31.7217 21.0859 31.6777 20.4219 31.6289 19.7188C31.5801 19.0156 31.5264 18.3174 31.4678 17.624C31.4092 16.9307 31.3506 16.2617 31.292 15.6172C31.2432 14.9629 31.1943 14.3721 31.1455 13.8447C31.0674 13.0928 30.96 12.541 30.8232 12.1895C30.6865 11.8379 30.4619 11.6621 30.1494 11.6621C29.8564 11.6621 29.6611 11.7451 29.5635 11.9111C29.4756 12.0771 29.4219 12.2822 29.4023 12.5264C29.3926 12.7705 29.3877 13.0391 29.3877 13.332C29.3975 13.6152 29.3535 13.8789 29.2559 14.123C29.168 14.3672 28.9971 14.5723 28.7432 14.7383C28.4893 14.9043 28.0986 14.9873 27.5713 14.9873C27.2002 14.9873 26.8828 14.8359 26.6191 14.5332C26.3555 14.2207 26.2236 13.7715 26.2236 13.1855C26.2236 12.3652 26.4678 11.623 26.9561 10.959C27.4346 10.2852 28.1133 9.71387 28.9922 9.24512C29.8711 8.7666 30.9307 8.39551 32.1709 8.13184C33.4111 7.86816 34.7881 7.73633 36.3018 7.73633C37.3857 7.73633 38.3867 7.8584 39.3047 8.10254C40.2227 8.33691 41.0137 8.66895 41.6777 9.09863C42.3516 9.51855 42.8789 10.0215 43.2598 10.6074C43.6406 11.1836 43.8311 11.8135 43.8311 12.4971C43.8311 13.2686 43.6064 14.0059 43.1572 14.709C42.708 15.4121 42.0879 16.0566 41.2969 16.6426C40.5156 17.2285 39.5928 17.7412 38.5283 18.1807C37.4639 18.6104 36.3213 18.9473 35.1006 19.1914C34.7588 19.25 34.5879 19.46 34.5879 19.8213C34.5879 20.0654 34.6025 20.373 34.6318 20.7441C34.6709 21.1055 34.7051 21.4863 34.7344 21.8867C34.7734 22.2871 34.8076 22.6826 34.8369 23.0732C34.876 23.4639 34.8955 23.8105 34.8955 24.1133C34.8955 24.6602 34.7686 25.0508 34.5146 25.2852C34.2607 25.5195 33.8848 25.6367 33.3867 25.6367C32.918 25.6367 32.5518 25.5537 32.2881 25.3877C32.0244 25.2314 31.8926 24.9971 31.8926 24.6846ZM40.7988 12.9219C40.7988 12.5898 40.6572 12.2725 40.374 11.9697C40.0908 11.667 39.71 11.3984 39.2314 11.1641C38.7529 10.9297 38.1963 10.7441 37.5615 10.6074C36.9365 10.4707 36.2773 10.4023 35.584 10.4023C35.2422 10.4023 34.9541 10.417 34.7197 10.4463C34.4951 10.4658 34.3145 10.5049 34.1777 10.5635C34.041 10.6221 33.9434 10.7002 33.8848 10.7979C33.8359 10.8857 33.8115 11.0029 33.8115 11.1494C33.8115 11.2471 33.8262 11.4766 33.8555 11.8379C33.8848 12.1895 33.9238 12.5996 33.9727 13.0684C34.0215 13.5371 34.0703 14.0303 34.1191 14.5479C34.1777 15.0557 34.2363 15.5146 34.2949 15.9248C34.3242 16.2275 34.3633 16.4277 34.4121 16.5254C34.4707 16.623 34.5586 16.6719 34.6758 16.6719C35.0078 16.6719 35.3887 16.6182 35.8184 16.5107C36.248 16.3936 36.6875 16.2422 37.1367 16.0566C37.5957 15.8613 38.04 15.6416 38.4697 15.3975C38.9092 15.1436 39.2998 14.8799 39.6416 14.6064C39.9932 14.3232 40.2715 14.04 40.4766 13.7568C40.6914 13.4639 40.7988 13.1855 40.7988 12.9219ZM64.2686 17.873C63.9951 17.873 63.7705 17.7607 63.5947 17.5361C63.4189 17.3018 63.3311 16.9648 63.3311 16.5254C63.3311 16.1348 63.5068 15.8418 63.8584 15.6465C64.21 15.4512 64.8057 15.3145 65.6455 15.2363C65.9189 15.207 66.2754 15.168 66.7148 15.1191C67.1641 15.0605 67.6182 15.0068 68.0771 14.958C68.5459 14.8994 68.9854 14.8506 69.3955 14.8115C69.8154 14.7725 70.1426 14.7529 70.377 14.7529C70.7383 14.7529 71.0166 14.8604 71.2119 15.0752C71.417 15.29 71.5195 15.6709 71.5195 16.2178C71.5195 16.7842 70.958 17.126 69.835 17.2432C69.6885 17.2627 69.4688 17.292 69.1758 17.3311C68.8926 17.3604 68.5703 17.3994 68.209 17.4482C67.8477 17.4971 67.4668 17.5459 67.0664 17.5947C66.6758 17.6436 66.2998 17.6875 65.9385 17.7266C65.5771 17.7656 65.2451 17.7998 64.9424 17.8291C64.6494 17.8584 64.4248 17.873 64.2686 17.873ZM82.002 22.0039C81.8262 22.1895 81.6357 22.2822 81.4307 22.2822C81.2451 22.2822 81.0645 22.2139 80.8887 22.0771L80.083 21.4766C79.8682 21.2812 79.7607 21.0908 79.7607 20.9053C79.7607 20.7197 79.8486 20.5391 80.0244 20.3633C80.3271 20.0605 80.6543 19.7236 81.0059 19.3525C81.3574 18.9717 81.7041 18.5762 82.0459 18.166C82.3877 17.7559 82.71 17.3408 83.0127 16.9209C83.3154 16.501 83.5693 16.0859 83.7744 15.6758C83.8232 15.5977 83.8525 15.5244 83.8623 15.4561C83.8818 15.3877 83.8916 15.3242 83.8916 15.2656C83.8916 15.0801 83.7939 14.8848 83.5986 14.6797C83.4131 14.4746 83.1689 14.2695 82.8662 14.0645C82.5635 13.8594 82.2168 13.6592 81.8262 13.4639C81.4453 13.2588 81.0596 13.0732 80.6689 12.9072C80.2783 12.7314 79.9023 12.5752 79.541 12.4385C79.1797 12.292 78.8721 12.1748 78.6182 12.0869C78.2764 11.9502 78.1055 11.7598 78.1055 11.5156C78.1055 11.418 78.1543 11.2568 78.252 11.0322C78.3594 10.8076 78.4912 10.5781 78.6475 10.3438C78.8037 10.1094 78.9746 9.9043 79.1602 9.72852C79.3555 9.55273 79.5361 9.46484 79.7021 9.46484C79.751 9.46484 79.7998 9.46973 79.8486 9.47949C79.9072 9.47949 79.9658 9.49414 80.0244 9.52344C80.5518 9.70898 81.0742 9.91895 81.5918 10.1533C82.1094 10.3877 82.627 10.6416 83.1445 10.915C83.4961 11.0908 83.8965 11.3008 84.3457 11.5449C84.8047 11.7891 85.2344 12.0625 85.6348 12.3652C86.0352 12.668 86.3721 13.0049 86.6455 13.376C86.9287 13.7373 87.0703 14.1377 87.0703 14.5771C87.0703 15.0947 86.8945 15.6758 86.543 16.3203C86.2012 16.9648 85.7715 17.624 85.2539 18.2979C84.7461 18.9717 84.1992 19.6309 83.6133 20.2754C83.0273 20.9199 82.4902 21.4961 82.002 22.0039ZM116.883 17.2432C116.824 17.0576 116.795 16.8867 116.795 16.7305C116.795 16.2715 117.044 15.9199 117.542 15.6758C117.747 15.5781 117.918 15.5 118.055 15.4414C118.191 15.373 118.304 15.3242 118.392 15.2949C118.489 15.2559 118.567 15.2314 118.626 15.2217C118.685 15.2119 118.743 15.207 118.802 15.207C119.026 15.207 119.222 15.3193 119.388 15.5439C119.554 15.7588 119.7 16.0371 119.827 16.3789C119.964 16.7109 120.081 17.0723 120.179 17.4629C120.286 17.8438 120.394 18.2051 120.501 18.5469C120.618 18.8789 120.74 19.1572 120.867 19.3818C121.004 19.5967 121.165 19.7041 121.351 19.7041C121.556 19.7041 121.756 19.6113 121.951 19.4258C122.156 19.2305 122.342 18.9863 122.508 18.6934C122.674 18.4004 122.806 18.083 122.903 17.7412C123.011 17.3994 123.064 17.0723 123.064 16.7598C123.064 15.7637 122.874 14.875 122.493 14.0938C122.112 13.3027 121.619 12.6338 121.014 12.0869C120.408 11.54 119.72 11.125 118.948 10.8418C118.187 10.5488 117.425 10.4023 116.663 10.4023C115.755 10.4023 115.008 10.5098 114.422 10.7246C113.836 10.9395 113.372 11.252 113.03 11.6621C112.698 12.0625 112.464 12.5557 112.327 13.1416C112.2 13.7275 112.137 14.3916 112.137 15.1338C112.137 15.7002 112.244 16.2568 112.459 16.8037C112.674 17.3408 112.986 17.8389 113.396 18.2979C113.807 18.7568 114.31 19.1621 114.905 19.5137C115.501 19.8652 116.18 20.1289 116.941 20.3047C116.99 20.3242 117.029 20.334 117.059 20.334C117.088 20.334 117.127 20.334 117.176 20.334C117.332 20.334 117.454 20.2852 117.542 20.1875C117.64 20.0898 117.688 19.9678 117.688 19.8213C117.688 19.7725 117.684 19.7285 117.674 19.6895C117.664 19.6406 117.649 19.582 117.63 19.5137L116.883 17.2432ZM109.104 15.2363C109.104 15.1289 109.109 14.9971 109.119 14.8408C109.129 14.6846 109.134 14.5234 109.134 14.3574C109.134 14.2012 109.124 14.0449 109.104 13.8887C109.085 13.7324 109.046 13.5908 108.987 13.4639C108.938 13.3271 108.865 13.2148 108.768 13.127C108.67 13.0293 108.543 12.9707 108.387 12.9512C108.211 12.9316 108.064 12.8633 107.947 12.7461C107.84 12.6191 107.786 12.4678 107.786 12.292C107.786 12.0283 107.879 11.7695 108.064 11.5156C108.514 10.832 109.056 10.251 109.69 9.77246C110.335 9.28418 111.038 8.88867 111.8 8.58594C112.562 8.2832 113.362 8.06348 114.202 7.92676C115.042 7.78027 115.887 7.70703 116.736 7.70703C117.42 7.70703 118.123 7.79004 118.846 7.95605C119.568 8.1123 120.271 8.35156 120.955 8.67383C121.648 8.99609 122.303 9.3916 122.918 9.86035C123.533 10.3291 124.07 10.876 124.529 11.501C124.988 12.1162 125.35 12.8047 125.613 13.5664C125.887 14.3184 126.023 15.1436 126.023 16.042C126.023 16.7939 125.936 17.4824 125.76 18.1074C125.584 18.7324 125.335 19.2988 125.013 19.8066C124.7 20.3145 124.319 20.7686 123.87 21.1689C123.421 21.5596 122.923 21.8916 122.376 22.165C122.054 22.3018 121.893 22.5215 121.893 22.8242C121.893 22.8535 121.893 22.8877 121.893 22.9268C121.893 22.9561 121.897 22.9854 121.907 23.0146C121.907 23.0537 121.912 23.0879 121.922 23.1172C121.971 23.3809 122.034 23.7031 122.112 24.084C122.2 24.4746 122.283 24.875 122.361 25.2852C122.449 25.7051 122.522 26.1055 122.581 26.4863C122.64 26.877 122.669 27.2041 122.669 27.4678C122.669 28.0732 122.327 28.4541 121.644 28.6104C121.438 28.6592 121.243 28.6934 121.058 28.7129C120.872 28.7422 120.75 28.7568 120.691 28.7568C120.096 28.7568 119.754 28.4102 119.666 27.7168C119.578 27.043 119.466 26.3838 119.329 25.7393C119.202 25.0947 119.065 24.4502 118.919 23.8057C118.86 23.5811 118.777 23.4199 118.67 23.3223C118.572 23.2246 118.455 23.1758 118.318 23.1758H117.894C116.595 23.1758 115.408 22.9658 114.334 22.5459C113.26 22.1162 112.332 21.54 111.551 20.8174C110.779 20.085 110.179 19.2402 109.749 18.2832C109.319 17.3262 109.104 16.3105 109.104 15.2363Z" fill="black"/>
<path d="M35.8926 63.6846C35.8926 63.3623 35.8779 62.9424 35.8486 62.4248C35.8291 61.9072 35.7998 61.3359 35.7607 60.7109C35.7217 60.0859 35.6777 59.4219 35.6289 58.7188C35.5801 58.0156 35.5264 57.3174 35.4678 56.624C35.4092 55.9307 35.3506 55.2617 35.292 54.6172C35.2432 53.9629 35.1943 53.3721 35.1455 52.8447C35.0674 52.0928 34.96 51.541 34.8232 51.1895C34.6865 50.8379 34.4619 50.6621 34.1494 50.6621C33.8564 50.6621 33.6611 50.7451 33.5635 50.9111C33.4756 51.0771 33.4219 51.2822 33.4023 51.5264C33.3926 51.7705 33.3877 52.0391 33.3877 52.332C33.3975 52.6152 33.3535 52.8789 33.2559 53.123C33.168 53.3672 32.9971 53.5723 32.7432 53.7383C32.4893 53.9043 32.0986 53.9873 31.5713 53.9873C31.2002 53.9873 30.8828 53.8359 30.6191 53.5332C30.3555 53.2207 30.2236 52.7715 30.2236 52.1855C30.2236 51.3652 30.4678 50.623 30.9561 49.959C31.4346 49.2852 32.1133 48.7139 32.9922 48.2451C33.8711 47.7666 34.9307 47.3955 36.1709 47.1318C37.4111 46.8682 38.7881 46.7363 40.3018 46.7363C41.3857 46.7363 42.3867 46.8584 43.3047 47.1025C44.2227 47.3369 45.0137 47.6689 45.6777 48.0986C46.3516 48.5186 46.8789 49.0215 47.2598 49.6074C47.6406 50.1836 47.8311 50.8135 47.8311 51.4971C47.8311 52.2686 47.6064 53.0059 47.1572 53.709C46.708 54.4121 46.0879 55.0566 45.2969 55.6426C44.5156 56.2285 43.5928 56.7412 42.5283 57.1807C41.4639 57.6104 40.3213 57.9473 39.1006 58.1914C38.7588 58.25 38.5879 58.46 38.5879 58.8213C38.5879 59.0654 38.6025 59.373 38.6318 59.7441C38.6709 60.1055 38.7051 60.4863 38.7344 60.8867C38.7734 61.2871 38.8076 61.6826 38.8369 62.0732C38.876 62.4639 38.8955 62.8105 38.8955 63.1133C38.8955 63.6602 38.7686 64.0508 38.5146 64.2852C38.2607 64.5195 37.8848 64.6367 37.3867 64.6367C36.918 64.6367 36.5518 64.5537 36.2881 64.3877C36.0244 64.2314 35.8926 63.9971 35.8926 63.6846ZM44.7988 51.9219C44.7988 51.5898 44.6572 51.2725 44.374 50.9697C44.0908 50.667 43.71 50.3984 43.2314 50.1641C42.7529 49.9297 42.1963 49.7441 41.5615 49.6074C40.9365 49.4707 40.2773 49.4023 39.584 49.4023C39.2422 49.4023 38.9541 49.417 38.7197 49.4463C38.4951 49.4658 38.3145 49.5049 38.1777 49.5635C38.041 49.6221 37.9434 49.7002 37.8848 49.7979C37.8359 49.8857 37.8115 50.0029 37.8115 50.1494C37.8115 50.2471 37.8262 50.4766 37.8555 50.8379C37.8848 51.1895 37.9238 51.5996 37.9727 52.0684C38.0215 52.5371 38.0703 53.0303 38.1191 53.5479C38.1777 54.0557 38.2363 54.5146 38.2949 54.9248C38.3242 55.2275 38.3633 55.4277 38.4121 55.5254C38.4707 55.623 38.5586 55.6719 38.6758 55.6719C39.0078 55.6719 39.3887 55.6182 39.8184 55.5107C40.248 55.3936 40.6875 55.2422 41.1367 55.0566C41.5957 54.8613 42.04 54.6416 42.4697 54.3975C42.9092 54.1436 43.2998 53.8799 43.6416 53.6064C43.9932 53.3232 44.2715 53.04 44.4766 52.7568C44.6914 52.4639 44.7988 52.1855 44.7988 51.9219Z" fill="black"/>
<line y1="-1.5" x2="191.033" y2="-1.5" transform="matrix(1 0 -0.0048258 0.999988 5.98364 79.5591)" stroke="black" stroke-width="3"/>
<path d="M4.29883 19.4829C4.11654 19.6587 3.92448 19.7466 3.72266 19.7466C3.63151 19.7466 3.53711 19.7271 3.43945 19.688C3.3418 19.6424 3.22786 19.5675 3.09766 19.4634C2.85677 19.2811 2.73633 19.089 2.73633 18.8872C2.73633 18.757 2.8112 18.604 2.96094 18.4282C3.10417 18.2524 3.29297 18.0701 3.52734 17.8813C3.76172 17.686 4.02539 17.4875 4.31836 17.2856C4.61784 17.0838 4.92057 16.8918 5.22656 16.7095C5.53255 16.5272 5.82878 16.3612 6.11523 16.2114C6.40169 16.0617 6.64909 15.938 6.85742 15.8403C6.98112 15.7882 7.09505 15.7492 7.19922 15.7231C7.30339 15.6971 7.41081 15.6841 7.52148 15.6841C7.74284 15.6841 7.93164 15.7231 8.08789 15.8013C8.25065 15.8729 8.38737 15.9738 8.49805 16.104C8.60872 16.2342 8.69987 16.384 8.77148 16.5532C8.84961 16.716 8.91146 16.8885 8.95703 17.0708C9.00911 17.2466 9.05143 17.4289 9.08398 17.6177C9.11654 17.8 9.14909 17.9692 9.18164 18.1255C9.23372 18.3924 9.28581 18.7017 9.33789 19.0532C9.39648 19.3983 9.44857 19.7596 9.49414 20.1372C9.53971 20.5083 9.58203 20.8794 9.62109 21.2505C9.66667 21.6151 9.70573 21.9569 9.73828 22.2759C9.77083 22.5884 9.79362 22.8618 9.80664 23.0962C9.82617 23.3241 9.83594 23.4868 9.83594 23.5845C9.83594 24.0402 9.61133 24.3071 9.16211 24.3853C8.91471 24.4373 8.75195 24.4666 8.67383 24.4731C8.5957 24.4797 8.54362 24.4829 8.51758 24.4829C8.31576 24.4829 8.15299 24.4243 8.0293 24.3071C7.91211 24.1899 7.84375 24.0142 7.82422 23.7798C7.7526 22.9074 7.67122 22.0415 7.58008 21.1821C7.48893 20.3162 7.34896 19.4569 7.16016 18.604C7.12109 18.4152 7.05273 18.272 6.95508 18.1743C6.85742 18.0767 6.74023 18.0278 6.60352 18.0278C6.47331 18.0278 6.31055 18.0799 6.11523 18.1841C5.91992 18.2882 5.71484 18.4152 5.5 18.5649C5.28516 18.7147 5.07031 18.8742 4.85547 19.0435C4.64714 19.2062 4.46159 19.3527 4.29883 19.4829ZM18.3672 24.688C18.1784 24.688 17.9993 24.6587 17.8301 24.6001C17.6673 24.5415 17.5241 24.4634 17.4004 24.3657C17.2767 24.2616 17.179 24.1411 17.1074 24.0044C17.0423 23.8677 17.0098 23.7212 17.0098 23.5649C17.0098 23.2915 17.1172 23.0701 17.332 22.9009C17.5534 22.7316 17.8431 22.647 18.2012 22.647C18.3704 22.647 18.5332 22.6795 18.6895 22.7446C18.8522 22.8032 18.9922 22.8846 19.1094 22.9888C19.2331 23.0929 19.3307 23.2134 19.4023 23.3501C19.474 23.4868 19.5098 23.63 19.5098 23.7798C19.5098 24.0662 19.4056 24.2909 19.1973 24.4536C18.9954 24.6099 18.7188 24.688 18.3672 24.688Z" fill="black"/>
<path d="M2.80273 51.2576C2.71159 51.4073 2.61393 51.5212 2.50977 51.5994C2.4056 51.6775 2.28841 51.7166 2.1582 51.7166C2.09961 51.7166 2.02799 51.7035 1.94336 51.6775C1.85872 51.6514 1.73177 51.5994 1.5625 51.5212C1.25651 51.352 1.10352 51.1371 1.10352 50.8767C1.10352 50.727 1.14909 50.5805 1.24023 50.4373C1.41602 50.1638 1.62109 49.9132 1.85547 49.6853C2.09635 49.4509 2.36654 49.2491 2.66602 49.0798C2.97201 48.9106 3.30729 48.7771 3.67188 48.6794C4.04297 48.5818 4.44661 48.533 4.88281 48.533C5.33203 48.533 5.75846 48.6013 6.16211 48.738C6.56576 48.8748 6.92057 49.0701 7.22656 49.324C7.53255 49.5714 7.77344 49.8774 7.94922 50.2419C8.13151 50.6 8.22266 51.0037 8.22266 51.4529C8.22266 51.9932 8.11523 52.5206 7.90039 53.0349C7.68555 53.5427 7.4056 54.0375 7.06055 54.5193C6.72201 54.9945 6.33789 55.4503 5.9082 55.8865C5.47852 56.3162 5.04883 56.7198 4.61914 57.0974C4.54753 57.156 4.49544 57.2146 4.46289 57.2732C4.43685 57.3318 4.42383 57.3871 4.42383 57.4392C4.42383 57.5108 4.45638 57.5727 4.52148 57.6248C4.5931 57.6703 4.69401 57.6931 4.82422 57.6931C5.47526 57.7257 6.11979 57.7712 6.75781 57.8298C7.39583 57.8819 8.03711 57.9438 8.68164 58.0154C9.11784 58.074 9.33594 58.2888 9.33594 58.6599C9.33594 58.712 9.33268 58.7738 9.32617 58.8455C9.31966 58.9106 9.29036 59.0343 9.23828 59.2166C9.1862 59.4379 9.08529 59.6007 8.93555 59.7048C8.79232 59.809 8.61979 59.8611 8.41797 59.8611C8.28776 59.8611 8.08268 59.8481 7.80273 59.822C7.52279 59.8025 7.19727 59.7764 6.82617 59.7439C6.45508 59.7113 6.05143 59.6723 5.61523 59.6267C5.17904 59.5876 4.73633 59.5518 4.28711 59.5193C3.8444 59.4867 3.4082 59.4574 2.97852 59.4314C2.54883 59.4119 2.15495 59.4021 1.79688 59.4021C1.65365 59.4021 1.52995 59.3695 1.42578 59.3044C1.32812 59.2458 1.24674 59.1677 1.18164 59.0701C1.12305 58.9659 1.08073 58.8455 1.05469 58.7087C1.02865 58.572 1.01562 58.4288 1.01562 58.2791C1.01562 58.0968 1.05469 57.9405 1.13281 57.8103C1.21745 57.6736 1.33464 57.5499 1.48438 57.4392C1.78385 57.2179 2.10612 56.9737 2.45117 56.7068C2.80273 56.4399 3.1543 56.1567 3.50586 55.8572C3.85742 55.5577 4.19271 55.2452 4.51172 54.9197C4.83724 54.5876 5.1237 54.2524 5.37109 53.9138C5.625 53.5688 5.82682 53.2237 5.97656 52.8787C6.1263 52.5271 6.20117 52.1788 6.20117 51.8337C6.20117 51.5994 6.15234 51.391 6.05469 51.2087C5.96354 51.0199 5.83659 50.8604 5.67383 50.7302C5.51758 50.5935 5.33529 50.4926 5.12695 50.4275C4.91862 50.3559 4.70378 50.3201 4.48242 50.3201C4.05273 50.3201 3.70768 50.4112 3.44727 50.5935C3.18685 50.7758 2.97201 50.9972 2.80273 51.2576ZM17.0859 59.0017C16.8971 59.0017 16.7181 58.9724 16.5488 58.9138C16.3861 58.8552 16.2428 58.7771 16.1191 58.6794C15.9954 58.5753 15.8978 58.4548 15.8262 58.3181C15.7611 58.1814 15.7285 58.0349 15.7285 57.8787C15.7285 57.6052 15.8359 57.3839 16.0508 57.2146C16.2721 57.0453 16.5618 56.9607 16.9199 56.9607C17.0892 56.9607 17.252 56.9932 17.4082 57.0583C17.571 57.1169 17.7109 57.1983 17.8281 57.3025C17.9518 57.4067 18.0495 57.5271 18.1211 57.6638C18.1927 57.8005 18.2285 57.9438 18.2285 58.0935C18.2285 58.38 18.1243 58.6046 17.916 58.7673C17.7142 58.9236 17.4375 59.0017 17.0859 59.0017Z" fill="black"/>
<line x1="113" y1="135.719" x2="124" y2="135.719" stroke="black" stroke-width="3"/>
<line x1="122.285" y1="145" x2="122.285" y2="136" stroke="black" stroke-width="3"/>
<path d="M134.893 145.685C134.893 145.362 134.878 144.942 134.849 144.425C134.829 143.907 134.8 143.336 134.761 142.711C134.722 142.086 134.678 141.422 134.629 140.719C134.58 140.016 134.526 139.317 134.468 138.624C134.409 137.931 134.351 137.262 134.292 136.617C134.243 135.963 134.194 135.372 134.146 134.845C134.067 134.093 133.96 133.541 133.823 133.189C133.687 132.838 133.462 132.662 133.149 132.662C132.856 132.662 132.661 132.745 132.563 132.911C132.476 133.077 132.422 133.282 132.402 133.526C132.393 133.771 132.388 134.039 132.388 134.332C132.397 134.615 132.354 134.879 132.256 135.123C132.168 135.367 131.997 135.572 131.743 135.738C131.489 135.904 131.099 135.987 130.571 135.987C130.2 135.987 129.883 135.836 129.619 135.533C129.355 135.221 129.224 134.771 129.224 134.186C129.224 133.365 129.468 132.623 129.956 131.959C130.435 131.285 131.113 130.714 131.992 130.245C132.871 129.767 133.931 129.396 135.171 129.132C136.411 128.868 137.788 128.736 139.302 128.736C140.386 128.736 141.387 128.858 142.305 129.103C143.223 129.337 144.014 129.669 144.678 130.099C145.352 130.519 145.879 131.021 146.26 131.607C146.641 132.184 146.831 132.813 146.831 133.497C146.831 134.269 146.606 135.006 146.157 135.709C145.708 136.412 145.088 137.057 144.297 137.643C143.516 138.229 142.593 138.741 141.528 139.181C140.464 139.61 139.321 139.947 138.101 140.191C137.759 140.25 137.588 140.46 137.588 140.821C137.588 141.065 137.603 141.373 137.632 141.744C137.671 142.105 137.705 142.486 137.734 142.887C137.773 143.287 137.808 143.683 137.837 144.073C137.876 144.464 137.896 144.811 137.896 145.113C137.896 145.66 137.769 146.051 137.515 146.285C137.261 146.52 136.885 146.637 136.387 146.637C135.918 146.637 135.552 146.554 135.288 146.388C135.024 146.231 134.893 145.997 134.893 145.685ZM143.799 133.922C143.799 133.59 143.657 133.272 143.374 132.97C143.091 132.667 142.71 132.398 142.231 132.164C141.753 131.93 141.196 131.744 140.562 131.607C139.937 131.471 139.277 131.402 138.584 131.402C138.242 131.402 137.954 131.417 137.72 131.446C137.495 131.466 137.314 131.505 137.178 131.563C137.041 131.622 136.943 131.7 136.885 131.798C136.836 131.886 136.812 132.003 136.812 132.149C136.812 132.247 136.826 132.477 136.855 132.838C136.885 133.189 136.924 133.6 136.973 134.068C137.021 134.537 137.07 135.03 137.119 135.548C137.178 136.056 137.236 136.515 137.295 136.925C137.324 137.228 137.363 137.428 137.412 137.525C137.471 137.623 137.559 137.672 137.676 137.672C138.008 137.672 138.389 137.618 138.818 137.511C139.248 137.394 139.688 137.242 140.137 137.057C140.596 136.861 141.04 136.642 141.47 136.397C141.909 136.144 142.3 135.88 142.642 135.606C142.993 135.323 143.271 135.04 143.477 134.757C143.691 134.464 143.799 134.186 143.799 133.922Z" fill="black"/>
<circle cx="50.5" cy="90.5" r="2.5" fill="black"/>
<circle cx="50.5" cy="105.5" r="2.5" fill="black"/>
<circle cx="50.5" cy="118.5" r="2.5" fill="black"/>
</svg>
