<svg width="222" height="161" viewBox="0 0 222 161" fill="none" xmlns="http://www.w3.org/2000/svg">
<g clip-path="url(#clip0_98_38)">
<path d="M0 144.719H11" stroke="black" stroke-width="3"/>
<path d="M9.28516 154V145" stroke="black" stroke-width="3"/>
<path d="M36.2988 15.6191C36.1165 15.7949 35.9245 15.8828 35.7227 15.8828C35.6315 15.8828 35.5371 15.8633 35.4395 15.8242C35.3418 15.7786 35.2279 15.7038 35.0977 15.5996C34.8568 15.4173 34.7363 15.2253 34.7363 15.0234C34.7363 14.8932 34.8112 14.7402 34.9609 14.5645C35.1042 14.3887 35.293 14.2064 35.5273 14.0176C35.7617 13.8223 36.0254 13.6237 36.3184 13.4219C36.6178 13.2201 36.9206 13.028 37.2266 12.8457C37.5326 12.6634 37.8288 12.4974 38.1152 12.3477C38.4017 12.1979 38.6491 12.0742 38.8574 11.9766C38.9811 11.9245 39.0951 11.8854 39.1992 11.8594C39.3034 11.8333 39.4108 11.8203 39.5215 11.8203C39.7428 11.8203 39.9316 11.8594 40.0879 11.9375C40.2507 12.0091 40.3874 12.11 40.498 12.2402C40.6087 12.3704 40.6999 12.5202 40.7715 12.6895C40.8496 12.8522 40.9115 13.0247 40.957 13.207C41.0091 13.3828 41.0514 13.5651 41.084 13.7539C41.1165 13.9362 41.1491 14.1055 41.1816 14.2617C41.2337 14.5286 41.2858 14.8379 41.3379 15.1895C41.3965 15.5345 41.4486 15.8958 41.4941 16.2734C41.5397 16.6445 41.582 17.0156 41.6211 17.3867C41.6667 17.7513 41.7057 18.0931 41.7383 18.4121C41.7708 18.7246 41.7936 18.998 41.8066 19.2324C41.8262 19.4603 41.8359 19.623 41.8359 19.7207C41.8359 20.1764 41.6113 20.4434 41.1621 20.5215C40.9147 20.5736 40.752 20.6029 40.6738 20.6094C40.5957 20.6159 40.5436 20.6191 40.5176 20.6191C40.3158 20.6191 40.153 20.5605 40.0293 20.4434C39.9121 20.3262 39.8438 20.1504 39.8242 19.916C39.7526 19.0436 39.6712 18.1777 39.5801 17.3184C39.4889 16.4525 39.349 15.5931 39.1602 14.7402C39.1211 14.5514 39.0527 14.4082 38.9551 14.3105C38.8574 14.2129 38.7402 14.1641 38.6035 14.1641C38.4733 14.1641 38.3105 14.2161 38.1152 14.3203C37.9199 14.4245 37.7148 14.5514 37.5 14.7012C37.2852 14.8509 37.0703 15.0104 36.8555 15.1797C36.6471 15.3424 36.4616 15.4889 36.2988 15.6191ZM50.3672 20.8242C50.1784 20.8242 49.9993 20.7949 49.8301 20.7363C49.6673 20.6777 49.5241 20.5996 49.4004 20.502C49.2767 20.3978 49.179 20.2773 49.1074 20.1406C49.0423 20.0039 49.0098 19.8574 49.0098 19.7012C49.0098 19.4277 49.1172 19.2064 49.332 19.0371C49.5534 18.8678 49.8431 18.7832 50.2012 18.7832C50.3704 18.7832 50.5332 18.8158 50.6895 18.8809C50.8522 18.9395 50.9922 19.0208 51.1094 19.125C51.2331 19.2292 51.3307 19.3496 51.4023 19.4863C51.474 19.623 51.5098 19.7663 51.5098 19.916C51.5098 20.2025 51.4056 20.4271 51.1973 20.5898C50.9954 20.7461 50.7188 20.8242 50.3672 20.8242Z" fill="black"/>
<path d="M74.9141 19.3477C74.9141 19.0898 74.9023 18.7539 74.8789 18.3398C74.8633 17.9258 74.8398 17.4688 74.8086 16.9688C74.7773 16.4688 74.7422 15.9375 74.7031 15.375C74.6641 14.8125 74.6211 14.2539 74.5742 13.6992C74.5273 13.1445 74.4805 12.6094 74.4336 12.0938C74.3945 11.5703 74.3555 11.0977 74.3164 10.6758C74.2539 10.0742 74.168 9.63281 74.0586 9.35156C73.9492 9.07031 73.7695 8.9297 73.5195 8.9297C73.2852 8.9297 73.1289 8.99609 73.0508 9.12891C72.9805 9.26172 72.9375 9.42578 72.9219 9.62109C72.9141 9.81641 72.9102 10.0312 72.9102 10.2656C72.918 10.4922 72.8828 10.7031 72.8047 10.8984C72.7344 11.0938 72.5977 11.2578 72.3945 11.3906C72.1914 11.5234 71.8789 11.5898 71.457 11.5898C71.1602 11.5898 70.9062 11.4688 70.6953 11.2266C70.4844 10.9766 70.3789 10.6172 70.3789 10.1484C70.3789 9.4922 70.5742 8.89845 70.9648 8.3672C71.3477 7.82813 71.8906 7.37109 72.5938 6.99609C73.2969 6.61328 74.1445 6.31641 75.1367 6.10547C76.1289 5.89453 77.2305 5.78906 78.4414 5.78906C79.3086 5.78906 80.1094 5.88672 80.8438 6.08203C81.5781 6.26953 82.2109 6.53516 82.7422 6.87891C83.2812 7.21484 83.7031 7.6172 84.0078 8.08595C84.3125 8.54689 84.4648 9.05078 84.4648 9.59766C84.4648 10.2148 84.2852 10.8047 83.9258 11.3672C83.5664 11.9297 83.0703 12.4453 82.4375 12.9141C81.8125 13.3828 81.0742 13.793 80.2227 14.1445C79.3711 14.4883 78.457 14.7578 77.4805 14.9531C77.207 15 77.0703 15.168 77.0703 15.457C77.0703 15.6523 77.082 15.8984 77.1055 16.1953C77.1367 16.4844 77.1641 16.7891 77.1875 17.1094C77.2188 17.4297 77.2461 17.7461 77.2695 18.0586C77.3008 18.3711 77.3164 18.6484 77.3164 18.8906C77.3164 19.3281 77.2148 19.6406 77.0117 19.8281C76.8086 20.0156 76.5078 20.1094 76.1094 20.1094C75.7344 20.1094 75.4414 20.043 75.2305 19.9102C75.0195 19.7852 74.9141 19.5977 74.9141 19.3477ZM82.0391 9.9375C82.0391 9.67188 81.9258 9.41798 81.6992 9.17579C81.4727 8.9336 81.168 8.71875 80.7852 8.53125C80.4023 8.34375 79.957 8.19532 79.4492 8.08595C78.9492 7.97657 78.4219 7.92188 77.8672 7.92188C77.5938 7.92188 77.3633 7.93359 77.1758 7.95703C76.9961 7.97266 76.8516 8.00392 76.7422 8.05079C76.6328 8.09767 76.5547 8.16017 76.5078 8.23829C76.4688 8.3086 76.4492 8.40235 76.4492 8.51954C76.4492 8.59767 76.4609 8.78125 76.4844 9.07031C76.5078 9.35156 76.5391 9.67969 76.5781 10.0547C76.6172 10.4297 76.6562 10.8242 76.6953 11.2383C76.7422 11.6445 76.7891 12.0117 76.8359 12.3398C76.8594 12.582 76.8906 12.7422 76.9297 12.8203C76.9766 12.8984 77.0469 12.9375 77.1406 12.9375C77.4062 12.9375 77.7109 12.8945 78.0547 12.8086C78.3984 12.7148 78.75 12.5938 79.1094 12.4453C79.4766 12.2891 79.832 12.1133 80.1758 11.918C80.5273 11.7148 80.8398 11.5039 81.1133 11.2852C81.3945 11.0586 81.6172 10.832 81.7812 10.6055C81.9531 10.3711 82.0391 10.1484 82.0391 9.9375ZM100.815 13.8984C100.596 13.8984 100.416 13.8086 100.276 13.6289C100.135 13.4414 100.065 13.1719 100.065 12.8203C100.065 12.5078 100.205 12.2734 100.487 12.1172C100.768 11.9609 101.245 11.8516 101.916 11.7891C102.135 11.7656 102.42 11.7344 102.772 11.6953C103.131 11.6484 103.495 11.6055 103.862 11.5664C104.237 11.5195 104.588 11.4805 104.916 11.4492C105.252 11.418 105.514 11.4023 105.702 11.4023C105.991 11.4023 106.213 11.4883 106.37 11.6602C106.534 11.832 106.616 12.1367 106.616 12.5742C106.616 13.0273 106.166 13.3008 105.268 13.3945C105.151 13.4102 104.975 13.4336 104.741 13.4648C104.514 13.4883 104.256 13.5195 103.967 13.5586C103.678 13.5977 103.373 13.6367 103.053 13.6758C102.741 13.7148 102.44 13.75 102.151 13.7812C101.862 13.8125 101.596 13.8398 101.354 13.8633C101.12 13.8867 100.94 13.8984 100.815 13.8984ZM115.002 17.2031C114.861 17.3516 114.709 17.4258 114.545 17.4258C114.396 17.4258 114.252 17.3711 114.111 17.2617L113.466 16.7812C113.295 16.625 113.209 16.4727 113.209 16.3242C113.209 16.1758 113.279 16.0312 113.42 15.8906C113.662 15.6484 113.923 15.3789 114.205 15.082C114.486 14.7773 114.763 14.4609 115.037 14.1328C115.31 13.8047 115.568 13.4727 115.81 13.1367C116.052 12.8008 116.255 12.4688 116.42 12.1406C116.459 12.0781 116.482 12.0195 116.49 11.9648C116.505 11.9102 116.513 11.8594 116.513 11.8125C116.513 11.6641 116.435 11.5078 116.279 11.3438C116.13 11.1797 115.935 11.0156 115.693 10.8516C115.451 10.6875 115.173 10.5273 114.861 10.3711C114.556 10.207 114.248 10.0586 113.935 9.92579C113.623 9.78517 113.322 9.66017 113.033 9.55079C112.744 9.4336 112.498 9.33985 112.295 9.26954C112.021 9.16017 111.884 9.00781 111.884 8.8125C111.884 8.73438 111.923 8.60548 112.002 8.42579C112.088 8.2461 112.193 8.0625 112.318 7.875C112.443 7.6875 112.58 7.52344 112.728 7.38281C112.884 7.24219 113.029 7.17188 113.162 7.17188C113.201 7.17188 113.24 7.17578 113.279 7.18359C113.326 7.18359 113.373 7.19531 113.42 7.21875C113.841 7.36719 114.259 7.53516 114.673 7.72266C115.088 7.91016 115.502 8.11329 115.916 8.33204C116.197 8.47267 116.517 8.64063 116.877 8.83595C117.244 9.03126 117.588 9.25001 117.908 9.4922C118.228 9.73439 118.498 10.0039 118.716 10.3008C118.943 10.5898 119.056 10.9102 119.056 11.2617C119.056 11.6758 118.916 12.1406 118.634 12.6562C118.361 13.1719 118.017 13.6992 117.603 14.2383C117.197 14.7773 116.759 15.3047 116.291 15.8203C115.822 16.3359 115.392 16.7969 115.002 17.2031ZM142.906 13.3945C142.859 13.2461 142.836 13.1094 142.836 12.9844C142.836 12.6172 143.035 12.3359 143.434 12.1406C143.598 12.0625 143.734 12 143.844 11.9531C143.953 11.8984 144.043 11.8594 144.113 11.8359C144.191 11.8047 144.254 11.7852 144.301 11.7773C144.348 11.7695 144.395 11.7656 144.441 11.7656C144.621 11.7656 144.777 11.8555 144.91 12.0352C145.043 12.207 145.16 12.4297 145.262 12.7031C145.371 12.9688 145.465 13.2578 145.543 13.5703C145.629 13.875 145.715 14.1641 145.801 14.4375C145.895 14.7031 145.992 14.9258 146.094 15.1055C146.203 15.2773 146.332 15.3633 146.48 15.3633C146.645 15.3633 146.805 15.2891 146.961 15.1406C147.125 14.9844 147.273 14.7891 147.406 14.5547C147.539 14.3203 147.645 14.0664 147.723 13.793C147.809 13.5195 147.852 13.2578 147.852 13.0078C147.852 12.2109 147.699 11.5 147.395 10.875C147.09 10.2422 146.695 9.70704 146.211 9.26954C145.727 8.83204 145.176 8.50001 144.559 8.27345C143.949 8.03907 143.34 7.92188 142.73 7.92188C142.004 7.92188 141.406 8.00782 140.938 8.1797C140.469 8.35157 140.098 8.60157 139.824 8.9297C139.559 9.25001 139.371 9.64454 139.262 10.1133C139.16 10.582 139.109 11.1133 139.109 11.707C139.109 12.1602 139.195 12.6055 139.367 13.043C139.539 13.4727 139.789 13.8711 140.117 14.2383C140.445 14.6055 140.848 14.9297 141.324 15.2109C141.801 15.4922 142.344 15.7031 142.953 15.8438C142.992 15.8594 143.023 15.8672 143.047 15.8672C143.07 15.8672 143.102 15.8672 143.141 15.8672C143.266 15.8672 143.363 15.8281 143.434 15.75C143.512 15.6719 143.551 15.5742 143.551 15.457C143.551 15.418 143.547 15.3828 143.539 15.3516C143.531 15.3125 143.52 15.2656 143.504 15.2109L142.906 13.3945ZM136.684 11.7891C136.684 11.7031 136.688 11.5977 136.695 11.4727C136.703 11.3477 136.707 11.2188 136.707 11.0859C136.707 10.9609 136.699 10.8359 136.684 10.7109C136.668 10.5859 136.637 10.4727 136.59 10.3711C136.551 10.2617 136.492 10.1719 136.414 10.1016C136.336 10.0234 136.234 9.97657 136.109 9.96095C135.969 9.94532 135.852 9.89062 135.758 9.79688C135.672 9.69531 135.629 9.57422 135.629 9.43359C135.629 9.22266 135.703 9.01562 135.852 8.8125C136.211 8.26562 136.645 7.80078 137.152 7.41797C137.668 7.02734 138.23 6.71094 138.84 6.46875C139.449 6.22656 140.09 6.05078 140.762 5.94141C141.434 5.82422 142.109 5.76562 142.789 5.76562C143.336 5.76562 143.898 5.83203 144.477 5.96484C145.055 6.08984 145.617 6.28125 146.164 6.53906C146.719 6.79688 147.242 7.11328 147.734 7.48828C148.227 7.86328 148.656 8.30079 149.023 8.80079C149.391 9.29298 149.68 9.84375 149.891 10.4531C150.109 11.0547 150.219 11.7148 150.219 12.4336C150.219 13.0352 150.148 13.5859 150.008 14.0859C149.867 14.5859 149.668 15.0391 149.41 15.4453C149.16 15.8516 148.855 16.2148 148.496 16.5352C148.137 16.8477 147.738 17.1133 147.301 17.332C147.043 17.4414 146.914 17.6172 146.914 17.8594C146.914 17.8828 146.914 17.9102 146.914 17.9414C146.914 17.9648 146.918 17.9883 146.926 18.0117C146.926 18.043 146.93 18.0703 146.938 18.0938C146.977 18.3047 147.027 18.5625 147.09 18.8672C147.16 19.1797 147.227 19.5 147.289 19.8281C147.359 20.1641 147.418 20.4844 147.465 20.7891C147.512 21.1016 147.535 21.3633 147.535 21.5742C147.535 22.0586 147.262 22.3633 146.715 22.4883C146.551 22.5273 146.395 22.5547 146.246 22.5703C146.098 22.5938 146 22.6055 145.953 22.6055C145.477 22.6055 145.203 22.3281 145.133 21.7734C145.062 21.2344 144.973 20.707 144.863 20.1914C144.762 19.6758 144.652 19.1602 144.535 18.6445C144.488 18.4648 144.422 18.3359 144.336 18.2578C144.258 18.1797 144.164 18.1406 144.055 18.1406H143.715C142.676 18.1406 141.727 17.9727 140.867 17.6367C140.008 17.293 139.266 16.832 138.641 16.2539C138.023 15.668 137.543 14.9922 137.199 14.2266C136.855 13.4609 136.684 12.6484 136.684 11.7891Z" fill="black"/>
<path d="M209.875 145.395C209.828 145.246 209.805 145.109 209.805 144.984C209.805 144.617 210.004 144.336 210.402 144.141C210.566 144.062 210.703 144 210.812 143.953C210.922 143.898 211.012 143.859 211.082 143.836C211.16 143.805 211.223 143.785 211.27 143.777C211.316 143.77 211.363 143.766 211.41 143.766C211.59 143.766 211.746 143.855 211.879 144.035C212.012 144.207 212.129 144.43 212.23 144.703C212.34 144.969 212.434 145.258 212.512 145.57C212.598 145.875 212.684 146.164 212.77 146.438C212.863 146.703 212.961 146.926 213.062 147.105C213.172 147.277 213.301 147.363 213.449 147.363C213.613 147.363 213.773 147.289 213.93 147.141C214.094 146.984 214.242 146.789 214.375 146.555C214.508 146.32 214.613 146.066 214.691 145.793C214.777 145.52 214.82 145.258 214.82 145.008C214.82 144.211 214.668 143.5 214.363 142.875C214.059 142.242 213.664 141.707 213.18 141.27C212.695 140.832 212.145 140.5 211.527 140.273C210.918 140.039 210.309 139.922 209.699 139.922C208.973 139.922 208.375 140.008 207.906 140.18C207.438 140.352 207.066 140.602 206.793 140.93C206.527 141.25 206.34 141.645 206.23 142.113C206.129 142.582 206.078 143.113 206.078 143.707C206.078 144.16 206.164 144.605 206.336 145.043C206.508 145.473 206.758 145.871 207.086 146.238C207.414 146.605 207.816 146.93 208.293 147.211C208.77 147.492 209.312 147.703 209.922 147.844C209.961 147.859 209.992 147.867 210.016 147.867C210.039 147.867 210.07 147.867 210.109 147.867C210.234 147.867 210.332 147.828 210.402 147.75C210.48 147.672 210.52 147.574 210.52 147.457C210.52 147.418 210.516 147.383 210.508 147.352C210.5 147.312 210.488 147.266 210.473 147.211L209.875 145.395ZM203.652 143.789C203.652 143.703 203.656 143.598 203.664 143.473C203.672 143.348 203.676 143.219 203.676 143.086C203.676 142.961 203.668 142.836 203.652 142.711C203.637 142.586 203.605 142.473 203.559 142.371C203.52 142.262 203.461 142.172 203.383 142.102C203.305 142.023 203.203 141.977 203.078 141.961C202.938 141.945 202.82 141.891 202.727 141.797C202.641 141.695 202.598 141.574 202.598 141.434C202.598 141.223 202.672 141.016 202.82 140.812C203.18 140.266 203.613 139.801 204.121 139.418C204.637 139.027 205.199 138.711 205.809 138.469C206.418 138.227 207.059 138.051 207.73 137.941C208.402 137.824 209.078 137.766 209.758 137.766C210.305 137.766 210.867 137.832 211.445 137.965C212.023 138.09 212.586 138.281 213.133 138.539C213.688 138.797 214.211 139.113 214.703 139.488C215.195 139.863 215.625 140.301 215.992 140.801C216.359 141.293 216.648 141.844 216.859 142.453C217.078 143.055 217.188 143.715 217.188 144.434C217.188 145.035 217.117 145.586 216.977 146.086C216.836 146.586 216.637 147.039 216.379 147.445C216.129 147.852 215.824 148.215 215.465 148.535C215.105 148.848 214.707 149.113 214.27 149.332C214.012 149.441 213.883 149.617 213.883 149.859C213.883 149.883 213.883 149.91 213.883 149.941C213.883 149.965 213.887 149.988 213.895 150.012C213.895 150.043 213.898 150.07 213.906 150.094C213.945 150.305 213.996 150.562 214.059 150.867C214.129 151.18 214.195 151.5 214.258 151.828C214.328 152.164 214.387 152.484 214.434 152.789C214.48 153.102 214.504 153.363 214.504 153.574C214.504 154.059 214.23 154.363 213.684 154.488C213.52 154.527 213.363 154.555 213.215 154.57C213.066 154.594 212.969 154.605 212.922 154.605C212.445 154.605 212.172 154.328 212.102 153.773C212.031 153.234 211.941 152.707 211.832 152.191C211.73 151.676 211.621 151.16 211.504 150.645C211.457 150.465 211.391 150.336 211.305 150.258C211.227 150.18 211.133 150.141 211.023 150.141H210.684C209.645 150.141 208.695 149.973 207.836 149.637C206.977 149.293 206.234 148.832 205.609 148.254C204.992 147.668 204.512 146.992 204.168 146.227C203.824 145.461 203.652 144.648 203.652 143.789Z" fill="black"/>
<path d="M20.9141 152.348C20.9141 152.09 20.9023 151.754 20.8789 151.34C20.8633 150.926 20.8398 150.469 20.8086 149.969C20.7773 149.469 20.7422 148.938 20.7031 148.375C20.6641 147.812 20.6211 147.254 20.5742 146.699C20.5273 146.145 20.4805 145.609 20.4336 145.094C20.3945 144.57 20.3555 144.098 20.3164 143.676C20.2539 143.074 20.168 142.633 20.0586 142.352C19.9492 142.07 19.7695 141.93 19.5195 141.93C19.2852 141.93 19.1289 141.996 19.0508 142.129C18.9805 142.262 18.9375 142.426 18.9219 142.621C18.9141 142.816 18.9102 143.031 18.9102 143.266C18.918 143.492 18.8828 143.703 18.8047 143.898C18.7344 144.094 18.5977 144.258 18.3945 144.391C18.1914 144.523 17.8789 144.59 17.457 144.59C17.1602 144.59 16.9062 144.469 16.6953 144.227C16.4844 143.977 16.3789 143.617 16.3789 143.148C16.3789 142.492 16.5742 141.898 16.9648 141.367C17.3477 140.828 17.8906 140.371 18.5938 139.996C19.2969 139.613 20.1445 139.316 21.1367 139.105C22.1289 138.895 23.2305 138.789 24.4414 138.789C25.3086 138.789 26.1094 138.887 26.8438 139.082C27.5781 139.27 28.2109 139.535 28.7422 139.879C29.2812 140.215 29.7031 140.617 30.0078 141.086C30.3125 141.547 30.4648 142.051 30.4648 142.598C30.4648 143.215 30.2852 143.805 29.9258 144.367C29.5664 144.93 29.0703 145.445 28.4375 145.914C27.8125 146.383 27.0742 146.793 26.2227 147.145C25.3711 147.488 24.457 147.758 23.4805 147.953C23.207 148 23.0703 148.168 23.0703 148.457C23.0703 148.652 23.082 148.898 23.1055 149.195C23.1367 149.484 23.1641 149.789 23.1875 150.109C23.2188 150.43 23.2461 150.746 23.2695 151.059C23.3008 151.371 23.3164 151.648 23.3164 151.891C23.3164 152.328 23.2148 152.641 23.0117 152.828C22.8086 153.016 22.5078 153.109 22.1094 153.109C21.7344 153.109 21.4414 153.043 21.2305 152.91C21.0195 152.785 20.9141 152.598 20.9141 152.348ZM28.0391 142.938C28.0391 142.672 27.9258 142.418 27.6992 142.176C27.4727 141.934 27.168 141.719 26.7852 141.531C26.4023 141.344 25.957 141.195 25.4492 141.086C24.9492 140.977 24.4219 140.922 23.8672 140.922C23.5938 140.922 23.3633 140.934 23.1758 140.957C22.9961 140.973 22.8516 141.004 22.7422 141.051C22.6328 141.098 22.5547 141.16 22.5078 141.238C22.4688 141.309 22.4492 141.402 22.4492 141.52C22.4492 141.598 22.4609 141.781 22.4844 142.07C22.5078 142.352 22.5391 142.68 22.5781 143.055C22.6172 143.43 22.6562 143.824 22.6953 144.238C22.7422 144.645 22.7891 145.012 22.8359 145.34C22.8594 145.582 22.8906 145.742 22.9297 145.82C22.9766 145.898 23.0469 145.938 23.1406 145.938C23.4062 145.938 23.7109 145.895 24.0547 145.809C24.3984 145.715 24.75 145.594 25.1094 145.445C25.4766 145.289 25.832 145.113 26.1758 144.918C26.5273 144.715 26.8398 144.504 27.1133 144.285C27.3945 144.059 27.6172 143.832 27.7812 143.605C27.9531 143.371 28.0391 143.148 28.0391 142.938Z" fill="black"/>
<path d="M113.654 50.7568L25.6533 126.757" stroke="black" stroke-width="3" stroke-linecap="round"/>
<path d="M201.993 127.008L114 51" stroke="black" stroke-width="3" stroke-linecap="round"/>
<g clip-path="url(#clip1_98_38)">
<path d="M0 144.719H11" stroke="black" stroke-width="3"/>
<path d="M9.28516 154V145" stroke="black" stroke-width="3"/>
<path d="M36.2988 15.6191C36.1165 15.7949 35.9245 15.8828 35.7227 15.8828C35.6315 15.8828 35.5371 15.8633 35.4395 15.8242C35.3418 15.7786 35.2279 15.7038 35.0977 15.5996C34.8568 15.4173 34.7363 15.2253 34.7363 15.0234C34.7363 14.8932 34.8112 14.7402 34.9609 14.5645C35.1042 14.3887 35.293 14.2064 35.5273 14.0176C35.7617 13.8223 36.0254 13.6237 36.3184 13.4219C36.6178 13.2201 36.9206 13.028 37.2266 12.8457C37.5326 12.6634 37.8288 12.4974 38.1152 12.3477C38.4017 12.1979 38.6491 12.0742 38.8574 11.9766C38.9811 11.9245 39.0951 11.8854 39.1992 11.8594C39.3034 11.8333 39.4108 11.8203 39.5215 11.8203C39.7428 11.8203 39.9316 11.8594 40.0879 11.9375C40.2507 12.0091 40.3874 12.11 40.498 12.2402C40.6087 12.3704 40.6999 12.5202 40.7715 12.6895C40.8496 12.8522 40.9115 13.0247 40.957 13.207C41.0091 13.3828 41.0514 13.5651 41.084 13.7539C41.1165 13.9362 41.1491 14.1055 41.1816 14.2617C41.2337 14.5286 41.2858 14.8379 41.3379 15.1895C41.3965 15.5345 41.4486 15.8958 41.4941 16.2734C41.5397 16.6445 41.582 17.0156 41.6211 17.3867C41.6667 17.7513 41.7057 18.0931 41.7383 18.4121C41.7708 18.7246 41.7936 18.998 41.8066 19.2324C41.8262 19.4603 41.8359 19.623 41.8359 19.7207C41.8359 20.1764 41.6113 20.4434 41.1621 20.5215C40.9147 20.5736 40.752 20.6029 40.6738 20.6094C40.5957 20.6159 40.5436 20.6191 40.5176 20.6191C40.3158 20.6191 40.153 20.5605 40.0293 20.4434C39.9121 20.3262 39.8438 20.1504 39.8242 19.916C39.7526 19.0436 39.6712 18.1777 39.5801 17.3184C39.4889 16.4525 39.349 15.5931 39.1602 14.7402C39.1211 14.5514 39.0527 14.4082 38.9551 14.3105C38.8574 14.2129 38.7402 14.1641 38.6035 14.1641C38.4733 14.1641 38.3105 14.2161 38.1152 14.3203C37.9199 14.4245 37.7148 14.5514 37.5 14.7012C37.2852 14.8509 37.0703 15.0104 36.8555 15.1797C36.6471 15.3424 36.4616 15.4889 36.2988 15.6191ZM50.3672 20.8242C50.1784 20.8242 49.9993 20.7949 49.8301 20.7363C49.6673 20.6777 49.5241 20.5996 49.4004 20.502C49.2767 20.3978 49.179 20.2773 49.1074 20.1406C49.0423 20.0039 49.0098 19.8574 49.0098 19.7012C49.0098 19.4277 49.1172 19.2064 49.332 19.0371C49.5534 18.8678 49.8431 18.7832 50.2012 18.7832C50.3704 18.7832 50.5332 18.8158 50.6895 18.8809C50.8522 18.9395 50.9922 19.0208 51.1094 19.125C51.2331 19.2292 51.3307 19.3496 51.4023 19.4863C51.474 19.623 51.5098 19.7663 51.5098 19.916C51.5098 20.2025 51.4056 20.4271 51.1973 20.5898C50.9954 20.7461 50.7188 20.8242 50.3672 20.8242Z" fill="black"/>
<path d="M74.9141 19.3477C74.9141 19.0898 74.9023 18.7539 74.8789 18.3398C74.8633 17.9258 74.8398 17.4688 74.8086 16.9688C74.7773 16.4688 74.7422 15.9375 74.7031 15.375C74.6641 14.8125 74.6211 14.2539 74.5742 13.6992C74.5273 13.1445 74.4805 12.6094 74.4336 12.0938C74.3945 11.5703 74.3555 11.0977 74.3164 10.6758C74.2539 10.0742 74.168 9.63281 74.0586 9.35156C73.9492 9.07031 73.7695 8.9297 73.5195 8.9297C73.2852 8.9297 73.1289 8.99609 73.0508 9.12891C72.9805 9.26172 72.9375 9.42578 72.9219 9.62109C72.9141 9.81641 72.9102 10.0312 72.9102 10.2656C72.918 10.4922 72.8828 10.7031 72.8047 10.8984C72.7344 11.0938 72.5977 11.2578 72.3945 11.3906C72.1914 11.5234 71.8789 11.5898 71.457 11.5898C71.1602 11.5898 70.9062 11.4688 70.6953 11.2266C70.4844 10.9766 70.3789 10.6172 70.3789 10.1484C70.3789 9.4922 70.5742 8.89845 70.9648 8.3672C71.3477 7.82813 71.8906 7.37109 72.5938 6.99609C73.2969 6.61328 74.1445 6.31641 75.1367 6.10547C76.1289 5.89453 77.2305 5.78906 78.4414 5.78906C79.3086 5.78906 80.1094 5.88672 80.8438 6.08203C81.5781 6.26953 82.2109 6.53516 82.7422 6.87891C83.2812 7.21484 83.7031 7.6172 84.0078 8.08595C84.3125 8.54689 84.4648 9.05078 84.4648 9.59766C84.4648 10.2148 84.2852 10.8047 83.9258 11.3672C83.5664 11.9297 83.0703 12.4453 82.4375 12.9141C81.8125 13.3828 81.0742 13.793 80.2227 14.1445C79.3711 14.4883 78.457 14.7578 77.4805 14.9531C77.207 15 77.0703 15.168 77.0703 15.457C77.0703 15.6523 77.082 15.8984 77.1055 16.1953C77.1367 16.4844 77.1641 16.7891 77.1875 17.1094C77.2188 17.4297 77.2461 17.7461 77.2695 18.0586C77.3008 18.3711 77.3164 18.6484 77.3164 18.8906C77.3164 19.3281 77.2148 19.6406 77.0117 19.8281C76.8086 20.0156 76.5078 20.1094 76.1094 20.1094C75.7344 20.1094 75.4414 20.043 75.2305 19.9102C75.0195 19.7852 74.9141 19.5977 74.9141 19.3477ZM82.0391 9.9375C82.0391 9.67188 81.9258 9.41798 81.6992 9.17579C81.4727 8.9336 81.168 8.71875 80.7852 8.53125C80.4023 8.34375 79.957 8.19532 79.4492 8.08595C78.9492 7.97657 78.4219 7.92188 77.8672 7.92188C77.5938 7.92188 77.3633 7.93359 77.1758 7.95703C76.9961 7.97266 76.8516 8.00392 76.7422 8.05079C76.6328 8.09767 76.5547 8.16017 76.5078 8.23829C76.4688 8.3086 76.4492 8.40235 76.4492 8.51954C76.4492 8.59767 76.4609 8.78125 76.4844 9.07031C76.5078 9.35156 76.5391 9.67969 76.5781 10.0547C76.6172 10.4297 76.6562 10.8242 76.6953 11.2383C76.7422 11.6445 76.7891 12.0117 76.8359 12.3398C76.8594 12.582 76.8906 12.7422 76.9297 12.8203C76.9766 12.8984 77.0469 12.9375 77.1406 12.9375C77.4062 12.9375 77.7109 12.8945 78.0547 12.8086C78.3984 12.7148 78.75 12.5938 79.1094 12.4453C79.4766 12.2891 79.832 12.1133 80.1758 11.918C80.5273 11.7148 80.8398 11.5039 81.1133 11.2852C81.3945 11.0586 81.6172 10.832 81.7812 10.6055C81.9531 10.3711 82.0391 10.1484 82.0391 9.9375ZM100.815 13.8984C100.596 13.8984 100.416 13.8086 100.276 13.6289C100.135 13.4414 100.065 13.1719 100.065 12.8203C100.065 12.5078 100.205 12.2734 100.487 12.1172C100.768 11.9609 101.245 11.8516 101.916 11.7891C102.135 11.7656 102.42 11.7344 102.772 11.6953C103.131 11.6484 103.495 11.6055 103.862 11.5664C104.237 11.5195 104.588 11.4805 104.916 11.4492C105.252 11.418 105.514 11.4023 105.702 11.4023C105.991 11.4023 106.213 11.4883 106.37 11.6602C106.534 11.832 106.616 12.1367 106.616 12.5742C106.616 13.0273 106.166 13.3008 105.268 13.3945C105.151 13.4102 104.975 13.4336 104.741 13.4648C104.514 13.4883 104.256 13.5195 103.967 13.5586C103.678 13.5977 103.373 13.6367 103.053 13.6758C102.741 13.7148 102.44 13.75 102.151 13.7812C101.862 13.8125 101.596 13.8398 101.354 13.8633C101.12 13.8867 100.94 13.8984 100.815 13.8984ZM115.002 17.2031C114.861 17.3516 114.709 17.4258 114.545 17.4258C114.396 17.4258 114.252 17.3711 114.111 17.2617L113.466 16.7812C113.295 16.625 113.209 16.4727 113.209 16.3242C113.209 16.1758 113.279 16.0312 113.42 15.8906C113.662 15.6484 113.923 15.3789 114.205 15.082C114.486 14.7773 114.763 14.4609 115.037 14.1328C115.31 13.8047 115.568 13.4727 115.81 13.1367C116.052 12.8008 116.255 12.4688 116.42 12.1406C116.459 12.0781 116.482 12.0195 116.49 11.9648C116.505 11.9102 116.513 11.8594 116.513 11.8125C116.513 11.6641 116.435 11.5078 116.279 11.3438C116.13 11.1797 115.935 11.0156 115.693 10.8516C115.451 10.6875 115.173 10.5273 114.861 10.3711C114.556 10.207 114.248 10.0586 113.935 9.92579C113.623 9.78517 113.322 9.66017 113.033 9.55079C112.744 9.4336 112.498 9.33985 112.295 9.26954C112.021 9.16017 111.884 9.00781 111.884 8.8125C111.884 8.73438 111.923 8.60548 112.002 8.42579C112.088 8.2461 112.193 8.0625 112.318 7.875C112.443 7.6875 112.58 7.52344 112.728 7.38281C112.884 7.24219 113.029 7.17188 113.162 7.17188C113.201 7.17188 113.24 7.17578 113.279 7.18359C113.326 7.18359 113.373 7.19531 113.42 7.21875C113.841 7.36719 114.259 7.53516 114.673 7.72266C115.088 7.91016 115.502 8.11329 115.916 8.33204C116.197 8.47267 116.517 8.64063 116.877 8.83595C117.244 9.03126 117.588 9.25001 117.908 9.4922C118.228 9.73439 118.498 10.0039 118.716 10.3008C118.943 10.5898 119.056 10.9102 119.056 11.2617C119.056 11.6758 118.916 12.1406 118.634 12.6562C118.361 13.1719 118.017 13.6992 117.603 14.2383C117.197 14.7773 116.759 15.3047 116.291 15.8203C115.822 16.3359 115.392 16.7969 115.002 17.2031ZM142.906 13.3945C142.859 13.2461 142.836 13.1094 142.836 12.9844C142.836 12.6172 143.035 12.3359 143.434 12.1406C143.598 12.0625 143.734 12 143.844 11.9531C143.953 11.8984 144.043 11.8594 144.113 11.8359C144.191 11.8047 144.254 11.7852 144.301 11.7773C144.348 11.7695 144.395 11.7656 144.441 11.7656C144.621 11.7656 144.777 11.8555 144.91 12.0352C145.043 12.207 145.16 12.4297 145.262 12.7031C145.371 12.9688 145.465 13.2578 145.543 13.5703C145.629 13.875 145.715 14.1641 145.801 14.4375C145.895 14.7031 145.992 14.9258 146.094 15.1055C146.203 15.2773 146.332 15.3633 146.48 15.3633C146.645 15.3633 146.805 15.2891 146.961 15.1406C147.125 14.9844 147.273 14.7891 147.406 14.5547C147.539 14.3203 147.645 14.0664 147.723 13.793C147.809 13.5195 147.852 13.2578 147.852 13.0078C147.852 12.2109 147.699 11.5 147.395 10.875C147.09 10.2422 146.695 9.70704 146.211 9.26954C145.727 8.83204 145.176 8.50001 144.559 8.27345C143.949 8.03907 143.34 7.92188 142.73 7.92188C142.004 7.92188 141.406 8.00782 140.938 8.1797C140.469 8.35157 140.098 8.60157 139.824 8.9297C139.559 9.25001 139.371 9.64454 139.262 10.1133C139.16 10.582 139.109 11.1133 139.109 11.707C139.109 12.1602 139.195 12.6055 139.367 13.043C139.539 13.4727 139.789 13.8711 140.117 14.2383C140.445 14.6055 140.848 14.9297 141.324 15.2109C141.801 15.4922 142.344 15.7031 142.953 15.8438C142.992 15.8594 143.023 15.8672 143.047 15.8672C143.07 15.8672 143.102 15.8672 143.141 15.8672C143.266 15.8672 143.363 15.8281 143.434 15.75C143.512 15.6719 143.551 15.5742 143.551 15.457C143.551 15.418 143.547 15.3828 143.539 15.3516C143.531 15.3125 143.52 15.2656 143.504 15.2109L142.906 13.3945ZM136.684 11.7891C136.684 11.7031 136.688 11.5977 136.695 11.4727C136.703 11.3477 136.707 11.2188 136.707 11.0859C136.707 10.9609 136.699 10.8359 136.684 10.7109C136.668 10.5859 136.637 10.4727 136.59 10.3711C136.551 10.2617 136.492 10.1719 136.414 10.1016C136.336 10.0234 136.234 9.97657 136.109 9.96095C135.969 9.94532 135.852 9.89062 135.758 9.79688C135.672 9.69531 135.629 9.57422 135.629 9.43359C135.629 9.22266 135.703 9.01562 135.852 8.8125C136.211 8.26562 136.645 7.80078 137.152 7.41797C137.668 7.02734 138.23 6.71094 138.84 6.46875C139.449 6.22656 140.09 6.05078 140.762 5.94141C141.434 5.82422 142.109 5.76562 142.789 5.76562C143.336 5.76562 143.898 5.83203 144.477 5.96484C145.055 6.08984 145.617 6.28125 146.164 6.53906C146.719 6.79688 147.242 7.11328 147.734 7.48828C148.227 7.86328 148.656 8.30079 149.023 8.80079C149.391 9.29298 149.68 9.84375 149.891 10.4531C150.109 11.0547 150.219 11.7148 150.219 12.4336C150.219 13.0352 150.148 13.5859 150.008 14.0859C149.867 14.5859 149.668 15.0391 149.41 15.4453C149.16 15.8516 148.855 16.2148 148.496 16.5352C148.137 16.8477 147.738 17.1133 147.301 17.332C147.043 17.4414 146.914 17.6172 146.914 17.8594C146.914 17.8828 146.914 17.9102 146.914 17.9414C146.914 17.9648 146.918 17.9883 146.926 18.0117C146.926 18.043 146.93 18.0703 146.938 18.0938C146.977 18.3047 147.027 18.5625 147.09 18.8672C147.16 19.1797 147.227 19.5 147.289 19.8281C147.359 20.1641 147.418 20.4844 147.465 20.7891C147.512 21.1016 147.535 21.3633 147.535 21.5742C147.535 22.0586 147.262 22.3633 146.715 22.4883C146.551 22.5273 146.395 22.5547 146.246 22.5703C146.098 22.5938 146 22.6055 145.953 22.6055C145.477 22.6055 145.203 22.3281 145.133 21.7734C145.062 21.2344 144.973 20.707 144.863 20.1914C144.762 19.6758 144.652 19.1602 144.535 18.6445C144.488 18.4648 144.422 18.3359 144.336 18.2578C144.258 18.1797 144.164 18.1406 144.055 18.1406H143.715C142.676 18.1406 141.727 17.9727 140.867 17.6367C140.008 17.293 139.266 16.832 138.641 16.2539C138.023 15.668 137.543 14.9922 137.199 14.2266C136.855 13.4609 136.684 12.6484 136.684 11.7891Z" fill="black"/>
<path d="M209.875 145.395C209.828 145.246 209.805 145.109 209.805 144.984C209.805 144.617 210.004 144.336 210.402 144.141C210.566 144.062 210.703 144 210.812 143.953C210.922 143.898 211.012 143.859 211.082 143.836C211.16 143.805 211.223 143.785 211.27 143.777C211.316 143.77 211.363 143.766 211.41 143.766C211.59 143.766 211.746 143.855 211.879 144.035C212.012 144.207 212.129 144.43 212.23 144.703C212.34 144.969 212.434 145.258 212.512 145.57C212.598 145.875 212.684 146.164 212.77 146.438C212.863 146.703 212.961 146.926 213.062 147.105C213.172 147.277 213.301 147.363 213.449 147.363C213.613 147.363 213.773 147.289 213.93 147.141C214.094 146.984 214.242 146.789 214.375 146.555C214.508 146.32 214.613 146.066 214.691 145.793C214.777 145.52 214.82 145.258 214.82 145.008C214.82 144.211 214.668 143.5 214.363 142.875C214.059 142.242 213.664 141.707 213.18 141.27C212.695 140.832 212.145 140.5 211.527 140.273C210.918 140.039 210.309 139.922 209.699 139.922C208.973 139.922 208.375 140.008 207.906 140.18C207.438 140.352 207.066 140.602 206.793 140.93C206.527 141.25 206.34 141.645 206.23 142.113C206.129 142.582 206.078 143.113 206.078 143.707C206.078 144.16 206.164 144.605 206.336 145.043C206.508 145.473 206.758 145.871 207.086 146.238C207.414 146.605 207.816 146.93 208.293 147.211C208.77 147.492 209.312 147.703 209.922 147.844C209.961 147.859 209.992 147.867 210.016 147.867C210.039 147.867 210.07 147.867 210.109 147.867C210.234 147.867 210.332 147.828 210.402 147.75C210.48 147.672 210.52 147.574 210.52 147.457C210.52 147.418 210.516 147.383 210.508 147.352C210.5 147.312 210.488 147.266 210.473 147.211L209.875 145.395ZM203.652 143.789C203.652 143.703 203.656 143.598 203.664 143.473C203.672 143.348 203.676 143.219 203.676 143.086C203.676 142.961 203.668 142.836 203.652 142.711C203.637 142.586 203.605 142.473 203.559 142.371C203.52 142.262 203.461 142.172 203.383 142.102C203.305 142.023 203.203 141.977 203.078 141.961C202.938 141.945 202.82 141.891 202.727 141.797C202.641 141.695 202.598 141.574 202.598 141.434C202.598 141.223 202.672 141.016 202.82 140.812C203.18 140.266 203.613 139.801 204.121 139.418C204.637 139.027 205.199 138.711 205.809 138.469C206.418 138.227 207.059 138.051 207.73 137.941C208.402 137.824 209.078 137.766 209.758 137.766C210.305 137.766 210.867 137.832 211.445 137.965C212.023 138.09 212.586 138.281 213.133 138.539C213.688 138.797 214.211 139.113 214.703 139.488C215.195 139.863 215.625 140.301 215.992 140.801C216.359 141.293 216.648 141.844 216.859 142.453C217.078 143.055 217.188 143.715 217.188 144.434C217.188 145.035 217.117 145.586 216.977 146.086C216.836 146.586 216.637 147.039 216.379 147.445C216.129 147.852 215.824 148.215 215.465 148.535C215.105 148.848 214.707 149.113 214.27 149.332C214.012 149.441 213.883 149.617 213.883 149.859C213.883 149.883 213.883 149.91 213.883 149.941C213.883 149.965 213.887 149.988 213.895 150.012C213.895 150.043 213.898 150.07 213.906 150.094C213.945 150.305 213.996 150.562 214.059 150.867C214.129 151.18 214.195 151.5 214.258 151.828C214.328 152.164 214.387 152.484 214.434 152.789C214.48 153.102 214.504 153.363 214.504 153.574C214.504 154.059 214.23 154.363 213.684 154.488C213.52 154.527 213.363 154.555 213.215 154.57C213.066 154.594 212.969 154.605 212.922 154.605C212.445 154.605 212.172 154.328 212.102 153.773C212.031 153.234 211.941 152.707 211.832 152.191C211.73 151.676 211.621 151.16 211.504 150.645C211.457 150.465 211.391 150.336 211.305 150.258C211.227 150.18 211.133 150.141 211.023 150.141H210.684C209.645 150.141 208.695 149.973 207.836 149.637C206.977 149.293 206.234 148.832 205.609 148.254C204.992 147.668 204.512 146.992 204.168 146.227C203.824 145.461 203.652 144.648 203.652 143.789Z" fill="black"/>
<path d="M20.9141 152.348C20.9141 152.09 20.9023 151.754 20.8789 151.34C20.8633 150.926 20.8398 150.469 20.8086 149.969C20.7773 149.469 20.7422 148.938 20.7031 148.375C20.6641 147.812 20.6211 147.254 20.5742 146.699C20.5273 146.145 20.4805 145.609 20.4336 145.094C20.3945 144.57 20.3555 144.098 20.3164 143.676C20.2539 143.074 20.168 142.633 20.0586 142.352C19.9492 142.07 19.7695 141.93 19.5195 141.93C19.2852 141.93 19.1289 141.996 19.0508 142.129C18.9805 142.262 18.9375 142.426 18.9219 142.621C18.9141 142.816 18.9102 143.031 18.9102 143.266C18.918 143.492 18.8828 143.703 18.8047 143.898C18.7344 144.094 18.5977 144.258 18.3945 144.391C18.1914 144.523 17.8789 144.59 17.457 144.59C17.1602 144.59 16.9062 144.469 16.6953 144.227C16.4844 143.977 16.3789 143.617 16.3789 143.148C16.3789 142.492 16.5742 141.898 16.9648 141.367C17.3477 140.828 17.8906 140.371 18.5938 139.996C19.2969 139.613 20.1445 139.316 21.1367 139.105C22.1289 138.895 23.2305 138.789 24.4414 138.789C25.3086 138.789 26.1094 138.887 26.8438 139.082C27.5781 139.27 28.2109 139.535 28.7422 139.879C29.2812 140.215 29.7031 140.617 30.0078 141.086C30.3125 141.547 30.4648 142.051 30.4648 142.598C30.4648 143.215 30.2852 143.805 29.9258 144.367C29.5664 144.93 29.0703 145.445 28.4375 145.914C27.8125 146.383 27.0742 146.793 26.2227 147.145C25.3711 147.488 24.457 147.758 23.4805 147.953C23.207 148 23.0703 148.168 23.0703 148.457C23.0703 148.652 23.082 148.898 23.1055 149.195C23.1367 149.484 23.1641 149.789 23.1875 150.109C23.2188 150.43 23.2461 150.746 23.2695 151.059C23.3008 151.371 23.3164 151.648 23.3164 151.891C23.3164 152.328 23.2148 152.641 23.0117 152.828C22.8086 153.016 22.5078 153.109 22.1094 153.109C21.7344 153.109 21.4414 153.043 21.2305 152.91C21.0195 152.785 20.9141 152.598 20.9141 152.348ZM28.0391 142.938C28.0391 142.672 27.9258 142.418 27.6992 142.176C27.4727 141.934 27.168 141.719 26.7852 141.531C26.4023 141.344 25.957 141.195 25.4492 141.086C24.9492 140.977 24.4219 140.922 23.8672 140.922C23.5938 140.922 23.3633 140.934 23.1758 140.957C22.9961 140.973 22.8516 141.004 22.7422 141.051C22.6328 141.098 22.5547 141.16 22.5078 141.238C22.4688 141.309 22.4492 141.402 22.4492 141.52C22.4492 141.598 22.4609 141.781 22.4844 142.07C22.5078 142.352 22.5391 142.68 22.5781 143.055C22.6172 143.43 22.6562 143.824 22.6953 144.238C22.7422 144.645 22.7891 145.012 22.8359 145.34C22.8594 145.582 22.8906 145.742 22.9297 145.82C22.9766 145.898 23.0469 145.938 23.1406 145.938C23.4062 145.938 23.7109 145.895 24.0547 145.809C24.3984 145.715 24.75 145.594 25.1094 145.445C25.4766 145.289 25.832 145.113 26.1758 144.918C26.5273 144.715 26.8398 144.504 27.1133 144.285C27.3945 144.059 27.6172 143.832 27.7812 143.605C27.9531 143.371 28.0391 143.148 28.0391 142.938Z" fill="black"/>
<path d="M113.654 50.7568L25.6533 126.757" stroke="black" stroke-width="3" stroke-linecap="round"/>
<path d="M201.993 127.008L114 51" stroke="black" stroke-width="3" stroke-linecap="round"/>
<path d="M0 144.719H11" stroke="black" stroke-width="2"/>
<path d="M10 154V145" stroke="black" stroke-width="2"/>
<path d="M36.2988 15.6191C36.1165 15.7949 35.9245 15.8828 35.7227 15.8828C35.6315 15.8828 35.5371 15.8633 35.4395 15.8242C35.3418 15.7786 35.2279 15.7038 35.0977 15.5996C34.8568 15.4173 34.7363 15.2253 34.7363 15.0234C34.7363 14.8932 34.8112 14.7402 34.9609 14.5645C35.1042 14.3887 35.293 14.2064 35.5273 14.0176C35.7617 13.8223 36.0254 13.6237 36.3184 13.4219C36.6178 13.2201 36.9206 13.028 37.2266 12.8457C37.5326 12.6634 37.8288 12.4974 38.1152 12.3477C38.4017 12.1979 38.6491 12.0742 38.8574 11.9766C38.9811 11.9245 39.0951 11.8854 39.1992 11.8594C39.3034 11.8333 39.4108 11.8203 39.5215 11.8203C39.7428 11.8203 39.9316 11.8594 40.0879 11.9375C40.2507 12.0091 40.3874 12.11 40.498 12.2402C40.6087 12.3704 40.6999 12.5202 40.7715 12.6895C40.8496 12.8522 40.9115 13.0247 40.957 13.207C41.0091 13.3828 41.0514 13.5651 41.084 13.7539C41.1165 13.9362 41.1491 14.1055 41.1816 14.2617C41.2337 14.5286 41.2858 14.8379 41.3379 15.1895C41.3965 15.5345 41.4486 15.8958 41.4941 16.2734C41.5397 16.6445 41.582 17.0156 41.6211 17.3867C41.6667 17.7513 41.7057 18.0931 41.7383 18.4121C41.7708 18.7246 41.7936 18.998 41.8066 19.2324C41.8262 19.4603 41.8359 19.623 41.8359 19.7207C41.8359 20.1764 41.6113 20.4434 41.1621 20.5215C40.9147 20.5736 40.752 20.6029 40.6738 20.6094C40.5957 20.6159 40.5436 20.6191 40.5176 20.6191C40.3158 20.6191 40.153 20.5605 40.0293 20.4434C39.9121 20.3262 39.8438 20.1504 39.8242 19.916C39.7526 19.0436 39.6712 18.1777 39.5801 17.3184C39.4889 16.4525 39.349 15.5931 39.1602 14.7402C39.1211 14.5514 39.0527 14.4082 38.9551 14.3105C38.8574 14.2129 38.7402 14.1641 38.6035 14.1641C38.4733 14.1641 38.3105 14.2161 38.1152 14.3203C37.9199 14.4245 37.7148 14.5514 37.5 14.7012C37.2852 14.8509 37.0703 15.0104 36.8555 15.1797C36.6471 15.3424 36.4616 15.4889 36.2988 15.6191ZM50.3672 20.8242C50.1784 20.8242 49.9993 20.7949 49.8301 20.7363C49.6673 20.6777 49.5241 20.5996 49.4004 20.502C49.2767 20.3978 49.179 20.2773 49.1074 20.1406C49.0423 20.0039 49.0098 19.8574 49.0098 19.7012C49.0098 19.4277 49.1172 19.2064 49.332 19.0371C49.5534 18.8678 49.8431 18.7832 50.2012 18.7832C50.3704 18.7832 50.5332 18.8158 50.6895 18.8809C50.8522 18.9395 50.9922 19.0208 51.1094 19.125C51.2331 19.2292 51.3307 19.3496 51.4023 19.4863C51.474 19.623 51.5098 19.7663 51.5098 19.916C51.5098 20.2025 51.4056 20.4271 51.1973 20.5898C50.9954 20.7461 50.7188 20.8242 50.3672 20.8242Z" fill="black"/>
<path d="M74.9141 19.3477C74.9141 19.0898 74.9023 18.7539 74.8789 18.3398C74.8633 17.9258 74.8398 17.4688 74.8086 16.9688C74.7773 16.4688 74.7422 15.9375 74.7031 15.375C74.6641 14.8125 74.6211 14.2539 74.5742 13.6992C74.5273 13.1445 74.4805 12.6094 74.4336 12.0938C74.3945 11.5703 74.3555 11.0977 74.3164 10.6758C74.2539 10.0742 74.168 9.63281 74.0586 9.35156C73.9492 9.07031 73.7695 8.9297 73.5195 8.9297C73.2852 8.9297 73.1289 8.99609 73.0508 9.12891C72.9805 9.26172 72.9375 9.42578 72.9219 9.62109C72.9141 9.81641 72.9102 10.0312 72.9102 10.2656C72.918 10.4922 72.8828 10.7031 72.8047 10.8984C72.7344 11.0938 72.5977 11.2578 72.3945 11.3906C72.1914 11.5234 71.8789 11.5898 71.457 11.5898C71.1602 11.5898 70.9062 11.4688 70.6953 11.2266C70.4844 10.9766 70.3789 10.6172 70.3789 10.1484C70.3789 9.4922 70.5742 8.89845 70.9648 8.3672C71.3477 7.82813 71.8906 7.37109 72.5938 6.99609C73.2969 6.61328 74.1445 6.31641 75.1367 6.10547C76.1289 5.89453 77.2305 5.78906 78.4414 5.78906C79.3086 5.78906 80.1094 5.88672 80.8438 6.08203C81.5781 6.26953 82.2109 6.53516 82.7422 6.87891C83.2812 7.21484 83.7031 7.6172 84.0078 8.08595C84.3125 8.54689 84.4648 9.05078 84.4648 9.59766C84.4648 10.2148 84.2852 10.8047 83.9258 11.3672C83.5664 11.9297 83.0703 12.4453 82.4375 12.9141C81.8125 13.3828 81.0742 13.793 80.2227 14.1445C79.3711 14.4883 78.457 14.7578 77.4805 14.9531C77.207 15 77.0703 15.168 77.0703 15.457C77.0703 15.6523 77.082 15.8984 77.1055 16.1953C77.1367 16.4844 77.1641 16.7891 77.1875 17.1094C77.2188 17.4297 77.2461 17.7461 77.2695 18.0586C77.3008 18.3711 77.3164 18.6484 77.3164 18.8906C77.3164 19.3281 77.2148 19.6406 77.0117 19.8281C76.8086 20.0156 76.5078 20.1094 76.1094 20.1094C75.7344 20.1094 75.4414 20.043 75.2305 19.9102C75.0195 19.7852 74.9141 19.5977 74.9141 19.3477ZM82.0391 9.9375C82.0391 9.67188 81.9258 9.41798 81.6992 9.17579C81.4727 8.9336 81.168 8.71875 80.7852 8.53125C80.4023 8.34375 79.957 8.19532 79.4492 8.08595C78.9492 7.97657 78.4219 7.92188 77.8672 7.92188C77.5938 7.92188 77.3633 7.93359 77.1758 7.95703C76.9961 7.97266 76.8516 8.00392 76.7422 8.05079C76.6328 8.09767 76.5547 8.16017 76.5078 8.23829C76.4688 8.3086 76.4492 8.40235 76.4492 8.51954C76.4492 8.59767 76.4609 8.78125 76.4844 9.07031C76.5078 9.35156 76.5391 9.67969 76.5781 10.0547C76.6172 10.4297 76.6562 10.8242 76.6953 11.2383C76.7422 11.6445 76.7891 12.0117 76.8359 12.3398C76.8594 12.582 76.8906 12.7422 76.9297 12.8203C76.9766 12.8984 77.0469 12.9375 77.1406 12.9375C77.4062 12.9375 77.7109 12.8945 78.0547 12.8086C78.3984 12.7148 78.75 12.5938 79.1094 12.4453C79.4766 12.2891 79.832 12.1133 80.1758 11.918C80.5273 11.7148 80.8398 11.5039 81.1133 11.2852C81.3945 11.0586 81.6172 10.832 81.7812 10.6055C81.9531 10.3711 82.0391 10.1484 82.0391 9.9375ZM100.815 13.8984C100.596 13.8984 100.416 13.8086 100.276 13.6289C100.135 13.4414 100.065 13.1719 100.065 12.8203C100.065 12.5078 100.205 12.2734 100.487 12.1172C100.768 11.9609 101.245 11.8516 101.916 11.7891C102.135 11.7656 102.42 11.7344 102.772 11.6953C103.131 11.6484 103.495 11.6055 103.862 11.5664C104.237 11.5195 104.588 11.4805 104.916 11.4492C105.252 11.418 105.514 11.4023 105.702 11.4023C105.991 11.4023 106.213 11.4883 106.37 11.6602C106.534 11.832 106.616 12.1367 106.616 12.5742C106.616 13.0273 106.166 13.3008 105.268 13.3945C105.151 13.4102 104.975 13.4336 104.741 13.4648C104.514 13.4883 104.256 13.5195 103.967 13.5586C103.678 13.5977 103.373 13.6367 103.053 13.6758C102.741 13.7148 102.44 13.75 102.151 13.7812C101.862 13.8125 101.596 13.8398 101.354 13.8633C101.12 13.8867 100.94 13.8984 100.815 13.8984ZM115.002 17.2031C114.861 17.3516 114.709 17.4258 114.545 17.4258C114.396 17.4258 114.252 17.3711 114.111 17.2617L113.466 16.7812C113.295 16.625 113.209 16.4727 113.209 16.3242C113.209 16.1758 113.279 16.0312 113.42 15.8906C113.662 15.6484 113.923 15.3789 114.205 15.082C114.486 14.7773 114.763 14.4609 115.037 14.1328C115.31 13.8047 115.568 13.4727 115.81 13.1367C116.052 12.8008 116.255 12.4688 116.42 12.1406C116.459 12.0781 116.482 12.0195 116.49 11.9648C116.505 11.9102 116.513 11.8594 116.513 11.8125C116.513 11.6641 116.435 11.5078 116.279 11.3438C116.13 11.1797 115.935 11.0156 115.693 10.8516C115.451 10.6875 115.173 10.5273 114.861 10.3711C114.556 10.207 114.248 10.0586 113.935 9.92579C113.623 9.78517 113.322 9.66017 113.033 9.55079C112.744 9.4336 112.498 9.33985 112.295 9.26954C112.021 9.16017 111.884 9.00781 111.884 8.8125C111.884 8.73438 111.923 8.60548 112.002 8.42579C112.088 8.2461 112.193 8.0625 112.318 7.875C112.443 7.6875 112.58 7.52344 112.728 7.38281C112.884 7.24219 113.029 7.17188 113.162 7.17188C113.201 7.17188 113.24 7.17578 113.279 7.18359C113.326 7.18359 113.373 7.19531 113.42 7.21875C113.841 7.36719 114.259 7.53516 114.673 7.72266C115.088 7.91016 115.502 8.11329 115.916 8.33204C116.197 8.47267 116.517 8.64063 116.877 8.83595C117.244 9.03126 117.588 9.25001 117.908 9.4922C118.228 9.73439 118.498 10.0039 118.716 10.3008C118.943 10.5898 119.056 10.9102 119.056 11.2617C119.056 11.6758 118.916 12.1406 118.634 12.6562C118.361 13.1719 118.017 13.6992 117.603 14.2383C117.197 14.7773 116.759 15.3047 116.291 15.8203C115.822 16.3359 115.392 16.7969 115.002 17.2031ZM142.906 13.3945C142.859 13.2461 142.836 13.1094 142.836 12.9844C142.836 12.6172 143.035 12.3359 143.434 12.1406C143.598 12.0625 143.734 12 143.844 11.9531C143.953 11.8984 144.043 11.8594 144.113 11.8359C144.191 11.8047 144.254 11.7852 144.301 11.7773C144.348 11.7695 144.395 11.7656 144.441 11.7656C144.621 11.7656 144.777 11.8555 144.91 12.0352C145.043 12.207 145.16 12.4297 145.262 12.7031C145.371 12.9688 145.465 13.2578 145.543 13.5703C145.629 13.875 145.715 14.1641 145.801 14.4375C145.895 14.7031 145.992 14.9258 146.094 15.1055C146.203 15.2773 146.332 15.3633 146.48 15.3633C146.645 15.3633 146.805 15.2891 146.961 15.1406C147.125 14.9844 147.273 14.7891 147.406 14.5547C147.539 14.3203 147.645 14.0664 147.723 13.793C147.809 13.5195 147.852 13.2578 147.852 13.0078C147.852 12.2109 147.699 11.5 147.395 10.875C147.09 10.2422 146.695 9.70704 146.211 9.26954C145.727 8.83204 145.176 8.50001 144.559 8.27345C143.949 8.03907 143.34 7.92188 142.73 7.92188C142.004 7.92188 141.406 8.00782 140.938 8.1797C140.469 8.35157 140.098 8.60157 139.824 8.9297C139.559 9.25001 139.371 9.64454 139.262 10.1133C139.16 10.582 139.109 11.1133 139.109 11.707C139.109 12.1602 139.195 12.6055 139.367 13.043C139.539 13.4727 139.789 13.8711 140.117 14.2383C140.445 14.6055 140.848 14.9297 141.324 15.2109C141.801 15.4922 142.344 15.7031 142.953 15.8438C142.992 15.8594 143.023 15.8672 143.047 15.8672C143.07 15.8672 143.102 15.8672 143.141 15.8672C143.266 15.8672 143.363 15.8281 143.434 15.75C143.512 15.6719 143.551 15.5742 143.551 15.457C143.551 15.418 143.547 15.3828 143.539 15.3516C143.531 15.3125 143.52 15.2656 143.504 15.2109L142.906 13.3945ZM136.684 11.7891C136.684 11.7031 136.688 11.5977 136.695 11.4727C136.703 11.3477 136.707 11.2188 136.707 11.0859C136.707 10.9609 136.699 10.8359 136.684 10.7109C136.668 10.5859 136.637 10.4727 136.59 10.3711C136.551 10.2617 136.492 10.1719 136.414 10.1016C136.336 10.0234 136.234 9.97657 136.109 9.96095C135.969 9.94532 135.852 9.89062 135.758 9.79688C135.672 9.69531 135.629 9.57422 135.629 9.43359C135.629 9.22266 135.703 9.01562 135.852 8.8125C136.211 8.26562 136.645 7.80078 137.152 7.41797C137.668 7.02734 138.23 6.71094 138.84 6.46875C139.449 6.22656 140.09 6.05078 140.762 5.94141C141.434 5.82422 142.109 5.76562 142.789 5.76562C143.336 5.76562 143.898 5.83203 144.477 5.96484C145.055 6.08984 145.617 6.28125 146.164 6.53906C146.719 6.79688 147.242 7.11328 147.734 7.48828C148.227 7.86328 148.656 8.30079 149.023 8.80079C149.391 9.29298 149.68 9.84375 149.891 10.4531C150.109 11.0547 150.219 11.7148 150.219 12.4336C150.219 13.0352 150.148 13.5859 150.008 14.0859C149.867 14.5859 149.668 15.0391 149.41 15.4453C149.16 15.8516 148.855 16.2148 148.496 16.5352C148.137 16.8477 147.738 17.1133 147.301 17.332C147.043 17.4414 146.914 17.6172 146.914 17.8594C146.914 17.8828 146.914 17.9102 146.914 17.9414C146.914 17.9648 146.918 17.9883 146.926 18.0117C146.926 18.043 146.93 18.0703 146.938 18.0938C146.977 18.3047 147.027 18.5625 147.09 18.8672C147.16 19.1797 147.227 19.5 147.289 19.8281C147.359 20.1641 147.418 20.4844 147.465 20.7891C147.512 21.1016 147.535 21.3633 147.535 21.5742C147.535 22.0586 147.262 22.3633 146.715 22.4883C146.551 22.5273 146.395 22.5547 146.246 22.5703C146.098 22.5938 146 22.6055 145.953 22.6055C145.477 22.6055 145.203 22.3281 145.133 21.7734C145.062 21.2344 144.973 20.707 144.863 20.1914C144.762 19.6758 144.652 19.1602 144.535 18.6445C144.488 18.4648 144.422 18.3359 144.336 18.2578C144.258 18.1797 144.164 18.1406 144.055 18.1406H143.715C142.676 18.1406 141.727 17.9727 140.867 17.6367C140.008 17.293 139.266 16.832 138.641 16.2539C138.023 15.668 137.543 14.9922 137.199 14.2266C136.855 13.4609 136.684 12.6484 136.684 11.7891Z" fill="black"/>
<path d="M209.875 145.395C209.828 145.246 209.805 145.109 209.805 144.984C209.805 144.617 210.004 144.336 210.402 144.141C210.566 144.062 210.703 144 210.812 143.953C210.922 143.898 211.012 143.859 211.082 143.836C211.16 143.805 211.223 143.785 211.27 143.777C211.316 143.77 211.363 143.766 211.41 143.766C211.59 143.766 211.746 143.855 211.879 144.035C212.012 144.207 212.129 144.43 212.23 144.703C212.34 144.969 212.434 145.258 212.512 145.57C212.598 145.875 212.684 146.164 212.77 146.438C212.863 146.703 212.961 146.926 213.062 147.105C213.172 147.277 213.301 147.363 213.449 147.363C213.613 147.363 213.773 147.289 213.93 147.141C214.094 146.984 214.242 146.789 214.375 146.555C214.508 146.32 214.613 146.066 214.691 145.793C214.777 145.52 214.82 145.258 214.82 145.008C214.82 144.211 214.668 143.5 214.363 142.875C214.059 142.242 213.664 141.707 213.18 141.27C212.695 140.832 212.145 140.5 211.527 140.273C210.918 140.039 210.309 139.922 209.699 139.922C208.973 139.922 208.375 140.008 207.906 140.18C207.438 140.352 207.066 140.602 206.793 140.93C206.527 141.25 206.34 141.645 206.23 142.113C206.129 142.582 206.078 143.113 206.078 143.707C206.078 144.16 206.164 144.605 206.336 145.043C206.508 145.473 206.758 145.871 207.086 146.238C207.414 146.605 207.816 146.93 208.293 147.211C208.77 147.492 209.312 147.703 209.922 147.844C209.961 147.859 209.992 147.867 210.016 147.867C210.039 147.867 210.07 147.867 210.109 147.867C210.234 147.867 210.332 147.828 210.402 147.75C210.48 147.672 210.52 147.574 210.52 147.457C210.52 147.418 210.516 147.383 210.508 147.352C210.5 147.312 210.488 147.266 210.473 147.211L209.875 145.395ZM203.652 143.789C203.652 143.703 203.656 143.598 203.664 143.473C203.672 143.348 203.676 143.219 203.676 143.086C203.676 142.961 203.668 142.836 203.652 142.711C203.637 142.586 203.605 142.473 203.559 142.371C203.52 142.262 203.461 142.172 203.383 142.102C203.305 142.023 203.203 141.977 203.078 141.961C202.938 141.945 202.82 141.891 202.727 141.797C202.641 141.695 202.598 141.574 202.598 141.434C202.598 141.223 202.672 141.016 202.82 140.812C203.18 140.266 203.613 139.801 204.121 139.418C204.637 139.027 205.199 138.711 205.809 138.469C206.418 138.227 207.059 138.051 207.73 137.941C208.402 137.824 209.078 137.766 209.758 137.766C210.305 137.766 210.867 137.832 211.445 137.965C212.023 138.09 212.586 138.281 213.133 138.539C213.688 138.797 214.211 139.113 214.703 139.488C215.195 139.863 215.625 140.301 215.992 140.801C216.359 141.293 216.648 141.844 216.859 142.453C217.078 143.055 217.188 143.715 217.188 144.434C217.188 145.035 217.117 145.586 216.977 146.086C216.836 146.586 216.637 147.039 216.379 147.445C216.129 147.852 215.824 148.215 215.465 148.535C215.105 148.848 214.707 149.113 214.27 149.332C214.012 149.441 213.883 149.617 213.883 149.859C213.883 149.883 213.883 149.91 213.883 149.941C213.883 149.965 213.887 149.988 213.895 150.012C213.895 150.043 213.898 150.07 213.906 150.094C213.945 150.305 213.996 150.562 214.059 150.867C214.129 151.18 214.195 151.5 214.258 151.828C214.328 152.164 214.387 152.484 214.434 152.789C214.48 153.102 214.504 153.363 214.504 153.574C214.504 154.059 214.23 154.363 213.684 154.488C213.52 154.527 213.363 154.555 213.215 154.57C213.066 154.594 212.969 154.605 212.922 154.605C212.445 154.605 212.172 154.328 212.102 153.773C212.031 153.234 211.941 152.707 211.832 152.191C211.73 151.676 211.621 151.16 211.504 150.645C211.457 150.465 211.391 150.336 211.305 150.258C211.227 150.18 211.133 150.141 211.023 150.141H210.684C209.645 150.141 208.695 149.973 207.836 149.637C206.977 149.293 206.234 148.832 205.609 148.254C204.992 147.668 204.512 146.992 204.168 146.227C203.824 145.461 203.652 144.648 203.652 143.789Z" fill="black"/>
<path d="M20.9141 152.348C20.9141 152.09 20.9023 151.754 20.8789 151.34C20.8633 150.926 20.8398 150.469 20.8086 149.969C20.7773 149.469 20.7422 148.938 20.7031 148.375C20.6641 147.812 20.6211 147.254 20.5742 146.699C20.5273 146.145 20.4805 145.609 20.4336 145.094C20.3945 144.57 20.3555 144.098 20.3164 143.676C20.2539 143.074 20.168 142.633 20.0586 142.352C19.9492 142.07 19.7695 141.93 19.5195 141.93C19.2852 141.93 19.1289 141.996 19.0508 142.129C18.9805 142.262 18.9375 142.426 18.9219 142.621C18.9141 142.816 18.9102 143.031 18.9102 143.266C18.918 143.492 18.8828 143.703 18.8047 143.898C18.7344 144.094 18.5977 144.258 18.3945 144.391C18.1914 144.523 17.8789 144.59 17.457 144.59C17.1602 144.59 16.9062 144.469 16.6953 144.227C16.4844 143.977 16.3789 143.617 16.3789 143.148C16.3789 142.492 16.5742 141.898 16.9648 141.367C17.3477 140.828 17.8906 140.371 18.5938 139.996C19.2969 139.613 20.1445 139.316 21.1367 139.105C22.1289 138.895 23.2305 138.789 24.4414 138.789C25.3086 138.789 26.1094 138.887 26.8438 139.082C27.5781 139.27 28.2109 139.535 28.7422 139.879C29.2812 140.215 29.7031 140.617 30.0078 141.086C30.3125 141.547 30.4648 142.051 30.4648 142.598C30.4648 143.215 30.2852 143.805 29.9258 144.367C29.5664 144.93 29.0703 145.445 28.4375 145.914C27.8125 146.383 27.0742 146.793 26.2227 147.145C25.3711 147.488 24.457 147.758 23.4805 147.953C23.207 148 23.0703 148.168 23.0703 148.457C23.0703 148.652 23.082 148.898 23.1055 149.195C23.1367 149.484 23.1641 149.789 23.1875 150.109C23.2188 150.43 23.2461 150.746 23.2695 151.059C23.3008 151.371 23.3164 151.648 23.3164 151.891C23.3164 152.328 23.2148 152.641 23.0117 152.828C22.8086 153.016 22.5078 153.109 22.1094 153.109C21.7344 153.109 21.4414 153.043 21.2305 152.91C21.0195 152.785 20.9141 152.598 20.9141 152.348ZM28.0391 142.938C28.0391 142.672 27.9258 142.418 27.6992 142.176C27.4727 141.934 27.168 141.719 26.7852 141.531C26.4023 141.344 25.957 141.195 25.4492 141.086C24.9492 140.977 24.4219 140.922 23.8672 140.922C23.5938 140.922 23.3633 140.934 23.1758 140.957C22.9961 140.973 22.8516 141.004 22.7422 141.051C22.6328 141.098 22.5547 141.16 22.5078 141.238C22.4688 141.309 22.4492 141.402 22.4492 141.52C22.4492 141.598 22.4609 141.781 22.4844 142.07C22.5078 142.352 22.5391 142.68 22.5781 143.055C22.6172 143.43 22.6562 143.824 22.6953 144.238C22.7422 144.645 22.7891 145.012 22.8359 145.34C22.8594 145.582 22.8906 145.742 22.9297 145.82C22.9766 145.898 23.0469 145.938 23.1406 145.938C23.4062 145.938 23.7109 145.895 24.0547 145.809C24.3984 145.715 24.75 145.594 25.1094 145.445C25.4766 145.289 25.832 145.113 26.1758 144.918C26.5273 144.715 26.8398 144.504 27.1133 144.285C27.3945 144.059 27.6172 143.832 27.7812 143.605C27.9531 143.371 28.0391 143.148 28.0391 142.938Z" fill="black"/>
<path d="M113.654 50.7568L25.6533 126.757" stroke="black" stroke-width="3" stroke-linecap="round"/>
<path d="M201.993 127.008L114 51" stroke="black" stroke-width="3" stroke-linecap="round"/>
</g>
</g>
<defs>
<clipPath id="clip0_98_38">
<rect width="222" height="161" fill="white"/>
</clipPath>
<clipPath id="clip1_98_38">
<rect width="222" height="161" fill="white"/>
</clipPath>
</defs>
</svg>
