<svg xmlns="http://www.w3.org/2000/svg" viewBox="0 0 48 48"><path d="M18.824,28.206a1.479,1.479,0,0,1,.413,1.075,1.454,1.454,0,0,1-1.5,1.5,1.411,1.411,0,0,1-1.062-.425,1.475,1.475,0,0,1-.413-1.075,1.455,1.455,0,0,1,1.5-1.5A1.415,1.415,0,0,1,18.824,28.206Zm3.663-9.75a1.432,1.432,0,0,1,.438-1.074,1.5,1.5,0,0,1,1.087-.426,1.422,1.422,0,0,1,1.038.438,1.5,1.5,0,1,1-2.563,1.062Zm8.825,11.9a1.456,1.456,0,0,1-1.075.425,1.411,1.411,0,0,1-1.062-.425,1.475,1.475,0,0,1-.413-1.075,1.455,1.455,0,0,1,1.5-1.5,1.428,1.428,0,0,1,1.05.425,1.572,1.572,0,0,1,0,2.15Z" style="fill:#404040"/></svg>