<svg width="432" height="268" viewBox="0 0 432 268" fill="none" xmlns="http://www.w3.org/2000/svg">
<line x1="68" y1="62.7456" x2="395" y2="62.7456" stroke="black" stroke-width="3"/>
<line y1="-1.5" x2="211.006" y2="-1.5" transform="matrix(-0.00732697 -0.999973 0.999987 -0.00513669 134.487 239)" stroke="black" stroke-width="3"/>
<line y1="-1.5" x2="211.006" y2="-1.5" transform="matrix(-0.00732697 -0.999973 0.999987 -0.00513669 202.512 239)" stroke="black" stroke-width="3"/>
<path d="M88.8926 52.6846C88.8926 52.3623 88.8779 51.9424 88.8486 51.4248C88.8291 50.9072 88.7998 50.3359 88.7607 49.7109C88.7217 49.0859 88.6777 48.4219 88.6289 47.7188C88.5801 47.0156 88.5264 46.3174 88.4678 45.624C88.4092 44.9307 88.3506 44.2617 88.292 43.6172C88.2432 42.9629 88.1943 42.3721 88.1455 41.8447C88.0674 41.0928 87.96 40.541 87.8232 40.1895C87.6865 39.8379 87.4619 39.6621 87.1494 39.6621C86.8564 39.6621 86.6611 39.7451 86.5635 39.9111C86.4756 40.0771 86.4219 40.2822 86.4023 40.5264C86.3926 40.7705 86.3877 41.0391 86.3877 41.332C86.3975 41.6152 86.3535 41.8789 86.2559 42.123C86.168 42.3672 85.9971 42.5723 85.7432 42.7383C85.4893 42.9043 85.0986 42.9873 84.5713 42.9873C84.2002 42.9873 83.8828 42.8359 83.6191 42.5332C83.3555 42.2207 83.2236 41.7715 83.2236 41.1855C83.2236 40.3652 83.4678 39.623 83.9561 38.959C84.4346 38.2852 85.1133 37.7139 85.9922 37.2451C86.8711 36.7666 87.9307 36.3955 89.1709 36.1318C90.4111 35.8682 91.7881 35.7363 93.3018 35.7363C94.3857 35.7363 95.3867 35.8584 96.3047 36.1025C97.2227 36.3369 98.0137 36.6689 98.6777 37.0986C99.3516 37.5186 99.8789 38.0215 100.26 38.6074C100.641 39.1836 100.831 39.8135 100.831 40.4971C100.831 41.2686 100.606 42.0059 100.157 42.709C99.708 43.4121 99.0879 44.0566 98.2969 44.6426C97.5156 45.2285 96.5928 45.7412 95.5283 46.1807C94.4639 46.6104 93.3213 46.9473 92.1006 47.1914C91.7588 47.25 91.5879 47.46 91.5879 47.8213C91.5879 48.0654 91.6025 48.373 91.6318 48.7441C91.6709 49.1055 91.7051 49.4863 91.7344 49.8867C91.7734 50.2871 91.8076 50.6826 91.8369 51.0732C91.876 51.4639 91.8955 51.8105 91.8955 52.1133C91.8955 52.6602 91.7686 53.0508 91.5146 53.2852C91.2607 53.5195 90.8848 53.6367 90.3867 53.6367C89.918 53.6367 89.5518 53.5537 89.2881 53.3877C89.0244 53.2314 88.8926 52.9971 88.8926 52.6846ZM97.7988 40.9219C97.7988 40.5898 97.6572 40.2725 97.374 39.9697C97.0908 39.667 96.71 39.3984 96.2314 39.1641C95.7529 38.9297 95.1963 38.7441 94.5615 38.6074C93.9365 38.4707 93.2773 38.4023 92.584 38.4023C92.2422 38.4023 91.9541 38.417 91.7197 38.4463C91.4951 38.4658 91.3145 38.5049 91.1777 38.5635C91.041 38.6221 90.9434 38.7002 90.8848 38.7979C90.8359 38.8857 90.8115 39.0029 90.8115 39.1494C90.8115 39.2471 90.8262 39.4766 90.8555 39.8379C90.8848 40.1895 90.9238 40.5996 90.9727 41.0684C91.0215 41.5371 91.0703 42.0303 91.1191 42.5479C91.1777 43.0557 91.2363 43.5146 91.2949 43.9248C91.3242 44.2275 91.3633 44.4277 91.4121 44.5254C91.4707 44.623 91.5586 44.6719 91.6758 44.6719C92.0078 44.6719 92.3887 44.6182 92.8184 44.5107C93.248 44.3936 93.6875 44.2422 94.1367 44.0566C94.5957 43.8613 95.04 43.6416 95.4697 43.3975C95.9092 43.1436 96.2998 42.8799 96.6416 42.6064C96.9932 42.3232 97.2715 42.04 97.4766 41.7568C97.6914 41.4639 97.7988 41.1855 97.7988 40.9219Z" fill="black"/>
<path d="M91.7793 92.8271C91.7012 92.8271 91.5498 92.8467 91.3252 92.8857C91.1104 92.915 90.8564 92.9541 90.5635 93.0029C90.2705 93.0518 89.9629 93.1104 89.6406 93.1787C89.3184 93.2373 89.0156 93.291 88.7324 93.3398C88.4492 93.3887 88.2051 93.4326 88 93.4717C87.7852 93.501 87.6436 93.5156 87.5752 93.5156C86.9209 93.5156 86.5938 93.1738 86.5938 92.4902C86.5938 92.3047 86.6133 92.124 86.6523 91.9482C86.6816 91.7627 86.7402 91.5967 86.8281 91.4502C86.916 91.2939 87.0332 91.1621 87.1797 91.0547C87.3262 90.9473 87.5117 90.874 87.7363 90.835C88.8789 90.6592 90.0166 90.4736 91.1494 90.2783C92.2822 90.083 93.4248 89.8779 94.5771 89.6631C94.8311 89.6143 95.0605 89.5703 95.2656 89.5312C95.4707 89.4824 95.7002 89.4189 95.9541 89.3408C96.2275 89.2627 96.5254 89.1895 96.8477 89.1211C97.1699 89.043 97.4922 88.9746 97.8145 88.916C98.1465 88.8574 98.4639 88.8086 98.7666 88.7695C99.0791 88.7305 99.3623 88.7109 99.6162 88.7109C99.9287 88.7109 100.163 88.8135 100.319 89.0186C100.485 89.2139 100.568 89.4922 100.568 89.8535C100.568 90.0391 100.554 90.2197 100.524 90.3955C100.495 90.5615 100.441 90.7129 100.363 90.8496C100.285 90.9863 100.178 91.0986 100.041 91.1865C99.9043 91.2744 99.7285 91.3281 99.5137 91.3477C98.957 91.4258 98.3613 91.5234 97.7266 91.6406C97.0918 91.748 96.54 91.8701 96.0713 92.0068C95.876 92.0654 95.7295 92.1631 95.6318 92.2998C95.5342 92.4268 95.4707 92.5879 95.4414 92.7832C95.4121 92.9688 95.3926 93.1592 95.3828 93.3545C95.3828 93.54 95.3828 93.7207 95.3828 93.8965C95.3828 94.3066 95.3975 94.7168 95.4268 95.127C95.4658 95.5371 95.5 95.9473 95.5293 96.3574C95.6172 97.7637 95.749 99.1553 95.9248 100.532C96.1104 101.909 96.3105 103.301 96.5254 104.707C96.5449 104.756 96.5547 104.805 96.5547 104.854C96.5547 104.902 96.5547 104.951 96.5547 105C96.5547 105.537 96.252 105.918 95.6465 106.143L94.9873 106.348C94.8115 106.406 94.6406 106.436 94.4746 106.436C94.2207 106.436 94.0156 106.353 93.8594 106.187C93.7031 106.03 93.6006 105.796 93.5518 105.483C93.2783 103.804 93.0391 102.134 92.834 100.474C92.6289 98.8037 92.4971 97.124 92.4385 95.4346C92.4189 95.1611 92.4043 94.8633 92.3945 94.541C92.3848 94.2188 92.3799 93.8867 92.3799 93.5449C92.3799 93.0664 92.1797 92.8271 91.7793 92.8271Z" fill="black"/>
<path d="M91.7793 134.827C91.7012 134.827 91.5498 134.847 91.3252 134.886C91.1104 134.915 90.8564 134.954 90.5635 135.003C90.2705 135.052 89.9629 135.11 89.6406 135.179C89.3184 135.237 89.0156 135.291 88.7324 135.34C88.4492 135.389 88.2051 135.433 88 135.472C87.7852 135.501 87.6436 135.516 87.5752 135.516C86.9209 135.516 86.5938 135.174 86.5938 134.49C86.5938 134.305 86.6133 134.124 86.6523 133.948C86.6816 133.763 86.7402 133.597 86.8281 133.45C86.916 133.294 87.0332 133.162 87.1797 133.055C87.3262 132.947 87.5117 132.874 87.7363 132.835C88.8789 132.659 90.0166 132.474 91.1494 132.278C92.2822 132.083 93.4248 131.878 94.5771 131.663C94.8311 131.614 95.0605 131.57 95.2656 131.531C95.4707 131.482 95.7002 131.419 95.9541 131.341C96.2275 131.263 96.5254 131.189 96.8477 131.121C97.1699 131.043 97.4922 130.975 97.8145 130.916C98.1465 130.857 98.4639 130.809 98.7666 130.77C99.0791 130.73 99.3623 130.711 99.6162 130.711C99.9287 130.711 100.163 130.813 100.319 131.019C100.485 131.214 100.568 131.492 100.568 131.854C100.568 132.039 100.554 132.22 100.524 132.396C100.495 132.562 100.441 132.713 100.363 132.85C100.285 132.986 100.178 133.099 100.041 133.187C99.9043 133.274 99.7285 133.328 99.5137 133.348C98.957 133.426 98.3613 133.523 97.7266 133.641C97.0918 133.748 96.54 133.87 96.0713 134.007C95.876 134.065 95.7295 134.163 95.6318 134.3C95.5342 134.427 95.4707 134.588 95.4414 134.783C95.4121 134.969 95.3926 135.159 95.3828 135.354C95.3828 135.54 95.3828 135.721 95.3828 135.896C95.3828 136.307 95.3975 136.717 95.4268 137.127C95.4658 137.537 95.5 137.947 95.5293 138.357C95.6172 139.764 95.749 141.155 95.9248 142.532C96.1104 143.909 96.3105 145.301 96.5254 146.707C96.5449 146.756 96.5547 146.805 96.5547 146.854C96.5547 146.902 96.5547 146.951 96.5547 147C96.5547 147.537 96.252 147.918 95.6465 148.143L94.9873 148.348C94.8115 148.406 94.6406 148.436 94.4746 148.436C94.2207 148.436 94.0156 148.353 93.8594 148.187C93.7031 148.03 93.6006 147.796 93.5518 147.483C93.2783 145.804 93.0391 144.134 92.834 142.474C92.6289 140.804 92.4971 139.124 92.4385 137.435C92.4189 137.161 92.4043 136.863 92.3945 136.541C92.3848 136.219 92.3799 135.887 92.3799 135.545C92.3799 135.066 92.1797 134.827 91.7793 134.827Z" fill="black"/>
<path d="M88.5156 171.292C88.3301 171.292 88.1152 171.326 87.8711 171.395C87.627 171.453 87.373 171.526 87.1094 171.614C86.8457 171.692 86.582 171.766 86.3184 171.834C86.0645 171.893 85.835 171.922 85.6299 171.922C85.415 171.922 85.2441 171.888 85.1172 171.819C85 171.741 84.9121 171.644 84.8535 171.526C84.7949 171.409 84.7607 171.282 84.751 171.146C84.7412 171.009 84.7363 170.877 84.7363 170.75C84.7363 170.379 84.8438 170.076 85.0586 169.842C85.2832 169.607 85.6006 169.412 86.0107 169.256C86.4209 169.09 86.9141 168.953 87.4902 168.846C88.0762 168.729 88.7354 168.602 89.4678 168.465C90.6201 168.25 91.6699 168.084 92.6172 167.967C93.5742 167.85 94.4824 167.767 95.3418 167.718C96.2109 167.659 97.0605 167.625 97.8906 167.615C98.7207 167.605 99.5947 167.601 100.513 167.601C100.786 167.601 101.001 167.635 101.157 167.703C101.313 167.771 101.426 167.859 101.494 167.967C101.572 168.074 101.616 168.196 101.626 168.333C101.646 168.47 101.655 168.606 101.655 168.743C101.655 168.899 101.631 169.07 101.582 169.256C101.543 169.432 101.47 169.598 101.362 169.754C101.265 169.9 101.128 170.022 100.952 170.12C100.786 170.218 100.581 170.267 100.337 170.267H99.165C98.6963 170.267 98.1982 170.271 97.6709 170.281C97.1436 170.281 96.6211 170.291 96.1035 170.311C95.5859 170.32 95.0879 170.34 94.6094 170.369C94.1406 170.398 93.7207 170.442 93.3496 170.501C92.9883 170.55 92.7002 170.613 92.4854 170.691C92.2705 170.77 92.1631 170.867 92.1631 170.984C92.1631 171.102 92.207 171.297 92.2949 171.57C92.3828 171.844 92.4902 172.142 92.6172 172.464C92.7441 172.776 92.8711 173.089 92.998 173.401C93.1348 173.704 93.2471 173.958 93.335 174.163C93.4131 174.329 93.501 174.441 93.5986 174.5C93.6963 174.559 93.8281 174.588 93.9941 174.588C94.3945 174.588 94.8047 174.563 95.2246 174.515C95.6445 174.466 96.0645 174.412 96.4844 174.354C96.9141 174.285 97.3389 174.227 97.7588 174.178C98.1885 174.129 98.6133 174.104 99.0332 174.104C99.2676 174.104 99.458 174.148 99.6045 174.236C99.7607 174.314 99.8828 174.417 99.9707 174.544C100.059 174.661 100.117 174.788 100.146 174.925C100.186 175.062 100.205 175.179 100.205 175.276C100.205 175.716 100.068 176.048 99.7949 176.272C99.5215 176.487 99.1504 176.648 98.6816 176.756C98.2129 176.863 97.666 176.937 97.041 176.976C96.4258 177.015 95.7715 177.068 95.0781 177.137L94.7266 177.166C94.5996 177.186 94.502 177.229 94.4336 177.298C94.3652 177.366 94.3311 177.454 94.3311 177.562C94.3311 177.591 94.3359 177.615 94.3457 177.635C94.3555 177.654 94.3604 177.679 94.3604 177.708C94.4482 178.03 94.5508 178.392 94.668 178.792C94.7852 179.183 94.8926 179.573 94.9902 179.964C95.0977 180.354 95.1855 180.726 95.2539 181.077C95.3223 181.429 95.3564 181.717 95.3564 181.941C95.3564 182.391 95.1855 182.732 94.8438 182.967C94.5117 183.201 94.0381 183.318 93.4229 183.318C93.1982 183.318 92.9785 183.265 92.7637 183.157C92.5586 183.06 92.4316 182.874 92.3828 182.601C92.2266 181.8 92.0508 181.019 91.8555 180.257C91.6602 179.485 91.4551 178.719 91.2402 177.957C91.1523 177.693 90.9814 177.562 90.7275 177.562C90.4346 177.562 90.1025 177.552 89.7314 177.532C89.3701 177.513 88.999 177.474 88.6182 177.415C88.2373 177.356 87.8662 177.283 87.5049 177.195C87.1533 177.098 86.8359 176.971 86.5527 176.814C86.2793 176.658 86.0547 176.473 85.8789 176.258C85.7129 176.043 85.6299 175.789 85.6299 175.496C85.6299 175.311 85.6738 175.13 85.7617 174.954C85.8496 174.769 85.9619 174.607 86.0986 174.471C86.2354 174.324 86.3818 174.207 86.5381 174.119C86.7041 174.031 86.8604 173.987 87.0068 173.987C87.1826 173.987 87.373 174.031 87.5781 174.119C87.7832 174.207 88.0029 174.305 88.2373 174.412C88.4717 174.52 88.7207 174.617 88.9844 174.705C89.2578 174.793 89.5508 174.837 89.8633 174.837C90.0195 174.837 90.0977 174.754 90.0977 174.588C90.0977 174.432 90.0684 174.227 90.0098 173.973C89.9609 173.719 89.8926 173.455 89.8047 173.182C89.7168 172.898 89.6143 172.625 89.4971 172.361C89.3896 172.088 89.2725 171.858 89.1455 171.673C89.0674 171.556 88.9844 171.463 88.8965 171.395C88.8184 171.326 88.6914 171.292 88.5156 171.292Z" fill="black"/>
<path d="M88.5156 206.292C88.3301 206.292 88.1152 206.326 87.8711 206.395C87.627 206.453 87.373 206.526 87.1094 206.614C86.8457 206.692 86.582 206.766 86.3184 206.834C86.0645 206.893 85.835 206.922 85.6299 206.922C85.415 206.922 85.2441 206.888 85.1172 206.819C85 206.741 84.9121 206.644 84.8535 206.526C84.7949 206.409 84.7607 206.282 84.751 206.146C84.7412 206.009 84.7363 205.877 84.7363 205.75C84.7363 205.379 84.8438 205.076 85.0586 204.842C85.2832 204.607 85.6006 204.412 86.0107 204.256C86.4209 204.09 86.9141 203.953 87.4902 203.846C88.0762 203.729 88.7354 203.602 89.4678 203.465C90.6201 203.25 91.6699 203.084 92.6172 202.967C93.5742 202.85 94.4824 202.767 95.3418 202.718C96.2109 202.659 97.0605 202.625 97.8906 202.615C98.7207 202.605 99.5947 202.601 100.513 202.601C100.786 202.601 101.001 202.635 101.157 202.703C101.313 202.771 101.426 202.859 101.494 202.967C101.572 203.074 101.616 203.196 101.626 203.333C101.646 203.47 101.655 203.606 101.655 203.743C101.655 203.899 101.631 204.07 101.582 204.256C101.543 204.432 101.47 204.598 101.362 204.754C101.265 204.9 101.128 205.022 100.952 205.12C100.786 205.218 100.581 205.267 100.337 205.267H99.165C98.6963 205.267 98.1982 205.271 97.6709 205.281C97.1436 205.281 96.6211 205.291 96.1035 205.311C95.5859 205.32 95.0879 205.34 94.6094 205.369C94.1406 205.398 93.7207 205.442 93.3496 205.501C92.9883 205.55 92.7002 205.613 92.4854 205.691C92.2705 205.77 92.1631 205.867 92.1631 205.984C92.1631 206.102 92.207 206.297 92.2949 206.57C92.3828 206.844 92.4902 207.142 92.6172 207.464C92.7441 207.776 92.8711 208.089 92.998 208.401C93.1348 208.704 93.2471 208.958 93.335 209.163C93.4131 209.329 93.501 209.441 93.5986 209.5C93.6963 209.559 93.8281 209.588 93.9941 209.588C94.3945 209.588 94.8047 209.563 95.2246 209.515C95.6445 209.466 96.0645 209.412 96.4844 209.354C96.9141 209.285 97.3389 209.227 97.7588 209.178C98.1885 209.129 98.6133 209.104 99.0332 209.104C99.2676 209.104 99.458 209.148 99.6045 209.236C99.7607 209.314 99.8828 209.417 99.9707 209.544C100.059 209.661 100.117 209.788 100.146 209.925C100.186 210.062 100.205 210.179 100.205 210.276C100.205 210.716 100.068 211.048 99.7949 211.272C99.5215 211.487 99.1504 211.648 98.6816 211.756C98.2129 211.863 97.666 211.937 97.041 211.976C96.4258 212.015 95.7715 212.068 95.0781 212.137L94.7266 212.166C94.5996 212.186 94.502 212.229 94.4336 212.298C94.3652 212.366 94.3311 212.454 94.3311 212.562C94.3311 212.591 94.3359 212.615 94.3457 212.635C94.3555 212.654 94.3604 212.679 94.3604 212.708C94.4482 213.03 94.5508 213.392 94.668 213.792C94.7852 214.183 94.8926 214.573 94.9902 214.964C95.0977 215.354 95.1855 215.726 95.2539 216.077C95.3223 216.429 95.3564 216.717 95.3564 216.941C95.3564 217.391 95.1855 217.732 94.8438 217.967C94.5117 218.201 94.0381 218.318 93.4229 218.318C93.1982 218.318 92.9785 218.265 92.7637 218.157C92.5586 218.06 92.4316 217.874 92.3828 217.601C92.2266 216.8 92.0508 216.019 91.8555 215.257C91.6602 214.485 91.4551 213.719 91.2402 212.957C91.1523 212.693 90.9814 212.562 90.7275 212.562C90.4346 212.562 90.1025 212.552 89.7314 212.532C89.3701 212.513 88.999 212.474 88.6182 212.415C88.2373 212.356 87.8662 212.283 87.5049 212.195C87.1533 212.098 86.8359 211.971 86.5527 211.814C86.2793 211.658 86.0547 211.473 85.8789 211.258C85.7129 211.043 85.6299 210.789 85.6299 210.496C85.6299 210.311 85.6738 210.13 85.7617 209.954C85.8496 209.769 85.9619 209.607 86.0986 209.471C86.2354 209.324 86.3818 209.207 86.5381 209.119C86.7041 209.031 86.8604 208.987 87.0068 208.987C87.1826 208.987 87.373 209.031 87.5781 209.119C87.7832 209.207 88.0029 209.305 88.2373 209.412C88.4717 209.52 88.7207 209.617 88.9844 209.705C89.2578 209.793 89.5508 209.837 89.8633 209.837C90.0195 209.837 90.0977 209.754 90.0977 209.588C90.0977 209.432 90.0684 209.227 90.0098 208.973C89.9609 208.719 89.8926 208.455 89.8047 208.182C89.7168 207.898 89.6143 207.625 89.4971 207.361C89.3896 207.088 89.2725 206.858 89.1455 206.673C89.0674 206.556 88.9844 206.463 88.8965 206.395C88.8184 206.326 88.6914 206.292 88.5156 206.292Z" fill="black"/>
<path d="M162.779 98.8271C162.701 98.8271 162.55 98.8467 162.325 98.8857C162.11 98.915 161.856 98.9541 161.563 99.0029C161.271 99.0518 160.963 99.1104 160.641 99.1787C160.318 99.2373 160.016 99.291 159.732 99.3398C159.449 99.3887 159.205 99.4326 159 99.4717C158.785 99.501 158.644 99.5156 158.575 99.5156C157.921 99.5156 157.594 99.1738 157.594 98.4902C157.594 98.3047 157.613 98.124 157.652 97.9482C157.682 97.7627 157.74 97.5967 157.828 97.4502C157.916 97.2939 158.033 97.1621 158.18 97.0547C158.326 96.9473 158.512 96.874 158.736 96.835C159.879 96.6592 161.017 96.4736 162.149 96.2783C163.282 96.083 164.425 95.8779 165.577 95.6631C165.831 95.6143 166.061 95.5703 166.266 95.5312C166.471 95.4824 166.7 95.4189 166.954 95.3408C167.228 95.2627 167.525 95.1895 167.848 95.1211C168.17 95.043 168.492 94.9746 168.814 94.916C169.146 94.8574 169.464 94.8086 169.767 94.7695C170.079 94.7305 170.362 94.7109 170.616 94.7109C170.929 94.7109 171.163 94.8135 171.319 95.0186C171.485 95.2139 171.568 95.4922 171.568 95.8535C171.568 96.0391 171.554 96.2197 171.524 96.3955C171.495 96.5615 171.441 96.7129 171.363 96.8496C171.285 96.9863 171.178 97.0986 171.041 97.1865C170.904 97.2744 170.729 97.3281 170.514 97.3477C169.957 97.4258 169.361 97.5234 168.727 97.6406C168.092 97.748 167.54 97.8701 167.071 98.0068C166.876 98.0654 166.729 98.1631 166.632 98.2998C166.534 98.4268 166.471 98.5879 166.441 98.7832C166.412 98.9688 166.393 99.1592 166.383 99.3545C166.383 99.54 166.383 99.7207 166.383 99.8965C166.383 100.307 166.397 100.717 166.427 101.127C166.466 101.537 166.5 101.947 166.529 102.357C166.617 103.764 166.749 105.155 166.925 106.532C167.11 107.909 167.311 109.301 167.525 110.707C167.545 110.756 167.555 110.805 167.555 110.854C167.555 110.902 167.555 110.951 167.555 111C167.555 111.537 167.252 111.918 166.646 112.143L165.987 112.348C165.812 112.406 165.641 112.436 165.475 112.436C165.221 112.436 165.016 112.353 164.859 112.187C164.703 112.03 164.601 111.796 164.552 111.483C164.278 109.804 164.039 108.134 163.834 106.474C163.629 104.804 163.497 103.124 163.438 101.435C163.419 101.161 163.404 100.863 163.395 100.541C163.385 100.219 163.38 99.8867 163.38 99.5449C163.38 99.0664 163.18 98.8271 162.779 98.8271Z" fill="black"/>
<path d="M162.516 140.292C162.33 140.292 162.115 140.326 161.871 140.395C161.627 140.453 161.373 140.526 161.109 140.614C160.846 140.692 160.582 140.766 160.318 140.834C160.064 140.893 159.835 140.922 159.63 140.922C159.415 140.922 159.244 140.888 159.117 140.819C159 140.741 158.912 140.644 158.854 140.526C158.795 140.409 158.761 140.282 158.751 140.146C158.741 140.009 158.736 139.877 158.736 139.75C158.736 139.379 158.844 139.076 159.059 138.842C159.283 138.607 159.601 138.412 160.011 138.256C160.421 138.09 160.914 137.953 161.49 137.846C162.076 137.729 162.735 137.602 163.468 137.465C164.62 137.25 165.67 137.084 166.617 136.967C167.574 136.85 168.482 136.767 169.342 136.718C170.211 136.659 171.061 136.625 171.891 136.615C172.721 136.605 173.595 136.601 174.513 136.601C174.786 136.601 175.001 136.635 175.157 136.703C175.313 136.771 175.426 136.859 175.494 136.967C175.572 137.074 175.616 137.196 175.626 137.333C175.646 137.47 175.655 137.606 175.655 137.743C175.655 137.899 175.631 138.07 175.582 138.256C175.543 138.432 175.47 138.598 175.362 138.754C175.265 138.9 175.128 139.022 174.952 139.12C174.786 139.218 174.581 139.267 174.337 139.267H173.165C172.696 139.267 172.198 139.271 171.671 139.281C171.144 139.281 170.621 139.291 170.104 139.311C169.586 139.32 169.088 139.34 168.609 139.369C168.141 139.398 167.721 139.442 167.35 139.501C166.988 139.55 166.7 139.613 166.485 139.691C166.271 139.77 166.163 139.867 166.163 139.984C166.163 140.102 166.207 140.297 166.295 140.57C166.383 140.844 166.49 141.142 166.617 141.464C166.744 141.776 166.871 142.089 166.998 142.401C167.135 142.704 167.247 142.958 167.335 143.163C167.413 143.329 167.501 143.441 167.599 143.5C167.696 143.559 167.828 143.588 167.994 143.588C168.395 143.588 168.805 143.563 169.225 143.515C169.645 143.466 170.064 143.412 170.484 143.354C170.914 143.285 171.339 143.227 171.759 143.178C172.188 143.129 172.613 143.104 173.033 143.104C173.268 143.104 173.458 143.148 173.604 143.236C173.761 143.314 173.883 143.417 173.971 143.544C174.059 143.661 174.117 143.788 174.146 143.925C174.186 144.062 174.205 144.179 174.205 144.276C174.205 144.716 174.068 145.048 173.795 145.272C173.521 145.487 173.15 145.648 172.682 145.756C172.213 145.863 171.666 145.937 171.041 145.976C170.426 146.015 169.771 146.068 169.078 146.137L168.727 146.166C168.6 146.186 168.502 146.229 168.434 146.298C168.365 146.366 168.331 146.454 168.331 146.562C168.331 146.591 168.336 146.615 168.346 146.635C168.355 146.654 168.36 146.679 168.36 146.708C168.448 147.03 168.551 147.392 168.668 147.792C168.785 148.183 168.893 148.573 168.99 148.964C169.098 149.354 169.186 149.726 169.254 150.077C169.322 150.429 169.356 150.717 169.356 150.941C169.356 151.391 169.186 151.732 168.844 151.967C168.512 152.201 168.038 152.318 167.423 152.318C167.198 152.318 166.979 152.265 166.764 152.157C166.559 152.06 166.432 151.874 166.383 151.601C166.227 150.8 166.051 150.019 165.855 149.257C165.66 148.485 165.455 147.719 165.24 146.957C165.152 146.693 164.981 146.562 164.728 146.562C164.435 146.562 164.103 146.552 163.731 146.532C163.37 146.513 162.999 146.474 162.618 146.415C162.237 146.356 161.866 146.283 161.505 146.195C161.153 146.098 160.836 145.971 160.553 145.814C160.279 145.658 160.055 145.473 159.879 145.258C159.713 145.043 159.63 144.789 159.63 144.496C159.63 144.311 159.674 144.13 159.762 143.954C159.85 143.769 159.962 143.607 160.099 143.471C160.235 143.324 160.382 143.207 160.538 143.119C160.704 143.031 160.86 142.987 161.007 142.987C161.183 142.987 161.373 143.031 161.578 143.119C161.783 143.207 162.003 143.305 162.237 143.412C162.472 143.52 162.721 143.617 162.984 143.705C163.258 143.793 163.551 143.837 163.863 143.837C164.02 143.837 164.098 143.754 164.098 143.588C164.098 143.432 164.068 143.227 164.01 142.973C163.961 142.719 163.893 142.455 163.805 142.182C163.717 141.898 163.614 141.625 163.497 141.361C163.39 141.088 163.272 140.858 163.146 140.673C163.067 140.556 162.984 140.463 162.896 140.395C162.818 140.326 162.691 140.292 162.516 140.292Z" fill="black"/>
<path d="M159.779 173.827C159.701 173.827 159.55 173.847 159.325 173.886C159.11 173.915 158.856 173.954 158.563 174.003C158.271 174.052 157.963 174.11 157.641 174.179C157.318 174.237 157.016 174.291 156.732 174.34C156.449 174.389 156.205 174.433 156 174.472C155.785 174.501 155.644 174.516 155.575 174.516C154.921 174.516 154.594 174.174 154.594 173.49C154.594 173.305 154.613 173.124 154.652 172.948C154.682 172.763 154.74 172.597 154.828 172.45C154.916 172.294 155.033 172.162 155.18 172.055C155.326 171.947 155.512 171.874 155.736 171.835C156.879 171.659 158.017 171.474 159.149 171.278C160.282 171.083 161.425 170.878 162.577 170.663C162.831 170.614 163.061 170.57 163.266 170.531C163.471 170.482 163.7 170.419 163.954 170.341C164.228 170.263 164.525 170.189 164.848 170.121C165.17 170.043 165.492 169.975 165.814 169.916C166.146 169.857 166.464 169.809 166.767 169.77C167.079 169.73 167.362 169.711 167.616 169.711C167.929 169.711 168.163 169.813 168.319 170.019C168.485 170.214 168.568 170.492 168.568 170.854C168.568 171.039 168.554 171.22 168.524 171.396C168.495 171.562 168.441 171.713 168.363 171.85C168.285 171.986 168.178 172.099 168.041 172.187C167.904 172.274 167.729 172.328 167.514 172.348C166.957 172.426 166.361 172.523 165.727 172.641C165.092 172.748 164.54 172.87 164.071 173.007C163.876 173.065 163.729 173.163 163.632 173.3C163.534 173.427 163.471 173.588 163.441 173.783C163.412 173.969 163.393 174.159 163.383 174.354C163.383 174.54 163.383 174.721 163.383 174.896C163.383 175.307 163.397 175.717 163.427 176.127C163.466 176.537 163.5 176.947 163.529 177.357C163.617 178.764 163.749 180.155 163.925 181.532C164.11 182.909 164.311 184.301 164.525 185.707C164.545 185.756 164.555 185.805 164.555 185.854C164.555 185.902 164.555 185.951 164.555 186C164.555 186.537 164.252 186.918 163.646 187.143L162.987 187.348C162.812 187.406 162.641 187.436 162.475 187.436C162.221 187.436 162.016 187.353 161.859 187.187C161.703 187.03 161.601 186.796 161.552 186.483C161.278 184.804 161.039 183.134 160.834 181.474C160.629 179.804 160.497 178.124 160.438 176.435C160.419 176.161 160.404 175.863 160.395 175.541C160.385 175.219 160.38 174.887 160.38 174.545C160.38 174.066 160.18 173.827 159.779 173.827Z" fill="black"/>
<path d="M159.516 210.292C159.33 210.292 159.115 210.326 158.871 210.395C158.627 210.453 158.373 210.526 158.109 210.614C157.846 210.692 157.582 210.766 157.318 210.834C157.064 210.893 156.835 210.922 156.63 210.922C156.415 210.922 156.244 210.888 156.117 210.819C156 210.741 155.912 210.644 155.854 210.526C155.795 210.409 155.761 210.282 155.751 210.146C155.741 210.009 155.736 209.877 155.736 209.75C155.736 209.379 155.844 209.076 156.059 208.842C156.283 208.607 156.601 208.412 157.011 208.256C157.421 208.09 157.914 207.953 158.49 207.846C159.076 207.729 159.735 207.602 160.468 207.465C161.62 207.25 162.67 207.084 163.617 206.967C164.574 206.85 165.482 206.767 166.342 206.718C167.211 206.659 168.061 206.625 168.891 206.615C169.721 206.605 170.595 206.601 171.513 206.601C171.786 206.601 172.001 206.635 172.157 206.703C172.313 206.771 172.426 206.859 172.494 206.967C172.572 207.074 172.616 207.196 172.626 207.333C172.646 207.47 172.655 207.606 172.655 207.743C172.655 207.899 172.631 208.07 172.582 208.256C172.543 208.432 172.47 208.598 172.362 208.754C172.265 208.9 172.128 209.022 171.952 209.12C171.786 209.218 171.581 209.267 171.337 209.267H170.165C169.696 209.267 169.198 209.271 168.671 209.281C168.144 209.281 167.621 209.291 167.104 209.311C166.586 209.32 166.088 209.34 165.609 209.369C165.141 209.398 164.721 209.442 164.35 209.501C163.988 209.55 163.7 209.613 163.485 209.691C163.271 209.77 163.163 209.867 163.163 209.984C163.163 210.102 163.207 210.297 163.295 210.57C163.383 210.844 163.49 211.142 163.617 211.464C163.744 211.776 163.871 212.089 163.998 212.401C164.135 212.704 164.247 212.958 164.335 213.163C164.413 213.329 164.501 213.441 164.599 213.5C164.696 213.559 164.828 213.588 164.994 213.588C165.395 213.588 165.805 213.563 166.225 213.515C166.645 213.466 167.064 213.412 167.484 213.354C167.914 213.285 168.339 213.227 168.759 213.178C169.188 213.129 169.613 213.104 170.033 213.104C170.268 213.104 170.458 213.148 170.604 213.236C170.761 213.314 170.883 213.417 170.971 213.544C171.059 213.661 171.117 213.788 171.146 213.925C171.186 214.062 171.205 214.179 171.205 214.276C171.205 214.716 171.068 215.048 170.795 215.272C170.521 215.487 170.15 215.648 169.682 215.756C169.213 215.863 168.666 215.937 168.041 215.976C167.426 216.015 166.771 216.068 166.078 216.137L165.727 216.166C165.6 216.186 165.502 216.229 165.434 216.298C165.365 216.366 165.331 216.454 165.331 216.562C165.331 216.591 165.336 216.615 165.346 216.635C165.355 216.654 165.36 216.679 165.36 216.708C165.448 217.03 165.551 217.392 165.668 217.792C165.785 218.183 165.893 218.573 165.99 218.964C166.098 219.354 166.186 219.726 166.254 220.077C166.322 220.429 166.356 220.717 166.356 220.941C166.356 221.391 166.186 221.732 165.844 221.967C165.512 222.201 165.038 222.318 164.423 222.318C164.198 222.318 163.979 222.265 163.764 222.157C163.559 222.06 163.432 221.874 163.383 221.601C163.227 220.8 163.051 220.019 162.855 219.257C162.66 218.485 162.455 217.719 162.24 216.957C162.152 216.693 161.981 216.562 161.728 216.562C161.435 216.562 161.103 216.552 160.731 216.532C160.37 216.513 159.999 216.474 159.618 216.415C159.237 216.356 158.866 216.283 158.505 216.195C158.153 216.098 157.836 215.971 157.553 215.814C157.279 215.658 157.055 215.473 156.879 215.258C156.713 215.043 156.63 214.789 156.63 214.496C156.63 214.311 156.674 214.13 156.762 213.954C156.85 213.769 156.962 213.607 157.099 213.471C157.235 213.324 157.382 213.207 157.538 213.119C157.704 213.031 157.86 212.987 158.007 212.987C158.183 212.987 158.373 213.031 158.578 213.119C158.783 213.207 159.003 213.305 159.237 213.412C159.472 213.52 159.721 213.617 159.984 213.705C160.258 213.793 160.551 213.837 160.863 213.837C161.02 213.837 161.098 213.754 161.098 213.588C161.098 213.432 161.068 213.227 161.01 212.973C160.961 212.719 160.893 212.455 160.805 212.182C160.717 211.898 160.614 211.625 160.497 211.361C160.39 211.088 160.272 210.858 160.146 210.673C160.067 210.556 159.984 210.463 159.896 210.395C159.818 210.326 159.691 210.292 159.516 210.292Z" fill="black"/>
<path d="M294.779 99.8271C294.701 99.8271 294.55 99.8467 294.325 99.8857C294.11 99.915 293.856 99.9541 293.563 100.003C293.271 100.052 292.963 100.11 292.641 100.179C292.318 100.237 292.016 100.291 291.732 100.34C291.449 100.389 291.205 100.433 291 100.472C290.785 100.501 290.644 100.516 290.575 100.516C289.921 100.516 289.594 100.174 289.594 99.4902C289.594 99.3047 289.613 99.124 289.652 98.9482C289.682 98.7627 289.74 98.5967 289.828 98.4502C289.916 98.2939 290.033 98.1621 290.18 98.0547C290.326 97.9473 290.512 97.874 290.736 97.835C291.879 97.6592 293.017 97.4736 294.149 97.2783C295.282 97.083 296.425 96.8779 297.577 96.6631C297.831 96.6143 298.061 96.5703 298.266 96.5312C298.471 96.4824 298.7 96.4189 298.954 96.3408C299.228 96.2627 299.525 96.1895 299.848 96.1211C300.17 96.043 300.492 95.9746 300.814 95.916C301.146 95.8574 301.464 95.8086 301.767 95.7695C302.079 95.7305 302.362 95.7109 302.616 95.7109C302.929 95.7109 303.163 95.8135 303.319 96.0186C303.485 96.2139 303.568 96.4922 303.568 96.8535C303.568 97.0391 303.554 97.2197 303.524 97.3955C303.495 97.5615 303.441 97.7129 303.363 97.8496C303.285 97.9863 303.178 98.0986 303.041 98.1865C302.904 98.2744 302.729 98.3281 302.514 98.3477C301.957 98.4258 301.361 98.5234 300.727 98.6406C300.092 98.748 299.54 98.8701 299.071 99.0068C298.876 99.0654 298.729 99.1631 298.632 99.2998C298.534 99.4268 298.471 99.5879 298.441 99.7832C298.412 99.9688 298.393 100.159 298.383 100.354C298.383 100.54 298.383 100.721 298.383 100.896C298.383 101.307 298.397 101.717 298.427 102.127C298.466 102.537 298.5 102.947 298.529 103.357C298.617 104.764 298.749 106.155 298.925 107.532C299.11 108.909 299.311 110.301 299.525 111.707C299.545 111.756 299.555 111.805 299.555 111.854C299.555 111.902 299.555 111.951 299.555 112C299.555 112.537 299.252 112.918 298.646 113.143L297.987 113.348C297.812 113.406 297.641 113.436 297.475 113.436C297.221 113.436 297.016 113.353 296.859 113.187C296.703 113.03 296.601 112.796 296.552 112.483C296.278 110.804 296.039 109.134 295.834 107.474C295.629 105.804 295.497 104.124 295.438 102.435C295.419 102.161 295.404 101.863 295.395 101.541C295.385 101.219 295.38 100.887 295.38 100.545C295.38 100.066 295.18 99.8271 294.779 99.8271Z" fill="black"/>
<path d="M294.516 140.292C294.33 140.292 294.115 140.326 293.871 140.395C293.627 140.453 293.373 140.526 293.109 140.614C292.846 140.692 292.582 140.766 292.318 140.834C292.064 140.893 291.835 140.922 291.63 140.922C291.415 140.922 291.244 140.888 291.117 140.819C291 140.741 290.912 140.644 290.854 140.526C290.795 140.409 290.761 140.282 290.751 140.146C290.741 140.009 290.736 139.877 290.736 139.75C290.736 139.379 290.844 139.076 291.059 138.842C291.283 138.607 291.601 138.412 292.011 138.256C292.421 138.09 292.914 137.953 293.49 137.846C294.076 137.729 294.735 137.602 295.468 137.465C296.62 137.25 297.67 137.084 298.617 136.967C299.574 136.85 300.482 136.767 301.342 136.718C302.211 136.659 303.061 136.625 303.891 136.615C304.721 136.605 305.595 136.601 306.513 136.601C306.786 136.601 307.001 136.635 307.157 136.703C307.313 136.771 307.426 136.859 307.494 136.967C307.572 137.074 307.616 137.196 307.626 137.333C307.646 137.47 307.655 137.606 307.655 137.743C307.655 137.899 307.631 138.07 307.582 138.256C307.543 138.432 307.47 138.598 307.362 138.754C307.265 138.9 307.128 139.022 306.952 139.12C306.786 139.218 306.581 139.267 306.337 139.267H305.165C304.696 139.267 304.198 139.271 303.671 139.281C303.144 139.281 302.621 139.291 302.104 139.311C301.586 139.32 301.088 139.34 300.609 139.369C300.141 139.398 299.721 139.442 299.35 139.501C298.988 139.55 298.7 139.613 298.485 139.691C298.271 139.77 298.163 139.867 298.163 139.984C298.163 140.102 298.207 140.297 298.295 140.57C298.383 140.844 298.49 141.142 298.617 141.464C298.744 141.776 298.871 142.089 298.998 142.401C299.135 142.704 299.247 142.958 299.335 143.163C299.413 143.329 299.501 143.441 299.599 143.5C299.696 143.559 299.828 143.588 299.994 143.588C300.395 143.588 300.805 143.563 301.225 143.515C301.645 143.466 302.064 143.412 302.484 143.354C302.914 143.285 303.339 143.227 303.759 143.178C304.188 143.129 304.613 143.104 305.033 143.104C305.268 143.104 305.458 143.148 305.604 143.236C305.761 143.314 305.883 143.417 305.971 143.544C306.059 143.661 306.117 143.788 306.146 143.925C306.186 144.062 306.205 144.179 306.205 144.276C306.205 144.716 306.068 145.048 305.795 145.272C305.521 145.487 305.15 145.648 304.682 145.756C304.213 145.863 303.666 145.937 303.041 145.976C302.426 146.015 301.771 146.068 301.078 146.137L300.727 146.166C300.6 146.186 300.502 146.229 300.434 146.298C300.365 146.366 300.331 146.454 300.331 146.562C300.331 146.591 300.336 146.615 300.346 146.635C300.355 146.654 300.36 146.679 300.36 146.708C300.448 147.03 300.551 147.392 300.668 147.792C300.785 148.183 300.893 148.573 300.99 148.964C301.098 149.354 301.186 149.726 301.254 150.077C301.322 150.429 301.356 150.717 301.356 150.941C301.356 151.391 301.186 151.732 300.844 151.967C300.512 152.201 300.038 152.318 299.423 152.318C299.198 152.318 298.979 152.265 298.764 152.157C298.559 152.06 298.432 151.874 298.383 151.601C298.227 150.8 298.051 150.019 297.855 149.257C297.66 148.485 297.455 147.719 297.24 146.957C297.152 146.693 296.981 146.562 296.728 146.562C296.435 146.562 296.103 146.552 295.731 146.532C295.37 146.513 294.999 146.474 294.618 146.415C294.237 146.356 293.866 146.283 293.505 146.195C293.153 146.098 292.836 145.971 292.553 145.814C292.279 145.658 292.055 145.473 291.879 145.258C291.713 145.043 291.63 144.789 291.63 144.496C291.63 144.311 291.674 144.13 291.762 143.954C291.85 143.769 291.962 143.607 292.099 143.471C292.235 143.324 292.382 143.207 292.538 143.119C292.704 143.031 292.86 142.987 293.007 142.987C293.183 142.987 293.373 143.031 293.578 143.119C293.783 143.207 294.003 143.305 294.237 143.412C294.472 143.52 294.721 143.617 294.984 143.705C295.258 143.793 295.551 143.837 295.863 143.837C296.02 143.837 296.098 143.754 296.098 143.588C296.098 143.432 296.068 143.227 296.01 142.973C295.961 142.719 295.893 142.455 295.805 142.182C295.717 141.898 295.614 141.625 295.497 141.361C295.39 141.088 295.272 140.858 295.146 140.673C295.067 140.556 294.984 140.463 294.896 140.395C294.818 140.326 294.691 140.292 294.516 140.292Z" fill="black"/>
<path d="M294.516 175.292C294.33 175.292 294.115 175.326 293.871 175.395C293.627 175.453 293.373 175.526 293.109 175.614C292.846 175.692 292.582 175.766 292.318 175.834C292.064 175.893 291.835 175.922 291.63 175.922C291.415 175.922 291.244 175.888 291.117 175.819C291 175.741 290.912 175.644 290.854 175.526C290.795 175.409 290.761 175.282 290.751 175.146C290.741 175.009 290.736 174.877 290.736 174.75C290.736 174.379 290.844 174.076 291.059 173.842C291.283 173.607 291.601 173.412 292.011 173.256C292.421 173.09 292.914 172.953 293.49 172.846C294.076 172.729 294.735 172.602 295.468 172.465C296.62 172.25 297.67 172.084 298.617 171.967C299.574 171.85 300.482 171.767 301.342 171.718C302.211 171.659 303.061 171.625 303.891 171.615C304.721 171.605 305.595 171.601 306.513 171.601C306.786 171.601 307.001 171.635 307.157 171.703C307.313 171.771 307.426 171.859 307.494 171.967C307.572 172.074 307.616 172.196 307.626 172.333C307.646 172.47 307.655 172.606 307.655 172.743C307.655 172.899 307.631 173.07 307.582 173.256C307.543 173.432 307.47 173.598 307.362 173.754C307.265 173.9 307.128 174.022 306.952 174.12C306.786 174.218 306.581 174.267 306.337 174.267H305.165C304.696 174.267 304.198 174.271 303.671 174.281C303.144 174.281 302.621 174.291 302.104 174.311C301.586 174.32 301.088 174.34 300.609 174.369C300.141 174.398 299.721 174.442 299.35 174.501C298.988 174.55 298.7 174.613 298.485 174.691C298.271 174.77 298.163 174.867 298.163 174.984C298.163 175.102 298.207 175.297 298.295 175.57C298.383 175.844 298.49 176.142 298.617 176.464C298.744 176.776 298.871 177.089 298.998 177.401C299.135 177.704 299.247 177.958 299.335 178.163C299.413 178.329 299.501 178.441 299.599 178.5C299.696 178.559 299.828 178.588 299.994 178.588C300.395 178.588 300.805 178.563 301.225 178.515C301.645 178.466 302.064 178.412 302.484 178.354C302.914 178.285 303.339 178.227 303.759 178.178C304.188 178.129 304.613 178.104 305.033 178.104C305.268 178.104 305.458 178.148 305.604 178.236C305.761 178.314 305.883 178.417 305.971 178.544C306.059 178.661 306.117 178.788 306.146 178.925C306.186 179.062 306.205 179.179 306.205 179.276C306.205 179.716 306.068 180.048 305.795 180.272C305.521 180.487 305.15 180.648 304.682 180.756C304.213 180.863 303.666 180.937 303.041 180.976C302.426 181.015 301.771 181.068 301.078 181.137L300.727 181.166C300.6 181.186 300.502 181.229 300.434 181.298C300.365 181.366 300.331 181.454 300.331 181.562C300.331 181.591 300.336 181.615 300.346 181.635C300.355 181.654 300.36 181.679 300.36 181.708C300.448 182.03 300.551 182.392 300.668 182.792C300.785 183.183 300.893 183.573 300.99 183.964C301.098 184.354 301.186 184.726 301.254 185.077C301.322 185.429 301.356 185.717 301.356 185.941C301.356 186.391 301.186 186.732 300.844 186.967C300.512 187.201 300.038 187.318 299.423 187.318C299.198 187.318 298.979 187.265 298.764 187.157C298.559 187.06 298.432 186.874 298.383 186.601C298.227 185.8 298.051 185.019 297.855 184.257C297.66 183.485 297.455 182.719 297.24 181.957C297.152 181.693 296.981 181.562 296.728 181.562C296.435 181.562 296.103 181.552 295.731 181.532C295.37 181.513 294.999 181.474 294.618 181.415C294.237 181.356 293.866 181.283 293.505 181.195C293.153 181.098 292.836 180.971 292.553 180.814C292.279 180.658 292.055 180.473 291.879 180.258C291.713 180.043 291.63 179.789 291.63 179.496C291.63 179.311 291.674 179.13 291.762 178.954C291.85 178.769 291.962 178.607 292.099 178.471C292.235 178.324 292.382 178.207 292.538 178.119C292.704 178.031 292.86 177.987 293.007 177.987C293.183 177.987 293.373 178.031 293.578 178.119C293.783 178.207 294.003 178.305 294.237 178.412C294.472 178.52 294.721 178.617 294.984 178.705C295.258 178.793 295.551 178.837 295.863 178.837C296.02 178.837 296.098 178.754 296.098 178.588C296.098 178.432 296.068 178.227 296.01 177.973C295.961 177.719 295.893 177.455 295.805 177.182C295.717 176.898 295.614 176.625 295.497 176.361C295.39 176.088 295.272 175.858 295.146 175.673C295.067 175.556 294.984 175.463 294.896 175.395C294.818 175.326 294.691 175.292 294.516 175.292Z" fill="black"/>
<path d="M298.779 208.827C298.701 208.827 298.55 208.847 298.325 208.886C298.11 208.915 297.856 208.954 297.563 209.003C297.271 209.052 296.963 209.11 296.641 209.179C296.318 209.237 296.016 209.291 295.732 209.34C295.449 209.389 295.205 209.433 295 209.472C294.785 209.501 294.644 209.516 294.575 209.516C293.921 209.516 293.594 209.174 293.594 208.49C293.594 208.305 293.613 208.124 293.652 207.948C293.682 207.763 293.74 207.597 293.828 207.45C293.916 207.294 294.033 207.162 294.18 207.055C294.326 206.947 294.512 206.874 294.736 206.835C295.879 206.659 297.017 206.474 298.149 206.278C299.282 206.083 300.425 205.878 301.577 205.663C301.831 205.614 302.061 205.57 302.266 205.531C302.471 205.482 302.7 205.419 302.954 205.341C303.228 205.263 303.525 205.189 303.848 205.121C304.17 205.043 304.492 204.975 304.814 204.916C305.146 204.857 305.464 204.809 305.767 204.77C306.079 204.73 306.362 204.711 306.616 204.711C306.929 204.711 307.163 204.813 307.319 205.019C307.485 205.214 307.568 205.492 307.568 205.854C307.568 206.039 307.554 206.22 307.524 206.396C307.495 206.562 307.441 206.713 307.363 206.85C307.285 206.986 307.178 207.099 307.041 207.187C306.904 207.274 306.729 207.328 306.514 207.348C305.957 207.426 305.361 207.523 304.727 207.641C304.092 207.748 303.54 207.87 303.071 208.007C302.876 208.065 302.729 208.163 302.632 208.3C302.534 208.427 302.471 208.588 302.441 208.783C302.412 208.969 302.393 209.159 302.383 209.354C302.383 209.54 302.383 209.721 302.383 209.896C302.383 210.307 302.397 210.717 302.427 211.127C302.466 211.537 302.5 211.947 302.529 212.357C302.617 213.764 302.749 215.155 302.925 216.532C303.11 217.909 303.311 219.301 303.525 220.707C303.545 220.756 303.555 220.805 303.555 220.854C303.555 220.902 303.555 220.951 303.555 221C303.555 221.537 303.252 221.918 302.646 222.143L301.987 222.348C301.812 222.406 301.641 222.436 301.475 222.436C301.221 222.436 301.016 222.353 300.859 222.187C300.703 222.03 300.601 221.796 300.552 221.483C300.278 219.804 300.039 218.134 299.834 216.474C299.629 214.804 299.497 213.124 299.438 211.435C299.419 211.161 299.404 210.863 299.395 210.541C299.385 210.219 299.38 209.887 299.38 209.545C299.38 209.066 299.18 208.827 298.779 208.827Z" fill="black"/>
<path d="M165.844 45.2432C165.785 45.0576 165.756 44.8867 165.756 44.7305C165.756 44.2715 166.005 43.9199 166.503 43.6758C166.708 43.5781 166.879 43.5 167.016 43.4414C167.152 43.373 167.265 43.3242 167.353 43.2949C167.45 43.2559 167.528 43.2314 167.587 43.2217C167.646 43.2119 167.704 43.207 167.763 43.207C167.987 43.207 168.183 43.3193 168.349 43.5439C168.515 43.7588 168.661 44.0371 168.788 44.3789C168.925 44.7109 169.042 45.0723 169.14 45.4629C169.247 45.8438 169.354 46.2051 169.462 46.5469C169.579 46.8789 169.701 47.1572 169.828 47.3818C169.965 47.5967 170.126 47.7041 170.312 47.7041C170.517 47.7041 170.717 47.6113 170.912 47.4258C171.117 47.2305 171.303 46.9863 171.469 46.6934C171.635 46.4004 171.767 46.083 171.864 45.7412C171.972 45.3994 172.025 45.0723 172.025 44.7598C172.025 43.7637 171.835 42.875 171.454 42.0938C171.073 41.3027 170.58 40.6338 169.975 40.0869C169.369 39.54 168.681 39.125 167.909 38.8418C167.147 38.5488 166.386 38.4023 165.624 38.4023C164.716 38.4023 163.969 38.5098 163.383 38.7246C162.797 38.9395 162.333 39.252 161.991 39.6621C161.659 40.0625 161.425 40.5557 161.288 41.1416C161.161 41.7275 161.098 42.3916 161.098 43.1338C161.098 43.7002 161.205 44.2568 161.42 44.8037C161.635 45.3408 161.947 45.8389 162.357 46.2979C162.768 46.7568 163.271 47.1621 163.866 47.5137C164.462 47.8652 165.141 48.1289 165.902 48.3047C165.951 48.3242 165.99 48.334 166.02 48.334C166.049 48.334 166.088 48.334 166.137 48.334C166.293 48.334 166.415 48.2852 166.503 48.1875C166.601 48.0898 166.649 47.9678 166.649 47.8213C166.649 47.7725 166.645 47.7285 166.635 47.6895C166.625 47.6406 166.61 47.582 166.591 47.5137L165.844 45.2432ZM158.065 43.2363C158.065 43.1289 158.07 42.9971 158.08 42.8408C158.09 42.6846 158.095 42.5234 158.095 42.3574C158.095 42.2012 158.085 42.0449 158.065 41.8887C158.046 41.7324 158.007 41.5908 157.948 41.4639C157.899 41.3271 157.826 41.2148 157.729 41.127C157.631 41.0293 157.504 40.9707 157.348 40.9512C157.172 40.9316 157.025 40.8633 156.908 40.7461C156.801 40.6191 156.747 40.4678 156.747 40.292C156.747 40.0283 156.84 39.7695 157.025 39.5156C157.475 38.832 158.017 38.251 158.651 37.7725C159.296 37.2842 159.999 36.8887 160.761 36.5859C161.522 36.2832 162.323 36.0635 163.163 35.9268C164.003 35.7803 164.848 35.707 165.697 35.707C166.381 35.707 167.084 35.79 167.807 35.9561C168.529 36.1123 169.232 36.3516 169.916 36.6738C170.609 36.9961 171.264 37.3916 171.879 37.8604C172.494 38.3291 173.031 38.876 173.49 39.501C173.949 40.1162 174.311 40.8047 174.574 41.5664C174.848 42.3184 174.984 43.1436 174.984 44.042C174.984 44.7939 174.896 45.4824 174.721 46.1074C174.545 46.7324 174.296 47.2988 173.974 47.8066C173.661 48.3145 173.28 48.7686 172.831 49.1689C172.382 49.5596 171.884 49.8916 171.337 50.165C171.015 50.3018 170.854 50.5215 170.854 50.8242C170.854 50.8535 170.854 50.8877 170.854 50.9268C170.854 50.9561 170.858 50.9854 170.868 51.0146C170.868 51.0537 170.873 51.0879 170.883 51.1172C170.932 51.3809 170.995 51.7031 171.073 52.084C171.161 52.4746 171.244 52.875 171.322 53.2852C171.41 53.7051 171.483 54.1055 171.542 54.4863C171.601 54.877 171.63 55.2041 171.63 55.4678C171.63 56.0732 171.288 56.4541 170.604 56.6104C170.399 56.6592 170.204 56.6934 170.019 56.7129C169.833 56.7422 169.711 56.7568 169.652 56.7568C169.057 56.7568 168.715 56.4102 168.627 55.7168C168.539 55.043 168.427 54.3838 168.29 53.7393C168.163 53.0947 168.026 52.4502 167.88 51.8057C167.821 51.5811 167.738 51.4199 167.631 51.3223C167.533 51.2246 167.416 51.1758 167.279 51.1758H166.854C165.556 51.1758 164.369 50.9658 163.295 50.5459C162.221 50.1162 161.293 49.54 160.512 48.8174C159.74 48.085 159.14 47.2402 158.71 46.2832C158.28 45.3262 158.065 44.3105 158.065 43.2363Z" fill="black"/>
<path d="M244.893 52.6846C244.893 52.3623 244.878 51.9424 244.849 51.4248C244.829 50.9072 244.8 50.3359 244.761 49.7109C244.722 49.0859 244.678 48.4219 244.629 47.7188C244.58 47.0156 244.526 46.3174 244.468 45.624C244.409 44.9307 244.351 44.2617 244.292 43.6172C244.243 42.9629 244.194 42.3721 244.146 41.8447C244.067 41.0928 243.96 40.541 243.823 40.1895C243.687 39.8379 243.462 39.6621 243.149 39.6621C242.856 39.6621 242.661 39.7451 242.563 39.9111C242.476 40.0771 242.422 40.2822 242.402 40.5264C242.393 40.7705 242.388 41.0391 242.388 41.332C242.397 41.6152 242.354 41.8789 242.256 42.123C242.168 42.3672 241.997 42.5723 241.743 42.7383C241.489 42.9043 241.099 42.9873 240.571 42.9873C240.2 42.9873 239.883 42.8359 239.619 42.5332C239.355 42.2207 239.224 41.7715 239.224 41.1855C239.224 40.3652 239.468 39.623 239.956 38.959C240.435 38.2852 241.113 37.7139 241.992 37.2451C242.871 36.7666 243.931 36.3955 245.171 36.1318C246.411 35.8682 247.788 35.7363 249.302 35.7363C250.386 35.7363 251.387 35.8584 252.305 36.1025C253.223 36.3369 254.014 36.6689 254.678 37.0986C255.352 37.5186 255.879 38.0215 256.26 38.6074C256.641 39.1836 256.831 39.8135 256.831 40.4971C256.831 41.2686 256.606 42.0059 256.157 42.709C255.708 43.4121 255.088 44.0566 254.297 44.6426C253.516 45.2285 252.593 45.7412 251.528 46.1807C250.464 46.6104 249.321 46.9473 248.101 47.1914C247.759 47.25 247.588 47.46 247.588 47.8213C247.588 48.0654 247.603 48.373 247.632 48.7441C247.671 49.1055 247.705 49.4863 247.734 49.8867C247.773 50.2871 247.808 50.6826 247.837 51.0732C247.876 51.4639 247.896 51.8105 247.896 52.1133C247.896 52.6602 247.769 53.0508 247.515 53.2852C247.261 53.5195 246.885 53.6367 246.387 53.6367C245.918 53.6367 245.552 53.5537 245.288 53.3877C245.024 53.2314 244.893 52.9971 244.893 52.6846ZM253.799 40.9219C253.799 40.5898 253.657 40.2725 253.374 39.9697C253.091 39.667 252.71 39.3984 252.231 39.1641C251.753 38.9297 251.196 38.7441 250.562 38.6074C249.937 38.4707 249.277 38.4023 248.584 38.4023C248.242 38.4023 247.954 38.417 247.72 38.4463C247.495 38.4658 247.314 38.5049 247.178 38.5635C247.041 38.6221 246.943 38.7002 246.885 38.7979C246.836 38.8857 246.812 39.0029 246.812 39.1494C246.812 39.2471 246.826 39.4766 246.855 39.8379C246.885 40.1895 246.924 40.5996 246.973 41.0684C247.021 41.5371 247.07 42.0303 247.119 42.5479C247.178 43.0557 247.236 43.5146 247.295 43.9248C247.324 44.2275 247.363 44.4277 247.412 44.5254C247.471 44.623 247.559 44.6719 247.676 44.6719C248.008 44.6719 248.389 44.6182 248.818 44.5107C249.248 44.3936 249.688 44.2422 250.137 44.0566C250.596 43.8613 251.04 43.6416 251.47 43.3975C251.909 43.1436 252.3 42.8799 252.642 42.6064C252.993 42.3232 253.271 42.04 253.477 41.7568C253.691 41.4639 253.799 41.1855 253.799 40.9219ZM281.575 37.7432C281.761 37.5576 281.951 37.4648 282.146 37.4648C282.352 37.4648 282.532 37.5381 282.688 37.6846L283.509 38.2852C283.724 38.4707 283.831 38.6611 283.831 38.8564C283.831 39.0322 283.743 39.208 283.567 39.3838C283.265 39.6963 282.938 40.0381 282.586 40.4092C282.234 40.7803 281.888 41.1709 281.546 41.5811C281.204 41.9912 280.882 42.4062 280.579 42.8262C280.276 43.2461 280.022 43.6611 279.817 44.0713C279.729 44.1982 279.686 44.3398 279.686 44.4961C279.686 44.6816 279.778 44.877 279.964 45.082C280.159 45.2773 280.408 45.4775 280.711 45.6826C281.014 45.8877 281.355 46.0928 281.736 46.2979C282.127 46.4932 282.518 46.6787 282.908 46.8545C283.299 47.0303 283.675 47.1914 284.036 47.3379C284.397 47.4746 284.71 47.5869 284.974 47.6748C285.315 47.8018 285.486 47.9922 285.486 48.2461C285.486 48.3438 285.433 48.5049 285.325 48.7295C285.228 48.9541 285.096 49.1836 284.93 49.418C284.773 49.6426 284.603 49.8428 284.417 50.0186C284.231 50.1943 284.056 50.2822 283.89 50.2822C283.841 50.2822 283.787 50.2822 283.729 50.2822C283.68 50.2725 283.626 50.2529 283.567 50.2236C283.04 50.0381 282.513 49.8281 281.985 49.5938C281.468 49.3594 280.955 49.1104 280.447 48.8467C280.096 48.6611 279.69 48.4512 279.231 48.2168C278.772 47.9727 278.343 47.6992 277.942 47.3965C277.542 47.084 277.2 46.7471 276.917 46.3857C276.644 46.0146 276.507 45.6143 276.507 45.1846C276.507 44.8428 276.585 44.4668 276.741 44.0566C276.907 43.6465 277.122 43.2217 277.386 42.7822C277.659 42.3428 277.967 41.8984 278.309 41.4492C278.66 41 279.021 40.5557 279.393 40.1162C279.773 39.6768 280.149 39.2568 280.521 38.8564C280.901 38.4561 281.253 38.085 281.575 37.7432ZM293.083 45.873C292.81 45.873 292.585 45.7607 292.409 45.5361C292.233 45.3018 292.146 44.9648 292.146 44.5254C292.146 44.1348 292.321 43.8418 292.673 43.6465C293.024 43.4512 293.62 43.3145 294.46 43.2363C294.733 43.207 295.09 43.168 295.529 43.1191C295.979 43.0605 296.433 43.0068 296.892 42.958C297.36 42.8994 297.8 42.8506 298.21 42.8115C298.63 42.7725 298.957 42.7529 299.191 42.7529C299.553 42.7529 299.831 42.8604 300.026 43.0752C300.231 43.29 300.334 43.6709 300.334 44.2178C300.334 44.7842 299.772 45.126 298.649 45.2432C298.503 45.2627 298.283 45.292 297.99 45.3311C297.707 45.3604 297.385 45.3994 297.023 45.4482C296.662 45.4971 296.281 45.5459 295.881 45.5947C295.49 45.6436 295.114 45.6875 294.753 45.7266C294.392 45.7656 294.06 45.7998 293.757 45.8291C293.464 45.8584 293.239 45.873 293.083 45.873ZM310.816 50.0039C310.641 50.1895 310.45 50.2822 310.245 50.2822C310.06 50.2822 309.879 50.2139 309.703 50.0771L308.897 49.4766C308.683 49.2812 308.575 49.0908 308.575 48.9053C308.575 48.7197 308.663 48.5391 308.839 48.3633C309.142 48.0605 309.469 47.7236 309.82 47.3525C310.172 46.9717 310.519 46.5762 310.86 46.166C311.202 45.7559 311.524 45.3408 311.827 44.9209C312.13 44.501 312.384 44.0859 312.589 43.6758C312.638 43.5977 312.667 43.5244 312.677 43.4561C312.696 43.3877 312.706 43.3242 312.706 43.2656C312.706 43.0801 312.608 42.8848 312.413 42.6797C312.228 42.4746 311.983 42.2695 311.681 42.0645C311.378 41.8594 311.031 41.6592 310.641 41.4639C310.26 41.2588 309.874 41.0732 309.483 40.9072C309.093 40.7314 308.717 40.5752 308.355 40.4385C307.994 40.292 307.687 40.1748 307.433 40.0869C307.091 39.9502 306.92 39.7598 306.92 39.5156C306.92 39.418 306.969 39.2568 307.066 39.0322C307.174 38.8076 307.306 38.5781 307.462 38.3438C307.618 38.1094 307.789 37.9043 307.975 37.7285C308.17 37.5527 308.351 37.4648 308.517 37.4648C308.565 37.4648 308.614 37.4697 308.663 37.4795C308.722 37.4795 308.78 37.4941 308.839 37.5234C309.366 37.709 309.889 37.9189 310.406 38.1533C310.924 38.3877 311.441 38.6416 311.959 38.915C312.311 39.0908 312.711 39.3008 313.16 39.5449C313.619 39.7891 314.049 40.0625 314.449 40.3652C314.85 40.668 315.187 41.0049 315.46 41.376C315.743 41.7373 315.885 42.1377 315.885 42.5771C315.885 43.0947 315.709 43.6758 315.357 44.3203C315.016 44.9648 314.586 45.624 314.068 46.2979C313.561 46.9717 313.014 47.6309 312.428 48.2754C311.842 48.9199 311.305 49.4961 310.816 50.0039ZM345.697 45.2432C345.639 45.0576 345.609 44.8867 345.609 44.7305C345.609 44.2715 345.858 43.9199 346.356 43.6758C346.562 43.5781 346.732 43.5 346.869 43.4414C347.006 43.373 347.118 43.3242 347.206 43.2949C347.304 43.2559 347.382 43.2314 347.44 43.2217C347.499 43.2119 347.558 43.207 347.616 43.207C347.841 43.207 348.036 43.3193 348.202 43.5439C348.368 43.7588 348.515 44.0371 348.642 44.3789C348.778 44.7109 348.896 45.0723 348.993 45.4629C349.101 45.8438 349.208 46.2051 349.315 46.5469C349.433 46.8789 349.555 47.1572 349.682 47.3818C349.818 47.5967 349.979 47.7041 350.165 47.7041C350.37 47.7041 350.57 47.6113 350.766 47.4258C350.971 47.2305 351.156 46.9863 351.322 46.6934C351.488 46.4004 351.62 46.083 351.718 45.7412C351.825 45.3994 351.879 45.0723 351.879 44.7598C351.879 43.7637 351.688 42.875 351.308 42.0938C350.927 41.3027 350.434 40.6338 349.828 40.0869C349.223 39.54 348.534 39.125 347.763 38.8418C347.001 38.5488 346.239 38.4023 345.478 38.4023C344.569 38.4023 343.822 38.5098 343.236 38.7246C342.65 38.9395 342.187 39.252 341.845 39.6621C341.513 40.0625 341.278 40.5557 341.142 41.1416C341.015 41.7275 340.951 42.3916 340.951 43.1338C340.951 43.7002 341.059 44.2568 341.273 44.8037C341.488 45.3408 341.801 45.8389 342.211 46.2979C342.621 46.7568 343.124 47.1621 343.72 47.5137C344.315 47.8652 344.994 48.1289 345.756 48.3047C345.805 48.3242 345.844 48.334 345.873 48.334C345.902 48.334 345.941 48.334 345.99 48.334C346.146 48.334 346.269 48.2852 346.356 48.1875C346.454 48.0898 346.503 47.9678 346.503 47.8213C346.503 47.7725 346.498 47.7285 346.488 47.6895C346.479 47.6406 346.464 47.582 346.444 47.5137L345.697 45.2432ZM337.919 43.2363C337.919 43.1289 337.924 42.9971 337.934 42.8408C337.943 42.6846 337.948 42.5234 337.948 42.3574C337.948 42.2012 337.938 42.0449 337.919 41.8887C337.899 41.7324 337.86 41.5908 337.802 41.4639C337.753 41.3271 337.68 41.2148 337.582 41.127C337.484 41.0293 337.357 40.9707 337.201 40.9512C337.025 40.9316 336.879 40.8633 336.762 40.7461C336.654 40.6191 336.601 40.4678 336.601 40.292C336.601 40.0283 336.693 39.7695 336.879 39.5156C337.328 38.832 337.87 38.251 338.505 37.7725C339.149 37.2842 339.853 36.8887 340.614 36.5859C341.376 36.2832 342.177 36.0635 343.017 35.9268C343.856 35.7803 344.701 35.707 345.551 35.707C346.234 35.707 346.938 35.79 347.66 35.9561C348.383 36.1123 349.086 36.3516 349.77 36.6738C350.463 36.9961 351.117 37.3916 351.732 37.8604C352.348 38.3291 352.885 38.876 353.344 39.501C353.803 40.1162 354.164 40.8047 354.428 41.5664C354.701 42.3184 354.838 43.1436 354.838 44.042C354.838 44.7939 354.75 45.4824 354.574 46.1074C354.398 46.7324 354.149 47.2988 353.827 47.8066C353.515 48.3145 353.134 48.7686 352.685 49.1689C352.235 49.5596 351.737 49.8916 351.19 50.165C350.868 50.3018 350.707 50.5215 350.707 50.8242C350.707 50.8535 350.707 50.8877 350.707 50.9268C350.707 50.9561 350.712 50.9854 350.722 51.0146C350.722 51.0537 350.727 51.0879 350.736 51.1172C350.785 51.3809 350.849 51.7031 350.927 52.084C351.015 52.4746 351.098 52.875 351.176 53.2852C351.264 53.7051 351.337 54.1055 351.396 54.4863C351.454 54.877 351.483 55.2041 351.483 55.4678C351.483 56.0732 351.142 56.4541 350.458 56.6104C350.253 56.6592 350.058 56.6934 349.872 56.7129C349.687 56.7422 349.564 56.7568 349.506 56.7568C348.91 56.7568 348.568 56.4102 348.48 55.7168C348.393 55.043 348.28 54.3838 348.144 53.7393C348.017 53.0947 347.88 52.4502 347.733 51.8057C347.675 51.5811 347.592 51.4199 347.484 51.3223C347.387 51.2246 347.27 51.1758 347.133 51.1758H346.708C345.409 51.1758 344.223 50.9658 343.148 50.5459C342.074 50.1162 341.146 49.54 340.365 48.8174C339.594 48.085 338.993 47.2402 338.563 46.2832C338.134 45.3262 337.919 44.3105 337.919 43.2363Z" fill="black"/>
</svg>
